# Blender 3.3.1
# www.blender.org
mtllib Bed.mtl
o Cube
v -1.000000 0.205791 1.706454
v -1.000000 -0.205791 1.706454
v -1.000000 0.205791 -1.330038
v -1.000000 -0.205791 -1.330038
v 1.000000 0.205791 1.706454
v 1.000000 -0.205791 1.706454
v 1.000000 0.205791 -1.330038
v 1.000000 -0.205791 -1.330038
v -0.965124 0.205791 -1.277089
v -0.965124 0.205791 1.653504
v 0.965124 0.205791 -1.277089
v 0.965124 0.205791 1.653504
v -0.965124 0.587028 1.653504
v 0.965124 0.587028 1.653504
v -0.993535 0.245040 1.591776
v -0.993535 0.547779 1.591776
v 1.007328 0.244797 1.583742
v 1.007328 0.548022 1.583742
v -0.852132 0.250261 1.671878
v 0.852132 0.250261 1.671878
v -0.852132 0.542557 1.671878
v 0.852132 0.542557 1.671878
v -0.914632 0.623661 1.576844
v 0.914632 0.623661 1.576844
v -1.000000 0.205791 1.745135
v -1.000000 -0.205791 1.745135
v 1.000000 -0.205791 1.745135
v 1.000000 0.205791 1.745135
v -1.000000 1.328085 1.706454
v 1.000000 1.328085 1.706454
v -1.000000 1.328085 1.745135
v 1.000000 1.328085 1.745135
v 0.000000 0.205791 -1.330038
v 0.000000 -0.205791 -1.330038
v 0.000000 0.205791 1.706454
v 0.000000 -0.205791 1.706454
v 0.000000 0.205791 -1.277089
v 0.000000 0.205791 1.653504
v 1.000000 -0.150359 -0.973101
v 0.000000 0.587028 1.653504
v 1.000000 0.150359 -0.973101
v 1.000000 0.150359 -1.315866
v 0.000000 0.250261 1.671878
v 0.000000 0.542557 1.671878
v 1.000000 -0.150359 -1.315866
v 0.000000 0.623661 1.576844
v 0.000000 0.205791 1.745135
v 0.000000 -0.205791 1.745135
v 0.000000 1.328085 1.706454
v 0.000000 1.328085 1.745135
v 0.159710 0.672264 1.706454
v 0.840289 0.672264 1.706454
v 0.159710 1.209750 1.706454
v 0.840289 1.209750 1.706454
v -0.846889 1.204483 1.706454
v -0.846889 0.653872 1.706454
v -0.153111 0.653872 1.706454
v -0.153111 1.204483 1.706454
v 0.159710 0.672264 1.722596
v 0.840289 0.672264 1.722596
v 0.159710 1.209750 1.722596
v 0.840289 1.209750 1.722596
v -0.846889 1.204483 1.722596
v -0.846889 0.653872 1.722596
v -0.153111 0.653872 1.722596
v -0.153111 1.204483 1.722596
v -0.889674 -0.160383 -1.330038
v -0.889674 0.160383 -1.330038
v -0.110326 0.160383 -1.330038
v -0.110326 -0.160383 -1.330038
v 0.098502 -0.165250 -1.330038
v 0.901498 -0.165250 -1.330038
v 0.901498 0.165250 -1.330038
v 0.098502 0.165250 -1.330038
v -0.889674 -0.160383 -1.311312
v -0.889674 0.160383 -1.311312
v -0.110326 0.160383 -1.311312
v -0.110326 -0.160383 -1.311312
v 0.098502 -0.165250 -1.311312
v 0.901498 -0.165250 -1.311312
v 0.901498 0.165250 -1.311312
v 0.098502 0.165250 -1.311312
v -1.000000 0.205791 1.288235
v -1.000000 -0.205791 1.288235
v 1.000000 0.205791 1.288235
v 1.000000 -0.205791 1.288235
v -0.965124 0.205791 1.249871
v 0.965124 0.205791 1.249871
v -0.965124 0.587028 1.196066
v 0.965124 0.587028 1.196066
v -0.993535 0.245040 1.205146
v -0.993535 0.547779 1.205146
v 1.007328 0.244797 1.199326
v 1.007328 0.548022 1.199326
v -0.914632 0.623661 1.194327
v 0.914632 0.623661 1.194327
v 0.000000 0.623661 1.194327
v 0.000000 -0.205791 1.288235
v -0.000051 0.199265 -1.275056
v -0.991858 0.199265 -1.275056
v 0.991756 0.199265 1.246338
v 0.991756 0.199265 -1.275056
v -0.000051 0.591041 -1.275056
v -0.991858 0.591041 -1.275056
v 0.991756 0.591041 1.192652
v 0.991756 0.591041 -1.275056
v -1.021054 0.239598 -1.213463
v -1.021054 0.550708 -1.213463
v -0.000051 0.236452 -1.297605
v -0.928627 0.236452 -1.297605
v -0.000051 0.553854 -1.297605
v -0.928627 0.553854 -1.297605
v 0.928525 0.553854 -1.297605
v 0.928525 0.236452 -1.297605
v 1.035126 0.239349 1.195905
v 1.035126 0.239349 -1.205448
v 1.035126 0.550957 1.195905
v 1.035126 0.550957 -1.205448
v -0.000051 0.628688 -1.198564
v -0.939969 0.628688 -1.198564
v 0.939867 0.628688 1.190917
v 0.939867 0.628688 -1.198564
v -0.991858 0.199265 1.246338
v -0.991858 0.591041 1.192652
v -1.021054 0.239598 1.201712
v -1.021054 0.550708 1.201712
v -0.939969 0.628688 1.190917
v -0.000051 0.628688 1.190917
vn -1.0000 -0.0000 -0.0000
vn -0.0000 -0.0000 -1.0000
vn 1.0000 -0.0000 -0.0000
vn -0.0000 -1.0000 -0.0000
vn -0.0000 1.0000 -0.0000
vn 0.6787 -0.7344 -0.0000
vn -0.0000 0.9023 0.4312
vn -0.1605 -0.0000 0.9870
vn -0.8100 0.5864 -0.0000
vn -0.9084 -0.0000 0.4181
vn 0.0974 0.1800 0.9788
vn 0.8556 -0.0000 0.5176
vn 0.2372 -0.9715 -0.0000
vn -0.0000 -0.0000 1.0000
vn -0.0000 0.3819 0.9242
vn -0.0000 -0.3819 0.9242
vn 0.1605 -0.0000 0.9870
vn -0.0971 0.1796 0.9789
vn 0.5872 0.8094 -0.0000
vn -0.2357 0.6453 0.7267
vn -0.0000 0.5614 0.8275
vn -0.1238 -0.0000 0.9923
vn -0.0849 0.2795 0.9564
vn -0.0000 0.2973 0.9548
vn -0.2380 -0.9713 -0.0000
vn -0.5872 0.8094 -0.0000
vn 0.1221 -0.0000 0.9925
vn 0.6787 0.7344 -0.0000
vn 0.0988 0.1874 0.9773
vn 0.2361 0.6578 0.7153
vn -0.8100 -0.5864 -0.0000
vn 0.3359 -0.0000 -0.9419
vn -0.9036 -0.0000 -0.4283
vn -0.0000 0.5185 -0.8551
vn -0.3359 -0.0000 -0.9419
vn -0.0000 -0.5185 -0.8551
vn 0.8487 -0.0000 -0.5288
vn -0.0000 0.8972 -0.4416
vt 0.900827 0.018843
vt 0.287712 0.369835
vt 0.607276 0.758514
vt 0.250026 0.369835
vt 0.559701 0.758514
vt 0.607276 0.407522
vt 0.287712 0.018843
vt 0.378472 0.730825
vt 0.559701 0.407522
vt 0.426047 0.730825
vt 0.250026 0.018843
vt 0.148571 0.762772
vt 0.518895 0.369835
vt 0.900827 0.250026
vt 0.196146 0.762772
vt 0.018843 0.369835
vt 0.148571 0.411993
vt 0.378472 0.962008
vt 0.518895 0.018843
vt 0.426047 0.962008
vt 0.018843 0.018843
vt 0.196146 0.411993
vt 0.941604 0.310938
vt 0.291744 0.024964
vt 0.946091 0.733572
vt 0.774690 0.736662
vt 0.757729 0.340597
vt 0.291744 0.363715
vt 0.946091 0.956692
vt 0.241924 0.411993
vt 0.514864 0.024964
vt 0.185178 0.973782
vt 0.062911 0.857564
vt 0.774690 0.959781
vt 0.514864 0.363715
vt 0.801797 0.340597
vt 0.818641 0.736660
vt 0.340785 0.958824
vt 0.018843 0.857564
vt 0.818641 0.959779
vt 0.340785 0.735704
vt 0.762266 0.333464
vt 0.797260 0.333464
vt 0.180300 0.965718
vt 0.058402 0.849336
vt 0.023352 0.849336
vt 0.332717 0.730825
vt 0.779662 0.749721
vt 0.779662 0.946719
vt 0.813359 0.749719
vt 0.813359 0.946717
vt 0.331928 0.952987
vt 0.331928 0.741540
vt 0.604031 0.018849
vt 0.607276 0.762985
vt 0.250026 0.374306
vt 0.556582 0.018852
vt 0.559701 0.762985
vt 0.196146 0.767241
vt 0.556582 0.250034
vt 0.018843 0.374306
vt 0.148571 0.767241
vt 0.604031 0.250032
vt 0.737004 0.758514
vt 0.945107 0.407522
vt 0.771100 0.018843
vt 0.945107 0.638704
vt 0.018843 0.762772
vt 0.771100 0.250026
vt 0.733413 0.018843
vt 0.737004 0.762985
vt 0.940635 0.407522
vt 0.940635 0.638704
vt 0.018843 0.767241
vt 0.733413 0.250026
vt 0.403304 0.018843
vt 0.378472 0.846417
vt 0.426047 0.846417
vt 0.134435 0.018843
vt 0.403304 0.369835
vt 0.900827 0.134435
vt 0.134435 0.369835
vt 0.403304 0.024964
vt 0.946091 0.845132
vt 0.774690 0.848222
vt 0.403304 0.363715
vt 0.189739 0.453227
vt 0.818641 0.848220
vt 0.340785 0.847264
vt 0.154978 0.453227
vt 0.154978 0.413630
vt 0.779662 0.848220
vt 0.813359 0.848218
vt 0.189739 0.413630
vt 0.331928 0.847264
vt 0.604031 0.134441
vt 0.556582 0.134443
vt 0.134435 0.374306
vt 0.945107 0.523113
vt 0.771100 0.134435
vt 0.733413 0.134435
vt 0.940635 0.523113
vt 0.846907 0.152896
vt 0.235698 0.872280
vt 0.979291 0.118659
vt 0.846907 0.231565
vt 0.981157 0.018843
vt 0.235698 0.950949
vt 0.784778 0.152896
vt 0.979291 0.180787
vt 0.182166 0.883596
vt 0.784778 0.231565
vt 0.981157 0.080972
vt 0.182166 0.804927
vt 0.785387 0.036542
vt 0.841350 0.367915
vt 0.058396 0.958897
vt 0.849033 0.036542
vt 0.880902 0.287721
vt 0.058396 0.895251
vt 0.020709 0.895251
vt 0.849033 0.116736
vt 0.880902 0.367915
vt 0.020709 0.958897
vt 0.785387 0.116736
vt 0.841350 0.287721
vt 0.720043 0.287721
vt 0.233833 0.872280
vt 0.981155 0.118659
vt 0.979291 0.018843
vt 0.720043 0.366390
vt 0.233833 0.950949
vt 0.657914 0.287721
vt 0.981155 0.180787
vt 0.180300 0.883596
vt 0.979291 0.080972
vt 0.657914 0.366390
vt 0.180300 0.804927
vt 0.556582 0.287721
vt 0.839484 0.367915
vt 0.060260 0.958897
vt 0.620228 0.287721
vt 0.879036 0.287721
vt 0.060260 0.895251
vt 0.018843 0.895251
vt 0.620228 0.367915
vt 0.879036 0.367915
vt 0.018843 0.958897
vt 0.556582 0.367915
vt 0.839484 0.287721
vt 0.420798 0.743578
vt 0.142613 0.804927
vt 0.100598 0.932700
vt 0.102762 0.895013
vt 0.383721 0.743578
vt 0.100598 0.969777
vt 0.102762 0.804927
vt 0.383721 0.833664
vt 0.712519 0.968255
vt 0.420798 0.833664
vt 0.712519 0.931177
vt 0.142613 0.895013
vt 0.421361 0.857803
vt 0.712519 0.800671
vt 0.559701 0.931177
vt 0.421361 0.950622
vt 0.712519 0.893491
vt 0.637755 0.928444
vt 0.383158 0.950622
vt 0.235997 0.741774
vt 0.637755 0.966647
vt 0.383158 0.857803
vt 0.235997 0.834594
vt 0.559701 0.969380
vt 0.672668 0.800671
vt 0.140449 0.804927
vt 0.102761 0.932700
vt 0.100598 0.895013
vt 0.635590 0.800671
vt 0.102761 0.969777
vt 0.100598 0.804927
vt 0.710355 0.968255
vt 0.635590 0.890757
vt 0.710355 0.931177
vt 0.672668 0.890757
vt 0.140449 0.895013
vt 0.597904 0.800672
vt 0.710355 0.800671
vt 0.561864 0.931177
vt 0.597904 0.893491
vt 0.710355 0.893491
vt 0.635590 0.928444
vt 0.559701 0.893491
vt 0.233833 0.741774
vt 0.635590 0.966647
vt 0.559701 0.800672
vt 0.233833 0.834594
vt 0.561864 0.969380
vt 0.287712 0.321493
vt 0.607276 0.710171
vt 0.250026 0.321493
vt 0.559701 0.710171
vt 0.148571 0.714459
vt 0.518895 0.321493
vt 0.018843 0.321493
vt 0.196146 0.714459
vt 0.941604 0.018843
vt 0.858385 0.736946
vt 0.757729 0.293940
vt 0.291744 0.317058
vt 0.185178 0.927126
vt 0.241924 0.704088
vt 0.858385 0.960065
vt 0.514864 0.317058
vt 0.801797 0.287721
vt 0.902789 0.736947
vt 0.287909 0.958824
vt 0.287909 0.735704
vt 0.902789 0.960067
vt 0.863287 0.733665
vt 0.762266 0.288773
vt 0.898188 0.733663
vt 0.797260 0.288773
vt 0.180300 0.921283
vt 0.058402 0.804927
vt 0.863308 0.964947
vt 0.023352 0.804927
vt 0.288282 0.730825
vt 0.898265 0.964946
vt 0.907027 0.742784
vt 0.287712 0.952987
vt 0.287712 0.741540
vt 0.907027 0.954231
vt 0.287712 0.847264
vt 0.907027 0.848507
vt 0.134435 0.321493
vt 0.945322 0.845126
vt 0.509020 0.845470
vt 0.938514 0.310703
vt 0.945322 0.730482
vt 0.774690 0.407522
vt 0.509020 0.730825
vt 0.857663 0.963144
vt 0.238846 0.703679
vt 0.945322 0.959771
vt 0.509020 0.960114
vt 0.857663 0.692796
vt 0.238846 0.412228
vt 0.402357 0.407522
vt 0.463734 0.845470
vt 0.463734 0.730825
vt 0.287712 0.407522
vt 0.819976 0.407522
vt 0.903280 0.963146
vt 0.517001 0.692767
vt 0.902949 0.692796
vt 0.463734 0.960114
vt 0.517001 0.407522
vt 0.779352 0.414644
vt 0.815314 0.414644
vt 0.504721 0.845470
vt 0.504721 0.738134
vt 0.468032 0.845470
vt 0.468032 0.738134
vt 0.468032 0.952805
vt 0.504721 0.952805
vt 0.862709 0.968161
vt 0.862296 0.407522
vt 0.233833 0.697850
vt 0.862296 0.684929
vt 0.233833 0.420274
vt 0.898632 0.968159
vt 0.522014 0.693139
vt 0.898315 0.407522
vt 0.522014 0.415563
vt 0.898315 0.684929
vt 0.402357 0.416368
vt 0.293710 0.416368
vt 0.907635 0.957148
vt 0.511003 0.692571
vt 0.511003 0.416368
vt 0.938514 0.019252
vt 0.857663 0.733856
vt 0.774690 0.698973
vt 0.903280 0.733858
vt 0.287712 0.692767
vt 0.819976 0.692767
vt 0.862688 0.730484
vt 0.779352 0.693817
vt 0.898554 0.730482
vt 0.815314 0.693817
vt 0.907635 0.739855
vt 0.293710 0.692571
vt 0.907635 0.848502
vt 0.402357 0.692571
s 0
usemtl Material.001
f 83/200/1 3/6/1 4/9/1 84/202/1
f 34/78/2 71/163/2 72/166/2 8/20/2
f 85/203/3 5/12/3 6/15/3 86/206/3
f 36/82/4 48/98/4 26/56/4 2/4/4
f 35/80/5 38/86/5 10/28/5 1/2/5
f 98/236/4 36/82/4 2/4/4 84/201/4
f 88/211/6 93/224/6 17/44/6 12/32/6
f 33/76/5 37/83/5 11/31/5 7/19/5
f 83/199/5 87/210/5 9/24/5 3/7/5
f 85/204/5 88/214/5 12/35/5 5/13/5
f 40/89/7 46/95/7 23/52/7 13/38/7
f 10/26/8 19/48/8 21/50/8 13/37/8
f 89/215/9 92/223/9 16/43/9 13/36/9
f 13/36/10 16/43/10 15/42/10 10/27/10
f 7/17/3 42/91/3 45/94/3 8/22/3
f 86/206/3 39/87/3 41/90/3 85/203/3
f 85/203/3 41/90/3 42/91/3 7/17/3
f 42/91/3 41/90/3 39/87/3 45/94/3
f 93/225/3 94/227/3 18/46/3 17/45/3
f 90/219/11 105/254/11 121/279/11 96/233/11
f 12/33/12 17/45/12 18/46/12 14/39/12
f 87/207/13 123/282/13 100/239/13 9/23/13
f 43/92/14 44/93/14 21/50/14 19/48/14
f 40/88/15 44/93/15 22/51/15 14/40/15
f 38/85/16 43/92/16 19/48/16 10/26/16
f 14/40/17 22/51/17 20/49/17 12/34/17
f 97/234/5 46/95/5 24/53/5 96/232/5
f 95/230/18 127/292/18 124/285/18 89/216/18
f 90/218/19 96/232/19 24/53/19 14/41/19
f 91/220/20 125/288/20 123/283/20 87/208/20
f 47/96/14 25/54/14 26/57/14 48/97/14
f 5/12/3 28/62/3 27/59/3 6/15/3
f 2/5/1 26/58/1 25/55/1 1/3/1
f 49/100/2 53/109/2 51/103/2 35/81/2
f 49/99/5 50/102/5 32/73/5 30/67/5
f 5/12/3 30/68/3 32/74/3 28/62/3
f 47/96/14 50/101/14 31/70/14 25/54/14
f 25/55/1 31/71/1 29/64/1 1/3/1
f 28/63/14 32/75/14 50/101/14 47/96/14
f 29/65/5 31/72/5 50/102/5 49/99/5
f 35/81/2 57/122/2 58/125/2 49/100/2
f 28/63/14 47/96/14 48/97/14 27/60/14
f 97/235/21 128/294/21 127/292/21 95/230/21
f 95/231/5 23/52/5 46/95/5 97/234/5
f 12/34/16 20/49/16 43/92/16 38/85/16
f 13/37/15 21/50/15 44/93/15 40/88/15
f 20/49/14 22/51/14 44/93/14 43/92/14
f 92/222/22 126/290/22 125/288/22 91/220/22
f 89/216/23 124/285/23 126/290/23 92/222/23
f 37/84/24 99/237/24 102/245/24 11/29/24
f 14/41/7 24/53/7 46/95/7 40/89/7
f 3/7/5 9/24/5 37/83/5 33/76/5
f 86/205/4 6/16/4 36/82/4 98/236/4
f 5/13/5 12/35/5 38/86/5 35/80/5
f 6/16/4 27/61/4 48/98/4 36/82/4
f 3/8/2 68/155/2 67/151/2 4/10/2
f 57/121/1 65/145/1 66/148/1 58/124/1
f 5/14/2 52/106/2 54/112/2 30/69/2
f 35/81/2 51/103/2 52/106/2 5/14/2
f 30/69/2 54/112/2 53/109/2 49/100/2
f 52/107/1 60/130/1 62/136/1 54/113/1
f 49/100/2 58/125/2 55/115/2 29/66/2
f 29/66/2 55/115/2 56/118/2 1/1/2
f 1/1/2 56/118/2 57/122/2 35/81/2
f 59/127/2 61/133/2 62/137/2 60/131/2
f 64/142/2 63/139/2 66/149/2 65/146/2
f 51/104/5 59/128/5 60/132/5 52/108/5
f 56/119/5 64/143/5 65/147/5 57/123/5
f 53/110/3 61/134/3 59/129/3 51/105/3
f 54/114/4 62/138/4 61/135/4 53/111/4
f 58/126/4 66/150/4 63/140/4 55/116/4
f 55/117/3 63/141/3 64/144/3 56/120/3
f 69/157/4 77/181/4 76/178/4 68/154/4
f 4/10/2 67/151/2 70/160/2 34/78/2
f 33/77/2 69/158/2 68/155/2 3/8/2
f 34/78/2 70/160/2 69/158/2 33/77/2
f 70/161/1 78/184/1 77/182/1 69/159/1
f 8/20/2 72/166/2 73/169/2 7/18/2
f 33/77/2 74/172/2 71/163/2 34/78/2
f 7/18/2 73/169/2 74/172/2 33/77/2
f 76/179/2 77/183/2 78/185/2 75/175/2
f 82/196/2 81/193/2 80/190/2 79/187/2
f 73/170/4 81/194/4 82/197/4 74/173/4
f 71/164/5 79/188/5 80/191/5 72/167/5
f 67/152/5 75/176/5 78/186/5 70/162/5
f 74/174/3 82/198/3 79/189/3 71/165/3
f 68/156/3 76/180/3 75/177/3 67/153/3
f 72/168/1 80/192/1 81/195/1 73/171/1
f 8/21/4 86/205/4 98/236/4 34/79/4
f 11/30/25 102/248/25 101/244/25 88/212/25
f 13/38/26 23/52/26 95/231/26 89/217/26
f 93/226/27 115/267/27 117/272/27 94/229/27
f 9/25/24 100/240/24 99/237/24 37/84/24
f 14/41/28 18/47/28 94/228/28 90/218/28
f 94/229/29 117/272/29 105/254/29 90/219/29
f 88/213/30 101/243/30 115/267/30 93/226/30
f 15/42/1 16/43/1 92/223/1 91/221/1
f 10/27/31 15/42/31 91/221/31 87/209/31
f 7/19/5 11/31/5 88/214/5 85/204/5
f 1/2/5 10/28/5 87/210/5 83/199/5
f 96/233/21 121/279/21 128/294/21 97/235/21
f 34/79/4 98/236/4 84/201/4 4/11/4
f 8/22/3 45/94/3 39/87/3 86/206/3
f 1/3/1 83/200/1 84/202/1 2/5/1
f 123/284/31 125/289/31 107/259/31 100/241/31
f 102/246/32 114/266/32 113/265/32 106/257/32
f 125/289/1 126/291/1 108/260/1 107/259/1
f 100/241/33 107/259/33 108/260/33 104/253/33
f 109/261/2 111/263/2 113/265/2 114/266/2
f 103/250/34 111/263/34 112/264/34 104/251/34
f 104/251/35 112/264/35 110/262/35 100/242/35
f 99/238/36 109/261/36 114/266/36 102/246/36
f 106/256/37 118/276/37 116/270/37 102/247/37
f 105/255/28 117/273/28 118/275/28 106/258/28
f 103/249/38 119/277/38 122/281/38 106/258/38
f 124/286/26 127/293/26 120/278/26 104/252/26
f 104/252/38 120/278/38 119/277/38 103/249/38
f 100/242/36 110/262/36 109/261/36 99/238/36
f 106/257/34 113/265/34 111/263/34 103/250/34
f 110/262/2 112/264/2 111/263/2 109/261/2
f 120/278/5 127/293/5 128/295/5 119/277/5
f 106/258/19 122/281/19 121/280/19 105/255/19
f 119/277/5 128/295/5 121/280/5 122/281/5
f 116/270/3 118/276/3 117/274/3 115/268/3
f 104/253/9 108/260/9 126/291/9 124/287/9
f 102/248/6 116/271/6 115/269/6 101/244/6
