# Blender 3.3.1
# www.blender.org
mtllib Bed1.mtl
o Cube
v -1.000000 0.205791 1.706454
v -1.000000 -0.205791 1.706454
v -1.000000 0.205791 -1.330038
v -1.000000 -0.205791 -1.330038
v 1.000000 0.205791 1.706454
v 1.000000 -0.205791 1.706454
v 1.000000 0.205791 -1.330038
v 1.000000 -0.205791 -1.330038
v -0.965124 0.205791 -1.277089
v -0.965124 0.205791 1.653504
v 0.965124 0.205791 -1.277089
v 0.965124 0.205791 1.653504
v 0.989919 0.150359 -0.973101
v -0.965124 0.587028 1.653504
v 0.989919 0.064888 -1.070524
v 0.965124 0.587028 1.653504
v 0.989919 -0.150359 -0.973101
v -0.993535 0.245040 1.591776
v 0.989919 -0.064888 -1.070524
v -0.993535 0.547779 1.591776
v 1.000000 -0.001466 -1.070933
v 1.000000 0.065064 -1.070933
v 1.000000 0.065064 -1.136770
v 1.000000 -0.001466 -1.136770
v 1.007328 0.244797 1.583742
v 1.000000 0.064888 -1.218443
v 1.007328 0.548022 1.583742
v 1.000000 -0.064888 -1.218443
v -0.852132 0.250261 1.671878
v 0.852132 0.250261 1.671878
v -0.852132 0.542557 1.671878
v 0.852132 0.542557 1.671878
v 1.000000 0.064888 -1.070524
v -0.914632 0.623661 1.576844
v 1.000000 -0.064888 -1.070524
v 0.914632 0.623661 1.576844
v -1.000000 0.205791 1.745135
v -1.000000 -0.205791 1.745135
v 1.000000 -0.205791 1.745135
v 1.000000 0.205791 1.745135
v -1.000000 1.328085 1.706454
v 1.000000 1.328085 1.706454
v -1.000000 1.328085 1.745135
v 1.000000 1.328085 1.745135
v 0.000000 0.205791 -1.330038
v 0.000000 -0.205791 -1.330038
v 0.000000 0.205791 1.706454
v 0.000000 -0.205791 1.706454
v 0.000000 0.205791 -1.277089
v 0.000000 0.205791 1.653504
v 1.000000 -0.150359 -0.973101
v 0.000000 0.587028 1.653504
v 1.000000 0.150359 -0.973101
v 1.000000 0.150359 -1.315866
v 0.000000 0.250261 1.671878
v 0.000000 0.542557 1.671878
v 1.000000 -0.150359 -1.315866
v 0.000000 0.623661 1.576844
v 0.000000 0.205791 1.745135
v 0.000000 -0.205791 1.745135
v 0.000000 1.328085 1.706454
v 0.000000 1.328085 1.745135
v 0.159710 0.672264 1.706454
v 0.840289 0.672264 1.706454
v 0.159710 1.209750 1.706454
v 0.840289 1.209750 1.706454
v -0.846889 1.204483 1.706454
v -0.846889 0.653872 1.706454
v -0.153111 0.653872 1.706454
v -0.153111 1.204483 1.706454
v 0.159710 0.672264 1.722596
v 0.840289 0.672264 1.722596
v 0.159710 1.209750 1.722596
v 0.840289 1.209750 1.722596
v -0.846889 1.204483 1.722596
v -0.846889 0.653872 1.722596
v -0.153111 0.653872 1.722596
v -0.153111 1.204483 1.722596
v -0.889674 -0.160383 -1.330038
v -0.889674 0.160383 -1.330038
v -0.110326 0.160383 -1.330038
v -0.110326 -0.160383 -1.330038
v 0.098502 -0.165250 -1.330038
v 0.901498 -0.165250 -1.330038
v 0.901498 0.165250 -1.330038
v 0.098502 0.165250 -1.330038
v -0.889674 -0.160383 -1.311312
v -0.889674 0.160383 -1.311312
v -0.110326 0.160383 -1.311312
v -0.110326 -0.160383 -1.311312
v 0.098502 -0.165250 -1.311312
v 0.901498 -0.165250 -1.311312
v 0.901498 0.165250 -1.311312
v 0.098502 0.165250 -1.311312
v -1.000000 0.205791 1.288235
v -1.000000 -0.205791 1.288235
v 1.000000 0.205791 1.288235
v 1.000000 -0.205791 1.288235
v -0.965124 0.205791 1.249871
v 0.965124 0.205791 1.249871
v -0.965124 0.587028 1.196066
v 0.965124 0.587028 1.196066
v -0.993535 0.245040 1.205146
v -0.993535 0.547779 1.205146
v 1.007328 0.244797 1.199326
v 1.007328 0.548022 1.199326
v -0.914632 0.623661 1.194327
v 0.914632 0.623661 1.194327
v 0.000000 0.623661 1.194327
v 0.000000 -0.205791 1.288235
v -0.000051 0.199265 -1.275056
v -0.991858 0.199265 -1.275056
v 0.991756 0.199265 1.246338
v 0.991756 0.199265 -1.275056
v -0.000051 0.591041 -1.275056
v -0.991858 0.591041 -1.275056
v 0.991756 0.591041 1.192652
v 0.991756 0.591041 -1.275056
v -1.021054 0.239598 -1.213463
v -1.021054 0.550708 -1.213463
v -0.000051 0.236452 -1.297605
v -0.928627 0.236452 -1.297605
v -0.000051 0.553854 -1.297605
v -0.928627 0.553854 -1.297605
v 0.928525 0.553854 -1.297605
v 0.928525 0.236452 -1.297605
v 1.035126 0.239349 1.195905
v 1.035126 0.239349 -1.205448
v 1.035126 0.550957 1.195905
v 1.035126 0.550957 -1.205448
v -0.000051 0.628688 -1.198564
v -0.939969 0.628688 -1.198564
v 0.939867 0.628688 1.190917
v 0.939867 0.628688 -1.198564
v -0.991858 0.199265 1.246338
v -0.991858 0.591041 1.192652
v -1.021054 0.239598 1.201712
v -1.021054 0.550708 1.201712
v -0.939969 0.628688 1.190917
v -0.000051 0.628688 1.190917
v 0.989919 0.064888 -1.218443
v 0.989919 0.150359 -1.315866
v 0.989919 -0.150359 -1.315866
v 0.989919 -0.064888 -1.218443
v 1.007620 -0.001466 -1.070933
v 1.007620 0.065064 -1.070933
v 1.007620 -0.001466 -1.136770
v 1.007620 0.065064 -1.136770
vn -1.0000 -0.0000 -0.0000
vn -0.0000 -0.0000 -1.0000
vn 1.0000 -0.0000 -0.0000
vn -0.0000 -1.0000 -0.0000
vn -0.0000 1.0000 -0.0000
vn 0.6787 -0.7344 -0.0000
vn -0.0000 0.9023 0.4312
vn -0.1605 -0.0000 0.9870
vn -0.8100 0.5864 -0.0000
vn -0.9084 -0.0000 0.4181
vn -0.0000 -0.0000 1.0000
vn 0.0974 0.1800 0.9788
vn 0.8556 -0.0000 0.5176
vn 0.2372 -0.9715 -0.0000
vn -0.0000 0.3819 0.9242
vn -0.0000 -0.3819 0.9242
vn 0.1605 -0.0000 0.9870
vn -0.0971 0.1796 0.9789
vn 0.5872 0.8094 -0.0000
vn -0.2357 0.6453 0.7267
vn -0.0000 0.5614 0.8275
vn -0.1238 -0.0000 0.9923
vn -0.0849 0.2795 0.9564
vn -0.0000 0.2973 0.9548
vn -0.2380 -0.9713 -0.0000
vn -0.5872 0.8094 -0.0000
vn 0.1221 -0.0000 0.9925
vn 0.6787 0.7344 -0.0000
vn 0.0988 0.1874 0.9773
vn 0.2361 0.6578 0.7153
vn -0.8100 -0.5864 -0.0000
vn 0.3359 -0.0000 -0.9419
vn -0.9036 -0.0000 -0.4283
vn -0.0000 0.5185 -0.8551
vn -0.3359 -0.0000 -0.9419
vn -0.0000 -0.5185 -0.8551
vn 0.8487 -0.0000 -0.5288
vn -0.0000 0.8972 -0.4416
vn 1.0000 -0.0000 0.0002
vt 0.879870 0.018977
vt 0.281497 0.359923
vt 0.593261 0.738824
vt 0.243543 0.359924
vt 0.547047 0.738824
vt 0.593261 0.397877
vt 0.281497 0.018977
vt 0.371005 0.713274
vt 0.547047 0.397877
vt 0.417219 0.713274
vt 0.243543 0.018977
vt 0.144992 0.743072
vt 0.506063 0.359923
vt 0.879870 0.243543
vt 0.191205 0.743072
vt 0.018977 0.359924
vt 0.144992 0.402221
vt 0.371005 0.937841
vt 0.506063 0.018977
vt 0.417219 0.937841
vt 0.018977 0.018977
vt 0.191205 0.402221
vt 0.920826 0.302712
vt 0.285413 0.024922
vt 0.926386 0.716087
vt 0.799950 0.935675
vt 0.742100 0.332866
vt 0.285413 0.353978
vt 0.926386 0.932821
vt 0.237019 0.402221
vt 0.502147 0.024922
vt 0.626849 0.957579
vt 0.061783 0.836462
vt 0.799950 0.718941
vt 0.502147 0.353978
vt 0.172589 0.949316
vt 0.099737 0.823844
vt 0.963414 0.579584
vt 0.784906 0.332866
vt 0.757229 0.935677
vt 0.333051 0.934747
vt 0.109334 0.812908
vt 0.965472 0.936740
vt 0.964340 0.784257
vt 0.018977 0.836462
vt 0.757229 0.718943
vt 0.333051 0.718013
vt 0.133503 0.823844
vt 0.958780 0.353851
vt 0.963414 0.545818
vt 0.746507 0.325937
vt 0.965472 0.729694
vt 0.123906 0.812908
vt 0.965472 0.922198
vt 0.780499 0.325937
vt 0.909514 0.342844
vt 0.796894 0.981023
vt 0.321162 0.972701
vt 0.916984 0.342844
vt 0.964360 0.838774
vt 0.757229 0.981023
vt 0.321162 0.980156
vt 0.281497 0.980171
vt 0.916984 0.350234
vt 0.964360 0.831381
vt 0.757229 0.973631
vt 0.281497 0.972701
vt 0.909514 0.350234
vt 0.796894 0.973631
vt 0.622110 0.949746
vt 0.057404 0.828519
vt 0.922248 0.674969
vt 0.916964 0.359402
vt 0.964340 0.822211
vt 0.965472 0.767648
vt 0.023357 0.828519
vt 0.325215 0.713274
vt 0.922248 0.660397
vt 0.964340 0.713085
vt 0.902393 0.359402
vt 0.795097 0.922990
vt 0.795097 0.731630
vt 0.762343 0.922991
vt 0.762343 0.731631
vt 0.916964 0.342798
vt 0.964340 0.838820
vt 0.964340 0.936740
vt 0.965472 0.784257
vt 0.324447 0.929078
vt 0.964340 0.729694
vt 0.902393 0.342798
vt 0.964340 0.922198
vt 0.324447 0.723683
vt 0.590138 0.018981
vt 0.593261 0.743167
vt 0.243543 0.364267
vt 0.544017 0.018983
vt 0.547047 0.743167
vt 0.191205 0.747414
vt 0.544017 0.243549
vt 0.018977 0.364267
vt 0.144992 0.747414
vt 0.590138 0.243547
vt 0.719275 0.738824
vt 0.925460 0.397877
vt 0.753855 0.018977
vt 0.925460 0.622443
vt 0.018977 0.743072
vt 0.753855 0.243543
vt 0.715902 0.018977
vt 0.719275 0.743167
vt 0.921116 0.397877
vt 0.921116 0.622443
vt 0.018977 0.747414
vt 0.715902 0.243543
vt 0.393780 0.018977
vt 0.371005 0.825557
vt 0.417219 0.825557
vt 0.131260 0.018977
vt 0.393780 0.359923
vt 0.879870 0.131260
vt 0.131260 0.359924
vt 0.393780 0.024922
vt 0.926386 0.824454
vt 0.799950 0.827308
vt 0.393780 0.353978
vt 0.184981 0.442287
vt 0.959911 0.353851
vt 0.964546 0.545818
vt 0.757229 0.827310
vt 0.333051 0.826380
vt 0.171457 0.949316
vt 0.151216 0.442287
vt 0.964546 0.579584
vt 0.171457 0.910829
vt 0.151216 0.403812
vt 0.963414 0.651236
vt 0.795097 0.827309
vt 0.762343 0.827311
vt 0.963414 0.617538
vt 0.184981 0.403812
vt 0.959911 0.315364
vt 0.324447 0.826380
vt 0.590138 0.131264
vt 0.544017 0.131266
vt 0.131260 0.364267
vt 0.925460 0.510160
vt 0.753855 0.131260
vt 0.715902 0.131260
vt 0.921116 0.510160
vt 0.827493 0.149193
vt 0.101550 0.861797
vt 0.958780 0.217060
vt 0.827493 0.225610
vt 0.960592 0.118755
vt 0.101550 0.938215
vt 0.767143 0.149193
vt 0.958780 0.277410
vt 0.020789 0.950834
vt 0.767143 0.225610
vt 0.960592 0.179106
vt 0.020789 0.874416
vt 0.767734 0.036169
vt 0.824672 0.359402
vt 0.958780 0.080801
vt 0.829558 0.036169
vt 0.864439 0.281503
vt 0.958780 0.018977
vt 0.060556 0.874416
vt 0.829558 0.114068
vt 0.864439 0.359402
vt 0.060556 0.936240
vt 0.767734 0.114068
vt 0.824672 0.281503
vt 0.704146 0.281503
vt 0.099737 0.861797
vt 0.960592 0.217060
vt 0.958779 0.118755
vt 0.704146 0.357920
vt 0.099737 0.938215
vt 0.643795 0.281503
vt 0.960592 0.277410
vt 0.018977 0.950834
vt 0.958779 0.179106
vt 0.643795 0.357920
vt 0.018977 0.874416
vt 0.544017 0.281503
vt 0.822860 0.359402
vt 0.960592 0.080801
vt 0.605841 0.281503
vt 0.862626 0.281503
vt 0.960592 0.018977
vt 0.058743 0.874416
vt 0.605841 0.359402
vt 0.862626 0.359402
vt 0.058743 0.936240
vt 0.544017 0.359402
vt 0.822860 0.281503
vt 0.412120 0.725662
vt 0.173559 0.785368
vt 0.963414 0.471848
vt 0.231262 0.939534
vt 0.376104 0.725662
vt 0.963414 0.507864
vt 0.231262 0.852026
vt 0.376104 0.813170
vt 0.965516 0.433894
vt 0.412120 0.813170
vt 0.965516 0.397877
vt 0.173559 0.872875
vt 0.412667 0.836617
vt 0.698183 0.781121
vt 0.696081 0.909238
vt 0.412667 0.926780
vt 0.698183 0.871284
vt 0.549149 0.909238
vt 0.375557 0.926780
vt 0.231262 0.723909
vt 0.549149 0.946347
vt 0.375557 0.836617
vt 0.231262 0.814072
vt 0.696081 0.946347
vt 0.658127 0.781121
vt 0.171457 0.785368
vt 0.965516 0.471848
vt 0.229159 0.939534
vt 0.622110 0.781121
vt 0.965516 0.507864
vt 0.229159 0.852026
vt 0.963414 0.433894
vt 0.622110 0.868629
vt 0.963414 0.397877
vt 0.658127 0.868629
vt 0.171457 0.872875
vt 0.584156 0.781121
vt 0.696081 0.781121
vt 0.698183 0.909238
vt 0.584156 0.871284
vt 0.696081 0.871284
vt 0.547047 0.909238
vt 0.547047 0.871284
vt 0.229159 0.723909
vt 0.547047 0.946347
vt 0.547047 0.781121
vt 0.229159 0.814072
vt 0.698183 0.946347
vt 0.281497 0.312965
vt 0.593261 0.691865
vt 0.243543 0.312965
vt 0.547047 0.691865
vt 0.144992 0.696126
vt 0.506063 0.312965
vt 0.018977 0.312965
vt 0.191205 0.696126
vt 0.920826 0.018977
vt 0.839879 0.719363
vt 0.742100 0.287544
vt 0.285413 0.308657
vt 0.626849 0.912258
vt 0.237019 0.685956
vt 0.839879 0.936098
vt 0.502147 0.308657
vt 0.784906 0.281503
vt 0.882982 0.719365
vt 0.281689 0.934747
vt 0.281689 0.718013
vt 0.882982 0.936100
vt 0.844594 0.716176
vt 0.746507 0.282525
vt 0.878519 0.716175
vt 0.780499 0.282525
vt 0.622110 0.906582
vt 0.057404 0.785368
vt 0.844608 0.940839
vt 0.023357 0.785368
vt 0.282051 0.713274
vt 0.878588 0.940838
vt 0.887099 0.725035
vt 0.281497 0.929078
vt 0.281497 0.723683
vt 0.887099 0.930430
vt 0.281497 0.826380
vt 0.887099 0.827732
vt 0.131260 0.312965
vt 0.925640 0.824448
vt 0.499163 0.824638
vt 0.917824 0.302484
vt 0.925640 0.713085
vt 0.801219 0.680987
vt 0.499163 0.713274
vt 0.839173 0.939088
vt 0.234029 0.685559
vt 0.925640 0.935812
vt 0.499163 0.936001
vt 0.839173 0.675131
vt 0.234029 0.402449
vt 0.397730 0.675321
vt 0.455173 0.824638
vt 0.455173 0.713274
vt 0.509093 0.675321
vt 0.757229 0.680987
vt 0.883456 0.939090
vt 0.286367 0.398239
vt 0.883163 0.675131
vt 0.455173 0.936001
vt 0.286367 0.675321
vt 0.796690 0.674069
vt 0.761758 0.674069
vt 0.494987 0.824638
vt 0.494987 0.720374
vt 0.459348 0.824638
vt 0.459348 0.720374
vt 0.459348 0.928901
vt 0.494987 0.928901
vt 0.844022 0.943961
vt 0.843674 0.397877
vt 0.229159 0.679896
vt 0.843674 0.667433
vt 0.229159 0.410265
vt 0.878941 0.943960
vt 0.281497 0.397877
vt 0.878662 0.397877
vt 0.281497 0.667508
vt 0.878662 0.667433
vt 0.397730 0.666728
vt 0.503267 0.666728
vt 0.887686 0.933264
vt 0.292193 0.398430
vt 0.292193 0.666728
vt 0.917824 0.019374
vt 0.839173 0.716362
vt 0.801219 0.397877
vt 0.883456 0.716364
vt 0.509093 0.398239
vt 0.757229 0.403905
vt 0.844009 0.713086
vt 0.796690 0.402885
vt 0.878872 0.713085
vt 0.761758 0.402885
vt 0.887687 0.722190
vt 0.503267 0.398430
vt 0.887687 0.827727
vt 0.397730 0.398430
vt 0.921117 0.674969
vt 0.109334 0.796304
vt 0.964340 0.767648
vt 0.172589 0.910829
vt 0.964546 0.651236
vt 0.099737 0.785368
vt 0.964546 0.617538
vt 0.133503 0.785368
vt 0.958780 0.315364
vt 0.921117 0.660397
vt 0.965472 0.713085
vt 0.123906 0.796304
vt 0.971730 0.876774
vt 0.796039 0.981023
vt 0.320307 0.972701
vt 0.971730 0.884244
vt 0.758085 0.981023
vt 0.320307 0.980156
vt 0.282353 0.972701
vt 0.964340 0.876774
vt 0.796039 0.973631
vt 0.282353 0.980171
vt 0.964340 0.884244
vt 0.758085 0.973631
s 0
usemtl Material.001
f 95/248/1 3/6/1 4/9/1 96/250/1
f 46/118/2 83/211/2 84/214/2 8/20/2
f 97/251/3 5/12/3 6/15/3 98/254/3
f 48/122/4 60/146/4 38/96/4 2/4/4
f 47/120/5 50/126/5 10/28/5 1/2/5
f 110/284/4 48/122/4 2/4/4 96/249/4
f 100/259/6 105/272/6 25/70/6 12/32/6
f 45/116/5 49/123/5 11/31/5 7/19/5
f 95/247/5 99/258/5 9/24/5 3/7/5
f 97/252/5 100/262/5 12/35/5 5/13/5
f 52/131/7 58/143/7 34/89/7 14/41/7
f 28/78/2 144/353/2 141/344/2 26/72/2
f 10/26/8 29/81/8 31/83/8 14/40/8
f 53/132/4 13/36/4 142/347/4 54/135/4
f 35/90/4 19/52/4 144/354/4 28/79/4
f 28/80/3 24/68/3 21/56/3 35/91/3
f 101/263/9 104/271/9 20/55/9 14/39/9
f 14/39/10 20/55/10 18/51/10 10/27/10
f 7/17/3 54/136/3 57/141/3 8/22/3
f 98/254/3 51/127/3 53/133/3 97/251/3
f 97/251/3 53/133/3 54/136/3 7/17/3
f 54/137/11 142/348/11 143/350/11 57/140/11
f 105/273/3 106/275/3 27/76/3 25/71/3
f 102/267/12 117/302/12 133/327/12 108/281/12
f 12/33/13 25/71/13 27/76/13 16/45/13
f 99/255/14 135/330/14 112/287/14 9/23/14
f 55/138/11 56/139/11 31/83/11 29/81/11
f 52/130/15 56/139/15 32/84/15 16/46/15
f 50/125/16 55/138/16 29/81/16 10/26/16
f 16/46/17 32/84/17 30/82/17 12/34/17
f 109/282/5 58/143/5 36/93/5 108/280/5
f 107/278/18 139/340/18 136/333/18 101/264/18
f 102/266/19 108/280/19 36/93/19 16/47/19
f 103/268/20 137/336/20 135/331/20 99/256/20
f 59/144/11 37/94/11 38/97/11 60/145/11
f 5/12/3 40/102/3 39/99/3 6/15/3
f 2/5/1 38/98/1 37/95/1 1/3/1
f 61/148/2 65/157/2 63/151/2 47/121/2
f 61/147/5 62/150/5 44/113/5 42/107/5
f 5/12/3 42/108/3 44/114/3 40/102/3
f 59/144/11 62/149/11 43/110/11 37/94/11
f 37/95/1 43/111/1 41/104/1 1/3/1
f 40/103/11 44/115/11 62/149/11 59/144/11
f 41/105/5 43/112/5 62/150/5 61/147/5
f 47/121/2 69/170/2 70/173/2 61/148/2
f 40/103/11 59/144/11 60/145/11 39/100/11
f 109/283/21 140/342/21 139/340/21 107/278/21
f 107/279/5 34/89/5 58/143/5 109/282/5
f 12/34/16 30/82/16 55/138/16 50/125/16
f 14/40/15 31/83/15 56/139/15 52/130/15
f 30/82/11 32/84/11 56/139/11 55/138/11
f 104/270/22 138/338/22 137/336/22 103/268/22
f 101/264/23 136/333/23 138/338/23 104/270/23
f 49/124/24 111/285/24 114/293/24 11/29/24
f 16/47/7 36/93/7 58/143/7 52/131/7
f 3/7/5 9/24/5 49/123/5 45/116/5
f 98/253/4 6/16/4 48/122/4 110/284/4
f 5/13/5 12/35/5 50/126/5 47/120/5
f 6/16/4 39/101/4 60/146/4 48/122/4
f 3/8/2 80/203/2 79/199/2 4/10/2
f 69/169/1 77/193/1 78/196/1 70/172/1
f 5/14/2 64/154/2 66/160/2 42/109/2
f 47/121/2 63/151/2 64/154/2 5/14/2
f 42/109/2 66/160/2 65/157/2 61/148/2
f 64/155/1 72/178/1 74/184/1 66/161/1
f 61/148/2 70/173/2 67/163/2 41/106/2
f 41/106/2 67/163/2 68/166/2 1/1/2
f 1/1/2 68/166/2 69/170/2 47/121/2
f 71/175/2 73/181/2 74/185/2 72/179/2
f 76/190/2 75/187/2 78/197/2 77/194/2
f 63/152/5 71/176/5 72/180/5 64/156/5
f 68/167/5 76/191/5 77/195/5 69/171/5
f 65/158/3 73/182/3 71/177/3 63/153/3
f 66/162/4 74/186/4 73/183/4 65/159/4
f 70/174/4 78/198/4 75/188/4 67/164/4
f 67/165/3 75/189/3 76/192/3 68/168/3
f 81/205/4 89/229/4 88/226/4 80/202/4
f 4/10/2 79/199/2 82/208/2 46/118/2
f 45/117/2 81/206/2 80/203/2 3/8/2
f 46/118/2 82/208/2 81/206/2 45/117/2
f 82/209/1 90/232/1 89/230/1 81/207/1
f 8/20/2 84/214/2 85/217/2 7/18/2
f 45/117/2 86/220/2 83/211/2 46/118/2
f 7/18/2 85/217/2 86/220/2 45/117/2
f 88/227/2 89/231/2 90/233/2 87/223/2
f 94/244/2 93/241/2 92/238/2 91/235/2
f 85/218/4 93/242/4 94/245/4 86/221/4
f 83/212/5 91/236/5 92/239/5 84/215/5
f 79/200/5 87/224/5 90/234/5 82/210/5
f 86/222/3 94/246/3 91/237/3 83/213/3
f 80/204/3 88/228/3 87/225/3 79/201/3
f 84/216/1 92/240/1 93/243/1 85/219/1
f 8/21/4 98/253/4 110/284/4 46/119/4
f 11/30/25 114/296/25 113/292/25 100/260/25
f 14/41/26 34/89/26 107/279/26 101/265/26
f 105/274/27 127/315/27 129/320/27 106/277/27
f 9/25/24 112/288/24 111/285/24 49/124/24
f 16/47/28 27/77/28 106/276/28 102/266/28
f 106/277/29 129/320/29 117/302/29 102/267/29
f 100/261/30 113/291/30 127/315/30 105/274/30
f 18/51/1 20/55/1 104/271/1 103/269/1
f 10/27/31 18/51/31 103/269/31 99/257/31
f 7/19/5 11/31/5 100/262/5 97/252/5
f 1/2/5 10/28/5 99/258/5 95/247/5
f 108/281/21 133/327/21 140/342/21 109/283/21
f 46/119/4 110/284/4 96/249/4 4/11/4
f 8/22/3 57/141/3 51/127/3 98/254/3
f 1/3/1 95/248/1 96/250/1 2/5/1
f 135/332/31 137/337/31 119/307/31 112/289/31
f 114/294/32 126/314/32 125/313/32 118/305/32
f 137/337/1 138/339/1 120/308/1 119/307/1
f 112/289/33 119/307/33 120/308/33 116/301/33
f 121/309/2 123/311/2 125/313/2 126/314/2
f 115/298/34 123/311/34 124/312/34 116/299/34
f 116/299/35 124/312/35 122/310/35 112/290/35
f 111/286/36 121/309/36 126/314/36 114/294/36
f 118/304/37 130/324/37 128/318/37 114/295/37
f 117/303/28 129/321/28 130/323/28 118/306/28
f 115/297/38 131/325/38 134/329/38 118/306/38
f 136/334/26 139/341/26 132/326/26 116/300/26
f 116/300/38 132/326/38 131/325/38 115/297/38
f 112/290/36 122/310/36 121/309/36 111/286/36
f 118/305/34 125/313/34 123/311/34 115/298/34
f 122/310/2 124/312/2 123/311/2 121/309/2
f 132/326/5 139/341/5 140/343/5 131/325/5
f 118/306/19 134/329/19 133/328/19 117/303/19
f 131/325/5 140/343/5 133/328/5 134/329/5
f 128/318/3 130/324/3 129/322/3 127/316/3
f 116/301/9 120/308/9 138/339/9 136/335/9
f 114/296/6 128/319/6 127/317/6 113/292/6
f 23/63/2 148/365/2 147/362/2 24/67/2
f 26/73/3 23/64/3 24/68/3 28/80/3
f 35/91/39 21/56/39 22/59/39 33/85/39
f 33/86/1 22/60/1 23/65/1 26/74/1
f 143/351/3 144/355/3 19/53/3 17/48/3
f 17/48/3 19/53/3 15/42/3 13/37/3
f 13/37/3 15/42/3 141/345/3 142/349/3
f 142/349/3 141/345/3 144/355/3 143/351/3
f 33/87/11 15/43/11 19/54/11 35/92/11
f 26/75/5 141/346/5 15/44/5 33/88/5
f 57/142/5 143/352/5 17/49/5 51/128/5
f 51/129/2 17/50/2 13/38/2 53/134/2
f 148/366/3 146/359/3 145/356/3 147/363/3
f 22/61/5 146/360/5 148/367/5 23/66/5
f 24/69/4 147/364/4 145/357/4 21/57/4
f 21/58/11 145/358/11 146/361/11 22/62/11
