# Blender 3.3.1
# www.blender.org
mtllib Bloomcharcoal2.mtl
o Icosphere
v 0.041535 -0.115395 -0.012680
v 0.415374 0.181025 -0.478139
v 0.456445 0.208127 0.302727
v 0.046678 0.120121 0.560687
v -0.485788 0.120118 0.138505
v -0.248809 0.120118 -0.498358
v 0.344569 1.466889 -0.114781
v 0.140875 1.466889 0.432633
v -0.320301 1.671995 0.413223
v -0.465717 1.608413 -0.148885
v -0.184804 1.490446 -0.498604
v -0.117607 1.921181 0.060670
v 0.359965 -0.018878 0.105805
v 0.252621 -0.018878 -0.278912
v 0.444215 0.157384 -0.046601
v 0.079367 0.130282 -0.574456
v -0.146434 -0.018878 -0.295707
v 0.027248 -0.018876 0.326782
v 0.360394 0.130282 0.432753
v -0.285725 -0.018878 0.078629
v -0.270564 0.069375 0.413933
v -0.444247 0.069374 -0.208560
v 0.090952 1.089347 -0.518485
v -0.029736 1.310985 -0.523564
v 0.411493 1.150083 0.156086
v 0.460781 1.122980 -0.300943
v 0.015285 1.218459 0.553808
v 0.433321 1.122980 0.351507
v -0.376842 1.384054 0.335328
v -0.105403 1.440097 0.548728
v -0.318147 1.254942 -0.333727
v -0.462314 1.346682 0.004928
v 0.190809 1.381393 -0.368129
v 0.308863 1.510505 0.183537
v -0.272155 1.660380 0.485883
v -0.472037 1.657381 0.150671
v -0.258074 1.588738 -0.387022
v 0.147292 1.690996 -0.059739
v -0.272293 1.700189 -0.297295
v 0.009499 1.633866 0.272245
v -0.240785 1.800736 0.261711
v -0.365114 1.886772 -0.081305
v 0.260181 1.545387 0.247557
v 0.163500 1.520284 0.390917
v 0.098511 1.603602 0.304860
v 0.236157 1.670284 -0.043807
v 0.343127 1.548767 -0.073652
v 0.323766 1.572417 0.088105
v 0.106953 1.577252 -0.190536
v -0.079616 1.634488 -0.281975
v 0.112036 1.502557 -0.311290
v -0.146110 1.717151 -0.217941
v -0.089464 1.899171 -0.049360
v 0.035970 1.780820 -0.096788
v -0.023488 1.847471 0.076614
v 0.092895 1.737661 0.032608
v 0.040501 1.702829 0.183127
v 0.242671 1.428452 -0.302708
v 0.343083 1.404778 -0.174209
v 0.236005 1.526419 -0.144333
v 0.420384 1.207836 0.299610
v 0.279370 1.427221 0.343331
v 0.349970 1.445552 0.238643
v 0.470702 1.207836 0.164382
v 0.006152 1.619350 0.365348
v 0.054057 1.557935 0.428783
v -0.121162 1.640020 0.451373
v -0.095163 1.875493 0.176004
v -0.043187 1.758004 0.262521
v -0.145533 1.826241 0.258213
v 0.037272 1.797946 0.070181
v 0.083894 1.753956 0.052552
v 0.062906 1.740003 0.112850
vn 0.3191 -0.9435 -0.0890
vn 0.2780 -0.7821 -0.5577
vn 0.1833 -0.9435 0.2760
vn -0.2058 -0.9435 0.2596
vn -0.3105 -0.9435 -0.1155
vn 0.2678 0.0529 -0.9620
vn 0.9983 0.0413 -0.0409
vn 0.3771 0.0166 0.9260
vn -0.7901 -0.0273 0.6124
vn -0.8311 0.0298 -0.5553
vn 0.4928 0.1379 -0.8591
vn 0.9938 0.0308 -0.1067
vn -0.0323 0.0053 0.9995
vn -0.9684 0.0453 0.2454
vn -0.5593 0.0854 -0.8245
vn 0.4949 0.6802 -0.5407
vn 0.3123 0.9337 -0.1750
vn -0.4544 0.7822 0.4262
vn -0.9314 0.3555 -0.0778
vn -0.3951 0.5450 -0.7395
vn 0.2240 0.7831 -0.5802
vn -0.6184 0.4435 -0.6488
vn -0.6759 0.3953 -0.6220
vn -0.3167 0.8866 0.3372
vn -0.6135 0.6844 0.3940
vn -0.6037 0.7353 0.3080
vn 0.0141 0.0840 0.9964
vn 0.4598 0.7223 0.5166
vn 0.1892 0.9764 0.1045
vn 0.9048 0.1722 0.3895
vn 0.4413 0.8357 0.3270
vn 0.0941 0.8284 0.5521
vn 0.4758 0.2659 -0.8384
vn 0.2477 0.5388 -0.8052
vn 0.4054 0.7154 -0.5691
vn -0.7475 -0.6583 0.0890
vn -0.5446 -0.0358 -0.8379
vn -0.7521 0.0303 -0.6583
vn -0.9996 -0.0232 -0.0173
vn -0.9523 -0.1535 0.2637
vn -0.8661 0.0352 0.4986
vn -0.7724 -0.4596 0.4383
vn 0.7194 0.3784 -0.5825
vn 0.2638 0.3119 0.9128
vn 0.9547 -0.2919 0.0583
vn 0.5094 0.7210 0.4698
vn 0.9605 0.2677 0.0758
vn 0.6398 0.5217 -0.5644
vn 0.4694 0.2720 -0.8401
vn 0.3913 0.3119 -0.8658
vn -0.9189 -0.2086 -0.3347
vn -0.9133 0.0545 -0.4036
vn -0.9928 0.0060 -0.1197
vn -0.6029 -0.0959 0.7920
vn -0.6177 -0.0029 0.7864
vn -0.4143 -0.0395 0.9093
vn 0.4624 0.1888 0.8663
vn 0.4428 0.0408 0.8957
vn 0.8074 -0.0110 0.5898
vn 0.9571 0.2764 0.0868
vn 0.9942 0.0110 0.1066
vn 0.9970 -0.0352 -0.0686
vn 0.4369 0.2577 0.8618
vn 0.1443 0.0559 -0.9880
vn -0.2265 0.0210 -0.9738
vn -0.3652 -0.8434 -0.3940
vn -0.3134 -0.9424 -0.1166
vn -0.5588 -0.8276 0.0541
vn -0.5040 -0.8293 0.2411
vn -0.2044 -0.9443 0.2578
vn -0.1018 -0.8515 0.5144
vn 0.2247 -0.8458 0.4839
vn 0.2656 -0.8773 0.3999
vn 0.7921 -0.5557 0.2525
vn -0.0966 -0.8429 -0.5293
vn 0.0193 -0.8880 -0.4595
vn 0.0139 -0.9435 -0.3310
vn 0.9110 -0.4114 0.0279
vn 0.7918 -0.5695 -0.2209
vn 0.7290 -0.6791 -0.0859
vn 0.4373 0.7883 0.4329
vn -0.0780 0.6677 0.7403
vn 0.8171 0.0976 0.5682
vn 0.7497 0.6617 -0.0070
vn 0.9911 -0.0455 0.1253
vn 0.2565 0.4375 -0.8619
vn 0.4571 0.7649 -0.4539
vn 0.4062 0.7031 -0.5836
vn 0.3944 0.7101 -0.5832
vn 0.2858 0.6018 -0.7458
vn 0.6594 0.7513 -0.0265
vn -0.0894 0.8079 -0.5825
vn 0.9336 0.0919 0.3463
vn 0.4012 0.6516 0.6438
vn 0.6525 0.7561 -0.0505
vn 0.6451 0.6617 -0.3822
vn 0.4976 0.5934 -0.6326
vn -0.3061 -0.8864 0.3473
vn 0.7413 0.3642 0.5637
vn 0.8798 0.3446 0.3274
vn 0.6442 0.3443 0.6830
vn 0.5213 0.3286 -0.7875
vn 0.4267 0.7891 0.4418
vn 0.2494 0.2771 0.9279
vn 0.7136 0.6883 0.1307
vn 0.4074 0.6515 0.6400
vn -0.2239 0.8904 0.3963
vn 0.9209 0.3889 -0.0252
vn 0.7064 0.5949 0.3836
vn 0.5726 0.6351 0.5185
vn 0.5690 0.7437 -0.3508
vt 0.181819 0.000000
vt 0.909091 0.000000
vt 0.727273 0.000000
vt 0.545455 0.000000
vt 0.363637 0.000000
vt 0.272728 0.157461
vt 1.000000 0.157461
vt 0.090910 0.157461
vt 0.818182 0.157461
vt 0.636364 0.157461
vt 0.454546 0.157461
vt 0.181819 0.314921
vt 0.000000 0.314921
vt 0.909091 0.314921
vt 0.727273 0.314921
vt 0.545455 0.314921
vt 0.363637 0.314921
vt 0.454546 0.472382
vt 0.090910 0.472382
vt 0.636364 0.472382
vt 0.818182 0.472382
vt 0.954545 0.078731
vt 0.136365 0.078731
vt 0.318182 0.078731
vt 0.227273 0.078731
vt 0.181819 0.157461
vt 0.363637 0.157461
vt 0.500000 0.078731
vt 0.409092 0.078731
vt 0.772727 0.078731
vt 0.863636 0.078731
vt 0.909091 0.157461
vt 0.590909 0.078731
vt 0.681818 0.078731
vt 0.727273 0.157461
vt 0.545455 0.157461
vt 0.318182 0.236191
vt 0.409092 0.236191
vt 0.136365 0.236191
vt 0.227273 0.236191
vt 0.863636 0.236191
vt 0.045455 0.236191
vt 0.954545 0.236191
vt 0.681818 0.236191
vt 0.772727 0.236191
vt 0.500000 0.236191
vt 0.590909 0.236191
vt 0.272728 0.314921
vt 0.090910 0.314921
vt 0.818182 0.314921
vt 0.636364 0.314921
vt 0.454546 0.314921
vt 0.136365 0.393651
vt 0.227273 0.393651
vt 0.318182 0.393651
vt 0.409092 0.393651
vt 0.045455 0.393651
vt 0.863636 0.393651
vt 0.772727 0.393651
vt 0.681818 0.393651
vt 0.500000 0.393651
vt 0.590909 0.393651
vt 0.090910 0.314921
vt 0.909091 0.314921
vt 0.000000 0.314921
vt 0.045455 0.393651
vt 0.863636 0.393651
vt 0.136365 0.393651
vt 0.227273 0.393651
vt 0.181819 0.314921
vt 0.090910 0.314921
vt 0.227273 0.393651
vt 0.318182 0.393651
vt 0.272728 0.314921
vt 0.318182 0.393651
vt 0.409092 0.393651
vt 0.272728 0.472382
vt 0.090910 0.472382
vt 0.454546 0.472382
vt 0.227273 0.393651
vt 0.136365 0.393651
vt 0.818182 0.472382
vt 0.090910 0.472382
vt 0.136365 0.393651
vt 0.045455 0.393651
vt 0.863636 0.393651
vt 0.272728 0.314921
vt 0.181819 0.314921
vt 0.227273 0.393651
vt 0.045455 0.236191
vt 0.954545 0.236191
vt 0.000000 0.314921
vt 0.909091 0.314921
vt 0.090910 0.314921
vt 0.136365 0.236191
vt 0.863636 0.393651
vt 0.909091 0.314921
vt 0.818182 0.314921
vt 0.636364 0.472382
vt 0.818182 0.472382
vt 0.863636 0.393651
vt 0.772727 0.393651
vt 0.681818 0.393651
vt 0.818182 0.472382
vt 0.090910 0.472382
vt 0.136365 0.393651
vt 0.045455 0.393651
vt 0.863636 0.393651
s 0
usemtl Material.003
f 1/1/1 14/25/1 13/23/1
f 2/6/2 14/24/2 16/27/2
f 1/2/3 13/22/3 18/31/3
f 1/3/4 18/30/4 20/34/4
f 1/4/5 20/33/5 17/28/5
f 2/6/6 16/27/6 23/37/6
f 3/8/7 15/26/7 25/39/7
f 4/9/8 19/32/8 27/41/8
f 5/10/9 21/35/9 29/44/9
f 6/11/10 22/36/10 31/46/10
f 2/6/11 23/37/11 26/40/11
f 3/8/12 25/39/12 28/42/12
f 4/9/13 27/41/13 30/45/13
f 5/10/14 29/44/14 32/47/14
f 6/11/15 31/46/15 24/38/15
f 33/48/16 38/54/16 60/89/16 58/87/16
f 34/49/17 40/57/17 45/66/17 43/63/17
f 9/15/18 35/50/18 41/59/18
f 10/16/19 36/51/19 42/62/19
f 11/17/20 37/52/20 39/56/20
f 39/56/21 42/61/21 12/18/21
f 39/56/22 37/52/22 42/61/22
f 37/52/23 10/16/23 42/61/23
f 42/62/24 41/60/24 12/20/24
f 42/62/25 36/51/25 41/60/25
f 36/51/26 9/15/26 41/60/26
f 41/59/27 40/58/27 69/101/27 70/102/27
f 41/59/28 35/50/28 40/58/28
f 40/58/29 35/50/29 67/98/29 65/96/29
f 40/57/30 38/53/30 56/84/30 57/85/30
f 40/57/31 34/49/31 38/53/31
f 38/53/32 34/49/32 48/71/32 46/68/32
f 38/54/33 39/55/33 52/75/33 54/80/33
f 33/48/34 39/55/34 50/73/34 51/74/34
f 33/48/35 11/17/35 39/55/35
f 24/38/36 37/52/36 11/17/36
f 24/38/37 31/46/37 37/52/37
f 31/46/38 10/16/38 37/52/38
f 32/47/39 36/51/39 10/16/39
f 32/47/40 29/44/40 36/51/40
f 29/44/41 9/15/41 36/51/41
f 30/45/42 35/50/42 9/15/42
f 30/45/43 27/41/43 35/50/43
f 27/41/44 8/14/44 35/50/44
f 28/42/45 25/39/45 64/95/45 61/90/45
f 34/49/46 8/13/46 62/92/46 63/94/46
f 25/39/47 7/12/47 34/49/47
f 26/40/48 33/48/48 7/12/48
f 26/40/49 23/37/49 33/48/49
f 23/37/50 11/17/50 33/48/50
f 31/46/51 32/47/51 10/16/51
f 31/46/52 22/36/52 32/47/52
f 22/36/53 5/10/53 32/47/53
f 29/44/54 30/45/54 9/15/54
f 29/44/55 21/35/55 30/45/55
f 21/35/56 4/9/56 30/45/56
f 27/41/57 28/43/57 8/14/57
f 27/41/58 19/32/58 28/43/58
f 19/32/59 3/7/59 28/43/59
f 25/39/60 26/40/60 7/12/60
f 25/39/61 15/26/61 26/40/61
f 15/26/62 2/6/62 26/40/62
f 23/37/63 24/38/63 11/17/63
f 23/37/64 16/27/64 24/38/64
f 16/27/65 6/11/65 24/38/65
f 17/28/66 22/36/66 6/11/66
f 17/28/67 20/33/67 22/36/67
f 20/33/68 5/10/68 22/36/68
f 20/34/69 21/35/69 5/10/69
f 20/34/70 18/30/70 21/35/70
f 18/30/71 4/9/71 21/35/71
f 18/31/72 19/32/72 4/9/72
f 18/31/73 13/22/73 19/32/73
f 13/22/74 3/7/74 19/32/74
f 16/27/75 17/29/75 6/11/75
f 16/27/76 14/24/76 17/29/76
f 14/24/77 1/5/77 17/29/77
f 13/23/78 15/26/78 3/8/78
f 13/23/79 14/25/79 15/26/79
f 14/25/80 2/6/80 15/26/80
f 44/65/81 43/63/81 45/66/81
f 40/58/82 8/14/82 44/64/82 45/67/82
f 8/13/83 34/49/83 43/63/83 44/65/83
f 48/71/84 47/70/84 46/68/84
f 34/49/85 7/12/85 47/70/85 48/71/85
f 7/12/86 38/54/86 46/69/86 47/70/86
f 49/72/87 51/74/87 50/73/87
f 38/54/88 33/48/88 51/74/88 49/72/88
f 39/55/89 38/54/89 49/72/89 50/73/89
f 54/80/90 52/75/90 53/77/90
f 12/19/91 38/53/91 54/81/91 53/78/91
f 39/56/92 12/18/92 53/79/92 52/76/92
f 57/85/93 56/84/93 72/106/93 73/107/93
f 12/21/94 40/58/94 57/86/94 55/82/94
f 38/53/95 12/19/95 55/83/95 56/84/95
f 59/88/96 58/87/96 60/89/96
f 38/54/97 7/12/97 59/88/97 60/89/97
f 7/12/98 33/48/98 58/87/98 59/88/98
f 61/90/99 63/94/99 62/92/99
f 61/90/100 64/95/100 63/94/100
f 8/14/101 28/43/101 61/91/101 62/93/101
f 25/39/102 34/49/102 63/94/102 64/95/102
f 67/98/103 66/97/103 65/96/103
f 35/50/104 8/14/104 66/97/104 67/98/104
f 8/14/105 40/58/105 65/96/105 66/97/105
f 70/102/106 69/101/106 68/100/106
f 12/20/107 41/60/107 70/103/107 68/99/107
f 40/58/108 12/21/108 68/100/108 69/101/108
f 73/107/109 72/106/109 71/105/109
f 55/82/110 57/86/110 73/108/110 71/104/110
f 56/84/111 55/83/111 71/105/111 72/106/111
