# Blender 3.3.1
# www.blender.org
mtllib Blower.mtl
o Cube
v 0.871742 0.796203 -1.565994
v 0.881837 0.013499 -1.654804
v 0.765665 0.355917 1.145634
v 0.762367 0.006345 1.144445
v 0.000000 -0.004004 -1.818071
v 0.000000 -0.079533 0.931428
v 1.458832 0.687091 -1.054377
v 1.458832 0.013499 -1.083825
v 1.437212 0.409400 0.629281
v 1.435175 0.051069 0.630084
v 0.000000 0.009023 1.770141
v 0.000000 0.320455 1.699028
v 0.116892 0.313859 1.667974
v 0.099097 0.043271 1.743076
v 0.000000 0.083409 2.830343
v 0.000000 0.167511 2.830343
v 0.032745 0.155805 2.832208
v 0.032181 0.100168 2.830935
v 0.000000 -0.123743 -0.172281
v 0.870847 -0.006977 -1.559840
v 1.625263 0.516411 -0.010187
v 1.628783 0.031017 -0.018268
v 0.869615 0.590514 -1.456015
v 0.879289 0.347659 -1.527227
v 0.875432 0.225878 -1.449659
v 0.805239 0.277134 1.043418
v 0.803534 0.188771 1.061214
v 0.808703 0.116725 1.038171
v 0.000000 0.701504 -1.593437
v 0.000000 0.296388 -1.695647
v 0.000000 0.167635 -1.604926
v 1.358729 0.482162 -0.961890
v 1.401546 0.374279 -1.010408
v 1.358729 0.200058 -0.974222
v 1.340401 0.298199 0.530742
v 1.381077 0.243706 0.568381
v 1.340401 0.159442 0.534071
v 0.208967 0.237570 1.650402
v 0.215514 0.162896 1.662600
v 0.200874 0.122191 1.677731
v 0.000000 0.104435 2.830343
v 0.000000 0.125460 2.830343
v 0.000000 0.146485 2.830343
v 0.032604 0.141896 2.831889
v 0.032463 0.127987 2.831571
v 0.032322 0.114077 2.831253
v 1.502568 0.394255 0.000007
v 1.556392 0.227758 -0.013048
v 1.502568 0.180264 -0.004884
v 0.083319 0.065259 1.896653
v 0.000000 0.021319 1.876288
v 0.089964 0.288893 1.897435
v 0.000000 0.308717 1.877772
v 0.142902 0.097939 1.899604
v 0.174240 0.134395 1.902122
v 0.163582 0.244098 1.897735
v 0.755650 0.375830 1.060220
v 0.000000 0.985559 -1.710496
v 0.861423 0.790259 -1.457952
v 1.539833 0.519641 0.004016
v 1.368634 0.426522 0.588758
v 1.388195 0.677690 -0.948972
v 0.154404 0.336945 1.627312
v 0.000000 0.342967 1.655663
v 0.758108 0.393884 1.063497
v 0.000000 0.535463 0.939778
v 0.831151 0.661820 -0.027289
v 0.000000 0.813124 -0.084996
v 0.000000 1.000810 -1.707780
v 0.863881 0.808313 -1.454675
v 1.542290 0.537695 0.007293
v 1.371092 0.444576 0.592036
v 1.390653 0.695744 -0.945695
v 0.156862 0.354999 1.630589
v 0.000000 0.361021 1.658940
v 0.869364 0.012070 -1.560455
v 0.000000 -0.000361 -1.694710
v 0.756226 0.005295 1.090458
v 1.576728 0.028659 -0.010641
v 1.415784 0.012070 -1.019732
v 1.393380 0.047649 0.603353
v 0.000000 0.007831 1.682997
v 0.128103 0.040264 1.657366
v 0.000000 -0.019408 -1.694096
v 0.757708 -0.013752 1.091072
v 0.836013 -0.009378 -0.072179
v 1.578211 0.009612 -0.010027
v 1.417266 -0.006977 -1.019118
v 1.394863 0.028602 0.603968
v 0.000000 -0.011216 1.683611
v 0.129586 0.021217 1.657980
v 0.146629 0.951646 -1.845232
v 0.000000 0.837054 -1.846687
v 0.133333 0.854695 -1.845353
v 0.000000 1.265635 -2.794898
v 0.126758 1.217365 -2.783007
v -0.004071 1.102865 -2.825870
v 0.131918 1.117297 -2.797510
v 0.877179 0.726585 -1.552474
v -0.871742 0.796203 -1.565994
v -0.881837 0.013499 -1.654804
v -0.765665 0.355917 1.145634
v -0.762367 0.006345 1.144445
v -1.458832 0.687091 -1.054377
v -1.458832 0.013499 -1.083825
v -1.437212 0.409400 0.629281
v -1.435175 0.051069 0.630084
v -0.116892 0.313859 1.667974
v -0.099097 0.043271 1.743076
v -0.032745 0.155805 2.832208
v -0.032181 0.100168 2.830935
v -0.870847 -0.006977 -1.559840
v -1.625263 0.516411 -0.010187
v -1.628783 0.031017 -0.018268
v -0.869615 0.590514 -1.456015
v -0.882012 0.356157 -1.511630
v -0.881888 0.199573 -1.468050
v -0.805239 0.277134 1.043418
v -0.802720 0.222369 1.061951
v -0.808703 0.116725 1.038171
v -1.358729 0.482162 -0.961890
v -1.401546 0.374279 -1.010408
v -1.358729 0.200058 -0.974222
v -1.340401 0.298199 0.530742
v -1.383335 0.230557 0.567872
v -1.340401 0.159442 0.534071
v -0.208967 0.237570 1.650402
v -0.215514 0.162896 1.662600
v -0.200874 0.122191 1.677731
v -0.032604 0.141896 2.831889
v -0.032463 0.127987 2.831571
v -0.032322 0.114077 2.831253
v -1.502568 0.394255 0.000007
v -1.555947 0.243119 -0.013783
v -1.502568 0.180264 -0.004884
v -0.083319 0.065259 1.896653
v -0.089964 0.288893 1.897435
v -0.142902 0.097939 1.899604
v -0.174240 0.134395 1.902122
v -0.163582 0.244098 1.897735
v -0.755650 0.375830 1.060220
v -0.861423 0.790259 -1.457952
v -1.539833 0.519641 0.004016
v -1.368634 0.426522 0.588758
v -1.388195 0.677690 -0.948972
v -0.154404 0.336945 1.627312
v -0.758108 0.393884 1.063497
v -0.831151 0.661820 -0.027289
v -0.863881 0.808313 -1.454675
v -1.542290 0.537695 0.007293
v -1.371092 0.444576 0.592036
v -1.390653 0.695744 -0.945695
v -0.156862 0.354999 1.630589
v -0.869364 0.012070 -1.560455
v -0.756226 0.005295 1.090458
v -1.576728 0.028659 -0.010641
v -1.415784 0.012070 -1.019732
v -1.393380 0.047649 0.603353
v -0.128103 0.040264 1.657366
v -0.757708 -0.013752 1.091072
v -0.836013 -0.009378 -0.072179
v -1.578211 0.009612 -0.010027
v -1.417266 -0.006977 -1.019118
v -1.394863 0.028602 0.603968
v -0.129586 0.021217 1.657980
v -0.146629 0.951646 -1.845232
v -0.133333 0.854695 -1.845353
v -0.124654 1.219030 -2.781737
v -0.128166 1.126276 -2.793647
v -0.877179 0.726585 -1.552474
vn 0.2087 0.9777 0.0223
vn 0.6108 -0.7883 0.0745
vn 0.9312 0.3504 -0.1000
vn 0.0520 -0.9976 0.0464
vn 0.2572 0.8961 0.3617
vn 0.0576 -0.7882 -0.6127
vn 0.7081 -0.7003 0.0904
vn 0.4591 0.6558 0.5993
vn 0.5592 -0.4718 -0.6817
vn 0.0466 -0.9989 0.0090
vn 0.4562 -0.8880 0.0580
vn -0.0345 -0.9991 0.0234
vn 0.0761 0.9857 0.1501
vn 0.6719 -0.0017 0.7406
vn -0.0543 -0.0089 0.9985
vn 0.6163 0.7713 0.1592
vn 0.2219 0.9639 0.1468
vn 0.8902 -0.4222 -0.1709
vn 0.0746 -0.9972 0.0109
vn 0.7803 -0.5934 -0.1972
vn 0.0950 0.9695 0.2258
vn 0.0152 -0.9998 0.0110
vn 0.8015 0.5852 -0.1229
vn 0.1536 0.8381 0.5234
vn 0.8392 -0.5311 0.1166
vn 0.9848 0.0887 0.1493
vn -0.0196 -0.0090 0.9998
vn -0.0313 -0.0090 0.9995
vn -0.0429 -0.0089 0.9990
vn 0.6960 0.1001 0.7111
vn 0.7167 -0.1085 0.6889
vn 0.7022 0.1489 0.6962
vn 0.5708 0.5971 -0.5636
vn 0.6558 -0.3587 -0.6643
vn 0.6814 0.3257 -0.6554
vn 0.4885 -0.6990 0.5222
vn 0.5901 0.4269 0.6853
vn 0.6345 -0.3892 0.6678
vn 0.7070 0.6746 0.2123
vn 0.7689 -0.5969 0.2290
vn 0.8672 0.4033 0.2922
vn 0.0903 0.7343 -0.6728
vn 0.1846 -0.5500 -0.8145
vn 0.1750 0.2570 -0.9504
vn 0.9780 0.1074 0.1789
vn 0.8610 -0.4920 0.1290
vn 0.1314 0.9865 0.0974
vn 0.5939 0.7954 0.1208
vn 0.3943 -0.9077 0.1438
vn 0.5942 -0.7965 0.1119
vn 0.6769 -0.2197 0.7026
vn 0.9797 -0.1020 -0.1728
vn 0.6060 -0.2212 0.7641
vn 0.9521 -0.1751 0.2508
vn 0.1690 -0.1872 0.9677
vn 0.0978 0.9893 0.1082
vn 0.0970 0.9773 0.1882
vn 0.1475 0.9565 0.2518
vn 0.1284 0.9655 0.2268
vn 0.1327 0.9659 0.2222
vn 0.1358 0.9836 0.1191
vn 0.1784 0.9779 0.1091
vn 0.6983 0.0347 -0.7150
vn 0.3084 0.1464 -0.9399
vn 0.9555 0.0835 0.2828
vn 0.6027 0.0725 0.7947
vn 0.1528 -0.0259 -0.9879
vn 0.9848 0.0716 -0.1582
vn 0.1855 0.0389 0.9819
vn 0.0133 -0.9998 -0.0134
vn 0.2964 -0.9523 0.0729
vn 0.1089 -0.9938 0.0212
vn 0.0124 -0.9999 0.0051
vn 0.0912 -0.9885 0.1208
vn 0.0492 -0.9987 0.0155
vn 0.0787 -0.9963 -0.0344
vn 0.6704 0.0760 0.7381
vn 0.7030 0.0318 -0.7104
vn 0.1704 0.1687 -0.9708
vn 0.9990 -0.0396 -0.0223
vn 0.3761 0.8955 0.2380
vn 0.1425 -0.9546 -0.2616
vn 0.3460 -0.0914 -0.9338
vn -0.2087 0.9777 0.0223
vn -0.6108 -0.7883 0.0745
vn -0.9247 0.3674 -0.0997
vn -0.0520 -0.9976 0.0464
vn -0.2572 0.8961 0.3617
vn -0.0576 -0.7882 -0.6127
vn -0.7081 -0.7003 0.0904
vn -0.4591 0.6558 0.5993
vn -0.5592 -0.4718 -0.6817
vn -0.0466 -0.9989 0.0090
vn -0.4562 -0.8880 0.0580
vn 0.0345 -0.9991 0.0234
vn -0.0761 0.9857 0.1501
vn -0.6719 -0.0017 0.7406
vn 0.0543 -0.0089 0.9985
vn -0.6163 0.7713 0.1592
vn -0.2219 0.9639 0.1468
vn -0.9021 -0.3978 -0.1674
vn -0.0746 -0.9972 0.0109
vn -0.7803 -0.5934 -0.1972
vn -0.0950 0.9695 0.2258
vn -0.0152 -0.9998 0.0110
vn -0.8015 0.5852 -0.1229
vn -0.1536 0.8381 0.5234
vn -0.8392 -0.5311 0.1166
vn -0.9848 0.0887 0.1493
vn 0.0196 -0.0090 0.9998
vn 0.0313 -0.0090 0.9995
vn 0.0429 -0.0089 0.9990
vn -0.6960 0.1001 0.7111
vn -0.7194 -0.0833 0.6896
vn -0.6940 0.1867 0.6954
vn -0.5684 0.6002 -0.5628
vn -0.6859 -0.2535 -0.6821
vn -0.6814 0.3115 -0.6623
vn -0.4885 -0.6990 0.5222
vn -0.5775 0.4882 0.6543
vn -0.6331 -0.3562 0.6873
vn -0.7070 0.6746 0.2123
vn -0.7740 -0.5961 0.2135
vn -0.8611 0.4110 0.2993
vn -0.0922 0.7421 -0.6639
vn -0.1836 -0.4187 -0.8894
vn -0.1820 0.2389 -0.9538
vn -0.9780 0.1074 0.1789
vn -0.8610 -0.4920 0.1290
vn -0.1314 0.9865 0.0974
vn -0.5939 0.7954 0.1208
vn -0.3943 -0.9077 0.1438
vn -0.5942 -0.7965 0.1119
vn -0.6769 -0.2197 0.7026
vn -0.9797 -0.1020 -0.1728
vn -0.6060 -0.2212 0.7641
vn -0.9521 -0.1751 0.2508
vn -0.1690 -0.1872 0.9677
vn -0.0978 0.9893 0.1082
vn -0.0970 0.9773 0.1882
vn -0.1475 0.9565 0.2518
vn -0.1284 0.9655 0.2268
vn -0.1327 0.9659 0.2222
vn -0.1358 0.9836 0.1191
vn -0.1784 0.9779 0.1091
vn -0.6983 0.0347 -0.7150
vn -0.3084 0.1464 -0.9399
vn -0.9555 0.0835 0.2828
vn -0.6027 0.0725 0.7947
vn -0.1528 -0.0259 -0.9879
vn -0.9848 0.0716 -0.1582
vn -0.1855 0.0389 0.9819
vn -0.0133 -0.9998 -0.0134
vn -0.2964 -0.9523 0.0729
vn -0.1089 -0.9938 0.0212
vn -0.0124 -0.9999 0.0051
vn -0.0912 -0.9885 0.1208
vn -0.0492 -0.9987 0.0155
vn -0.0787 -0.9963 -0.0344
vn -0.6704 0.0760 0.7381
vn -0.7030 0.0318 -0.7104
vn -0.1921 0.1680 -0.9669
vn -0.9984 -0.0497 -0.0286
vn -0.3731 0.8965 0.2388
vn -0.1854 -0.9465 -0.2640
vn -0.3460 -0.0914 -0.9338
vt 0.263010 0.382895
vt 0.643281 0.357578
vt 0.699020 0.030934
vt 0.705167 0.826562
vt 0.134887 0.160205
vt 0.585632 0.689856
vt 0.143043 0.021143
vt 0.756803 0.031372
vt 0.750997 0.792443
vt 0.978857 0.565078
vt 0.081716 0.690549
vt 0.601610 0.302669
vt 0.266237 0.321363
vt 0.283573 0.053798
vt 0.648749 0.021143
vt 0.656398 0.826562
vt 0.188739 0.180709
vt 0.573735 0.747489
vt 0.197059 0.038105
vt 0.078464 0.022383
vt 0.587664 0.625526
vt 0.468085 0.035657
vt 0.074630 0.147623
vt 0.515725 0.141156
vt 0.081475 0.143798
vt 0.083364 0.035010
vt 0.578789 0.633283
vt 0.460055 0.684604
vt 0.516125 0.730857
vt 0.024387 0.032812
vt 0.503844 0.778145
vt 0.022403 0.066285
vt 0.531449 0.043470
vt 0.502341 0.781636
vt 0.024032 0.061099
vt 0.455537 0.682630
vt 0.025382 0.038986
vt 0.139133 0.739649
vt 0.145610 0.851253
vt 0.402195 0.731286
vt 0.573735 0.219502
vt 0.226072 0.232033
vt 0.598639 0.785613
vt 0.238072 0.038933
vt 0.654404 0.270418
vt 0.672560 0.169466
vt 0.678943 0.117753
vt 0.143536 0.130101
vt 0.144665 0.094635
vt 0.147730 0.066299
vt 0.701898 0.324269
vt 0.941374 0.267793
vt 0.732661 0.155810
vt 0.961736 0.438673
vt 0.738921 0.101020
vt 0.962862 0.493778
vt 0.262088 0.239635
vt 0.618949 0.216682
vt 0.268915 0.196928
vt 0.625228 0.171741
vt 0.269348 0.127577
vt 0.638691 0.098777
vt 0.191953 0.139691
vt 0.193175 0.116708
vt 0.195060 0.084404
vt 0.088204 0.112363
vt 0.089652 0.082323
vt 0.089219 0.066069
vt 0.023891 0.041180
vt 0.503844 0.793558
vt 0.023395 0.049549
vt 0.503844 0.785851
vt 0.022899 0.057917
vt 0.024370 0.055571
vt 0.502363 0.786730
vt 0.024707 0.050043
vt 0.502385 0.791825
vt 0.025045 0.044514
vt 0.589064 0.169139
vt 0.223036 0.185079
vt 0.597711 0.099238
vt 0.229981 0.118236
vt 0.603912 0.079656
vt 0.228323 0.099996
vt 0.448461 0.746012
vt 0.074570 0.041221
vt 0.460055 0.752387
vt 0.072935 0.025357
vt 0.516125 0.682630
vt 0.473854 0.035263
vt 0.069551 0.130116
vt 0.066085 0.139718
vt 0.520212 0.129812
vt 0.076283 0.053277
vt 0.076682 0.067269
vt 0.073841 0.111172
vt 0.138191 0.169827
vt 0.833436 0.862378
vt 0.231241 0.476092
vt 0.884583 0.864981
vt 0.496643 0.504239
vt 0.257362 0.378731
vt 0.832561 0.761767
vt 0.833436 0.614783
vt 0.221525 0.234349
vt 0.187310 0.189290
vt 0.258140 0.316779
vt 0.822803 0.694982
vt 0.084593 0.153156
vt 0.076239 0.157367
vt 0.517805 0.150381
vt 0.137712 0.176916
vt 0.107030 0.246933
vt 0.523277 0.243705
vt 0.188449 0.302188
vt 0.151057 0.375982
vt 0.531449 0.377990
vt 0.226719 0.480038
vt 0.829661 0.867611
vt 0.503787 0.507676
vt 0.888716 0.869972
vt 0.253832 0.380449
vt 0.827969 0.767883
vt 0.828844 0.620898
vt 0.221046 0.241439
vt 0.186830 0.196379
vt 0.251191 0.323502
vt 0.818211 0.701097
vt 0.084114 0.160245
vt 0.075652 0.164494
vt 0.520831 0.156187
vt 0.701689 0.821497
vt 0.394126 0.730968
vt 0.398106 0.786740
vt 0.744811 0.786882
vt 0.261306 0.647904
vt 0.588488 0.692036
vt 0.333485 0.818020
vt 0.600806 0.782718
vt 0.341851 0.726847
vt 0.351840 0.682630
vt 0.655504 0.821497
vt 0.398105 0.682630
vt 0.577221 0.746615
vt 0.344699 0.765590
vt 0.341024 0.880257
vt 0.591787 0.629531
vt 0.464784 0.038911
vt 0.582008 0.638460
vt 0.351840 0.873063
vt 0.406175 0.787146
vt 0.269391 0.647392
vt 0.188792 0.816570
vt 0.032410 0.721792
vt 0.325859 0.818249
vt 0.080683 0.780004
vt 0.334225 0.727076
vt 0.044728 0.812474
vt 0.344214 0.682859
vt 0.099425 0.851253
vt 0.406175 0.682948
vt 0.337073 0.765819
vt 0.021143 0.776371
vt 0.333426 0.880549
vt 0.461737 0.032615
vt 0.035768 0.659218
vt 0.025929 0.668216
vt 0.344214 0.873292
vt 0.241132 0.460746
vt 0.683259 0.430468
vt 0.699810 0.383554
vt 0.947031 0.208756
vt 0.265024 0.447648
vt 0.690710 0.389998
vt 0.697420 0.572497
vt 0.274126 0.605106
vt 0.971317 0.021143
vt 0.507667 0.640344
vt 0.692936 0.551303
vt 0.280270 0.583768
vt 0.709732 0.504739
vt 0.978857 0.089875
vt 0.283573 0.544124
vt 0.699924 0.509547
vt 0.647360 0.328276
vt 0.419412 0.442984
vt 0.893080 0.230025
vt 0.927204 0.560903
vt 0.775925 0.745021
vt 0.463462 0.172814
vt 0.646804 0.619362
vt 0.407262 0.057799
vt 0.845960 0.280989
vt 0.399545 0.379836
vt 0.873720 0.566023
vt 0.773454 0.691668
vt 0.420123 0.209246
vt 0.688892 0.614783
vt 0.362520 0.091258
vt 0.507718 0.139800
vt 0.586740 0.624119
vt 0.467689 0.047653
vt 0.021143 0.062086
vt 0.527995 0.039403
vt 0.519013 0.021143
vt 0.510705 0.735860
vt 0.022542 0.039957
vt 0.215487 0.770729
vt 0.265859 0.696965
vt 0.799088 0.360430
vt 0.401252 0.270451
vt 0.729332 0.635004
vt 0.818348 0.565921
vt 0.326488 0.110983
vt 0.756803 0.282455
vt 0.896502 0.317828
vt 0.907512 0.416735
vt 0.911784 0.483320
vt 0.445145 0.150992
vt 0.437109 0.132199
vt 0.418941 0.098391
vt 0.854986 0.368114
vt 0.859202 0.413589
vt 0.866612 0.487489
vt 0.403525 0.177162
vt 0.391808 0.153163
vt 0.381287 0.131344
vt 0.490202 0.115039
vt 0.478279 0.089919
vt 0.472991 0.075946
vt 0.525749 0.034838
vt 0.021493 0.056554
vt 0.523504 0.030273
vt 0.021842 0.051021
vt 0.521258 0.025708
vt 0.022192 0.045489
vt 0.809554 0.411918
vt 0.391967 0.230319
vt 0.813439 0.475957
vt 0.364459 0.180921
vt 0.818180 0.502499
vt 0.357315 0.160078
vt 0.502341 0.696392
vt 0.477500 0.048531
vt 0.513227 0.122091
vt 0.479895 0.058919
vt 0.484294 0.070686
vt 0.502345 0.107027
vt 0.464123 0.182985
vt 0.434177 0.430324
vt 0.875721 0.767380
vt 0.879090 0.614783
vt 0.409231 0.273227
vt 0.424860 0.216861
vt 0.408322 0.371074
vt 0.883722 0.699618
vt 0.508114 0.148946
vt 0.467026 0.188781
vt 0.467629 0.322324
vt 0.438667 0.430139
vt 0.880715 0.773213
vt 0.884085 0.620617
vt 0.413355 0.277070
vt 0.427763 0.222658
vt 0.412388 0.369603
vt 0.888716 0.705451
vt 0.511017 0.154742
vt 0.771446 0.741110
vt 0.257772 0.697404
vt 0.649168 0.622110
vt 0.405860 0.056540
vt 0.727322 0.636923
vt 0.326267 0.107294
vt 0.259845 0.800580
vt 0.769106 0.690584
vt 0.261304 0.748162
vt 0.689026 0.617773
vt 0.361649 0.088711
vt 0.592287 0.626615
vt 0.460161 0.044131
vt 0.093208 0.651729
vt 0.402352 0.053435
vt 0.147765 0.702701
vt 0.325859 0.103802
vt 0.267932 0.800141
vt 0.171363 0.666542
vt 0.213146 0.720203
vt 0.269391 0.747723
vt 0.359981 0.085122
vt 0.133066 0.647392
vt 0.036327 0.656234
vt 0.452426 0.038445
vt 0.476071 0.497734
vt 0.935166 0.160605
vt 0.706410 0.391844
vt 0.939645 0.201625
vt 0.966375 0.041270
vt 0.494403 0.623935
vt 0.970364 0.080478
vt 0.750649 0.340417
vt 0.894960 0.259605
s 0
usemtl Material
f 1/1/1 92/169/1 58/99/1 59/102/1
f 50/86/2 54/94/2 46/78/2 18/37/2
f 33/59/3 32/57/3 47/80/3 48/82/3
f 22/43/4 10/18/4 81/144/4 79/139/4
f 13/25/5 3/5/5 57/97/5 63/109/5
f 29/51/6 93/171/6 94/174/6 99/185/6 23/45/6
f 47/80/7 21/42/7 9/17/7 35/63/7
f 28/50/8 4/7/8 10/19/8 37/65/8
f 23/45/9 99/185/9 1/2/9 7/12/9 32/58/9
f 8/16/10 22/43/10 79/139/10 80/142/10
f 51/87/11 50/85/11 18/36/11 15/28/11
f 4/6/12 14/27/12 83/149/12 78/137/12
f 21/42/13 7/13/13 62/107/13 60/105/13
f 26/48/14 3/5/14 13/25/14 38/66/14
f 44/75/15 17/34/15 16/31/15 43/72/15
f 56/96/16 52/91/16 17/35/16 44/74/16
f 52/91/17 53/92/17 16/32/17 17/35/17
f 34/62/18 33/60/18 48/81/18 49/83/18
f 10/18/19 4/6/19 78/137/19 81/144/19
f 32/58/20 7/12/20 21/41/20 47/79/20
f 3/5/21 9/17/21 61/106/21 57/97/21
f 5/9/22 2/4/22 76/132/22 77/135/22
f 8/14/23 34/61/23 49/84/23 22/44/23
f 12/23/24 13/25/24 63/109/24 64/110/24
f 54/94/25 55/95/25 45/76/25 46/78/25
f 55/95/26 56/96/26 44/74/26 45/76/26
f 18/37/27 46/78/27 41/69/27 15/30/27
f 46/78/28 45/76/28 42/71/28 41/69/28
f 45/77/29 44/75/29 43/72/29 42/70/29
f 4/7/30 28/50/30 40/68/30 14/26/30
f 28/50/31 27/49/31 39/67/31 40/68/31
f 27/49/32 26/48/32 38/66/32 39/67/32
f 2/3/33 25/47/33 34/62/33 8/15/33
f 25/47/34 24/46/34 33/60/34 34/62/34
f 24/46/35 23/45/35 32/58/35 33/60/35
f 3/5/36 26/48/36 35/63/36 9/17/36
f 26/48/37 27/49/37 36/64/37 35/63/37
f 27/49/38 28/50/38 37/65/38 36/64/38
f 22/44/39 49/84/39 37/65/39 10/19/39
f 49/84/40 48/82/40 36/64/40 37/65/40
f 48/82/41 47/80/41 35/63/41 36/64/41
f 5/8/42 31/55/42 25/47/42 2/3/42
f 31/55/43 30/53/43 24/46/43 25/47/43
f 30/53/44 29/51/44 23/45/44 24/46/44
f 39/67/45 38/66/45 56/96/45 55/95/45
f 40/68/46 39/67/46 55/95/46 54/94/46
f 13/25/47 12/23/47 53/92/47 52/91/47
f 38/66/48 13/25/48 52/91/48 56/96/48
f 11/20/49 14/26/49 50/86/49 51/88/49
f 14/26/50 40/68/50 54/94/50 50/86/50
f 63/109/51 57/97/51 65/112/51 74/129/51
f 60/104/52 62/108/52 73/128/52 71/124/52
f 57/97/53 61/106/53 72/126/53 65/112/53
f 61/106/54 60/105/54 71/125/54 72/126/54
f 64/110/55 63/109/55 74/129/55 75/130/55
f 7/13/56 1/1/56 59/102/56 62/107/56
f 9/17/57 21/42/57 60/105/57 61/106/57
f 67/115/58 68/116/58 66/113/58 65/112/58
f 67/115/59 65/112/59 72/126/59 71/125/59
f 65/112/60 66/113/60 75/130/60 74/129/60
f 70/122/61 67/115/61 71/125/61 73/127/61
f 70/122/62 69/118/62 68/116/62 67/115/62
f 62/108/63 59/103/63 70/123/63 73/128/63
f 59/103/64 58/98/64 69/119/64 70/123/64
f 79/140/65 81/145/65 89/162/65 87/157/65
f 81/145/66 78/138/66 85/155/66 89/162/66
f 77/134/67 76/133/67 20/40/67 84/151/67
f 80/141/68 79/140/68 87/157/68 88/159/68
f 83/150/69 82/146/69 90/164/69 91/168/69
f 2/4/70 8/16/70 80/142/70 76/132/70
f 14/27/71 11/21/71 82/147/71 83/149/71
f 19/38/72 86/156/72 85/154/72 6/11/72
f 86/156/73 20/39/73 88/160/73 87/158/73
f 6/11/74 85/154/74 91/167/74 90/166/74
f 85/154/75 86/156/75 87/158/75 89/163/75
f 84/153/76 20/39/76 86/156/76 19/38/76
f 78/138/77 83/150/77 91/168/77 85/155/77
f 76/133/78 80/143/78 88/161/78 20/40/78
f 96/179/79 98/184/79 97/181/79 95/175/79
f 92/169/80 94/173/80 98/183/80 96/180/80
f 92/169/81 96/180/81 95/176/81 58/99/81
f 94/174/82 93/171/82 97/181/82 98/184/82
f 99/185/83 94/174/83 92/170/83 1/2/83
f 100/186/84 142/250/84 58/101/84 166/293/84
f 136/244/85 111/205/85 132/235/85 138/246/85
f 122/223/86 134/239/86 133/237/86 121/222/86
f 114/212/87 156/272/87 158/277/87 107/198/87
f 108/200/88 146/257/88 141/249/88 102/190/88
f 29/51/89 115/215/89 170/300/89 167/295/89 93/171/89
f 133/238/90 124/225/90 106/197/90 113/211/90
f 120/221/91 126/227/91 107/199/91 103/192/91
f 115/216/92 121/222/92 104/193/92 100/187/92 170/301/92
f 105/196/93 157/275/93 156/272/93 114/212/93
f 51/89/94 15/29/94 111/206/94 136/243/94
f 103/191/95 155/270/95 159/279/95 109/201/95
f 113/211/96 143/253/96 145/255/96 104/194/96
f 118/219/97 127/228/97 108/200/97 102/190/97
f 130/232/98 43/73/98 16/32/98 110/203/98
f 140/248/99 130/231/99 110/204/99 137/245/99
f 137/245/100 110/204/100 16/33/100 53/93/100
f 123/224/101 135/241/101 134/239/101 122/223/101
f 107/198/102 158/277/102 155/270/102 103/191/102
f 121/222/103 133/237/103 113/210/103 104/193/103
f 102/190/104 141/249/104 144/254/104 106/197/104
f 5/9/105 77/135/105 154/268/105 101/189/105
f 105/195/106 114/213/106 135/241/106 123/224/106
f 12/24/107 64/111/107 146/257/107 108/200/107
f 138/246/108 132/235/108 131/233/108 139/247/108
f 139/247/109 131/233/109 130/231/109 140/248/109
f 111/207/110 15/30/110 41/69/110 132/236/110
f 132/236/111 41/69/111 42/71/111 131/234/111
f 131/234/112 42/71/112 43/73/112 130/232/112
f 103/192/113 109/202/113 129/230/113 120/221/113
f 120/221/114 129/230/114 128/229/114 119/220/114
f 119/220/115 128/229/115 127/228/115 118/219/115
f 101/188/116 105/195/116 123/224/116 117/218/116
f 117/218/117 123/224/117 122/223/117 116/217/117
f 116/217/118 122/223/118 121/222/118 115/216/118
f 102/190/119 106/197/119 124/225/119 118/219/119
f 118/219/120 124/225/120 125/226/120 119/220/120
f 119/220/121 125/226/121 126/227/121 120/221/121
f 114/214/122 107/199/122 126/227/122 135/242/122
f 135/242/123 126/227/123 125/226/123 134/240/123
f 134/240/124 125/226/124 124/225/124 133/238/124
f 5/10/125 101/188/125 117/218/125 31/56/125
f 31/56/126 117/218/126 116/217/126 30/54/126
f 30/54/127 116/217/127 115/216/127 29/52/127
f 128/229/128 139/247/128 140/248/128 127/228/128
f 129/230/129 138/246/129 139/247/129 128/229/129
f 108/200/130 137/245/130 53/93/130 12/24/130
f 127/228/131 140/248/131 137/245/131 108/200/131
f 11/22/132 51/90/132 136/244/132 109/202/132
f 109/202/133 136/244/133 138/246/133 129/230/133
f 146/257/134 153/267/134 147/258/134 141/249/134
f 143/252/135 150/262/135 152/266/135 145/256/135
f 141/249/136 147/258/136 151/264/136 144/254/136
f 144/254/137 151/264/137 150/263/137 143/253/137
f 64/111/138 75/131/138 153/267/138 146/257/138
f 104/194/139 145/255/139 142/250/139 100/186/139
f 106/197/140 144/254/140 143/253/140 113/211/140
f 148/259/141 147/258/141 66/114/141 68/117/141
f 148/259/142 150/263/142 151/264/142 147/258/142
f 147/258/143 153/267/143 75/131/143 66/114/143
f 149/260/144 152/265/144 150/263/144 148/259/144
f 149/260/145 148/259/145 68/117/145 69/120/145
f 145/256/146 152/266/146 149/261/146 142/251/146
f 142/251/147 149/261/147 69/121/147 58/100/147
f 156/273/148 162/284/148 164/289/148 158/278/148
f 158/278/149 164/289/149 160/282/149 155/271/149
f 77/136/150 84/152/150 112/209/150 154/269/150
f 157/276/151 163/288/151 162/285/151 156/274/151
f 159/280/152 165/292/152 90/165/152 82/148/152
f 101/189/153 154/268/153 157/275/153 105/196/153
f 109/202/154 159/280/154 82/148/154 11/22/154
f 19/38/155 6/11/155 160/281/155 161/283/155
f 161/283/156 162/286/156 163/287/156 112/208/156
f 6/11/157 90/166/157 165/291/157 160/281/157
f 160/281/158 164/290/158 162/286/158 161/283/158
f 84/153/159 19/38/159 161/283/159 112/208/159
f 155/271/160 160/282/160 165/292/160 159/280/160
f 154/269/161 112/209/161 163/288/161 157/276/161
f 168/297/162 95/177/162 97/182/162 169/299/162
f 166/294/163 168/297/163 169/299/163 167/296/163
f 166/293/164 58/101/164 95/178/164 168/298/164
f 167/296/165 169/299/165 97/182/165 93/172/165
f 170/301/166 100/187/166 166/294/166 167/296/166
