# Blender 3.3.1
# www.blender.org
mtllib book.mtl
o Cube
v -0.116041 -0.454608 0.454608
v -0.116041 0.454608 0.454608
v -0.116041 -0.454608 -0.454608
v -0.116041 0.454608 -0.454608
v 0.116041 -0.454608 0.454608
v 0.116041 0.454608 0.454608
v 0.116041 -0.454608 -0.454608
v 0.116041 0.454608 -0.454608
v -0.116041 -0.454608 0.376314
v -0.116041 0.454608 0.376314
v 0.116041 -0.454608 0.376314
v 0.116041 0.454608 0.376314
v -0.116041 0.395292 0.454608
v -0.116041 0.395292 -0.454608
v 0.116041 0.395292 -0.454608
v 0.116041 0.395292 0.454608
v 0.116041 0.395292 0.376314
v -0.116041 0.395292 0.376314
v -0.116041 -0.372540 -0.454608
v 0.116041 -0.372540 -0.454608
v 0.116041 -0.372540 0.454608
v 0.116041 -0.372540 0.376314
v -0.116041 -0.372540 0.376314
v -0.116041 -0.372540 0.454608
v -0.058770 -0.454608 -0.454608
v -0.058770 0.454608 -0.454608
v -0.058770 -0.454608 0.454608
v -0.058770 0.454608 0.454608
v -0.058770 0.454608 0.376314
v -0.058770 -0.454608 0.376314
v -0.058770 0.395292 0.454608
v -0.058770 0.395292 -0.454608
v -0.058770 -0.372540 -0.454608
v -0.058770 -0.372540 0.454608
v 0.060942 0.454442 -0.454915
v 0.060942 -0.454774 0.454301
v 0.060942 0.454442 0.376007
v 0.060942 0.395126 -0.454915
v 0.060942 -0.372707 -0.454915
v 0.060942 -0.454774 -0.454915
v 0.060942 0.454442 0.454301
v 0.060942 -0.454774 0.376007
v 0.060942 0.395126 0.454301
v 0.060942 -0.372707 0.454301
v 0.059521 -0.443888 -0.435513
v -0.057349 -0.443725 -0.435214
v 0.059521 -0.443888 0.375679
v -0.057349 -0.443725 0.375979
v -0.057349 -0.363606 -0.435214
v -0.057349 0.385994 -0.435214
v -0.057349 0.443901 -0.435214
v -0.057349 0.443901 0.375979
v 0.059521 0.443739 -0.435513
v 0.059521 0.443739 0.375679
v 0.059521 0.385832 -0.435513
v 0.059521 -0.363769 -0.435513
v -0.116037 -0.372540 0.462899
v -0.116037 0.395292 0.462899
v -0.058766 0.395292 0.462899
v 0.116044 0.395292 0.462899
v 0.116044 -0.372540 0.462899
v -0.058766 -0.372540 0.462899
v 0.060946 0.454442 0.462591
v -0.058766 0.454608 0.462899
v 0.060946 0.395126 0.462591
v 0.060946 -0.372707 0.462591
v -0.058766 -0.454608 0.462899
v 0.060946 -0.454774 0.462591
v -0.123655 -0.372540 0.454608
v -0.123655 0.395292 0.454608
v -0.123655 0.395292 0.376314
v 0.123655 0.395292 -0.454608
v 0.123655 0.395292 0.376314
v 0.123655 0.395292 0.454608
v -0.123655 0.395292 -0.454608
v -0.123655 -0.372540 -0.454608
v 0.123655 -0.372540 -0.454608
v 0.123655 -0.372540 0.454608
v 0.123655 -0.372540 0.376314
v -0.123655 -0.372540 0.376314
vn -1.0000 -0.0000 -0.0000
vn 0.0056 -0.0000 -1.0000
vn 1.0000 -0.0000 -0.0000
vn -0.0000 -0.0000 1.0000
vn 0.0030 -1.0000 -0.0000
vn -0.0000 1.0000 -0.0000
vn -0.0000 -1.0000 -0.0000
vn 0.0014 1.0000 -0.0000
vn -0.0000 -0.0000 -1.0000
vn 1.0000 -0.0000 -0.0004
vn 0.9913 0.1316 -0.0000
vn -0.0056 -0.0000 1.0000
vn -0.0030 1.0000 -0.0000
vn -1.0000 -0.0000 0.0004
vn -0.9973 -0.0000 -0.0731
vn 0.9973 -0.0000 -0.0731
vn 0.9916 -0.1295 -0.0000
vn -0.0014 -1.0000 -0.0000
vn -0.9916 -0.1295 -0.0000
vn -0.0026 -0.0000 -1.0000
vn -0.9913 0.1316 -0.0000
vn -0.0026 -0.0305 -0.9995
vn -0.0025 0.0310 -0.9995
vn 0.0026 -0.0000 1.0000
vt 0.306130 0.809838
vt 0.185257 0.549884
vt 0.493558 0.029048
vt 0.360469 0.809838
vt 0.027170 0.029048
vt 0.897473 0.289482
vt 0.185257 0.755536
vt 0.822933 0.289482
vt 0.493558 0.235073
vt 0.897473 0.495134
vt 0.027170 0.235073
vt 0.822933 0.495506
vt 0.287534 0.029048
vt 0.850632 0.549851
vt 0.850632 0.858746
vt 0.899677 0.232813
vt 0.441690 0.809838
vt 0.233194 0.029048
vt 0.287534 0.235073
vt 0.825137 0.233194
vt 0.850632 0.755494
vt 0.825137 0.027170
vt 0.899677 0.027170
vt 0.233194 0.235073
vt 0.185257 0.567593
vt 0.493558 0.046789
vt 0.027170 0.046789
vt 0.897473 0.307191
vt 0.287534 0.046789
vt 0.850632 0.567559
vt 0.899677 0.215105
vt 0.233194 0.046789
vt 0.373910 0.809838
vt 0.884032 0.289482
vt 0.904972 0.810215
vt 0.083385 0.962091
vt 0.966071 0.755875
vt 0.741807 0.962059
vt 0.884032 0.495134
vt 0.822933 0.482066
vt 0.966071 0.549851
vt 0.886236 0.027170
vt 0.825137 0.040610
vt 0.958572 0.289482
vt 0.886236 0.232812
vt 0.958572 0.495506
vt 0.428250 0.809848
vt 0.027170 0.788104
vt 0.430128 0.913106
vt 0.673948 0.962058
vt 0.886236 0.215104
vt 0.958572 0.477765
vt 0.884032 0.307191
vt 0.966071 0.738134
vt 0.203854 0.755535
vt 0.822933 0.308078
vt 0.911731 0.549851
vt 0.954016 0.027170
vt 0.832036 0.755493
vt 0.825137 0.214598
vt 0.832036 0.549851
vt 0.833915 0.962012
vt 0.832036 0.858760
vt 0.027170 0.962091
vt 0.954016 0.233194
vt 0.673948 0.788071
vt 0.832036 0.567559
vt 0.954016 0.215453
vt 0.203854 0.567592
vt 0.911731 0.738134
vt 0.911731 0.755875
vt 0.287534 0.809838
vt 0.203854 0.549883
vt 0.083385 0.788104
vt 0.185257 0.860719
vt 0.741807 0.788071
vt 0.772093 0.289482
vt 0.442717 0.235073
vt 0.529818 0.495511
vt 0.078011 0.235073
vt 0.772093 0.495506
vt 0.529818 0.289487
vt 0.306130 0.860678
vt 0.343749 0.915018
vt 0.442717 0.029048
vt 0.360469 0.860678
vt 0.078011 0.029048
vt 0.904972 0.928839
vt 0.717752 0.289482
vt 0.078011 0.046789
vt 0.575092 0.805360
vt 0.717752 0.495506
vt 0.442717 0.046789
vt 0.518327 0.911631
vt 0.373910 0.860678
vt 0.904972 0.861056
vt 0.904972 0.915398
vt 0.772093 0.482066
vt 0.529818 0.302928
vt 0.772093 0.308078
vt 0.529818 0.476915
vt 0.287534 0.860678
vt 0.343749 0.933614
vt 0.185257 0.809879
vt 0.776225 0.027207
vt 0.184282 0.235142
vt 0.475478 0.289487
vt 0.850632 0.809834
vt 0.287534 0.933614
vt 0.336446 0.029118
vt 0.184282 0.046859
vt 0.287535 0.289482
vt 0.575092 0.911631
vt 0.776225 0.040648
vt 0.475478 0.302928
vt 0.776225 0.214636
vt 0.475478 0.476915
vt 0.336446 0.235142
vt 0.776225 0.233232
vt 0.475478 0.495511
vt 0.185257 0.915059
vt 0.441690 0.858750
vt 0.184282 0.029118
vt 0.336446 0.046859
vt 0.287535 0.495506
vt 0.518327 0.805360
vt 0.185257 0.928500
vt 0.428250 0.858760
vt 0.430128 0.962018
vt 0.833915 0.913100
vt 0.832036 0.809848
vt 0.287534 0.915018
vt 0.471014 0.493045
vt 0.515861 0.549851
vt 0.130918 0.549884
vt 0.534281 0.493046
vt 0.619609 0.549888
vt 0.027170 0.549951
vt 0.287534 0.493040
vt 0.130918 0.733696
vt 0.515861 0.806622
vt 0.717753 0.493041
vt 0.027170 0.733764
vt 0.515861 0.910370
vt 0.619609 0.568042
vt 0.534281 0.474891
vt 0.619609 0.737899
vt 0.534281 0.305035
vt 0.673948 0.733663
vt 0.619609 0.751020
vt 0.534281 0.291913
vt 0.717753 0.291909
vt 0.673948 0.549851
vt 0.572667 0.806622
vt 0.777696 0.733731
vt 0.515861 0.750983
vt 0.471014 0.291913
vt 0.777696 0.549919
vt 0.287534 0.291908
vt 0.572667 0.910370
vt 0.515861 0.737862
vt 0.471014 0.305034
vt 0.515861 0.568006
vt 0.471014 0.474890
vt 0.233194 0.476910
vt 0.085260 0.788104
vt 0.187136 0.860716
vt 0.906850 0.810218
vt 0.233194 0.302923
vt 0.085260 0.962091
vt 0.906850 0.861059
vt 0.906847 0.915398
vt 0.182353 0.302923
vt 0.027170 0.302923
vt 0.029045 0.788104
vt 0.428250 0.913100
vt 0.832036 0.962018
vt 0.027170 0.476910
vt 0.029045 0.962091
vt 0.182353 0.476910
vt 0.345624 0.933614
vt 0.187136 0.809875
vt 0.184285 0.027239
vt 0.187133 0.915059
vt 0.076082 0.289520
vt 0.078014 0.027170
vt 0.906847 0.928839
vt 0.182353 0.289482
vt 0.187133 0.928500
vt 0.076082 0.302960
vt 0.428250 0.962012
vt 0.832036 0.913105
vt 0.076082 0.476948
vt 0.289409 0.915018
vt 0.182353 0.495506
vt 0.345624 0.915018
vt 0.442714 0.027170
vt 0.076082 0.495544
vt 0.289409 0.933614
vt 0.336443 0.027239
vt 0.904972 0.755875
vt 0.547898 0.027174
vt 0.735047 0.788071
vt 0.721885 0.027170
vt 0.972830 0.755875
vt 0.735047 0.962059
vt 0.721885 0.044879
vt 0.972830 0.738134
vt 0.461521 0.549855
vt 0.831896 0.040610
vt 0.951813 0.289482
vt 0.461521 0.737790
vt 0.951813 0.477765
vt 0.951813 0.495506
vt 0.461521 0.755498
vt 0.680708 0.962059
vt 0.829693 0.482066
vt 0.721885 0.232822
vt 0.972830 0.549851
vt 0.829693 0.308078
vt 0.547898 0.232826
vt 0.904972 0.549851
vt 0.960776 0.027170
vt 0.287534 0.549851
vt 0.831896 0.214598
vt 0.287534 0.755493
vt 0.960775 0.233194
vt 0.680708 0.788071
vt 0.287534 0.737785
vt 0.960775 0.215453
vt 0.547898 0.044883
vt 0.904972 0.738134
s 0
usemtl Material.001
f 18/53/1 10/28/1 4/10/1 14/39/1
f 38/114/2 35/105/2 8/22/2 15/43/2
f 17/51/3 12/31/3 6/16/3 16/45/3
f 31/95/4 28/86/4 2/4/4 13/33/4
f 42/124/5 11/29/5 5/13/5 36/110/5
f 29/90/6 10/27/6 2/5/6 28/87/6
f 26/80/6 4/11/6 10/27/6 29/90/6
f 40/118/5 7/19/5 11/29/5 42/124/5
f 15/42/3 8/23/3 12/31/3 17/51/3
f 13/34/1 2/6/1 10/28/1 18/53/1
f 23/70/7 24/71/7 69/201/7 80/232/7
f 17/52/6 16/46/6 74/214/6 73/213/6
f 41/123/8 28/87/8 64/186/8 63/183/8
f 14/40/9 19/56/9 76/220/9 75/217/9
f 39/116/2 38/114/2 15/43/2 20/60/2
f 22/68/7 20/58/7 77/223/7 79/230/7
f 9/25/1 23/69/1 19/55/1 3/7/1
f 40/119/2 39/116/2 20/60/2 7/20/2
f 11/30/3 22/67/3 21/61/3 5/14/3
f 27/83/4 34/102/4 24/72/4 1/1/4
f 7/21/3 20/59/3 22/67/3 11/30/3
f 1/2/1 24/73/1 23/69/1 9/25/1
f 43/127/10 41/121/10 63/184/10 65/189/10
f 3/8/9 19/56/9 33/100/9 25/77/9
f 19/56/9 14/40/9 32/98/9 33/100/9
f 44/130/5 21/62/5 61/177/5 66/192/5
f 3/9/7 25/78/7 30/93/7 9/26/7
f 26/82/11 29/89/11 52/152/11 51/151/11
f 37/111/8 29/90/8 28/87/8 41/123/8
f 9/26/7 30/93/7 27/85/7 1/3/7
f 31/96/6 13/35/6 58/168/6 59/171/6
f 14/40/9 4/12/9 26/81/9 32/98/9
f 16/47/12 6/17/12 41/122/12 43/128/12
f 12/32/13 37/111/13 41/123/13 6/18/13
f 8/24/13 35/106/13 37/111/13 12/32/13
f 28/88/14 31/97/14 59/172/14 64/187/14
f 5/15/12 21/63/12 44/131/12 36/108/12
f 39/117/15 40/120/15 45/133/15 56/164/15
f 25/79/16 33/101/16 49/146/16 46/136/16
f 30/92/17 25/79/17 46/136/17 48/142/17
f 30/93/18 42/124/18 36/110/18 27/85/18
f 40/120/19 42/125/19 47/139/19 45/133/19
f 53/155/8 51/149/8 52/153/8 54/158/8
f 46/137/20 49/145/20 56/163/20 45/134/20
f 49/145/20 50/147/20 55/161/20 56/163/20
f 46/138/18 45/135/18 47/140/18 48/143/18
f 50/147/20 51/150/20 53/156/20 55/161/20
f 37/112/21 35/107/21 53/157/21 54/159/21
f 35/107/15 38/115/15 55/162/15 53/157/15
f 42/126/22 30/94/22 48/144/22 47/141/22
f 29/91/23 37/113/23 54/160/23 52/154/23
f 33/101/16 32/99/16 50/148/16 49/146/16
f 38/115/15 39/117/15 56/164/15 55/162/15
f 32/99/16 26/82/16 51/151/16 50/148/16
f 62/180/4 59/173/4 58/169/4 57/165/4
f 68/198/24 66/193/24 62/180/24 67/195/24
f 66/193/24 65/190/24 59/173/24 62/180/24
f 65/190/24 63/185/24 64/188/24 59/173/24
f 61/178/12 60/174/12 65/190/12 66/193/12
f 13/36/14 24/74/14 57/166/14 58/170/14
f 34/103/14 27/84/14 67/196/14 62/181/14
f 36/109/10 44/132/10 66/194/10 68/199/10
f 21/64/10 16/48/10 60/175/10 61/179/10
f 24/75/7 34/104/7 62/182/7 57/167/7
f 27/85/18 36/110/18 68/200/18 67/197/18
f 16/49/13 43/129/13 65/191/13 60/176/13
f 69/202/1 70/204/1 71/207/1 80/231/1
f 77/224/3 72/209/3 73/212/3 79/229/3
f 79/229/3 73/212/3 74/215/3 78/226/3
f 80/231/1 71/207/1 75/218/1 76/221/1
f 13/37/6 18/54/6 71/208/6 70/205/6
f 20/60/9 15/43/9 72/210/9 77/225/9
f 21/65/7 22/68/7 79/230/7 78/227/7
f 24/76/4 13/38/4 70/206/4 69/203/4
f 15/44/6 17/52/6 73/213/6 72/211/6
f 16/50/4 21/66/4 78/228/4 74/216/4
f 18/54/6 14/41/6 75/219/6 71/208/6
f 19/57/7 23/70/7 80/232/7 76/222/7
