# Blender 3.3.1
# www.blender.org
mtllib CaveFloor.mtl
o Cube
v 2.775831 -0.406747 -1.871670
v 2.775831 0.269032 -1.871670
v 2.772452 -0.337890 1.860383
v 2.783315 0.327027 1.871246
v -2.772452 -0.337890 -1.860383
v -2.772452 0.337890 -1.860383
v -2.772452 -0.337890 1.860383
v -2.772452 0.337890 1.860383
v -2.819080 0.276068 -1.229121
v -2.854090 0.251383 -0.629198
v -2.772452 0.337890 0.000000
v -2.772452 0.337890 0.620128
v -2.855962 0.243266 1.227641
v 2.775831 -0.406747 -1.251543
v 2.778846 -0.381475 -0.604409
v 2.778846 -0.381475 0.015719
v 2.792294 -0.318048 0.620128
v 2.772452 -0.337890 1.240255
v -2.782408 -0.327935 1.240255
v -2.772452 -0.337890 0.620128
v -2.772452 -0.337890 -0.000000
v -2.772452 -0.337890 -0.620128
v -2.772452 -0.337890 -1.240255
v 2.823835 0.286507 1.240255
v 2.825555 0.284787 0.620128
v 2.838430 0.326977 -0.031021
v 2.920542 0.258829 -0.648084
v 2.829042 0.215063 -1.251543
v 1.980323 0.332484 -1.860384
v 1.187664 0.325137 -1.866956
v 0.393861 0.239742 -1.914487
v -0.395825 0.321871 -1.868549
v -1.183163 0.267714 -1.900537
v -1.986022 0.245933 -1.929030
v 1.980323 -0.337890 1.860383
v 1.188194 -0.337890 1.860383
v 0.396065 -0.337890 1.860383
v -0.396065 -0.337890 1.860383
v -1.188194 -0.324389 1.873884
v -1.980323 -0.337890 1.860383
v -1.980323 0.316280 1.881992
v -1.188194 0.276634 1.921638
v -0.395823 0.285182 1.884639
v 0.392466 0.259639 1.927969
v 1.188197 0.337638 1.860645
v 1.983225 0.241067 1.947069
v -1.980323 -0.337890 -1.860383
v -1.188194 -0.320374 -1.877899
v -0.396065 -0.337890 -1.860383
v 0.396065 -0.318349 -1.879924
v 1.188194 -0.337890 -1.860383
v 1.980323 -0.337890 -1.860383
v 1.991359 0.269207 -1.240255
v 1.181397 0.207497 -1.218309
v 0.394205 0.257746 -1.214062
v -0.390333 0.208652 -1.229298
v -1.181772 0.270334 -1.242090
v -1.971802 0.236326 -1.234478
v 2.015334 0.301971 -0.648776
v 1.173337 0.218046 -0.603855
v 0.399495 0.232346 -0.613587
v -0.391395 0.252355 -0.618019
v -1.186311 0.279410 -0.621732
v -1.975527 0.291340 -0.620041
v 2.015579 0.272722 -0.046993
v 1.170166 0.197483 -0.012748
v 0.401759 0.230254 -0.001459
v -0.388487 0.315656 -0.000873
v -1.156794 0.228476 -0.024053
v -1.980323 0.337890 0.000000
v 1.979206 0.331832 0.620128
v 1.170800 0.250918 0.620780
v 0.391321 0.225916 0.617586
v -0.378675 0.301762 0.608865
v -1.172858 0.281593 0.608794
v -1.980286 0.281165 0.620102
v 1.971261 0.272448 1.244563
v 1.188585 0.265728 1.240591
v 0.395800 0.275095 1.240112
v -0.401311 0.149394 1.220508
v -1.189571 0.188997 1.221832
v -1.976439 0.197684 1.229105
v -1.980323 -0.337890 -1.240255
v -1.188194 -0.337890 -1.240255
v -0.396065 -0.337890 -1.240255
v 0.396065 -0.337890 -1.240255
v 1.188194 -0.337890 -1.240255
v 1.980323 -0.337890 -1.240255
v -1.980323 -0.337890 -0.620128
v -1.188194 -0.337890 -0.620128
v -0.396065 -0.337890 -0.620128
v 0.396065 -0.337890 -0.620128
v 1.188194 -0.337890 -0.620128
v 1.980323 -0.337890 -0.620128
v -1.980323 -0.337890 -0.000000
v -1.188194 -0.337890 -0.000000
v -0.396065 -0.337890 -0.000000
v 0.396065 -0.337890 0.000000
v 1.188194 -0.337890 0.000000
v 1.980323 -0.337890 0.000000
v -1.980323 -0.337890 0.620128
v -1.188194 -0.337890 0.620128
v -0.396065 -0.337890 0.620128
v 0.396065 -0.337890 0.620128
v 1.188194 -0.337890 0.620128
v 1.980323 -0.337890 0.620128
v -1.980323 -0.337890 1.240255
v -1.188194 -0.337890 1.240255
v -0.396065 -0.337890 1.240255
v 0.396065 -0.337890 1.240255
v 1.188194 -0.337890 1.240255
v 1.980323 -0.337890 1.240255
vn -0.0062 -0.9999 -0.0080
vn -0.0139 -0.0162 0.9998
vn -0.9986 -0.0358 -0.0390
vn -0.0608 0.9981 -0.0081
vn 0.9982 -0.0485 0.0339
vn -0.0142 -0.0000 -0.9999
vn 0.9982 -0.0409 -0.0446
vn 0.9858 -0.1545 -0.0660
vn 0.9871 -0.1424 0.0734
vn 0.9975 -0.0706 0.0007
vn 0.9975 -0.0688 0.0163
vn 0.0728 0.9933 0.0901
vn 0.0552 0.9961 -0.0691
vn -0.0061 0.9995 -0.0323
vn -0.0042 0.9999 -0.0130
vn 0.0195 0.9987 0.0464
vn -0.9953 -0.0579 0.0782
vn -0.9950 -0.0595 -0.0799
vn -1.0000 -0.0000 -0.0000
vn -0.9955 -0.0637 0.0695
vn -0.9939 -0.1059 -0.0307
vn -0.0000 -1.0000 -0.0000
vn -0.0062 -0.9999 0.0080
vn 0.0124 -0.9998 -0.0158
vn -0.0152 -0.9985 0.0519
vn -0.0545 -0.9985 -0.0000
vn -0.0704 -0.9973 0.0201
vn -0.0862 -0.9963 -0.0000
vn -0.0121 -0.9998 -0.0155
vn 0.0121 -0.9998 -0.0155
vn -0.0109 -0.9998 -0.0139
vn 0.0109 -0.9998 -0.0139
vn 0.0603 0.9871 0.1485
vn 0.0068 0.9897 0.1427
vn 0.0122 0.9804 0.1965
vn -0.0332 0.9960 0.0828
vn -0.0098 0.9986 -0.0513
vn -0.0550 0.9978 0.0362
vn 0.0357 0.9983 0.0457
vn 0.0668 0.9978 0.0037
vn -0.0680 0.9972 -0.0318
vn 0.1027 0.9946 0.0148
vn 0.0048 0.9992 -0.0391
vn -0.0955 0.9915 -0.0884
vn -0.0232 0.9943 -0.1045
vn 0.0751 0.9972 0.0021
vn -0.0383 0.9992 -0.0092
vn 0.0666 0.9965 -0.0499
vn 0.0305 0.9994 0.0188
vn -0.0919 0.9949 0.0413
vn -0.0001 0.9997 -0.0250
vn -0.0143 0.9985 -0.0519
vn 0.0562 0.9975 -0.0425
vn -0.0183 0.9997 -0.0150
vn 0.0413 0.9991 0.0123
vn -0.0892 0.9954 -0.0346
vn 0.0827 0.9950 0.0556
vn -0.0351 0.9994 0.0056
vn 0.0023 0.9964 0.0849
vn 0.0223 0.9972 0.0708
vn -0.0242 0.9970 0.0735
vn -0.0413 0.9891 0.1412
vn -0.0466 -0.0546 -0.9974
vn 0.0088 -0.0777 -0.9969
vn 0.0319 -0.0248 -0.9992
vn -0.0427 -0.0351 -0.9985
vn 0.0436 -0.0335 -0.9985
vn 0.0042 -0.0049 -1.0000
vn 0.0419 0.9852 -0.1660
vn 0.0333 0.9880 -0.1506
vn 0.0155 0.9867 -0.1617
vn -0.0593 0.9943 -0.0884
vn -0.0449 0.9981 -0.0432
vn 0.0586 0.9978 -0.0311
vn 0.0517 -0.0786 0.9956
vn -0.0584 -0.0689 0.9959
vn 0.0449 -0.0530 0.9976
vn -0.0285 -0.0751 0.9968
vn 0.0316 -0.0587 0.9978
vn -0.0344 -0.0551 0.9979
vn -0.0084 -0.9999 0.0108
vn 0.0084 -0.9999 0.0108
vt 0.625000 0.500000
vt 0.375000 0.500000
vt 0.625000 0.750000
vt 0.375000 0.750000
vt 0.875000 0.500000
vt 0.625000 0.250000
vt 0.125000 0.500000
vt 0.375000 0.250000
vt 0.875000 0.750000
vt 0.625000 1.000000
vt 0.625000 0.000000
vt 0.375000 1.000000
vt 0.375000 0.000000
vt 0.125000 0.750000
vt 0.375000 0.208333
vt 0.125000 0.541667
vt 0.375000 0.166667
vt 0.125000 0.583333
vt 0.375000 0.125000
vt 0.125000 0.625000
vt 0.375000 0.083333
vt 0.125000 0.666667
vt 0.375000 0.041667
vt 0.125000 0.708333
vt 0.625000 0.541667
vt 0.625000 0.583333
vt 0.625000 0.625000
vt 0.625000 0.666667
vt 0.625000 0.708333
vt 0.625000 0.041667
vt 0.875000 0.708333
vt 0.625000 0.083333
vt 0.875000 0.666667
vt 0.625000 0.125000
vt 0.875000 0.625000
vt 0.625000 0.166667
vt 0.875000 0.583333
vt 0.625000 0.208333
vt 0.875000 0.541667
vt 0.375000 0.708333
vt 0.375000 0.666667
vt 0.375000 0.625000
vt 0.375000 0.583333
vt 0.375000 0.541667
vt 0.339286 0.500000
vt 0.375000 0.464286
vt 0.303571 0.500000
vt 0.375000 0.428571
vt 0.267857 0.500000
vt 0.375000 0.392857
vt 0.232143 0.500000
vt 0.375000 0.357143
vt 0.196429 0.500000
vt 0.375000 0.321429
vt 0.160714 0.500000
vt 0.375000 0.285714
vt 0.625000 0.785714
vt 0.660714 0.750000
vt 0.625000 0.821429
vt 0.696429 0.750000
vt 0.625000 0.857143
vt 0.732143 0.750000
vt 0.625000 0.892857
vt 0.767857 0.750000
vt 0.625000 0.928571
vt 0.803571 0.750000
vt 0.625000 0.964286
vt 0.839286 0.750000
vt 0.160714 0.750000
vt 0.375000 0.964286
vt 0.196429 0.750000
vt 0.375000 0.928571
vt 0.232143 0.750000
vt 0.375000 0.892857
vt 0.267857 0.750000
vt 0.375000 0.857143
vt 0.303571 0.750000
vt 0.375000 0.821429
vt 0.339286 0.750000
vt 0.375000 0.785714
vt 0.839286 0.500000
vt 0.625000 0.285714
vt 0.803571 0.500000
vt 0.625000 0.321429
vt 0.767857 0.500000
vt 0.625000 0.357143
vt 0.732143 0.500000
vt 0.625000 0.392857
vt 0.696429 0.500000
vt 0.625000 0.428571
vt 0.660714 0.500000
vt 0.625000 0.464286
vt 0.339286 0.541667
vt 0.303571 0.541667
vt 0.267857 0.541667
vt 0.232143 0.541667
vt 0.196429 0.541667
vt 0.160714 0.541667
vt 0.339286 0.583333
vt 0.303571 0.583333
vt 0.267857 0.583333
vt 0.232143 0.583333
vt 0.196429 0.583333
vt 0.160714 0.583333
vt 0.339286 0.625000
vt 0.303571 0.625000
vt 0.267857 0.625000
vt 0.232143 0.625000
vt 0.196429 0.625000
vt 0.160714 0.625000
vt 0.339286 0.666667
vt 0.303571 0.666667
vt 0.267857 0.666667
vt 0.232143 0.666667
vt 0.196429 0.666667
vt 0.160714 0.666667
vt 0.339286 0.708333
vt 0.303571 0.708333
vt 0.267857 0.708333
vt 0.232143 0.708333
vt 0.196429 0.708333
vt 0.160714 0.708333
vt 0.839286 0.541667
vt 0.803571 0.541667
vt 0.767857 0.541667
vt 0.732143 0.541667
vt 0.696429 0.541667
vt 0.660714 0.541667
vt 0.839286 0.583333
vt 0.803572 0.583333
vt 0.767857 0.583333
vt 0.732143 0.583333
vt 0.696429 0.583333
vt 0.660714 0.583333
vt 0.839286 0.625000
vt 0.803572 0.625000
vt 0.767857 0.625000
vt 0.732143 0.625000
vt 0.696429 0.625000
vt 0.660714 0.625000
vt 0.839286 0.666667
vt 0.803572 0.666667
vt 0.767857 0.666667
vt 0.732143 0.666667
vt 0.696429 0.666667
vt 0.660714 0.666667
vt 0.839286 0.708333
vt 0.803571 0.708333
vt 0.767857 0.708333
vt 0.732143 0.708333
vt 0.696429 0.708333
vt 0.660714 0.708333
s 0
usemtl Material
f 107/147/1 40/68/1 7/9/1 19/31/1
f 41/70/2 8/12/2 7/10/2 40/67/2
f 9/15/3 6/8/3 5/6/3 23/38/3
f 77/117/4 46/79/4 4/4/4 24/40/4
f 24/40/5 4/4/5 3/3/5 18/29/5
f 29/46/6 2/2/6 1/1/6 52/92/6
f 2/2/7 28/44/7 14/25/7 1/1/7
f 28/44/8 27/43/8 15/26/8 14/25/8
f 27/43/9 26/42/9 16/27/9 15/26/9
f 26/42/10 25/41/10 17/28/10 16/27/10
f 25/41/11 24/40/11 18/29/11 17/28/11
f 29/45/12 53/93/12 28/44/12 2/2/12
f 53/93/13 59/99/13 27/43/13 28/44/13
f 59/99/14 65/105/14 26/42/14 27/43/14
f 65/105/15 71/111/15 25/41/15 26/42/15
f 71/111/16 77/117/16 24/40/16 25/41/16
f 8/13/17 13/23/17 19/30/17 7/11/17
f 13/23/18 12/21/18 20/32/18 19/30/18
f 12/21/19 11/19/19 21/34/19 20/32/19
f 11/19/20 10/17/20 22/36/20 21/34/20
f 10/17/21 9/15/21 23/38/21 22/36/21
f 47/81/22 83/123/22 23/39/22 5/5/22
f 83/123/22 89/129/22 22/37/22 23/39/22
f 89/129/22 95/135/22 21/35/22 22/37/22
f 95/135/22 101/141/22 20/33/22 21/35/22
f 101/141/23 107/147/23 19/31/23 20/33/23
f 17/28/24 18/29/24 112/152/24 106/146/24
f 106/146/22 112/152/22 111/151/22 105/145/22
f 105/145/22 111/151/22 110/150/22 104/144/22
f 104/144/22 110/150/22 109/149/22 103/143/22
f 103/143/22 109/149/22 108/148/22 102/142/22
f 102/142/22 108/148/22 107/147/22 101/141/22
f 16/27/25 17/28/25 106/146/25 100/140/25
f 100/140/22 106/146/22 105/145/22 99/139/22
f 99/139/22 105/145/22 104/144/22 98/138/22
f 98/138/22 104/144/22 103/143/22 97/137/22
f 97/137/22 103/143/22 102/142/22 96/136/22
f 96/136/22 102/142/22 101/141/22 95/135/22
f 15/26/26 16/27/26 100/140/26 94/134/26
f 94/134/22 100/140/22 99/139/22 93/133/22
f 93/133/22 99/139/22 98/138/22 92/132/22
f 92/132/22 98/138/22 97/137/22 91/131/22
f 91/131/22 97/137/22 96/136/22 90/130/22
f 90/130/22 96/136/22 95/135/22 89/129/22
f 14/25/27 15/26/27 94/134/27 88/128/27
f 88/128/22 94/134/22 93/133/22 87/127/22
f 87/127/22 93/133/22 92/132/22 86/126/22
f 86/126/22 92/132/22 91/131/22 85/125/22
f 85/125/22 91/131/22 90/130/22 84/124/22
f 84/124/22 90/130/22 89/129/22 83/123/22
f 1/1/28 14/25/28 88/128/28 52/91/28
f 52/91/22 88/128/22 87/127/22 51/89/22
f 51/89/29 87/127/29 86/126/29 50/87/29
f 50/87/30 86/126/30 85/125/30 49/85/30
f 49/85/31 85/125/31 84/124/31 48/83/31
f 48/83/32 84/124/32 83/123/32 47/81/32
f 12/22/33 13/24/33 82/122/33 76/116/33
f 76/116/34 82/122/34 81/121/34 75/115/34
f 75/115/35 81/121/35 80/120/35 74/114/35
f 74/114/36 80/120/36 79/119/36 73/113/36
f 73/113/37 79/119/37 78/118/37 72/112/37
f 72/112/38 78/118/38 77/117/38 71/111/38
f 11/20/39 12/22/39 76/116/39 70/110/39
f 70/110/40 76/116/40 75/115/40 69/109/40
f 69/109/41 75/115/41 74/114/41 68/108/41
f 68/108/42 74/114/42 73/113/42 67/107/42
f 67/107/43 73/113/43 72/112/43 66/106/43
f 66/106/44 72/112/44 71/111/44 65/105/44
f 10/18/45 11/20/45 70/110/45 64/104/45
f 64/104/46 70/110/46 69/109/46 63/103/46
f 63/103/47 69/109/47 68/108/47 62/102/47
f 62/102/48 68/108/48 67/107/48 61/101/48
f 61/101/49 67/107/49 66/106/49 60/100/49
f 60/100/50 66/106/50 65/105/50 59/99/50
f 9/16/51 10/18/51 64/104/51 58/98/51
f 58/98/52 64/104/52 63/103/52 57/97/52
f 57/97/53 63/103/53 62/102/53 56/96/53
f 56/96/54 62/102/54 61/101/54 55/95/54
f 55/95/55 61/101/55 60/100/55 54/94/55
f 54/94/56 60/100/56 59/99/56 53/93/56
f 6/7/57 9/16/57 58/98/57 34/55/57
f 34/55/58 58/98/58 57/97/58 33/53/58
f 33/53/59 57/97/59 56/96/59 32/51/59
f 32/51/60 56/96/60 55/95/60 31/49/60
f 31/49/61 55/95/61 54/94/61 30/47/61
f 30/47/62 54/94/62 53/93/62 29/45/62
f 6/8/63 34/56/63 47/82/63 5/6/63
f 34/56/64 33/54/64 48/84/64 47/82/64
f 33/54/65 32/52/65 49/86/65 48/84/65
f 32/52/66 31/50/66 50/88/66 49/86/66
f 31/50/67 30/48/67 51/90/67 50/88/67
f 30/48/68 29/46/68 52/92/68 51/90/68
f 13/24/69 8/14/69 41/69/69 82/122/69
f 82/122/70 41/69/70 42/71/70 81/121/70
f 81/121/71 42/71/71 43/73/71 80/120/71
f 80/120/72 43/73/72 44/75/72 79/119/72
f 79/119/73 44/75/73 45/77/73 78/118/73
f 78/118/74 45/77/74 46/79/74 77/117/74
f 4/4/75 46/80/75 35/57/75 3/3/75
f 46/80/76 45/78/76 36/59/76 35/57/76
f 45/78/77 44/76/77 37/61/77 36/59/77
f 44/76/78 43/74/78 38/63/78 37/61/78
f 43/74/79 42/72/79 39/65/79 38/63/79
f 42/72/80 41/70/80 40/67/80 39/65/80
f 18/29/22 3/3/22 35/58/22 112/152/22
f 112/152/22 35/58/22 36/60/22 111/151/22
f 111/151/22 36/60/22 37/62/22 110/150/22
f 110/150/22 37/62/22 38/64/22 109/149/22
f 109/149/81 38/64/81 39/66/81 108/148/81
f 108/148/82 39/66/82 40/68/82 107/147/82
