# Blender 3.3.1
# www.blender.org
mtllib Charcoal.mtl
o Cube
v -0.026251 -0.053006 0.019467
v -0.026251 0.053006 0.019467
v -0.026251 -0.053006 -0.019467
v -0.026251 0.053006 -0.019467
v 0.018689 -0.053006 0.019467
v 0.018689 0.053006 0.019467
v 0.018689 -0.053006 -0.019467
v 0.018689 0.053006 -0.019467
v -0.031716 -0.054455 -0.006666
v -0.031716 -0.054455 0.006666
v -0.031716 0.054455 0.006666
v -0.031716 0.054455 -0.006666
v 0.024154 -0.054455 0.006666
v 0.024154 -0.054455 -0.006666
v 0.024154 0.054455 -0.006666
v 0.024154 0.054455 0.006666
v 0.003914 -0.054455 -0.024219
v -0.011476 -0.054455 -0.024219
v -0.011476 0.054455 -0.024219
v 0.003914 0.054455 -0.024219
v -0.011476 -0.054455 0.024219
v 0.003914 -0.054455 0.024219
v 0.003914 0.054455 0.024219
v -0.011476 0.054455 0.024219
v -0.031345 0.087273 -0.006345
v 0.003709 0.053006 -0.006489
v -0.011271 0.053006 0.006489
v 0.003709 0.053006 0.006489
v 0.003869 -0.059297 0.024180
v -0.011271 -0.053006 -0.006489
v 0.018644 -0.057848 -0.019506
v 0.024109 -0.059297 -0.006705
v -0.026251 0.026609 0.019467
v -0.026251 0.026609 -0.019467
v 0.018689 0.026609 0.019467
v 0.024154 0.027336 -0.006666
v 0.024154 0.027336 0.006666
v -0.031716 0.027336 0.006666
v -0.031716 0.027336 -0.006666
v 0.003914 0.027336 0.024219
v -0.011476 0.027336 0.024219
v -0.011476 0.027336 -0.024219
v 0.003914 0.027336 -0.024219
v -0.026251 -0.033399 -0.019467
v 0.018689 -0.033399 0.019467
v 0.024154 -0.034312 -0.006666
v 0.024154 -0.034312 0.006666
v -0.031716 -0.034312 0.006666
v -0.031716 -0.034312 -0.006666
v 0.003914 -0.034312 0.024219
v -0.011476 -0.034312 0.024219
v -0.011476 -0.034312 -0.024219
v 0.003914 -0.034312 -0.024219
v -0.026251 -0.033399 0.019467
v -0.031345 0.070183 -0.006345
v -0.025880 0.068734 -0.019146
v -0.031345 0.070183 0.006988
v -0.011105 0.070183 -0.023897
v 0.004285 0.070183 -0.023897
v -0.010900 0.068734 -0.006168
v 0.004080 0.068734 -0.006168
v -0.010900 0.068734 0.006810
v 0.004080 0.068734 0.006810
v -0.025880 0.085823 -0.019146
v -0.011105 0.087273 -0.023897
v -0.010900 0.085823 -0.006168
v -0.031716 -0.056911 0.006666
v -0.026251 -0.055462 0.019467
v 0.024154 -0.056911 -0.006666
v 0.018689 -0.055462 -0.019467
v 0.003914 -0.056911 0.024219
v 0.018689 -0.055462 0.019467
v -0.031716 -0.056911 -0.006666
v 0.024154 -0.056911 0.006666
v -0.011271 -0.055462 -0.006489
v -0.011271 -0.055462 0.006489
v 0.003914 -0.056911 -0.024219
v -0.011476 -0.056911 -0.024219
v -0.011476 -0.056911 0.024219
v 0.003709 -0.055462 -0.006489
v -0.031716 -0.058270 0.006666
v 0.018644 -0.057848 0.019428
v 0.024109 -0.059297 0.006627
v 0.003869 -0.059297 -0.024258
v -0.011521 -0.059297 0.024180
v 0.003664 -0.057848 -0.006528
v -0.011316 -0.057848 -0.006528
v 0.003824 -0.063074 0.024141
v -0.011316 -0.057848 0.006450
v -0.026251 -0.056821 0.019467
v -0.011271 -0.056821 0.006489
v -0.011476 -0.058270 0.024219
v 0.003824 -0.061180 0.024141
v 0.018599 -0.059731 0.019389
v 0.024065 -0.061180 0.006589
v 0.024065 -0.061180 -0.006744
v -0.011565 -0.061180 0.024141
v 0.003619 -0.059731 -0.006566
v -0.011361 -0.059731 -0.006566
v 0.003619 -0.059731 0.006411
v -0.011361 -0.059731 0.006411
v 0.018599 -0.061625 0.019389
v 0.024065 -0.063074 0.006589
v 0.003619 -0.061625 0.006411
v 0.003914 0.058969 0.023850
v -0.011476 0.058969 0.023850
v -0.011271 0.057520 0.006120
v 0.003709 0.057520 0.006120
v -0.011476 0.061091 0.024219
v -0.026251 0.059641 0.019467
v -0.031716 0.061091 0.006666
v -0.011271 0.059641 0.006489
v 0.024006 0.056023 -0.006666
v 0.024006 0.056023 0.006666
v 0.003561 0.054574 -0.006489
v 0.003561 0.054574 0.006489
v 0.003914 0.057364 -0.024219
v 0.018689 0.055915 -0.019467
v 0.024154 0.057364 -0.006666
v 0.003709 0.055915 -0.006489
v 0.018246 0.026609 0.018434
v 0.003471 0.027336 0.023186
v 0.018246 -0.033399 0.018434
v 0.003471 -0.034312 0.023186
v -0.022287 -0.033399 0.018197
v -0.022287 0.026609 0.018197
v -0.027753 0.027336 0.005396
v -0.027753 -0.034312 0.005396
v -0.026918 0.026609 -0.021024
v -0.012143 0.027336 -0.025776
v -0.026918 -0.033399 -0.021024
v -0.012143 -0.034312 -0.025776
v 0.005184 0.054455 -0.025318
v 0.019959 0.053006 -0.020566
v 0.019959 -0.033399 -0.020566
v 0.019959 -0.053006 -0.020566
v 0.025425 -0.054455 -0.007766
v 0.025425 0.054455 -0.007766
v 0.025425 -0.034312 -0.007766
v 0.005184 -0.054455 -0.025318
v 0.005184 -0.034312 -0.025318
v 0.019959 0.026609 -0.020566
v 0.025425 0.027336 -0.007766
v 0.005184 0.027336 -0.025318
vn -0.9197 -0.0000 -0.3927
vn -0.6544 -0.0000 -0.7562
vn 0.9197 -0.0000 0.3927
vn -0.3062 -0.0000 0.9520
vn -0.9197 -0.0000 0.3927
vn -0.0000 -0.0204 0.9998
vn 0.9997 -0.0238 0.0096
vn 0.3062 -0.0000 0.9520
vn -1.0000 -0.0000 -0.0000
vn 0.6544 -0.0000 0.7562
vn 1.0000 -0.0000 -0.0000
vn -0.0000 -0.0000 1.0000
vn -0.0000 -1.0000 -0.0000
vn -0.0000 -0.0000 -1.0000
vn -0.9956 -0.0940 -0.0000
vn -0.3084 0.0267 -0.9509
vn 0.0087 -0.0000 1.0000
vn 0.0072 -0.0206 0.9998
vn -0.0000 1.0000 -0.0000
vn -0.0000 0.0815 0.9967
vn -0.9999 -0.0000 0.0115
vn 0.0087 -0.0000 -1.0000
vn -0.3062 -0.0000 -0.9520
vn -0.0432 0.9989 0.0185
vn -0.0432 -0.9989 0.0185
vn -0.0160 -0.9986 -0.0499
vn 0.0711 0.9941 0.0821
vn -0.0711 0.9941 -0.0822
vn 0.0711 -0.9941 0.0821
vn -0.0087 -0.0000 1.0000
vn 0.0707 0.9975 -0.0000
vn -0.0000 0.9967 0.0815
vn 0.9997 -0.0236 -0.0000
vn -0.9997 0.0236 -0.0000
vn -0.9181 0.0297 -0.3953
vn -0.0000 0.0204 -0.9998
vn 0.9999 -0.0000 -0.0115
vn -0.0000 -0.0163 0.9999
vn 0.9184 -0.0238 0.3948
vn -0.9998 0.0190 -0.0100
vn 0.0707 -0.9975 -0.0000
vn -0.0000 0.0163 -0.9999
vn -0.0000 -0.9967 0.0815
vn -0.9998 0.0189 -0.0000
vn 0.9197 -0.0000 -0.3927
vn 0.3062 -0.0000 -0.9520
vn -0.0072 0.0206 -0.9998
vn 0.3084 -0.0267 0.9509
vn 0.9192 -0.0109 -0.3937
vn 0.3053 0.0098 -0.9522
vn 0.9998 -0.0189 -0.0000
vn 0.3080 -0.0214 0.9511
vn -0.9997 0.0191 -0.0131
vn 0.9999 -0.0000 0.0115
vn -0.0087 -0.0000 -1.0000
vn -0.0707 -0.9975 -0.0000
vn -0.0000 -0.9967 -0.0815
vn -0.9997 0.0238 -0.0096
vn 0.9181 -0.0297 0.3953
vn -0.0000 0.9967 -0.0815
vn -0.9999 -0.0009 -0.0115
vn 0.9999 -0.0009 -0.0115
vn -0.0000 -0.0815 -0.9967
vn -0.0707 0.9975 -0.0000
vn -0.0086 -0.0008 -1.0000
vn -0.0086 -0.0008 1.0000
vn 0.9956 0.0940 -0.0000
vn -0.9999 -0.0000 -0.0115
vn -0.9192 -0.0000 0.3939
vn -0.0542 0.9983 0.0232
vn 0.9192 -0.0000 -0.3939
vn -0.3052 -0.0000 -0.9523
vn -0.0201 0.9978 -0.0626
vn 0.3052 -0.0000 0.9523
vn -0.0542 -0.9983 0.0232
vn -0.0711 -0.9941 -0.0822
vt 0.021385 0.255552
vt 0.198352 0.497871
vt 0.198352 0.320838
vt 0.021385 0.078519
vt 0.693287 0.637718
vt 0.198297 0.255515
vt 0.248241 0.255619
vt 0.248241 0.078584
vt 0.198297 0.078482
vt 0.425022 0.487850
vt 0.021385 0.497847
vt 0.415786 0.311058
vt 0.307841 0.572520
vt 0.021385 0.320814
vt 0.248241 0.497072
vt 0.424297 0.255637
vt 0.603679 0.773179
vt 0.802715 0.516358
vt 0.564998 0.204593
vt 0.517374 0.264988
vt 0.672349 0.696137
vt 0.723197 0.862419
vt 0.140935 0.258068
vt 0.080352 0.258081
vt 0.774546 0.225368
vt 0.795656 0.615866
vt 0.080352 0.076209
vt 0.140935 0.076196
vt 0.367289 0.493164
vt 0.306751 0.496322
vt 0.629579 0.716779
vt 0.848751 0.225343
vt 0.775744 0.862356
vt 0.828616 0.572759
vt 0.425131 0.857550
vt 0.297263 0.314698
vt 0.564998 0.263118
vt 0.848751 0.043471
vt 0.328795 0.630937
vt 0.425131 0.814780
vt 0.357801 0.311540
vt 0.871386 0.641843
vt 0.629579 0.829596
vt 0.364145 0.258071
vt 0.751281 0.615530
vt 0.823370 0.862332
vt 0.303855 0.258065
vt 0.303855 0.076190
vt 0.372589 0.550328
vt 0.828616 0.459942
vt 0.364145 0.076196
vt 0.517374 0.204787
vt 0.930068 0.819477
vt 0.871386 0.459971
vt 0.140769 0.500175
vt 0.080167 0.500167
vt 0.249864 0.550328
vt 0.080167 0.318294
vt 0.522032 0.922282
vt 0.140769 0.318302
vt 0.926550 0.687689
vt 0.468187 0.920811
vt 0.906545 0.390304
vt 0.248241 0.675309
vt 0.139421 0.021385
vt 0.975999 0.921365
vt 0.775744 0.942926
vt 0.371565 0.630961
vt 0.425131 0.937598
vt 0.930068 0.738907
vt 0.773521 0.144805
vt 0.926550 0.607120
vt 0.467068 0.204770
vt 0.468187 0.840172
vt 0.795656 0.695915
vt 0.774546 0.085825
vt 0.975999 0.862394
vt 0.248241 0.630937
vt 0.372589 0.689959
vt 0.522032 0.841622
vt 0.467068 0.263456
vt 0.425131 0.734254
vt 0.080340 0.508254
vt 0.752886 0.696137
vt 0.823370 0.942962
vt 0.723197 0.942637
vt 0.709796 0.043573
vt 0.248483 0.505158
vt 0.424102 0.263723
vt 0.884151 0.738907
vt 0.730751 0.101992
vt 0.306994 0.504408
vt 0.021385 0.122601
vt 0.161357 0.848770
vt 0.198352 0.364919
vt 0.036307 0.926645
vt 0.248241 0.122666
vt 0.966452 0.522032
vt 0.198297 0.122563
vt 0.021385 0.364895
vt 0.376572 0.916286
vt 0.418086 0.355080
vt 0.083833 0.926645
vt 0.299626 0.359922
vt 0.848751 0.088757
vt 0.360164 0.356764
vt 0.080352 0.121495
vt 0.161357 0.910832
vt 0.907290 0.043471
vt 0.140935 0.121482
vt 0.080167 0.363580
vt 0.376572 0.978376
vt 0.923681 0.459942
vt 0.140769 0.363589
vt 0.303855 0.121477
vt 0.966452 0.459942
vt 0.326649 0.797099
vt 0.364145 0.121483
vt 0.871386 0.505257
vt 0.248241 0.222876
vt 0.198297 0.222772
vt 0.950939 0.189216
vt 0.423313 0.455152
vt 0.021385 0.465104
vt 0.083833 0.826437
vt 0.974328 0.667760
vt 0.304996 0.462730
vt 0.848751 0.191705
vt 0.365534 0.459572
vt 0.080352 0.224443
vt 0.891521 0.251279
vt 0.907290 0.146419
vt 0.140935 0.224430
vt 0.080167 0.466529
vt 0.974328 0.605669
vt 0.923681 0.562890
vt 0.140769 0.466537
vt 0.303855 0.224427
vt 0.950939 0.251307
vt 0.326649 0.900047
vt 0.871386 0.608205
vt 0.364145 0.224433
vt 0.198352 0.465128
vt 0.021385 0.222809
vt 0.036307 0.826435
vt 0.891521 0.189217
vt 0.878019 0.389452
vt 0.607427 0.101198
vt 0.139421 0.049924
vt 0.249848 0.052318
vt 0.196783 0.052210
vt 0.800838 0.224399
vt 0.607427 0.161823
vt 0.078838 0.049937
vt 0.527692 0.021385
vt 0.305463 0.049924
vt 0.248241 0.797955
vt 0.398883 0.551349
vt 0.467068 0.021385
vt 0.365753 0.049930
vt 0.878019 0.308928
vt 0.526894 0.102003
vt 0.248241 0.878615
vt 0.467883 0.102003
vt 0.397859 0.631982
vt 0.799814 0.143836
vt 0.526894 0.161015
vt 0.800838 0.084856
vt 0.467883 0.161015
vt 0.398883 0.690980
vt 0.270337 0.733299
vt 0.249848 0.023779
vt 0.196783 0.023671
vt 0.328762 0.754329
vt 0.305463 0.021385
vt 0.276767 0.797099
vt 0.906545 0.309780
vt 0.328762 0.673707
vt 0.276766 0.877758
vt 0.836369 0.819440
vt 0.080352 0.262182
vt 0.596604 0.952415
vt 0.198352 0.501973
vt 0.021385 0.259653
vt 0.306965 0.500418
vt 0.248455 0.501168
vt 0.424297 0.259738
vt 0.080167 0.504269
vt 0.425236 0.491946
vt 0.021385 0.501948
vt 0.140935 0.262170
vt 0.719097 0.862296
vt 0.775744 0.819440
vt 0.367503 0.497260
vt 0.827470 0.942839
vt 0.719097 0.942514
vt 0.776550 0.738907
vt 0.880163 0.877501
vt 0.732175 0.738907
vt 0.372590 0.733990
vt 0.835562 0.738907
vt 0.371565 0.792952
vt 0.952328 0.043471
vt 0.596604 0.872366
vt 0.672349 0.819526
vt 0.364145 0.262173
vt 0.672349 0.862598
vt 0.303855 0.262167
vt 0.827470 0.862210
vt 0.732974 0.819526
vt 0.372590 0.873516
vt 0.140769 0.504277
vt 0.952328 0.124110
vt 0.879139 0.818824
vt 0.673164 0.738907
vt 0.672349 0.943167
vt 0.672349 0.493740
vt 0.080352 0.264452
vt 0.598872 0.952483
vt 0.021558 0.505934
vt 0.425264 0.495935
vt 0.367532 0.501250
vt 0.651819 0.021385
vt 0.363950 0.266158
vt 0.676327 0.862296
vt 0.376578 0.873402
vt 0.140942 0.508263
vt 0.650197 0.101992
vt 0.676327 0.942865
vt 0.883127 0.818949
vt 0.376578 0.733876
vt 0.884151 0.877626
vt 0.100316 0.557332
vt 0.080510 0.514562
vt 0.930068 0.862394
vt 0.375553 0.792838
vt 0.198352 0.504242
vt 0.694446 0.551729
vt 0.021385 0.261922
vt 0.752870 0.492136
vt 0.950060 0.043539
vt 0.598872 0.872434
vt 0.140769 0.506546
vt 0.752870 0.572760
vt 0.950060 0.124179
vt 0.528811 0.449366
vt 0.080510 0.511399
vt 0.933229 0.862490
vt 0.021728 0.509079
vt 0.425252 0.499085
vt 0.952476 0.389146
vt 0.608546 0.369553
vt 0.367519 0.504400
vt 0.887298 0.739044
vt 0.306981 0.507558
vt 0.608546 0.308928
vt 0.468187 0.449366
vt 0.379725 0.873276
vt 0.141112 0.511407
vt 0.527996 0.309734
vt 0.886274 0.819087
vt 0.379725 0.733750
vt 0.468985 0.309734
vt 0.887298 0.877763
vt 0.952476 0.308928
vt 0.527996 0.368746
vt 0.933229 0.943120
vt 0.468985 0.368746
vt 0.378701 0.792712
vt 0.042339 0.579522
vt 0.021728 0.512241
vt 0.425417 0.502244
vt 0.949315 0.389242
vt 0.021385 0.637939
vt 0.367684 0.507558
vt 0.949315 0.309023
vt 0.101939 0.637939
vt 0.930068 0.943025
vt 0.080121 0.310765
vt 0.468187 0.797402
vt 0.529617 0.920831
vt 0.140723 0.310773
vt 0.528811 0.797402
vt 0.918966 0.686238
vt 0.528013 0.716781
vt 0.918966 0.605669
vt 0.474604 0.204593
vt 0.469002 0.716781
vt 0.529617 0.840172
vt 0.474604 0.263279
vt 0.140769 0.307222
vt 0.730246 0.308928
vt 0.479262 0.921142
vt 0.198352 0.309757
vt 0.672253 0.331120
vt 0.021385 0.067439
vt 0.651316 0.389536
vt 0.806732 0.615530
vt 0.080352 0.065128
vt 0.731853 0.389536
vt 0.479262 0.840503
vt 0.806732 0.695579
vt 0.774623 0.389478
vt 0.422495 0.858051
vt 0.297119 0.312086
vt 0.835248 0.389478
vt 0.422495 0.814276
vt 0.357657 0.308928
vt 0.978615 0.921387
vt 0.775429 0.308928
vt 0.422495 0.938099
vt 0.978615 0.862417
vt 0.834441 0.308928
vt 0.422495 0.733750
vt 0.729130 0.144762
vt 0.522228 0.204593
vt 0.934924 0.819624
vt 0.671153 0.166949
vt 0.569852 0.204804
vt 0.522228 0.264793
vt 0.780600 0.862210
vt 0.650197 0.225368
vt 0.569852 0.263329
vt 0.780600 0.942780
vt 0.730751 0.225368
vt 0.934924 0.739054
vt 0.371565 0.916286
vt 0.021385 0.682024
vt 0.079077 0.926636
vt 0.371565 0.978376
vt 0.080167 0.680709
vt 0.918966 0.459951
vt 0.021385 0.782233
vt 0.079077 0.826428
vt 0.969320 0.667760
vt 0.080167 0.783658
vt 0.969320 0.605669
vt 0.918966 0.562899
vt 0.144709 0.658646
vt 0.021385 0.826428
vt 0.908169 0.189216
vt 0.144709 0.848769
vt 0.144709 0.558437
vt 0.021385 0.926638
vt 0.144709 0.910831
vt 0.203676 0.557332
vt 0.891521 0.043497
vt 0.203676 0.660280
vt 0.908169 0.251278
vt 0.891521 0.146446
vt 0.974004 0.522032
vt 0.144709 0.704239
vt 0.205470 0.122577
vt 0.974004 0.459942
vt 0.200324 0.703050
vt 0.319537 0.797113
vt 0.144709 0.804449
vt 0.205470 0.222785
vt 0.958492 0.189216
vt 0.200324 0.805999
vt 0.958492 0.251307
vt 0.319537 0.900061
vt 0.821541 0.459942
vt 0.528339 0.674011
vt 0.876195 0.459942
vt 0.795641 0.516359
vt 0.468187 0.671605
vt 0.571109 0.494672
vt 0.468187 0.527313
vt 0.571109 0.638962
vt 0.468187 0.494570
vt 0.571109 0.671705
vt 0.596604 0.773178
vt 0.629579 0.674008
vt 0.622504 0.716778
vt 0.843609 0.225368
vt 0.821541 0.572760
vt 0.629579 0.492136
vt 0.843609 0.043495
vt 0.629579 0.640370
vt 0.843609 0.191730
vt 0.876195 0.641814
vt 0.622504 0.829595
vt 0.528339 0.492136
vt 0.876195 0.608176
vt 0.528339 0.525774
vt 0.571109 0.538753
vt 0.468187 0.627523
vt 0.629579 0.537422
vt 0.843609 0.088781
vt 0.528339 0.628724
vt 0.876195 0.505228
s 0
usemtl Material.001
f 39/110/1 12/28/1 4/9/1 34/99/1
f 53/141/2 43/119/2 144/392/2 141/385/2
f 37/106/3 16/41/3 6/12/3 35/102/3
f 41/114/4 24/60/4 2/3/4 33/95/4
f 1/1/5 10/24/5 67/181/5 68/184/5
f 2/3/4 24/60/4 109/291/4 110/294/4
f 27/71/6 28/76/6 63/168/6 62/166/6
f 26/68/7 20/49/7 59/158/7 61/165/7
f 5/11/8 22/56/8 71/188/8 72/190/8
f 10/24/9 9/23/9 73/191/9 67/181/9
f 36/105/10 46/128/10 139/381/10 143/390/10
f 36/104/11 15/36/11 16/41/11 37/106/11
f 33/93/5 2/4/5 11/27/5 38/107/5
f 38/107/9 11/27/9 12/28/9 39/110/9
f 13/29/3 5/10/3 72/189/3 74/194/3
f 22/56/12 21/55/12 79/212/12 71/188/12
f 3/5/13 18/45/13 30/84/13 9/21/13
f 18/47/14 17/44/14 77/206/14 78/208/14
f 26/66/15 28/77/15 116/312/15 115/309/15
f 19/48/16 4/8/16 56/150/16 58/156/16
f 26/67/17 15/33/17 119/321/17 120/324/17
f 11/25/18 27/71/18 62/166/18 57/152/18
f 16/39/19 28/78/19 23/57/19 6/13/19
f 24/60/20 23/58/20 105/279/20 106/282/20
f 30/85/21 18/46/21 78/209/21 75/195/21
f 9/22/22 30/86/22 75/196/22 73/192/22
f 35/100/8 6/14/8 23/58/8 40/111/8
f 40/111/12 23/58/12 24/60/12 41/114/12
f 34/97/23 4/8/23 19/48/23 42/115/23
f 42/115/14 19/48/14 20/51/14 43/118/14
f 52/138/14 42/115/14 43/118/14 53/142/14
f 34/98/24 42/116/24 130/354/24 129/351/24
f 50/134/12 40/111/12 41/114/12 51/137/12
f 35/101/25 40/112/25 122/330/25 121/327/25
f 48/130/9 38/107/9 39/110/9 49/133/9
f 33/94/26 38/108/26 127/345/26 126/342/26
f 46/127/11 36/104/11 37/106/11 47/129/11
f 20/50/27 8/18/27 134/366/27 133/363/27
f 51/137/4 41/114/4 33/95/4 54/143/4
f 47/129/3 37/106/3 35/102/3 45/123/3
f 17/42/2 53/141/2 141/385/2 140/382/2
f 49/133/1 39/110/1 34/99/1 44/121/1
f 9/23/1 49/133/1 44/121/1 3/6/1
f 8/18/28 15/34/28 138/377/28 134/366/28
f 13/29/3 47/129/3 45/123/3 5/10/3
f 21/55/4 51/137/4 54/143/4 1/2/4
f 7/17/29 17/43/29 140/383/29 136/373/29
f 14/30/11 46/127/11 47/129/11 13/29/11
f 1/1/5 54/144/5 48/130/5 10/24/5
f 10/24/9 48/130/9 49/133/9 9/23/9
f 5/11/8 45/124/8 50/134/8 22/56/8
f 22/56/12 50/134/12 51/137/12 21/55/12
f 3/7/23 44/120/23 52/138/23 18/47/23
f 18/47/14 52/138/14 53/142/14 17/44/14
f 55/147/30 60/161/30 66/177/30 25/63/30
f 60/162/31 55/148/31 57/153/31 62/167/31
f 61/164/19 60/162/19 62/167/19 63/169/19
f 59/159/32 58/155/32 60/162/32 61/164/32
f 28/79/33 26/68/33 61/165/33 63/170/33
f 12/28/34 11/27/34 57/154/34 55/149/34
f 4/9/35 12/28/35 55/149/35 56/151/35
f 20/51/36 19/48/36 58/156/36 59/160/36
f 65/174/19 64/171/19 25/64/19 66/178/19
f 58/156/23 56/150/23 64/172/23 65/175/23
f 56/151/1 55/149/1 25/65/1 64/173/1
f 60/163/37 58/157/37 65/176/37 66/179/37
f 71/188/38 79/212/38 85/227/38 29/83/38
f 74/194/39 72/189/39 82/221/39 83/222/39
f 79/211/40 76/202/40 89/236/40 85/226/40
f 73/193/41 75/197/41 76/201/41 67/180/41
f 75/198/42 80/214/42 86/230/42 87/232/42
f 78/210/43 77/205/43 80/215/43 75/199/43
f 79/212/4 68/183/4 90/237/4 92/243/4
f 76/202/44 75/200/44 87/231/44 89/236/44
f 14/30/11 13/29/11 74/194/11 69/185/11
f 7/15/45 14/30/45 69/185/45 70/186/45
f 17/44/46 7/16/46 70/187/46 77/206/46
f 21/55/4 1/2/4 68/183/4 79/212/4
f 86/230/47 32/90/47 96/254/47 98/261/47
f 84/223/13 31/87/13 32/91/13 86/228/13
f 89/236/34 87/231/34 99/262/34 101/269/34
f 82/220/48 29/83/48 93/247/48 94/249/48
f 32/92/33 83/222/33 95/253/33 96/255/33
f 70/186/49 69/185/49 32/92/49 31/88/49
f 77/206/50 70/187/50 31/89/50 84/224/50
f 69/185/51 74/194/51 83/222/51 32/92/51
f 72/190/52 71/188/52 29/83/52 82/220/52
f 80/216/53 77/207/53 84/225/53 86/229/53
f 81/217/13 91/240/13 92/244/13 90/238/13
f 68/184/5 67/181/5 81/218/5 90/239/5
f 76/203/54 79/213/54 92/245/54 91/241/54
f 67/182/55 76/204/55 91/242/55 81/219/55
f 100/265/22 95/251/22 103/273/22 104/276/22
f 98/260/56 96/256/56 95/252/56 100/266/56
f 99/263/13 98/260/13 100/266/13 101/268/13
f 101/268/57 100/266/57 93/246/57 97/257/57
f 85/226/58 89/236/58 101/269/58 97/258/58
f 83/222/59 82/221/59 94/250/59 95/253/59
f 87/232/36 86/230/36 98/261/36 99/264/36
f 29/83/6 85/227/6 97/259/6 93/247/6
f 104/277/13 103/274/13 102/270/13 88/233/13
f 94/249/8 93/247/8 88/234/8 102/271/8
f 93/248/21 100/267/21 104/278/21 88/235/21
f 95/253/3 94/250/3 102/272/3 103/275/3
f 108/288/60 107/285/60 106/283/60 105/280/60
f 27/72/61 24/61/61 106/284/61 107/286/61
f 23/59/62 28/80/62 108/289/62 105/281/62
f 28/81/63 27/73/63 107/287/63 108/290/63
f 112/300/19 111/297/19 110/295/19 109/292/19
f 24/62/54 27/74/54 112/301/54 109/293/54
f 27/75/55 11/26/55 111/298/55 112/302/55
f 11/27/5 2/4/5 110/296/5 111/299/5
f 113/303/64 115/310/64 116/313/64 114/306/64
f 15/35/65 26/69/65 115/311/65 113/304/65
f 28/82/66 16/40/66 114/307/66 116/314/66
f 16/41/67 15/36/67 113/305/67 114/308/67
f 118/318/19 117/315/19 120/325/19 119/322/19
f 15/37/45 8/19/45 118/319/45 119/323/45
f 8/20/46 20/52/46 117/316/46 118/320/46
f 20/53/68 26/70/68 120/326/68 117/317/68
f 123/333/8 121/328/8 122/331/8 124/336/8
f 45/125/69 35/103/69 121/329/69 123/334/69
f 50/135/70 45/126/70 123/335/70 124/337/70
f 40/113/71 50/136/71 124/338/71 122/332/71
f 125/339/5 126/343/5 127/346/5 128/348/5
f 54/145/72 33/96/72 126/344/72 125/340/72
f 48/131/73 54/146/73 125/341/73 128/349/73
f 38/109/74 48/132/74 128/350/74 127/347/74
f 131/357/23 129/352/23 130/355/23 132/360/23
f 44/121/69 34/99/69 129/353/69 131/358/69
f 52/139/75 44/122/75 131/359/75 132/361/75
f 42/117/71 52/140/71 132/362/71 130/356/71
f 144/391/46 133/364/46 134/367/46 142/388/46
f 142/387/45 134/368/45 138/378/45 143/389/45
f 135/370/45 142/387/45 143/389/45 139/380/45
f 141/386/46 144/391/46 142/388/46 135/369/46
f 140/384/46 141/386/46 135/369/46 136/371/46
f 136/372/45 135/370/45 139/380/45 137/374/45
f 15/38/10 36/105/10 143/390/10 138/379/10
f 43/119/2 20/54/2 133/365/2 144/392/2
f 14/31/76 7/17/76 136/373/76 137/375/76
f 46/128/10 14/32/10 137/376/10 139/381/10
