# Blender 5.0.1
# www.blender.org
mtllib dustPickup.mtl
o Icosphere
v 0.000000 -1.240563 -0.000000
v 0.322736 -0.702475 0.227531
v -0.123271 -0.702476 0.368157
v -0.398922 -0.702472 -0.000000
v -0.123271 -0.702476 -0.368157
v 0.322736 -0.702475 -0.227531
v 0.221993 0.367912 0.783033
v -0.578412 0.367912 0.484178
v -0.578412 0.367912 -0.482912
v 0.221993 0.367912 -0.781767
v 0.716676 0.367908 0.000633
v 0.021195 0.746777 0.011192
v -0.064197 -1.138769 0.191727
v 0.168074 -1.138768 0.118493
v 0.117242 -0.762879 0.350136
v 0.379397 -0.762878 -0.000000
v 0.168074 -1.138768 -0.118493
v -0.207750 -1.138767 -0.000000
v -0.306939 -0.762878 0.216396
v -0.064197 -1.138769 -0.191727
v -0.306939 -0.762878 -0.216396
v 0.117242 -0.762879 -0.350136
v 0.662522 -0.144801 0.247709
v 0.662522 -0.144801 -0.246443
v 0.000770 -0.144801 0.800200
v 0.409755 -0.144801 0.647496
v -0.660982 -0.144801 0.247709
v -0.408215 -0.144801 0.647496
v -0.408215 -0.144801 -0.646230
v -0.660982 -0.144801 -0.246443
v 0.409755 -0.144801 -0.646230
v 0.000770 -0.144801 -0.798934
v 0.551602 0.446429 0.460514
v -0.209633 0.446430 0.744736
v -0.680096 0.446429 0.000633
v -0.209633 0.446430 -0.743470
v 0.551602 0.446429 -0.459248
v 0.151226 0.629705 0.471072
v 0.441994 0.629703 0.011192
v -0.319237 0.629705 0.295411
v -0.319237 0.629705 -0.273027
v 0.151226 0.629705 -0.448688
vn 0.1589 -0.8490 0.5040
vn 0.8657 -0.3864 0.3182
vn -0.4179 -0.8529 0.3129
vn -0.4179 -0.8529 -0.3129
vn 0.1589 -0.8490 -0.5040
vn 0.8002 -0.4996 0.3319
vn -0.0903 -0.5973 0.7969
vn -0.8416 -0.4932 0.2201
vn -0.4068 -0.5656 -0.7174
vn 0.5400 -0.5576 -0.6304
vn 0.7455 -0.4713 0.4713
vn -0.2935 -0.5438 0.7862
vn -0.9051 -0.4253 -0.0000
vn -0.2938 -0.5425 -0.7870
vn 0.7459 -0.4704 -0.4716
vn 0.3594 0.7534 0.5507
vn -0.4678 0.7726 0.4292
vn -0.5816 0.7747 -0.2481
vn 0.0906 0.7922 -0.6034
vn 0.6823 0.7208 -0.1218
vn 0.2643 0.9499 -0.1671
vn 0.3974 0.8826 -0.2512
vn 0.3398 0.7732 -0.5355
vn -0.1017 0.9568 -0.2723
vn -0.1450 0.9100 -0.3883
vn -0.4594 0.7862 -0.4133
vn -0.3252 0.9456 -0.0000
vn -0.4528 0.8916 -0.0000
vn -0.5925 0.7661 0.2490
vn -0.1017 0.9568 0.2723
vn -0.1511 0.9019 0.4047
vn 0.0847 0.7726 0.6292
vn 0.2643 0.9499 0.1671
vn 0.4078 0.8759 0.2578
vn 0.6871 0.7159 0.1244
vn 0.9427 0.0587 -0.3284
vn 0.8447 -0.0338 -0.5341
vn 0.6904 0.0623 -0.7207
vn -0.0762 0.0662 -0.9949
vn -0.3496 -0.0366 -0.9362
vn -0.5849 0.0634 -0.8087
vn -0.9750 0.0581 -0.2145
vn -0.9995 -0.0323 -0.0000
vn -0.9750 0.0581 0.2145
vn -0.5849 0.0634 0.8087
vn -0.3496 -0.0366 0.9362
vn -0.0762 0.0662 0.9949
vn 0.6904 0.0623 0.7207
vn 0.8447 -0.0338 0.5341
vn 0.9427 0.0587 0.3284
vn 0.3473 -0.1187 -0.9302
vn 0.2980 -0.5234 -0.7982
vn -0.0900 -0.5962 -0.7978
vn -0.8401 -0.1097 -0.5312
vn -0.7529 -0.4544 -0.4760
vn -0.8418 -0.4929 -0.2202
vn -0.8401 -0.1097 0.5312
vn -0.7526 -0.4552 0.4758
vn -0.4061 -0.5666 0.7170
vn 0.3473 -0.1187 0.9302
vn 0.2978 -0.5246 0.7975
vn 0.5399 -0.5585 0.6298
vn 0.9945 -0.1050 -0.0000
vn 0.9092 -0.4165 -0.0000
vn 0.8005 -0.4990 -0.3318
vn 0.5537 -0.3813 -0.7403
vn 0.2638 -0.4799 -0.8367
vn -0.0255 -0.3777 -0.9256
vn -0.5113 -0.3808 -0.7704
vn -0.6995 -0.4861 -0.5238
vn -0.8826 -0.3867 -0.2672
vn -0.8826 -0.3867 0.2672
vn -0.6995 -0.4861 0.5238
vn -0.5113 -0.3808 0.7704
vn 0.8657 -0.3864 -0.3182
vn 0.8717 -0.4901 -0.0000
vn 0.5180 -0.8554 -0.0000
vn -0.0255 -0.3777 0.9256
vn 0.2638 -0.4799 0.8367
vn 0.5537 -0.3813 0.7403
vt 0.260489 1.000000
vt 0.204362 0.980081
vt 0.263637 0.965696
vt 0.145012 0.368145
vt 0.058349 0.467179
vt 0.085180 0.345761
vt 0.691472 0.479816
vt 0.631655 0.478052
vt 0.678525 0.441687
vt 0.742284 0.512341
vt 0.691472 0.473137
vt 0.739382 0.463526
vt 0.798462 0.485928
vt 0.234574 0.210656
vt 0.248034 0.840896
vt 0.187308 0.871343
vt 0.165005 0.689605
vt 0.617404 0.327133
vt 0.573742 0.377292
vt 0.480359 0.213494
vt 0.754148 0.332275
vt 0.694275 0.350534
vt 0.719103 0.145643
vt 0.867594 0.375291
vt 0.815030 0.364970
vt 0.939562 0.199007
vt 0.318535 0.290052
vt 0.282088 0.668591
vt 0.598183 0.145625
vt 0.836675 0.157210
vt 0.032969 0.308950
vt 0.000000 0.121761
vt 0.112906 0.146375
vt 0.473611 0.492484
vt 0.581034 0.521185
vt 0.466528 0.554148
vt 0.307629 0.662934
vt 0.365067 0.549186
vt 0.368967 0.654335
vt 0.406485 0.891087
vt 0.325613 0.783478
vt 0.427073 0.788439
vt 0.633565 0.861647
vt 0.517193 0.900279
vt 0.560546 0.771135
vt 0.675053 0.615296
vt 0.675053 0.738172
vt 0.584933 0.626334
vt 0.471952 0.669590
vt 0.192272 0.517556
vt 0.078492 0.562982
vt 0.097500 0.492484
vt 0.123217 0.000000
vt 0.236727 0.059294
vt 0.015764 0.011123
vt 0.807390 -0.000000
vt 0.921567 0.044152
vt 0.691472 0.021516
vt 0.454514 0.041095
vt 0.580267 -0.000000
vt 0.349676 0.132824
vt 0.307629 0.521857
vt 0.061704 0.715299
vt -0.000000 0.565381
vt 0.349676 0.119645
vt 0.691472 0.108382
vt 0.676936 0.317851
vt 0.383000 0.286068
vt 0.307629 0.849170
vt 0.156378 0.419717
vt -0.000000 0.436352
vt 0.007661 0.492484
vt 0.134213 0.868519
s 0
f 1/1/1 14/2/1 13/3/1
f 2/4/2 14/5/2 16/6/2
f 1/7/3 13/8/3 18/9/3
f 1/10/4 18/11/4 20/12/4
f 1/10/5 20/12/5 17/13/5
f 2/4/6 16/6/6 23/14/6
f 3/15/7 15/16/7 25/17/7
f 4/18/8 19/19/8 27/20/8
f 5/21/9 21/22/9 29/23/9
f 6/24/10 22/25/10 31/26/10
f 2/4/11 23/14/11 26/27/11
f 3/15/12 25/17/12 28/28/12
f 4/18/13 27/20/13 30/29/13
f 5/21/14 29/23/14 32/30/14
f 6/31/15 31/32/15 24/33/15
f 7/34/16 33/35/16 38/36/16
f 8/37/17 34/38/17 40/39/17
f 9/40/18 35/41/18 41/42/18
f 10/43/19 36/44/19 42/45/19
f 11/46/20 37/47/20 39/48/20
f 39/48/21 42/45/21 12/49/21
f 39/48/22 37/47/22 42/45/22
f 37/47/23 10/43/23 42/45/23
f 42/45/24 41/42/24 12/49/24
f 42/45/25 36/44/25 41/42/25
f 36/44/26 9/40/26 41/42/26
f 41/42/27 40/39/27 12/49/27
f 41/42/28 35/41/28 40/39/28
f 35/41/29 8/37/29 40/39/29
f 40/39/30 38/36/30 12/49/30
f 40/39/31 34/38/31 38/36/31
f 34/50/32 7/51/32 38/52/32
f 38/36/33 39/48/33 12/49/33
f 38/36/34 33/35/34 39/48/34
f 33/35/35 11/46/35 39/48/35
f 24/33/36 37/53/36 11/54/36
f 24/33/37 31/32/37 37/53/37
f 31/32/38 10/55/38 37/53/38
f 32/30/39 36/56/39 10/57/39
f 32/30/40 29/23/40 36/56/40
f 29/23/41 9/58/41 36/56/41
f 30/29/42 35/59/42 9/60/42
f 30/29/43 27/20/43 35/59/43
f 27/20/44 8/61/44 35/59/44
f 28/28/45 34/50/45 8/62/45
f 28/28/46 25/17/46 34/50/46
f 25/17/47 7/51/47 34/50/47
f 26/63/48 33/64/48 7/51/48
f 26/27/49 23/14/49 33/65/49
f 23/14/50 11/54/50 33/65/50
f 31/26/51 32/30/51 10/57/51
f 31/26/52 22/25/52 32/30/52
f 22/25/53 5/21/53 32/30/53
f 29/66/54 30/29/54 9/60/54
f 29/66/55 21/67/55 30/29/55
f 21/67/56 4/18/56 30/29/56
f 27/20/57 28/68/57 8/61/57
f 27/20/58 19/19/58 28/68/58
f 19/69/59 3/15/59 28/28/59
f 25/17/60 26/63/60 7/51/60
f 25/17/61 15/16/61 26/63/61
f 15/70/62 2/4/62 26/27/62
f 23/14/63 24/33/63 11/54/63
f 23/14/64 16/6/64 24/33/64
f 16/6/65 6/31/65 24/33/65
f 17/13/66 22/25/66 6/24/66
f 17/13/67 20/12/67 22/25/67
f 20/12/68 5/21/68 22/25/68
f 20/12/69 21/22/69 5/21/69
f 20/12/70 18/11/70 21/22/70
f 18/9/71 4/18/71 21/67/71
f 18/9/72 19/19/72 4/18/72
f 18/9/73 13/8/73 19/19/73
f 13/3/74 3/15/74 19/69/74
f 16/6/75 17/71/75 6/31/75
f 16/6/76 14/5/76 17/71/76
f 14/5/77 1/72/77 17/71/77
f 13/3/78 15/16/78 3/15/78
f 13/3/79 14/2/79 15/16/79
f 14/2/80 2/73/80 15/16/80
