# Blender 5.0.1
# www.blender.org
mtllib dust.mtl
o Cylinder
v 0.000000 0.307497 -1.000000
v -0.028196 0.882551 -0.032219
v 0.500000 0.307497 -0.866025
v -0.015232 0.882551 -0.028745
v 0.866025 0.307497 -0.500000
v -0.005741 0.882551 -0.019254
v 1.000000 0.307497 0.000000
v -0.002267 0.882551 -0.006289
v 0.866025 0.307497 0.500000
v -0.005741 0.882551 0.006675
v 0.500000 0.307497 0.866025
v -0.015232 0.882551 0.016166
v 0.000000 0.307497 1.000000
v -0.028196 0.882551 0.019640
v -0.500000 0.307497 0.866025
v -0.041161 0.882551 0.016166
v -0.866025 0.307497 0.500000
v -0.050652 0.882551 0.006675
v -1.000000 0.307497 0.000000
v -0.054126 0.882551 -0.006289
v -0.866025 0.307497 -0.500000
v -0.050652 0.882551 -0.019254
v -0.500000 0.307497 -0.866025
v -0.041161 0.882551 -0.028745
v 0.000000 0.597140 -0.675040
v 0.337520 0.597140 -0.584602
v 0.584602 0.597140 -0.337520
v 0.675040 0.597140 0.000000
v 0.584602 0.597140 0.337520
v 0.337520 0.597140 0.584602
v 0.000000 0.597140 0.675040
v -0.337520 0.597140 0.584602
v -0.584602 0.597140 0.337520
v -0.675040 0.597140 0.000000
v -0.584602 0.597140 -0.337520
v -0.337520 0.597140 -0.584602
vn 0.1071 0.9104 -0.3995
vn 0.2871 0.9139 -0.2871
vn 0.3870 0.9162 -0.1037
vn 0.3854 0.9169 0.1033
vn 0.2838 0.9159 0.2838
vn 0.1054 0.9134 0.3932
vn -0.1074 0.9098 0.4008
vn -0.2991 0.9062 0.2991
vn -0.4141 0.9034 0.1110
vn -0.4160 0.9025 -0.1115
vn -0.0000 1.0000 -0.0000
vn -0.3027 0.9038 -0.3027
vn -0.1092 0.9067 -0.4074
vn -0.0000 -1.0000 -0.0000
vn -0.1755 0.7349 -0.6550
vn -0.4795 0.7349 -0.4795
vn -0.6550 0.7349 -0.1755
vn -0.6550 0.7349 0.1755
vn -0.4795 0.7349 0.4795
vn -0.1755 0.7349 0.6550
vn 0.1755 0.7349 0.6550
vn 0.4795 0.7349 0.4795
vn 0.6550 0.7349 0.1755
vn 0.6550 0.7349 -0.1755
vn 0.4795 0.7349 -0.4795
vn 0.1755 0.7349 -0.6550
vt 0.794626 0.081216
vt 0.758027 0.243788
vt 0.754553 0.243788
vt 0.704189 0.081216
vt 0.751544 0.245525
vt 0.625868 0.126436
vt 0.749807 0.248533
vt 0.580650 0.204759
vt 0.749807 0.252007
vt 0.580650 0.295199
vt 0.751544 0.255016
vt 0.625868 0.373522
vt 0.754553 0.256753
vt 0.704189 0.418742
vt 0.758027 0.256753
vt 0.794626 0.418741
vt 0.761035 0.255016
vt 0.872946 0.373521
vt 0.762772 0.252007
vt 0.918165 0.295198
vt 0.762772 0.248533
vt 0.918165 0.204759
vt 0.761035 0.245525
vt 0.872946 0.126436
vt -0.000000 0.316992
vt -0.000000 0.183016
vt 0.066988 0.066988
vt 0.183016 0.000000
vt 0.316992 0.000000
vt 0.433019 0.066988
vt 0.500008 0.183016
vt 0.500008 0.316992
vt 0.433020 0.433020
vt 0.316992 0.500008
vt 0.183016 0.500008
vt 0.066988 0.433020
vt 0.933014 0.066988
vt 0.816990 0.000000
vt 1.000000 0.183015
vt 1.000000 0.316992
vt 0.933014 0.433019
vt 0.816990 0.500008
vt 0.683018 0.500008
vt 0.566994 0.433020
vt 0.500008 0.316993
vt 0.500008 0.183016
vt 0.566994 0.066989
vt 0.683018 0.000000
s 0
usemtl Material.002
f 25/1/1 2/2/1 4/3/1 26/4/1
f 26/4/2 4/3/2 6/5/2 27/6/2
f 27/6/3 6/5/3 8/7/3 28/8/3
f 28/8/4 8/7/4 10/9/4 29/10/4
f 29/10/5 10/9/5 12/11/5 30/12/5
f 30/12/6 12/11/6 14/13/6 31/14/6
f 31/14/7 14/13/7 16/15/7 32/16/7
f 32/16/8 16/15/8 18/17/8 33/18/8
f 33/18/9 18/17/9 20/19/9 34/20/9
f 34/20/10 20/19/10 22/21/10 35/22/10
f 4/3/11 2/2/11 24/23/11 22/21/11 20/19/11 18/17/11 16/15/11 14/13/11 12/11/11 10/9/11 8/7/11 6/5/11
f 35/22/12 22/21/12 24/23/12 36/24/12
f 36/24/13 24/23/13 2/2/13 25/1/13
f 1/25/14 3/26/14 5/27/14 7/28/14 9/29/14 11/30/14 13/31/14 15/32/14 17/33/14 19/34/14 21/35/14 23/36/14
f 23/37/15 36/24/15 25/1/15 1/38/15
f 21/39/16 35/22/16 36/24/16 23/37/16
f 19/40/17 34/20/17 35/22/17 21/39/17
f 17/41/18 33/18/18 34/20/18 19/40/18
f 15/42/19 32/16/19 33/18/19 17/41/19
f 13/43/20 31/14/20 32/16/20 15/42/20
f 11/44/21 30/12/21 31/14/21 13/43/21
f 9/45/22 29/10/22 30/12/22 11/44/22
f 7/46/23 28/8/23 29/10/23 9/45/23
f 5/47/24 27/6/24 28/8/24 7/46/24
f 3/48/25 26/4/25 27/6/25 5/47/25
f 1/38/26 25/1/26 26/4/26 3/48/26
