# Blender 3.3.1
# www.blender.org
mtllib Frame.mtl
o Cube
v -0.087756 1.000000 -1.000000
v -0.087756 -1.000000 -1.000000
v -0.087756 1.000000 1.000000
v -0.087756 -1.000000 1.000000
v 0.087756 1.000000 -1.000000
v 0.087756 -1.000000 -1.000000
v 0.087756 1.000000 1.000000
v 0.087756 -1.000000 1.000000
v 0.087756 -0.881792 -0.881792
v 0.087756 -0.881792 0.881792
v 0.087756 0.881792 0.881792
v 0.087756 0.881792 -0.881792
v -0.077648 -0.881792 -0.881792
v -0.077648 -0.881792 0.881792
v -0.077648 0.881792 0.881792
v -0.077648 0.881792 -0.881792
v 0.087756 -1.000000 -0.749948
v 0.087756 -1.000000 -0.499948
v 0.087756 -1.000000 -0.249948
v 0.087756 -1.000000 0.000052
v 0.087756 -1.000000 0.250052
v 0.087756 -1.000000 0.500052
v 0.087756 -1.000000 0.750052
v -0.087756 1.000000 -0.749948
v -0.087756 1.000000 -0.499948
v -0.087756 1.000000 -0.249948
v -0.087756 1.000000 0.000052
v -0.087756 1.000000 0.250052
v -0.087756 1.000000 0.500052
v -0.087756 1.000000 0.750052
v 0.087756 1.000000 0.750052
v 0.087756 1.000000 0.500052
v 0.087756 1.000000 0.250052
v 0.087756 1.000000 0.000052
v 0.087756 1.000000 -0.249948
v 0.087756 1.000000 -0.499948
v 0.087756 1.000000 -0.749948
v -0.087756 -1.000000 0.750052
v -0.087756 -1.000000 0.500052
v -0.087756 -1.000000 0.250052
v -0.087756 -1.000000 0.000052
v -0.087756 -1.000000 -0.249948
v -0.087756 -1.000000 -0.499948
v -0.087756 -1.000000 -0.749948
v 0.087756 -0.881792 -0.661298
v 0.087756 -0.881792 -0.440850
v 0.087756 -0.881792 -0.220402
v 0.087756 -0.881792 0.000046
v 0.087756 -0.881792 0.220494
v 0.087756 -0.881792 0.440942
v 0.087756 -0.881792 0.661390
v 0.087756 0.881792 0.661390
v 0.087756 0.881792 0.440942
v 0.087756 0.881792 0.220494
v 0.087756 0.881792 0.000046
v 0.087756 0.881792 -0.220402
v 0.087756 0.881792 -0.440850
v 0.087756 0.881792 -0.661298
v -0.077648 -0.881792 -0.661298
v -0.077648 -0.881792 -0.440850
v -0.077648 -0.881792 -0.220402
v -0.077648 -0.881792 0.000046
v -0.077648 -0.881792 0.220494
v -0.077648 -0.881792 0.440942
v -0.077648 -0.881792 0.661390
v -0.077648 0.881792 0.661390
v -0.077648 0.881792 0.440942
v -0.077648 0.881792 0.220494
v -0.077648 0.881792 0.000046
v -0.077648 0.881792 -0.220402
v -0.077648 0.881792 -0.440850
v -0.077648 0.881792 -0.661298
v -0.021069 1.000000 0.905031
v 0.021069 1.000000 0.905031
v -0.021069 1.000000 0.845021
v 0.021069 1.000000 0.845021
v 0.023401 1.000000 -0.841634
v 0.023401 1.000000 -0.908314
v -0.023401 1.000000 -0.908314
v -0.023401 1.000000 -0.841634
v -0.019654 1.568068 0.209584
v 0.019654 1.568068 0.209584
v -0.019654 1.568068 0.153604
v 0.019654 1.568068 0.153604
v 0.026261 1.568068 -0.144127
v 0.026261 1.568068 -0.218957
v -0.026261 1.568068 -0.218957
v -0.026261 1.568068 -0.144127
v -0.015990 1.660619 0.005528
v 0.011050 1.660619 0.005528
v -0.015990 1.622114 0.005931
v 0.011050 1.622114 0.005931
v 0.010913 1.622497 -0.006648
v 0.010913 1.660629 -0.006423
v -0.015853 1.660629 -0.006423
v -0.015853 1.622497 -0.006648
vn -0.0000 1.0000 -0.0000
vn -0.0000 -0.0000 1.0000
vn 1.0000 -0.0000 -0.0000
vn -0.0000 -1.0000 -0.0000
vn -1.0000 -0.0000 -0.0000
vn -0.0000 -0.0000 -1.0000
vn 1.0000 0.0025 -0.0000
vn 1.0000 -0.0050 -0.0000
vn -0.0000 0.9107 0.4131
vn 0.9986 0.0440 -0.0305
vn -0.0000 -0.7754 0.6315
vn -0.0000 0.7745 0.6326
vn -0.0000 0.7717 -0.6359
vn -0.0000 -0.7727 -0.6348
vn -1.0000 0.0025 -0.0000
vn -1.0000 -0.0050 -0.0000
vn 0.9999 -0.0000 -0.0112
vn -0.0000 1.0000 0.0008
vn -0.0000 -0.9298 0.3681
vn -0.0000 0.9168 -0.3993
vn -0.0000 -0.9391 -0.3437
vn -0.9997 0.0188 -0.0130
vn -0.9974 0.0637 0.0326
vn 0.9945 0.0937 0.0479
vn -0.0000 -0.9995 -0.0304
vn -0.9999 -0.0000 -0.0112
vt 0.273381 0.255833
vt 0.008774 0.784985
vt 0.537966 0.520440
vt 0.273381 0.008774
vt 0.255806 0.785068
vt 0.255833 0.273381
vt 0.255833 0.255833
vt 0.008774 0.537988
vt 0.785025 0.520440
vt 0.255833 0.008774
vt 0.255833 0.520441
vt 0.255806 0.538071
vt 0.520440 0.255833
vt 0.520418 0.520416
vt 0.537966 0.273381
vt 0.520441 0.008774
vt 0.008774 0.273381
vt 0.273381 0.520463
vt 0.008774 0.255833
vt 0.520418 0.273381
vt 0.785025 0.273381
vt 0.008774 0.008774
vt 0.008774 0.520440
vt 0.273381 0.273428
vt 0.755821 0.537988
vt 0.773368 0.537988
vt 0.287982 0.505859
vt 0.491236 0.770841
vt 0.287982 0.288025
vt 0.991224 0.537988
vt 0.273381 0.770841
vt 0.537988 0.008774
vt 0.505818 0.287984
vt 0.505817 0.505818
vt 0.537966 0.537988
vt 0.755843 0.008774
vt 0.991226 0.008774
vt 0.755821 0.770819
vt 0.773368 0.770819
vt 0.491236 0.538010
vt 0.991224 0.770819
vt 0.991226 0.226607
vt 0.273381 0.538010
vt 0.537988 0.241604
vt 0.773390 0.226648
vt 0.773390 0.008815
vt 0.537966 0.770819
vt 0.755843 0.241604
vt 0.008774 0.304270
vt 0.273381 0.489577
vt 0.008774 0.335152
vt 0.273381 0.458697
vt 0.008774 0.366035
vt 0.273381 0.427818
vt 0.008774 0.396917
vt 0.273381 0.396939
vt 0.008774 0.427800
vt 0.273381 0.366059
vt 0.008774 0.458682
vt 0.273381 0.335180
vt 0.008774 0.489564
vt 0.273381 0.304301
vt 0.008774 0.754104
vt 0.568855 0.520440
vt 0.008774 0.723229
vt 0.599737 0.520440
vt 0.008774 0.692354
vt 0.630620 0.520440
vt 0.008774 0.661480
vt 0.661502 0.520440
vt 0.008774 0.630605
vt 0.692384 0.520440
vt 0.008774 0.599731
vt 0.723267 0.520440
vt 0.008774 0.568856
vt 0.754149 0.520440
vt 0.520418 0.304254
vt 0.754149 0.273381
vt 0.520418 0.335133
vt 0.723267 0.273381
vt 0.520418 0.366012
vt 0.692384 0.273381
vt 0.520418 0.396892
vt 0.661502 0.273381
vt 0.520418 0.427771
vt 0.630620 0.273381
vt 0.520418 0.458651
vt 0.599737 0.273381
vt 0.520418 0.489530
vt 0.568855 0.273381
vt 0.255806 0.568939
vt 0.255833 0.489564
vt 0.255806 0.599813
vt 0.255833 0.458682
vt 0.255806 0.630688
vt 0.255833 0.427800
vt 0.255806 0.661563
vt 0.255833 0.396917
vt 0.255806 0.692437
vt 0.255833 0.366035
vt 0.255806 0.723312
vt 0.255833 0.335152
vt 0.255806 0.754187
vt 0.255833 0.304270
vt 0.800606 0.537988
vt 0.287982 0.478624
vt 0.827838 0.537988
vt 0.287982 0.451395
vt 0.855070 0.537988
vt 0.287982 0.424166
vt 0.882302 0.537988
vt 0.287982 0.396937
vt 0.909534 0.537988
vt 0.287982 0.369707
vt 0.936766 0.537988
vt 0.287982 0.342478
vt 0.963997 0.537988
vt 0.287982 0.315249
vt 0.565214 0.008774
vt 0.505818 0.315208
vt 0.592446 0.008774
vt 0.505817 0.342437
vt 0.619678 0.008774
vt 0.505817 0.369666
vt 0.646910 0.008774
vt 0.505817 0.396895
vt 0.674142 0.008774
vt 0.505817 0.424124
vt 0.701374 0.008774
vt 0.505817 0.451354
vt 0.728606 0.008774
vt 0.505817 0.478583
vt 0.800606 0.770819
vt 0.991226 0.036008
vt 0.827838 0.770819
vt 0.991226 0.063238
vt 0.855070 0.770819
vt 0.991226 0.090467
vt 0.882302 0.770819
vt 0.991226 0.117696
vt 0.909534 0.770819
vt 0.991226 0.144925
vt 0.936766 0.770819
vt 0.991226 0.172154
vt 0.963997 0.770819
vt 0.991226 0.199384
vt 0.565214 0.241604
vt 0.773390 0.199425
vt 0.592446 0.241604
vt 0.773390 0.172196
vt 0.619678 0.241604
vt 0.773390 0.144967
vt 0.646910 0.241604
vt 0.773390 0.117737
vt 0.674142 0.241604
vt 0.773390 0.090508
vt 0.701374 0.241604
vt 0.773390 0.063279
vt 0.728606 0.241604
vt 0.773390 0.036050
vt 0.773294 0.426569
vt 0.962418 0.962937
vt 0.884306 0.273381
vt 0.514718 0.677316
vt 0.773294 0.367252
vt 0.962418 0.903620
vt 0.765881 0.426569
vt 0.968478 0.481733
vt 0.884304 0.280792
vt 0.519094 0.671333
vt 0.765881 0.367252
vt 0.909162 0.481733
vt 0.514614 0.701253
vt 0.557529 0.363970
vt 0.905879 0.273381
vt 0.509418 0.694863
vt 0.549292 0.363970
vt 0.738416 0.900338
vt 0.549292 0.429851
vt 0.738416 0.966219
vt 0.884304 0.497252
vt 0.557529 0.429851
vt 0.971761 0.273381
vt 0.884306 0.489017
vt 0.876468 0.960945
vt 0.814091 0.359273
vt 0.508783 0.566531
vt 0.876468 0.905612
vt 0.966486 0.396322
vt 0.814090 0.366186
vt 0.512865 0.560950
vt 0.911154 0.396322
vt 0.514614 0.812386
vt 0.901853 0.359544
vt 0.832774 0.896312
vt 0.508783 0.805215
vt 0.823531 0.896312
vt 0.823531 0.970245
vt 0.814218 0.411987
vt 0.975787 0.359544
vt 0.814220 0.402746
vt 0.851254 0.955787
vt 0.802577 0.384583
vt 0.514405 0.539206
vt 0.851254 0.917724
vt 0.961329 0.378080
vt 0.807333 0.384536
vt 0.518216 0.542053
vt 0.923266 0.378080
vt 0.519094 0.540767
vt 0.849753 0.917917
vt 0.923459 0.376526
vt 0.515275 0.538010
vt 0.849778 0.917917
vt 0.849778 0.955595
vt 0.802573 0.386064
vt 0.961136 0.376526
vt 0.807283 0.386094
s 0
usemtl Material
f 7/21/1 74/165/1 73/161/1 3/9/1
f 4/10/2 8/22/2 7/19/2 3/7/2
f 23/62/3 51/118/3 10/29/3 8/24/3
f 23/61/4 8/23/4 4/11/4 38/92/4
f 38/91/5 4/12/5 3/8/5 30/75/5
f 6/16/6 2/4/6 1/1/6 5/13/6
f 10/28/6 14/40/6 15/43/6 11/31/6
f 37/89/3 58/132/3 12/34/3 5/14/3
f 5/14/3 12/34/3 9/27/3 6/18/3
f 8/24/3 10/29/3 11/33/3 7/20/3
f 59/134/3 13/37/3 16/46/3 72/160/3
f 12/35/2 16/47/2 13/38/2 9/25/2
f 51/117/1 65/145/1 14/41/1 10/30/1
f 58/131/4 72/159/4 16/48/4 12/36/4
f 11/32/4 15/44/4 66/147/4 52/119/4
f 52/119/4 66/147/4 67/149/4 53/121/4
f 53/121/4 67/149/4 68/151/4 54/123/4
f 54/123/4 68/151/4 69/153/4 55/125/4
f 55/125/4 69/153/4 70/155/4 56/127/4
f 56/127/4 70/155/4 71/157/4 57/129/4
f 57/129/4 71/157/4 72/159/4 58/131/4
f 9/26/1 13/39/1 59/133/1 45/105/1
f 45/105/1 59/133/1 60/135/1 46/107/1
f 46/107/1 60/135/1 61/137/1 47/109/1
f 47/109/1 61/137/1 62/139/1 48/111/1
f 48/111/1 62/139/1 63/141/1 49/113/1
f 49/113/1 63/141/1 64/143/1 50/115/1
f 50/115/1 64/143/1 65/145/1 51/117/1
f 14/42/3 65/146/3 66/148/3 15/45/3
f 65/146/3 64/144/3 67/150/3 66/148/3
f 64/144/3 63/142/3 68/152/3 67/150/3
f 63/142/3 62/140/3 69/154/3 68/152/3
f 62/140/3 61/138/3 70/156/3 69/154/3
f 61/138/3 60/136/3 71/158/3 70/156/3
f 60/136/3 59/134/3 72/160/3 71/158/3
f 7/20/3 11/33/3 52/120/3 31/77/3
f 31/77/3 52/120/3 53/122/3 32/79/3
f 32/79/3 53/122/3 54/124/3 33/81/3
f 33/81/3 54/124/3 55/126/3 34/83/3
f 34/83/3 55/126/3 56/128/3 35/85/3
f 35/85/3 56/128/3 57/130/3 36/87/3
f 36/87/3 57/130/3 58/132/3 37/89/3
f 2/5/5 44/103/5 24/63/5 1/2/5
f 44/103/5 43/101/5 25/65/5 24/63/5
f 43/101/5 42/99/5 26/67/5 25/65/5
f 42/99/5 41/97/5 27/69/5 26/67/5
f 41/97/5 40/95/5 28/71/5 27/69/5
f 40/95/5 39/93/5 29/73/5 28/71/5
f 39/93/5 38/91/5 30/75/5 29/73/5
f 6/17/4 17/49/4 44/104/4 2/6/4
f 17/49/4 18/51/4 43/102/4 44/104/4
f 18/51/4 19/53/4 42/100/4 43/102/4
f 19/53/4 20/55/4 41/98/4 42/100/4
f 20/55/4 21/57/4 40/96/4 41/98/4
f 21/57/4 22/59/4 39/94/4 40/96/4
f 22/59/4 23/61/4 38/92/4 39/94/4
f 6/18/3 9/27/3 45/106/3 17/50/3
f 17/50/3 45/106/3 46/108/3 18/52/3
f 18/52/3 46/108/3 47/110/3 19/54/3
f 19/54/3 47/110/3 48/112/3 20/56/3
f 20/56/3 48/112/3 49/114/3 21/58/3
f 21/58/3 49/114/3 50/116/3 22/60/3
f 22/60/3 50/116/3 51/118/3 23/62/3
f 37/90/1 77/174/1 80/182/1 24/64/1
f 24/64/1 25/66/1 36/88/1 37/90/1
f 25/66/1 26/68/1 35/86/1 36/88/1
f 26/68/1 27/70/1 34/84/1 35/86/1
f 27/70/1 28/72/1 33/82/1 34/84/1
f 28/72/1 29/74/1 32/80/1 33/82/1
f 29/74/1 30/76/1 31/78/1 32/80/1
f 76/170/7 84/191/7 82/187/7 74/164/7
f 31/78/1 76/171/1 74/165/1 7/21/1
f 3/9/1 73/161/1 75/167/1 30/76/1
f 30/76/1 75/167/1 76/171/1 31/78/1
f 78/176/8 86/196/8 85/193/8 77/173/8
f 1/3/1 79/179/1 78/177/1 5/15/1
f 24/64/1 80/182/1 79/179/1 1/3/1
f 5/15/1 78/177/1 77/174/1 37/90/1
f 82/188/9 90/205/9 89/202/9 81/185/9
f 84/191/10 92/208/10 90/204/10 82/187/10
f 77/175/11 85/194/11 88/200/11 80/183/11
f 74/166/12 82/188/12 81/185/12 73/162/12
f 79/180/13 87/198/13 86/197/13 78/178/13
f 75/168/14 83/189/14 84/192/14 76/172/14
f 73/163/15 81/186/15 83/190/15 75/169/15
f 80/184/16 88/201/16 87/199/16 79/181/16
f 90/204/17 92/208/17 93/210/17 94/213/17
f 89/202/18 90/205/18 94/214/18 95/215/18
f 85/194/19 93/212/19 96/217/19 88/200/19
f 87/198/20 95/215/20 94/214/20 86/197/20
f 83/189/21 91/206/21 92/209/21 84/192/21
f 81/186/22 89/203/22 91/207/22 83/190/22
f 88/201/23 96/218/23 95/216/23 87/199/23
f 86/197/24 94/214/24 93/211/24 85/195/24
f 91/206/25 96/217/25 93/212/25 92/209/25
f 91/207/26 89/203/26 95/216/26 96/218/26
