# Blender 3.3.1
# www.blender.org
mtllib Gem.mtl
o Cube.001
v -0.232496 3.539579 0.236315
v -0.232496 4.004570 0.236315
v -0.232496 3.539579 -0.228677
v -0.232496 4.004570 -0.228677
v 0.232496 3.539579 0.236315
v 0.232496 4.004570 0.236315
v 0.232496 3.539579 -0.228677
v 0.232496 4.004570 -0.228677
v -0.390007 3.539579 -0.073680
v -0.390007 3.539579 0.081317
v -0.390007 4.004570 0.081317
v -0.390007 4.004570 -0.073680
v 0.627834 3.640858 0.047411
v 0.627834 3.640858 -0.039774
v 0.627834 3.902415 -0.039774
v 0.627834 3.902415 0.047411
v 0.077499 3.539579 -0.228677
v -0.077499 3.539579 -0.228677
v -0.077499 4.004570 -0.228677
v 0.077499 4.004570 -0.228677
v -0.077499 3.539579 0.236315
v 0.077499 3.539579 0.236315
v 0.077499 4.004570 0.236315
v -0.077499 4.004570 0.236315
v -0.077499 4.112873 -0.073680
v 0.077499 4.112873 -0.073680
v -0.077499 4.112873 0.081317
v 0.077499 4.112873 0.081317
v 0.077499 3.375371 -0.073680
v -0.077499 3.375371 -0.073680
v 0.077499 3.375371 0.081317
v -0.077499 3.375371 0.081317
v -0.329521 3.772075 0.333339
v -0.329521 3.772075 -0.325702
v 0.329521 3.772075 -0.325702
v 0.329521 3.772075 0.333339
v 0.719385 3.771636 -0.057966
v 0.719385 3.771636 0.065603
v -0.552764 3.772075 0.113659
v -0.552764 3.772075 -0.106022
v 0.109840 3.772075 0.333339
v -0.109840 3.772075 0.333339
v -0.109840 3.772075 -0.325702
v 0.109840 3.772075 -0.325702
vn -0.6041 0.5082 -0.6138
vn -0.0000 0.3851 -0.9229
vn 0.4864 0.4834 0.7278
vn -0.0000 0.3851 0.9229
vn 0.3233 -0.7928 0.5167
vn -0.2054 0.8867 0.4142
vn -0.2054 0.8867 -0.4142
vn -0.3275 0.9449 -0.0000
vn 0.3233 -0.7928 -0.5167
vn 0.4345 -0.9007 -0.0000
vn 0.4864 0.4834 -0.7278
vn 0.8192 0.5735 -0.0000
vn -0.6041 0.5082 0.6138
vn -0.8192 0.5735 -0.0000
vn -0.4651 -0.8852 -0.0000
vn -0.0000 -1.0000 -0.0000
vn -0.2755 -0.7845 -0.5556
vn -0.0000 -0.6864 -0.7272
vn 0.3572 0.9340 -0.0000
vn -0.0000 1.0000 -0.0000
vn 0.2837 0.8958 -0.3422
vn -0.0000 0.8197 -0.5728
vn 0.2837 0.8958 0.3422
vn -0.0000 0.8197 0.5728
vn -0.2755 -0.7845 0.5556
vn -0.0000 -0.6864 0.7272
vn -0.0000 -0.3851 -0.9229
vn -0.0000 -0.3851 0.9229
vn -0.8192 -0.5735 -0.0000
vn -0.6041 -0.5082 0.6138
vn 0.8192 -0.5735 -0.0000
vn 0.4857 -0.4832 -0.7285
vn 0.4857 -0.4832 0.7285
vn -0.6041 -0.5082 -0.6138
vt 0.125000 0.750000
vt 0.375000 0.000000
vt 0.375000 1.000000
vt 0.625000 1.000000
vt 0.875000 0.750000
vt 0.625000 0.000000
vt 0.125000 0.500000
vt 0.375000 0.250000
vt 0.875000 0.500000
vt 0.625000 0.250000
vt 0.375000 0.750000
vt 0.625000 0.750000
vt 0.375000 0.500000
vt 0.625000 0.500000
vt 0.125000 0.583333
vt 0.375000 0.166667
vt 0.125000 0.666667
vt 0.375000 0.083333
vt 0.875000 0.666667
vt 0.625000 0.083333
vt 0.875000 0.583333
vt 0.625000 0.166667
vt 0.375000 0.666667
vt 0.375000 0.583333
vt 0.625000 0.583333
vt 0.625000 0.666667
vt 0.291667 0.500000
vt 0.375000 0.416667
vt 0.208333 0.500000
vt 0.375000 0.333333
vt 0.791667 0.500000
vt 0.625000 0.333333
vt 0.708333 0.500000
vt 0.625000 0.416667
vt 0.208333 0.750000
vt 0.375000 0.916667
vt 0.291667 0.750000
vt 0.375000 0.833333
vt 0.708333 0.750000
vt 0.625000 0.833333
vt 0.791667 0.750000
vt 0.625000 0.916667
vt 0.791667 0.583333
vt 0.708333 0.583333
vt 0.791667 0.666667
vt 0.708333 0.666667
vt 0.291667 0.583333
vt 0.208333 0.583333
vt 0.291667 0.666667
vt 0.208333 0.666667
vt 0.500000 0.000000
vt 0.500000 1.000000
vt 0.500000 0.250000
vt 0.500000 0.500000
vt 0.500000 0.750000
vt 0.500000 0.583333
vt 0.500000 0.666667
vt 0.500000 0.083333
vt 0.500000 0.166667
vt 0.500000 0.833333
vt 0.500000 0.916667
vt 0.500000 0.333333
vt 0.500000 0.416667
s 0
usemtl Material.004
f 40/59/1 12/22/1 4/10/1 34/53/1
f 44/63/2 20/34/2 8/14/2 35/54/2
f 38/57/3 16/26/3 6/12/3 36/55/3
f 42/61/4 24/42/4 2/4/4 33/52/4
f 31/49/5 13/23/5 5/11/5 22/37/5
f 27/45/6 11/19/6 2/5/6 24/41/6
f 19/31/7 4/9/7 12/21/7 25/43/7
f 25/43/8 12/21/8 11/19/8 27/45/8
f 17/27/9 7/13/9 14/24/9 29/47/9
f 29/47/10 14/24/10 13/23/10 31/49/10
f 35/54/11 8/14/11 15/25/11 37/56/11
f 37/56/12 15/25/12 16/26/12 38/57/12
f 33/51/13 2/6/13 11/20/13 39/58/13
f 39/58/14 11/20/14 12/22/14 40/59/14
f 9/15/15 30/48/15 32/50/15 10/17/15
f 30/48/16 29/47/16 31/49/16 32/50/16
f 3/7/17 18/29/17 30/48/17 9/15/17
f 18/29/18 17/27/18 29/47/18 30/48/18
f 15/25/19 26/44/19 28/46/19 16/26/19
f 26/44/20 25/43/20 27/45/20 28/46/20
f 8/14/21 20/33/21 26/44/21 15/25/21
f 20/33/22 19/31/22 25/43/22 26/44/22
f 16/26/23 28/46/23 23/39/23 6/12/23
f 28/46/24 27/45/24 24/41/24 23/39/24
f 10/17/25 32/50/25 21/35/25 1/1/25
f 32/50/26 31/49/26 22/37/26 21/35/26
f 36/55/4 6/12/4 23/40/4 41/60/4
f 41/60/4 23/40/4 24/42/4 42/61/4
f 34/53/2 4/10/2 19/32/2 43/62/2
f 43/62/2 19/32/2 20/34/2 44/63/2
f 18/30/27 43/62/27 44/63/27 17/28/27
f 3/8/27 34/53/27 43/62/27 18/30/27
f 22/38/28 41/60/28 42/61/28 21/36/28
f 5/11/28 36/55/28 41/60/28 22/38/28
f 10/18/29 39/58/29 40/59/29 9/16/29
f 1/2/30 33/51/30 39/58/30 10/18/30
f 14/24/31 37/56/31 38/57/31 13/23/31
f 7/13/32 35/54/32 37/56/32 14/24/32
f 21/36/28 42/61/28 33/52/28 1/3/28
f 13/23/33 38/57/33 36/55/33 5/11/33
f 17/28/27 44/63/27 35/54/27 7/13/27
f 9/16/34 40/59/34 34/53/34 3/8/34
