# Blender 3.3.1
# www.blender.org
mtllib Key1.mtl
o Cube
v 0.433046 0.899429 -0.229002
v 0.433046 0.076711 -0.499651
v 0.433046 0.628780 0.593717
v 0.433046 -0.193938 0.323067
v -0.433046 0.899429 -0.229002
v -0.433046 0.076711 -0.499651
v -0.433046 0.628780 0.593717
v -0.433046 -0.193938 0.323067
v 0.433046 0.986730 -1.628850
v -0.433046 0.986730 -1.628850
v 0.433046 1.744502 -1.209448
v -0.433046 1.744502 -1.209448
v 0.433046 1.368015 -3.141713
v -0.433046 1.368015 -3.141713
v 0.433046 2.210303 -3.471109
v -0.433046 2.210303 -3.471109
v 0.433046 0.704016 -4.314919
v -0.433046 0.704016 -4.314919
v 0.433046 1.225474 -5.070592
v -0.433046 1.225474 -5.070592
v 0.433046 -0.537705 -4.186443
v -0.433046 -0.537705 -4.186443
v 0.433046 -0.723793 -5.032308
v -0.433046 -0.723793 -5.032308
v 0.319417 -1.523456 -3.640667
v -0.319417 -1.523456 -3.640667
v 0.319417 -2.048518 -4.004562
v -0.319417 -2.048518 -4.004562
v -0.433046 -0.433046 7.264766
v -0.433046 0.433046 7.264766
v 0.433046 0.433046 7.264766
v 0.433046 -0.433046 7.264766
v 0.433046 -0.433046 4.901015
v 0.433046 -0.433046 5.669924
v 0.433046 -0.433046 6.438833
v -0.433046 -0.433046 6.438833
v -0.433046 -0.433046 5.669924
v -0.433046 -0.433046 4.901015
v -0.433046 0.433046 4.901015
v -0.433046 0.433046 5.669924
v -0.433046 0.433046 6.438833
v 0.433046 0.433046 6.438833
v 0.433046 0.433046 5.669924
v 0.433046 0.433046 4.901015
v -0.433046 -1.742681 7.264766
v 0.433046 -1.742681 7.264766
v 0.433046 -1.742681 6.438833
v -0.433046 -1.742681 6.438833
v 0.433046 -1.360642 4.901015
v 0.433046 -1.360642 5.669924
v -0.433046 -1.360642 5.669924
v -0.433046 -1.360642 4.901015
v -0.205869 -2.264323 7.048123
v 0.205869 -2.264323 7.048123
v 0.205869 -2.264323 6.655476
v -0.205869 -2.264323 6.655476
v -0.433046 -0.433046 4.156354
v -0.433046 -0.433046 3.411692
v -0.433046 -0.433046 2.667031
v -0.433046 -0.433046 1.922369
v -0.433046 -0.433046 1.177708
v 0.433046 0.433046 4.156354
v 0.433046 0.433046 3.411692
v 0.433046 0.433046 2.667031
v 0.433046 0.433046 1.922369
v 0.433046 0.433046 1.177708
v 0.433046 -0.433046 1.177708
v 0.433046 -0.433046 1.922369
v 0.433046 -0.433046 2.667031
v 0.433046 -0.433046 3.411692
v 0.433046 -0.433046 4.156354
v -0.433046 0.433046 1.177708
v -0.433046 0.433046 1.922369
v -0.433046 0.433046 2.667031
v -0.433046 0.433046 3.411692
v -0.433046 0.433046 4.156354
v -0.433046 -1.717589 4.156354
v -0.433046 -1.717589 3.411692
v 0.433046 -1.717589 3.411692
v 0.433046 -1.717589 4.156354
v -0.433046 -0.433046 8.110394
v -0.433046 0.433046 8.110394
v 0.433046 0.433046 8.110394
v 0.433046 -0.433046 8.110394
vn -0.0000 0.9499 0.3125
vn -1.0000 -0.0000 -0.0000
vn -0.0000 -0.9499 -0.3125
vn 1.0000 -0.0000 -0.0000
vn -0.0000 -0.7786 -0.6275
vn -0.0000 0.7575 0.6529
vn -0.0000 -0.9697 -0.2444
vn -0.0000 0.9794 0.2017
vn -0.0000 -0.8703 0.4926
vn -0.0000 0.8515 -0.5243
vn -0.0000 -0.6130 -0.7901
vn -0.0000 0.1029 0.9947
vn -0.0000 -0.0196 -0.9998
vn -0.0000 -0.5696 0.8219
vn 0.9967 -0.0700 0.0412
vn -0.9967 -0.0700 0.0412
vn -0.0000 0.4844 0.8749
vn -0.0000 1.0000 -0.0000
vn -0.0000 -1.0000 -0.0000
vn -0.0000 -0.3835 -0.9235
vn -0.0000 -0.0000 -1.0000
vn -0.0000 -0.0000 1.0000
vn 0.9168 -0.3993 -0.0000
vn -0.9168 -0.3993 -0.0000
vn -0.0000 -0.3835 0.9235
vn -0.0000 -0.9630 -0.2694
vn -0.0000 0.9482 0.3178
vt 0.625000 0.500000
vt 0.375000 0.500000
vt 0.625000 0.750000
vt 0.375000 0.750000
vt 0.625000 0.250000
vt 0.875000 0.500000
vt 0.375000 0.250000
vt 0.125000 0.500000
vt 0.875000 0.750000
vt 0.625000 0.000000
vt 0.125000 0.750000
vt 0.375000 0.000000
vt 0.375000 0.500000
vt 0.375000 0.250000
vt 0.125000 0.500000
vt 0.625000 0.500000
vt 0.625000 0.250000
vt 0.875000 0.500000
vt 0.375000 0.500000
vt 0.375000 0.250000
vt 0.125000 0.500000
vt 0.625000 0.500000
vt 0.625000 0.250000
vt 0.875000 0.500000
vt 0.375000 0.500000
vt 0.375000 0.250000
vt 0.125000 0.500000
vt 0.625000 0.500000
vt 0.625000 0.250000
vt 0.875000 0.500000
vt 0.375000 0.500000
vt 0.375000 0.250000
vt 0.125000 0.500000
vt 0.625000 0.500000
vt 0.875000 0.500000
vt 0.625000 0.250000
vt 0.375000 0.500000
vt 0.375000 0.250000
vt 0.125000 0.500000
vt 0.625000 0.500000
vt 0.875000 0.500000
vt 0.625000 0.250000
vt 0.375000 0.000000
vt 0.375000 1.000000
vt 0.875000 0.750000
vt 0.625000 0.000000
vt 0.625000 0.750000
vt 0.375000 0.750000
vt 0.375000 0.750000
vt 0.375000 0.750000
vt 0.375000 0.750000
vt 0.375000 0.000000
vt 0.125000 0.750000
vt 0.375000 0.000000
vt 0.125000 0.750000
vt 0.375000 0.000000
vt 0.125000 0.750000
vt 0.625000 0.000000
vt 0.875000 0.750000
vt 0.625000 0.000000
vt 0.875000 0.750000
vt 0.625000 0.000000
vt 0.875000 0.750000
vt 0.625000 0.750000
vt 0.625000 0.750000
vt 0.625000 0.750000
vt 0.375000 0.000000
vt 0.375000 1.000000
vt 0.375000 0.750000
vt 0.375000 0.750000
vt 0.125000 0.750000
vt 0.375000 0.000000
vt 0.375000 0.750000
vt 0.375000 0.750000
vt 0.375000 0.000000
vt 0.125000 0.750000
vt 0.375000 0.000000
vt 0.125000 0.750000
vt 0.125000 0.750000
vt 0.375000 0.000000
vt 0.375000 1.000000
vt 0.375000 0.750000
vt 0.375000 0.750000
vt 0.125000 0.750000
vt 0.375000 0.000000
vt 0.375000 0.000000
vt 0.125000 0.750000
vt 0.375000 0.000000
vt 0.125000 0.750000
vt 0.125000 0.750000
vt 0.375000 0.000000
vt 0.125000 0.750000
vt 0.375000 0.000000
vt 0.125000 0.750000
vt 0.375000 0.000000
vt 0.625000 0.750000
vt 0.625000 0.750000
vt 0.625000 0.750000
vt 0.625000 0.750000
vt 0.625000 0.750000
vt 0.375000 0.750000
vt 0.375000 0.750000
vt 0.375000 0.750000
vt 0.375000 0.750000
vt 0.375000 0.750000
vt 0.875000 0.750000
vt 0.625000 0.000000
vt 0.875000 0.750000
vt 0.625000 0.000000
vt 0.875000 0.750000
vt 0.625000 0.000000
vt 0.875000 0.750000
vt 0.625000 0.000000
vt 0.875000 0.750000
vt 0.625000 0.000000
vt 0.375000 0.000000
vt 0.125000 0.750000
vt 0.375000 0.000000
vt 0.125000 0.750000
vt 0.375000 0.750000
vt 0.375000 0.750000
vt 0.375000 0.000000
vt 0.375000 1.000000
vt 0.875000 0.750000
vt 0.625000 1.000000
vt 0.625000 0.000000
vt 0.625000 0.750000
vt 0.375000 0.750000
s 0
usemtl Material
f 1/1/1 5/6/1 7/9/1 3/3/1
f 29/43/2 36/52/2 48/72/2 45/67/2
f 8/12/2 7/10/2 5/5/2 6/7/2
f 6/8/3 2/2/3 4/4/3 8/11/3
f 2/2/4 1/1/4 3/3/4 4/4/4
f 6/7/2 5/5/2 12/17/2 10/14/2
f 10/14/2 12/17/2 16/23/2 14/20/2
f 2/2/5 6/8/5 10/15/5 9/13/5
f 5/6/6 1/1/6 11/16/6 12/18/6
f 1/1/4 2/2/4 9/13/4 11/16/4
f 15/22/4 13/19/4 17/25/4 19/28/4
f 9/13/7 10/15/7 14/21/7 13/19/7
f 12/18/8 11/16/8 15/22/8 16/24/8
f 11/16/4 9/13/4 13/19/4 15/22/4
f 18/26/2 20/29/2 24/36/2 22/32/2
f 14/20/2 16/23/2 20/29/2 18/26/2
f 13/19/9 14/21/9 18/27/9 17/25/9
f 16/24/10 15/22/10 19/28/10 20/30/10
f 24/35/11 23/34/11 27/40/11 28/41/11
f 17/25/12 18/27/12 22/33/12 21/31/12
f 20/30/13 19/28/13 23/34/13 24/35/13
f 19/28/4 17/25/4 21/31/4 23/34/4
f 26/38/14 28/42/14 27/40/14 25/37/14
f 23/34/15 21/31/15 25/37/15 27/40/15
f 22/32/16 24/36/16 28/42/16 26/38/16
f 21/31/17 22/33/17 26/39/17 25/37/17
f 31/47/18 30/45/18 82/124/18 83/127/18
f 42/64/18 41/63/18 30/45/18 31/47/18
f 35/51/4 42/64/4 31/47/4 32/48/4
f 41/62/2 36/52/2 29/43/2 30/46/2
f 76/115/2 57/86/2 38/56/2 39/58/2
f 39/58/2 38/56/2 37/54/2 40/60/2
f 40/60/2 37/54/2 36/52/2 41/62/2
f 71/105/4 62/96/4 44/66/4 33/49/4
f 33/49/4 44/66/4 43/65/4 34/50/4
f 34/50/4 43/65/4 42/64/4 35/51/4
f 62/96/18 76/114/18 39/59/18 44/66/18
f 44/66/18 39/59/18 40/61/18 43/65/18
f 43/65/18 40/61/18 41/63/18 42/64/18
f 57/87/19 71/105/19 33/49/19 38/57/19
f 37/54/2 38/56/2 52/77/2 51/75/2
f 37/55/19 34/50/19 35/51/19 36/53/19
f 48/71/20 47/70/20 55/83/20 56/84/20
f 36/53/21 35/51/21 47/70/21 48/71/21
f 32/48/22 29/44/22 45/68/22 46/69/22
f 35/51/4 32/48/4 46/69/4 47/70/4
f 52/78/19 49/73/19 50/74/19 51/76/19
f 33/49/4 34/50/4 50/74/4 49/73/4
f 38/57/21 33/49/21 49/73/21 52/78/21
f 34/50/22 37/55/22 51/76/22 50/74/22
f 56/84/19 55/83/19 54/82/19 53/79/19
f 47/70/23 46/69/23 54/82/23 55/83/23
f 45/67/24 48/72/24 56/85/24 53/80/24
f 46/69/25 45/68/25 53/81/25 54/82/25
f 8/11/26 4/4/26 67/101/26 61/94/26
f 61/94/19 67/101/19 68/102/19 60/92/19
f 60/92/19 68/102/19 69/103/19 59/90/19
f 59/90/19 69/103/19 70/104/19 58/89/19
f 57/86/2 58/88/2 78/118/2 77/116/2
f 3/3/27 7/9/27 72/106/27 66/100/27
f 66/100/18 72/106/18 73/108/18 65/99/18
f 65/99/18 73/108/18 74/110/18 64/98/18
f 64/98/18 74/110/18 75/112/18 63/97/18
f 63/97/18 75/112/18 76/114/18 62/96/18
f 4/4/4 3/3/4 66/100/4 67/101/4
f 67/101/4 66/100/4 65/99/4 68/102/4
f 68/102/4 65/99/4 64/98/4 69/103/4
f 69/103/4 64/98/4 63/97/4 70/104/4
f 70/104/4 63/97/4 62/96/4 71/105/4
f 7/10/2 8/12/2 61/95/2 72/107/2
f 72/107/2 61/95/2 60/93/2 73/109/2
f 73/109/2 60/93/2 59/91/2 74/111/2
f 74/111/2 59/91/2 58/88/2 75/113/2
f 75/113/2 58/88/2 57/86/2 76/115/2
f 78/119/19 79/120/19 80/121/19 77/117/19
f 58/89/21 70/104/21 79/120/21 78/119/21
f 71/105/22 57/87/22 77/117/22 80/121/22
f 70/104/4 71/105/4 80/121/4 79/120/4
f 84/128/22 83/127/22 82/125/22 81/123/22
f 30/46/2 29/43/2 81/122/2 82/126/2
f 29/44/19 32/48/19 84/128/19 81/123/19
f 32/48/4 31/47/4 83/127/4 84/128/4
