# Blender 3.3.1
# www.blender.org
mtllib Key2.mtl
o Cube
v 0.773374 0.666849 -1.203467
v 0.773374 -0.469313 -1.203467
v 0.773374 0.666849 1.203467
v 0.773374 -0.469313 1.203467
v -12.442085 0.438707 -0.685277
v -12.442085 -0.208246 -0.685277
v -12.442085 0.438707 0.685277
v -12.442085 -0.208246 0.685277
v 6.495061 0.391269 -1.456125
v 6.495061 -0.191642 -1.456125
v 6.495061 0.391269 1.456125
v 6.495061 -0.191642 1.456125
v -4.191362 -0.463128 -1.203467
v -9.156097 -0.456944 -1.203467
v -4.191362 0.673034 1.203467
v -9.156097 0.679219 1.203467
v -9.156097 -0.456944 1.203467
v -4.191362 -0.463128 1.203467
v -9.156097 0.679219 -1.203467
v -4.191362 0.673034 -1.203467
v -12.442085 -0.208246 -0.411166
v -12.442085 -0.208246 -0.137055
v -12.442085 -0.208246 0.137056
v -12.442085 -0.208246 0.411166
v 0.773374 0.666849 -0.722080
v 0.773374 0.666849 -0.240693
v 0.773374 0.666849 0.240693
v 0.773374 0.666849 0.722080
v -12.442085 0.438707 0.411166
v -12.442085 0.438707 0.137055
v -12.442085 0.438707 -0.137056
v -12.442085 0.438707 -0.411166
v 0.773374 -0.469313 0.722080
v 0.773374 -0.469313 0.240693
v 0.773374 -0.469313 -0.240693
v 0.773374 -0.469313 -0.722080
v 6.495061 0.391269 -0.600000
v 6.495061 0.391269 -0.200000
v 6.495061 0.391269 0.200000
v 6.495061 0.391269 0.600000
v 6.495061 -0.191642 0.600000
v 6.495061 -0.191642 0.200000
v 6.495061 -0.191642 -0.200000
v 6.495061 -0.191642 -0.600000
v -9.156097 -0.456944 -0.722080
v -9.156097 -0.456944 -0.240693
v -9.156097 -0.456944 0.240693
v -9.156097 -0.456944 0.722080
v -4.191362 -0.463128 -0.722080
v -4.191362 -0.463128 -0.240693
v -4.191362 -0.463128 0.240693
v -4.191362 -0.463128 0.722080
v -4.191362 0.673034 -0.722080
v -4.191362 0.673034 -0.240693
v -4.191362 0.673034 0.240693
v -4.191362 0.673034 0.722080
v -9.156097 0.679219 -0.722080
v -9.156097 0.679219 -0.240693
v -9.156097 0.679219 0.240693
v -9.156097 0.679219 0.722080
v 9.763099 -0.429484 -1.000000
v 9.388309 -0.875936 -1.000000
v 9.388309 -0.875936 -0.600000
v 9.763099 -0.429484 -0.600000
v 11.292477 -2.851814 -1.000000
v 10.711147 -2.808875 -1.000000
v 10.711147 -2.808875 -0.600000
v 11.292477 -2.851814 -0.600000
v 8.823180 -0.737516 -0.200000
v 8.823180 -0.737516 0.200000
v 8.823180 -1.320427 0.200000
v 8.823180 -1.320427 -0.200000
v 12.195314 -1.549301 -0.200000
v 12.195314 -1.549301 0.200000
v 11.659365 -1.778526 0.200000
v 11.659365 -1.778526 -0.200000
v 13.505648 -2.280835 -0.200000
v 13.505648 -2.280835 0.200000
v 12.969698 -2.510061 0.200000
v 12.969698 -2.510061 -0.200000
v 10.150248 0.263365 1.000000
v 10.553240 -0.157803 1.000000
v 10.150248 0.263365 0.600000
v 10.553240 -0.157803 0.600000
v 12.401014 0.958633 1.000000
v 12.804007 0.537465 1.000000
v 12.401014 0.958633 0.600000
v 12.804007 0.537465 0.600000
v 12.937252 1.256028 0.893054
v 13.124752 1.060070 0.893054
v 12.937252 1.256028 0.706946
v 13.124752 1.060070 0.706946
v 13.501163 -2.639155 -0.100480
v 13.501163 -2.639155 0.100479
v 13.231903 -2.754317 0.100479
v 13.231903 -2.754317 -0.100480
v 11.073681 -3.446209 -0.880314
v 10.840237 -3.428966 -0.880314
v 10.840237 -3.428966 -0.719687
v 11.073681 -3.446209 -0.719687
v 2.680603 -0.376756 -2.270784
v 4.587831 -0.284199 -2.135169
v 4.587831 -0.284199 2.135169
v 2.680603 -0.376756 2.270784
v 2.680603 0.574989 2.270784
v 4.587831 0.483129 2.135169
v 4.587831 0.483129 -2.135169
v 2.680603 0.574989 -2.270784
v 2.680603 0.574989 -0.681387
v 4.587831 0.483129 -0.640693
v 2.680603 0.574989 -0.227129
v 4.587831 0.483129 -0.213564
v 2.680603 0.574989 0.227129
v 4.587831 0.483129 0.213564
v 2.680603 0.574989 0.681387
v 4.587831 0.483129 0.640693
v 2.680603 -0.376756 0.681387
v 4.587831 -0.284199 0.640693
v 2.680603 -0.376756 0.227129
v 4.587831 -0.284199 0.213564
v 2.680603 -0.376756 -0.227129
v 4.587831 -0.284199 -0.213565
v 2.680603 -0.376756 -0.681387
v 4.587831 -0.284199 -0.640693
vn -0.0730 0.9973 -0.0000
vn -0.1558 -0.0000 0.9878
vn -1.0000 -0.0000 -0.0000
vn -0.0012 -1.0000 -0.0000
vn 0.0485 -0.9988 -0.0000
vn -0.0000 -0.0000 -1.0000
vn 0.1179 0.0473 0.9919
vn 0.0481 0.9988 -0.0000
vn 0.3354 -0.0000 0.9421
vn 0.3354 -0.0000 -0.9421
vn -0.1558 -0.0000 -0.9878
vn -0.0755 -0.9971 -0.0000
vn -0.0000 -0.0000 1.0000
vn 0.0012 1.0000 -0.0000
vn 0.1346 -0.0490 -0.9897
vn 1.0000 -0.0000 -0.0000
vn 0.4363 0.8998 -0.0000
vn 0.2436 0.9699 -0.0000
vn -0.2302 -0.9732 -0.0000
vn -0.0142 -0.1923 0.9812
vn -0.8252 -0.5648 -0.0000
vn 0.8456 0.5339 -0.0000
vn -0.4363 -0.8998 -0.0000
vn 0.2340 0.9722 -0.0000
vn -0.1595 -0.9872 -0.0000
vn 0.1143 -0.2672 0.9568
vn 0.4875 0.8731 -0.0000
vn -0.4875 -0.8731 -0.0000
vn 0.2951 -0.9555 -0.0000
vn 0.0350 0.9994 -0.0000
vn 0.0083 -1.0000 -0.0000
vn 0.1282 0.1227 0.9841
vn -0.2951 0.9555 -0.0000
vn 0.7225 0.6913 -0.0000
vn 0.1282 0.1227 -0.9841
vn -0.4850 0.8745 -0.0000
vn 0.8523 -0.5231 -0.0000
vn 0.3932 -0.9194 -0.0000
vn -0.6816 -0.7317 -0.0000
vn 0.1143 -0.2672 -0.9568
vn 0.9999 -0.0125 -0.0000
vn -0.0737 -0.9973 -0.0000
vn -0.9790 -0.2038 -0.0000
vn 0.9384 -0.3454 -0.0000
vn -0.0142 -0.1923 -0.9812
vn -0.4883 -0.0000 -0.8726
vn 0.0709 -0.0000 -0.9975
vn -0.4883 -0.0000 0.8726
vn 0.0709 -0.0000 0.9975
vt 0.625000 0.500000
vt 0.375000 0.500000
vt 0.625000 0.750000
vt 0.375000 0.750000
vt 0.625000 0.250000
vt 0.875000 0.500000
vt 0.375000 0.250000
vt 0.125000 0.500000
vt 0.875000 0.750000
vt 0.625000 1.000000
vt 0.625000 0.000000
vt 0.375000 1.000000
vt 0.125000 0.750000
vt 0.375000 0.000000
vt 0.625000 0.500000
vt 0.375000 0.500000
vt 0.625000 0.750000
vt 0.375000 0.750000
vt 0.375000 0.416667
vt 0.291667 0.500000
vt 0.375000 0.333333
vt 0.208333 0.500000
vt 0.625000 0.833333
vt 0.708333 0.750000
vt 0.625000 0.916667
vt 0.791667 0.750000
vt 0.208333 0.750000
vt 0.375000 0.916667
vt 0.291667 0.750000
vt 0.375000 0.833333
vt 0.625000 0.333333
vt 0.791667 0.500000
vt 0.625000 0.416667
vt 0.708333 0.500000
vt 0.125000 0.550000
vt 0.375000 0.200000
vt 0.125000 0.600000
vt 0.375000 0.150000
vt 0.125000 0.650000
vt 0.375000 0.100000
vt 0.125000 0.700000
vt 0.375000 0.050000
vt 0.625000 0.550000
vt 0.625000 0.600000
vt 0.625000 0.650000
vt 0.625000 0.700000
vt 0.625000 0.050000
vt 0.875000 0.700000
vt 0.625000 0.100000
vt 0.875000 0.650000
vt 0.625000 0.150000
vt 0.875000 0.600000
vt 0.625000 0.200000
vt 0.875000 0.550000
vt 0.375000 0.700000
vt 0.375000 0.650000
vt 0.375000 0.600000
vt 0.375000 0.550000
vt 0.625000 0.550000
vt 0.625000 0.600000
vt 0.625000 0.650000
vt 0.625000 0.700000
vt 0.375000 0.700000
vt 0.375000 0.650000
vt 0.375000 0.600000
vt 0.375000 0.550000
vt 0.208333 0.550000
vt 0.208333 0.600000
vt 0.208333 0.650000
vt 0.208333 0.700000
vt 0.291667 0.550000
vt 0.291667 0.600000
vt 0.291667 0.650000
vt 0.291667 0.700000
vt 0.708333 0.550000
vt 0.708333 0.600000
vt 0.708333 0.650000
vt 0.708333 0.700000
vt 0.791667 0.550000
vt 0.791667 0.600000
vt 0.791667 0.650000
vt 0.791667 0.700000
vt 0.625000 0.500000
vt 0.375000 0.500000
vt 0.375000 0.550000
vt 0.625000 0.550000
vt 0.625000 0.500000
vt 0.375000 0.500000
vt 0.375000 0.550000
vt 0.625000 0.550000
vt 0.625000 0.600000
vt 0.625000 0.650000
vt 0.375000 0.650000
vt 0.375000 0.600000
vt 0.625000 0.600000
vt 0.625000 0.650000
vt 0.375000 0.650000
vt 0.375000 0.600000
vt 0.625000 0.600000
vt 0.625000 0.650000
vt 0.375000 0.650000
vt 0.375000 0.600000
vt 0.625000 0.750000
vt 0.375000 0.750000
vt 0.625000 0.700000
vt 0.375000 0.700000
vt 0.625000 0.750000
vt 0.375000 0.750000
vt 0.625000 0.700000
vt 0.375000 0.700000
vt 0.625000 0.750000
vt 0.375000 0.750000
vt 0.625000 0.700000
vt 0.375000 0.700000
vt 0.625000 0.600000
vt 0.625000 0.650000
vt 0.375000 0.650000
vt 0.375000 0.600000
vt 0.625000 0.500000
vt 0.375000 0.500000
vt 0.375000 0.550000
vt 0.625000 0.550000
vt 0.375000 0.500000
vt 0.375000 0.500000
vt 0.375000 0.750000
vt 0.375000 0.750000
vt 0.625000 0.750000
vt 0.625000 0.750000
vt 0.625000 0.500000
vt 0.625000 0.500000
vt 0.625000 0.550000
vt 0.625000 0.550000
vt 0.625000 0.600000
vt 0.625000 0.600000
vt 0.625000 0.650000
vt 0.625000 0.650000
vt 0.625000 0.700000
vt 0.625000 0.700000
vt 0.375000 0.700000
vt 0.375000 0.700000
vt 0.375000 0.650000
vt 0.375000 0.650000
vt 0.375000 0.600000
vt 0.375000 0.600000
vt 0.375000 0.550000
vt 0.375000 0.550000
s 0
usemtl Material
f 60/82/1 29/48/1 7/9/1 16/26/1
f 17/28/2 16/25/2 7/10/2 8/12/2
f 21/36/3 32/53/3 5/5/3 6/7/3
f 52/74/4 33/55/4 4/4/4 18/29/4
f 124/146/5 102/124/5 10/16/5 44/66/5
f 13/19/6 20/33/6 1/1/6 2/2/6
f 11/17/7 12/18/7 82/104/7 81/103/7
f 116/138/8 106/128/8 11/17/8 40/62/8
f 106/128/9 103/125/9 12/18/9 11/17/9
f 102/124/10 107/129/10 9/15/10 10/16/10
f 6/7/11 5/5/11 19/31/11 14/21/11
f 14/21/6 19/31/6 20/33/6 13/19/6
f 24/41/12 48/70/12 17/27/12 8/13/12
f 48/70/4 52/74/4 18/29/4 17/27/4
f 4/4/13 3/3/13 15/23/13 18/30/13
f 18/30/13 15/23/13 16/25/13 17/28/13
f 28/46/14 56/78/14 15/24/14 3/3/14
f 56/78/14 60/82/14 16/26/14 15/24/14
f 20/34/14 19/32/14 57/79/14 53/75/14
f 53/75/14 57/79/14 58/80/14 54/76/14
f 54/76/14 58/80/14 59/81/14 55/77/14
f 55/77/14 59/81/14 60/82/14 56/78/14
f 1/1/14 20/34/14 53/75/14 25/43/14
f 25/43/14 53/75/14 54/76/14 26/44/14
f 26/44/14 54/76/14 55/77/14 27/45/14
f 27/45/14 55/77/14 56/78/14 28/46/14
f 14/22/4 13/20/4 49/71/4 45/67/4
f 45/67/4 49/71/4 50/72/4 46/68/4
f 46/68/4 50/72/4 51/73/4 47/69/4
f 47/69/4 51/73/4 52/74/4 48/70/4
f 6/8/12 14/22/12 45/67/12 21/35/12
f 21/35/12 45/67/12 46/68/12 22/37/12
f 22/37/12 46/68/12 47/69/12 23/39/12
f 23/39/12 47/69/12 48/70/12 24/41/12
f 107/129/8 110/132/8 37/59/8 9/15/8
f 110/132/8 112/134/8 38/60/8 37/59/8
f 112/134/8 114/136/8 39/61/8 38/60/8
f 114/136/8 116/138/8 40/62/8 39/61/8
f 10/16/15 9/15/15 61/83/15 62/84/15
f 44/66/16 37/59/16 38/60/16 43/65/16
f 38/60/17 39/61/17 70/92/17 69/91/17
f 42/64/16 39/61/16 40/62/16 41/63/16
f 103/125/5 118/140/5 41/63/5 12/18/5
f 118/140/5 120/142/5 42/64/5 41/63/5
f 120/142/5 122/144/5 43/65/5 42/64/5
f 122/144/5 124/146/5 44/66/5 43/65/5
f 13/20/4 2/2/4 36/58/4 49/71/4
f 49/71/4 36/58/4 35/57/4 50/72/4
f 50/72/4 35/57/4 34/56/4 51/73/4
f 51/73/4 34/56/4 33/55/4 52/74/4
f 8/14/3 7/11/3 29/47/3 24/42/3
f 24/42/3 29/47/3 30/49/3 23/40/3
f 23/40/3 30/49/3 31/51/3 22/38/3
f 22/38/3 31/51/3 32/53/3 21/36/3
f 19/32/1 5/6/1 32/54/1 57/79/1
f 57/79/1 32/54/1 31/52/1 58/80/1
f 58/80/1 31/52/1 30/50/1 59/81/1
f 59/81/1 30/50/1 29/48/1 60/82/1
f 64/86/13 63/85/13 67/89/13 68/90/13
f 9/15/18 37/59/18 64/86/18 61/83/18
f 37/59/13 44/66/13 63/85/13 64/86/13
f 44/66/19 10/16/19 62/84/19 63/85/19
f 68/90/20 67/89/20 99/121/20 100/122/20
f 63/85/21 62/84/21 66/88/21 67/89/21
f 61/83/22 64/86/22 68/90/22 65/87/22
f 62/84/6 61/83/6 65/87/6 66/88/6
f 72/94/6 69/91/6 73/95/6 76/98/6
f 39/61/13 42/64/13 71/93/13 70/92/13
f 43/65/6 38/60/6 69/91/6 72/94/6
f 42/64/23 43/65/23 72/94/23 71/93/23
f 76/98/6 73/95/6 77/99/6 80/102/6
f 69/91/24 70/92/24 74/96/24 73/95/24
f 70/92/13 71/93/13 75/97/13 74/96/13
f 71/93/25 72/94/25 76/98/25 75/97/25
f 78/100/26 79/101/26 95/117/26 94/116/26
f 73/95/27 74/96/27 78/100/27 77/99/27
f 74/96/13 75/97/13 79/101/13 78/100/13
f 75/97/28 76/98/28 80/102/28 79/101/28
f 82/104/29 84/106/29 88/110/29 86/108/29
f 41/63/6 40/62/6 83/105/6 84/106/6
f 40/62/30 11/17/30 81/103/30 83/105/30
f 12/18/31 41/63/31 84/106/31 82/104/31
f 85/107/32 86/108/32 90/112/32 89/111/32
f 81/103/13 82/104/13 86/108/13 85/107/13
f 84/106/6 83/105/6 87/109/6 88/110/6
f 83/105/33 81/103/33 85/107/33 87/109/33
f 92/114/34 91/113/34 89/111/34 90/112/34
f 88/110/35 87/109/35 91/113/35 92/114/35
f 87/109/36 85/107/36 89/111/36 91/113/36
f 86/108/37 88/110/37 92/114/37 90/112/37
f 96/118/38 93/115/38 94/116/38 95/117/38
f 79/101/39 80/102/39 96/118/39 95/117/39
f 80/102/40 77/99/40 93/115/40 96/118/40
f 77/99/41 78/100/41 94/116/41 93/115/41
f 98/120/42 97/119/42 100/122/42 99/121/42
f 67/89/43 66/88/43 98/120/43 99/121/43
f 65/87/44 68/90/44 100/122/44 97/119/44
f 66/88/45 65/87/45 97/119/45 98/120/45
f 35/57/5 36/58/5 123/145/5 121/143/5
f 121/143/5 123/145/5 124/146/5 122/144/5
f 34/56/5 35/57/5 121/143/5 119/141/5
f 119/141/5 121/143/5 122/144/5 120/142/5
f 33/55/5 34/56/5 119/141/5 117/139/5
f 117/139/5 119/141/5 120/142/5 118/140/5
f 4/4/5 33/55/5 117/139/5 104/126/5
f 104/126/5 117/139/5 118/140/5 103/125/5
f 27/45/8 28/46/8 115/137/8 113/135/8
f 113/135/8 115/137/8 116/138/8 114/136/8
f 26/44/8 27/45/8 113/135/8 111/133/8
f 111/133/8 113/135/8 114/136/8 112/134/8
f 25/43/8 26/44/8 111/133/8 109/131/8
f 109/131/8 111/133/8 112/134/8 110/132/8
f 1/1/8 25/43/8 109/131/8 108/130/8
f 108/130/8 109/131/8 110/132/8 107/129/8
f 2/2/46 1/1/46 108/130/46 101/123/46
f 101/123/47 108/130/47 107/129/47 102/124/47
f 3/3/48 4/4/48 104/126/48 105/127/48
f 105/127/49 104/126/49 103/125/49 106/128/49
f 28/46/8 3/3/8 105/127/8 115/137/8
f 115/137/8 105/127/8 106/128/8 116/138/8
f 36/58/5 2/2/5 101/123/5 123/145/5
f 123/145/5 101/123/5 102/124/5 124/146/5
