# Blender 3.3.1
# www.blender.org
mtllib MetalMesh.mtl
o Cube
v 0.242978 0.046336 -0.092078
v 0.244477 -0.040075 -0.091347
v 0.242978 0.046336 0.088279
v 0.244477 -0.040075 0.087548
v -0.242775 0.046336 -0.092078
v -0.244273 -0.040075 -0.091347
v -0.242775 0.046336 0.088279
v -0.244273 -0.040075 0.087548
v 0.174655 -0.040075 -0.091347
v 0.104834 -0.040075 -0.091347
v 0.035012 -0.040075 -0.091347
v -0.034809 -0.040075 -0.091347
v -0.104630 -0.040075 -0.091347
v -0.174452 -0.040075 -0.091347
v 0.173585 0.046336 0.088279
v 0.104192 0.046336 0.088279
v 0.034798 0.046336 0.088279
v -0.034595 0.046336 0.088279
v -0.103988 0.046336 0.088279
v -0.173381 0.046336 0.088279
v -0.174452 -0.040075 0.087548
v -0.104630 -0.040075 0.087548
v -0.034809 -0.040075 0.087548
v 0.035012 -0.040075 0.087548
v 0.104834 -0.040075 0.087548
v 0.174655 -0.040075 0.087548
v -0.173381 0.046336 -0.092078
v -0.103988 0.046336 -0.092078
v -0.034595 0.046336 -0.092078
v 0.034798 0.046336 -0.092078
v 0.104192 0.046336 -0.092078
v 0.173585 0.046336 -0.092078
v -0.244273 -0.040075 -0.046623
v -0.244273 -0.040075 -0.001900
v -0.244273 -0.040075 0.042824
v 0.242978 0.046336 -0.046989
v 0.242978 0.046336 -0.001900
v 0.242978 0.046336 0.043190
v -0.242775 0.046336 0.043190
v -0.242775 0.046336 -0.001900
v -0.242775 0.046336 -0.046989
v 0.244477 -0.040075 0.042824
v 0.244477 -0.040075 -0.001900
v 0.244477 -0.040075 -0.046623
v -0.174452 -0.040075 -0.046623
v -0.174452 -0.040075 -0.001900
v -0.174452 -0.040075 0.042824
v -0.104630 -0.040075 -0.046623
v -0.104630 -0.040075 -0.001900
v -0.104630 -0.040075 0.042824
v -0.034809 -0.040075 -0.046623
v -0.034809 -0.040075 -0.001900
v -0.034809 -0.040075 0.042824
v 0.035012 -0.040075 -0.046623
v 0.035012 -0.040075 -0.001900
v 0.035012 -0.040075 0.042824
v 0.104834 -0.040075 -0.046623
v 0.104834 -0.040075 -0.001900
v 0.104834 -0.040075 0.042824
v 0.174655 -0.040075 -0.046623
v 0.174655 -0.040075 -0.001900
v 0.174655 -0.040075 0.042824
v 0.173585 0.046336 -0.046989
v 0.173585 0.046336 -0.001900
v 0.173585 0.046336 0.043190
v 0.104192 0.046336 -0.046989
v 0.104192 0.046336 -0.001900
v 0.104192 0.046336 0.043190
v 0.034798 0.046336 -0.046989
v 0.034798 0.046336 -0.001900
v 0.034798 0.046336 0.043190
v -0.034595 0.046336 -0.046989
v -0.034595 0.046336 -0.001900
v -0.034595 0.046336 0.043190
v -0.103988 0.046336 -0.046989
v -0.103988 0.046336 -0.001900
v -0.103988 0.046336 0.043190
v -0.173381 0.046336 -0.046989
v -0.173381 0.046336 -0.001900
v -0.173381 0.046336 0.043190
v 0.243478 0.017532 -0.091834
v 0.243977 -0.011271 -0.091590
v -0.243774 -0.011271 0.087791
v -0.243274 0.017532 0.088035
v 0.243478 0.017532 0.088035
v 0.243977 -0.011271 0.087791
v -0.243274 0.017532 -0.091834
v -0.243774 -0.011271 -0.091590
v -0.173738 0.017532 -0.091834
v -0.174095 -0.011271 -0.091590
v -0.104202 0.017532 -0.091834
v -0.104416 -0.011271 -0.091590
v -0.034666 0.017532 -0.091834
v -0.034738 -0.011271 -0.091590
v 0.034870 0.017532 -0.091834
v 0.034941 -0.011271 -0.091590
v 0.104406 0.017532 -0.091834
v 0.104620 -0.011271 -0.091590
v 0.173942 0.017532 -0.091834
v 0.174299 -0.011271 -0.091590
v 0.173942 0.017532 0.088035
v 0.174299 -0.011271 0.087791
v 0.104406 0.017532 0.088035
v 0.104620 -0.011271 0.087791
v 0.034870 0.017532 0.088035
v 0.034941 -0.011271 0.087791
v -0.034666 0.017532 0.088035
v -0.034738 -0.011271 0.087791
v -0.104202 0.017532 0.088035
v -0.104416 -0.011271 0.087791
v -0.173738 0.017532 0.088035
v -0.174095 -0.011271 0.087791
v 0.243478 0.017532 -0.046867
v 0.243977 -0.011271 -0.046745
v 0.243478 0.017532 -0.001900
v 0.243977 -0.011271 -0.001900
v 0.243478 0.017532 0.043068
v 0.243977 -0.011271 0.042946
v -0.243274 0.017532 0.043068
v -0.243774 -0.011271 0.042946
v -0.243274 0.017532 -0.001900
v -0.243774 -0.011271 -0.001900
v -0.243274 0.017532 -0.046867
v -0.243774 -0.011271 -0.046745
v -0.244273 -0.040075 -0.024261
v 0.242978 0.046336 -0.024444
v -0.242775 0.046336 -0.024444
v 0.244477 -0.040075 -0.024261
v -0.174452 -0.040075 -0.024261
v -0.104630 -0.040075 -0.024261
v -0.034809 -0.040075 -0.024261
v 0.035012 -0.040075 -0.024261
v 0.104834 -0.040075 -0.024261
v 0.174655 -0.040075 -0.024261
v 0.173585 0.046336 -0.024444
v 0.104192 0.046336 -0.024444
v 0.034798 0.046336 -0.024444
v -0.034595 0.046336 -0.024444
v -0.103988 0.046336 -0.024444
v -0.173381 0.046336 -0.024444
v -0.243774 -0.011271 -0.024322
v -0.243274 0.017532 -0.024383
v 0.243977 -0.011271 -0.024322
v 0.243478 0.017532 -0.024383
v -0.244273 -0.040075 0.020462
v 0.242978 0.046336 0.020645
v -0.242775 0.046336 0.020645
v 0.244477 -0.040075 0.020462
v -0.174452 -0.040075 0.020462
v -0.104630 -0.040075 0.020462
v -0.034809 -0.040075 0.020462
v 0.035012 -0.040075 0.020462
v 0.104834 -0.040075 0.020462
v 0.174655 -0.040075 0.020462
v 0.173585 0.046336 0.020645
v 0.104192 0.046336 0.020645
v 0.034798 0.046336 0.020645
v -0.034595 0.046336 0.020645
v -0.103988 0.046336 0.020645
v -0.173381 0.046336 0.020645
v -0.243774 -0.011271 0.020523
v -0.243274 0.017532 0.020584
v 0.243977 -0.011271 0.020523
v 0.243478 0.017532 0.020584
vn -0.0000 1.0000 -0.0000
vn -0.0000 -0.0085 1.0000
vn -0.9998 0.0173 -0.0000
vn -0.0000 -1.0000 -0.0000
vn 0.9998 0.0173 -0.0000
vn -0.0000 -0.0085 -1.0000
vt 0.625000 0.500000
vt 0.375000 0.500000
vt 0.625000 0.750000
vt 0.375000 0.750000
vt 0.625000 0.250000
vt 0.875000 0.500000
vt 0.125000 0.500000
vt 0.375000 0.250000
vt 0.875000 0.750000
vt 0.625000 1.000000
vt 0.625000 0.000000
vt 0.125000 0.750000
vt 0.375000 0.000000
vt 0.375000 1.000000
vt 0.339286 0.500000
vt 0.375000 0.464286
vt 0.303571 0.500000
vt 0.375000 0.428571
vt 0.267857 0.500000
vt 0.375000 0.392857
vt 0.232143 0.500000
vt 0.375000 0.357143
vt 0.196429 0.500000
vt 0.375000 0.321429
vt 0.160714 0.500000
vt 0.375000 0.285714
vt 0.625000 0.785714
vt 0.660714 0.750000
vt 0.625000 0.821429
vt 0.696429 0.750000
vt 0.625000 0.857143
vt 0.732143 0.750000
vt 0.625000 0.892857
vt 0.767857 0.750000
vt 0.625000 0.928571
vt 0.803571 0.750000
vt 0.625000 0.964286
vt 0.839286 0.750000
vt 0.160714 0.750000
vt 0.375000 0.964286
vt 0.196429 0.750000
vt 0.375000 0.928571
vt 0.232143 0.750000
vt 0.375000 0.892857
vt 0.267857 0.750000
vt 0.375000 0.857143
vt 0.303571 0.750000
vt 0.375000 0.821429
vt 0.339286 0.750000
vt 0.375000 0.785714
vt 0.625000 0.285714
vt 0.839286 0.500000
vt 0.625000 0.321429
vt 0.803571 0.500000
vt 0.625000 0.357143
vt 0.767857 0.500000
vt 0.625000 0.392857
vt 0.732143 0.500000
vt 0.625000 0.428571
vt 0.696429 0.500000
vt 0.625000 0.464286
vt 0.660714 0.500000
vt 0.375000 0.187500
vt 0.125000 0.562500
vt 0.375000 0.125000
vt 0.125000 0.625000
vt 0.125000 0.687500
vt 0.375000 0.062500
vt 0.625000 0.562500
vt 0.625000 0.625000
vt 0.625000 0.687500
vt 0.875000 0.687500
vt 0.625000 0.062500
vt 0.625000 0.125000
vt 0.875000 0.625000
vt 0.625000 0.187500
vt 0.875000 0.562500
vt 0.375000 0.687500
vt 0.375000 0.625000
vt 0.375000 0.562500
vt 0.160714 0.562500
vt 0.160714 0.625000
vt 0.160714 0.687500
vt 0.196429 0.562500
vt 0.196429 0.625000
vt 0.196429 0.687500
vt 0.232143 0.562500
vt 0.232143 0.625000
vt 0.232143 0.687500
vt 0.267857 0.562500
vt 0.267857 0.625000
vt 0.267857 0.687500
vt 0.303571 0.562500
vt 0.303571 0.625000
vt 0.303571 0.687500
vt 0.339286 0.562500
vt 0.339286 0.625000
vt 0.339286 0.687500
vt 0.660714 0.562500
vt 0.660714 0.625000
vt 0.660714 0.687500
vt 0.696429 0.562500
vt 0.696428 0.625000
vt 0.696428 0.687500
vt 0.732143 0.562500
vt 0.732143 0.625000
vt 0.732143 0.687500
vt 0.767857 0.562500
vt 0.767857 0.625000
vt 0.767857 0.687500
vt 0.803571 0.562500
vt 0.803571 0.625000
vt 0.803572 0.687500
vt 0.839286 0.562500
vt 0.839286 0.625000
vt 0.839286 0.687500
vt 0.541667 0.500000
vt 0.458333 0.500000
vt 0.458333 0.000000
vt 0.458333 1.000000
vt 0.541667 0.000000
vt 0.541667 1.000000
vt 0.541667 0.750000
vt 0.458333 0.750000
vt 0.541667 0.250000
vt 0.458333 0.250000
vt 0.541667 0.285714
vt 0.458333 0.285714
vt 0.541667 0.321429
vt 0.458333 0.321429
vt 0.541667 0.357143
vt 0.458333 0.357143
vt 0.541667 0.392857
vt 0.458333 0.392857
vt 0.541667 0.428571
vt 0.458333 0.428571
vt 0.541667 0.464286
vt 0.458333 0.464286
vt 0.541667 0.785714
vt 0.458333 0.785714
vt 0.541667 0.821429
vt 0.458333 0.821429
vt 0.541667 0.857143
vt 0.458333 0.857143
vt 0.541667 0.892857
vt 0.458333 0.892857
vt 0.541667 0.928571
vt 0.458333 0.928571
vt 0.541667 0.964286
vt 0.458333 0.964286
vt 0.541667 0.562500
vt 0.458333 0.562500
vt 0.541667 0.625000
vt 0.458333 0.625000
vt 0.541667 0.687500
vt 0.458333 0.687500
vt 0.541667 0.062500
vt 0.458333 0.062500
vt 0.541667 0.125000
vt 0.458333 0.125000
vt 0.541667 0.187500
vt 0.458333 0.187500
vt 0.375000 0.156250
vt 0.125000 0.593750
vt 0.625000 0.593750
vt 0.875000 0.593750
vt 0.625000 0.156250
vt 0.375000 0.593750
vt 0.160714 0.593750
vt 0.196429 0.593750
vt 0.232143 0.593750
vt 0.267857 0.593750
vt 0.303571 0.593750
vt 0.339286 0.593750
vt 0.660714 0.593750
vt 0.696429 0.593750
vt 0.732143 0.593750
vt 0.767857 0.593750
vt 0.803571 0.593750
vt 0.839286 0.593750
vt 0.458333 0.156250
vt 0.541667 0.156250
vt 0.458333 0.593750
vt 0.541667 0.593750
vt 0.375000 0.093750
vt 0.125000 0.656250
vt 0.625000 0.656250
vt 0.875000 0.656250
vt 0.625000 0.093750
vt 0.375000 0.656250
vt 0.160714 0.656250
vt 0.196429 0.656250
vt 0.232143 0.656250
vt 0.267857 0.656250
vt 0.303571 0.656250
vt 0.339286 0.656250
vt 0.660714 0.656250
vt 0.696429 0.656250
vt 0.732143 0.656250
vt 0.767857 0.656250
vt 0.803571 0.656250
vt 0.839286 0.656250
vt 0.458333 0.093750
vt 0.541667 0.093750
vt 0.458333 0.656250
vt 0.541667 0.656250
s 0
usemtl Material
f 80/116/1 39/72/1 7/9/1 20/38/1
f 111/149/2 20/37/2 7/10/2 84/122/2
f 123/161/3 41/76/3 5/5/3 87/125/3
f 62/98/4 42/78/4 4/4/4 26/49/4
f 117/155/5 38/71/5 3/3/5 85/123/5
f 99/137/6 32/61/6 1/1/6 81/117/6
f 87/125/6 5/5/6 27/51/6 89/127/6
f 89/127/6 27/51/6 28/53/6 91/129/6
f 91/129/6 28/53/6 29/55/6 93/131/6
f 93/131/6 29/55/6 30/57/6 95/133/6
f 95/133/6 30/57/6 31/59/6 97/135/6
f 97/135/6 31/59/6 32/61/6 99/137/6
f 35/67/4 47/83/4 21/39/4 8/12/4
f 47/83/4 50/86/4 22/41/4 21/39/4
f 50/86/4 53/89/4 23/43/4 22/41/4
f 53/89/4 56/92/4 24/45/4 23/43/4
f 56/92/4 59/95/4 25/47/4 24/45/4
f 59/95/4 62/98/4 26/49/4 25/47/4
f 85/123/2 3/3/2 15/27/2 101/139/2
f 101/139/2 15/27/2 16/29/2 103/141/2
f 103/141/2 16/29/2 17/31/2 105/143/2
f 105/143/2 17/31/2 18/33/2 107/145/2
f 107/145/2 18/33/2 19/35/2 109/147/2
f 109/147/2 19/35/2 20/37/2 111/149/2
f 38/71/1 65/101/1 15/28/1 3/3/1
f 65/101/1 68/104/1 16/30/1 15/28/1
f 68/104/1 71/107/1 17/32/1 16/30/1
f 71/107/1 74/110/1 18/34/1 17/32/1
f 74/110/1 77/113/1 19/36/1 18/34/1
f 77/113/1 80/116/1 20/38/1 19/36/1
f 28/54/1 27/52/1 78/114/1 75/111/1
f 139/179/1 140/180/1 79/115/1 76/112/1
f 159/201/1 160/202/1 80/116/1 77/113/1
f 29/56/1 28/54/1 75/111/1 72/108/1
f 138/178/1 139/179/1 76/112/1 73/109/1
f 158/200/1 159/201/1 77/113/1 74/110/1
f 30/58/1 29/56/1 72/108/1 69/105/1
f 137/177/1 138/178/1 73/109/1 70/106/1
f 157/199/1 158/200/1 74/110/1 71/107/1
f 31/60/1 30/58/1 69/105/1 66/102/1
f 136/176/1 137/177/1 70/106/1 67/103/1
f 156/198/1 157/199/1 71/107/1 68/104/1
f 32/62/1 31/60/1 66/102/1 63/99/1
f 135/175/1 136/176/1 67/103/1 64/100/1
f 155/197/1 156/198/1 68/104/1 65/101/1
f 1/1/1 32/62/1 63/99/1 36/69/1
f 126/165/1 135/175/1 64/100/1 37/70/1
f 146/187/1 155/197/1 65/101/1 38/71/1
f 10/17/4 9/15/4 60/96/4 57/93/4
f 133/173/4 134/174/4 61/97/4 58/94/4
f 153/195/4 154/196/4 62/98/4 59/95/4
f 11/19/4 10/17/4 57/93/4 54/90/4
f 132/172/4 133/173/4 58/94/4 55/91/4
f 152/194/4 153/195/4 59/95/4 56/92/4
f 12/21/4 11/19/4 54/90/4 51/87/4
f 131/171/4 132/172/4 55/91/4 52/88/4
f 151/193/4 152/194/4 56/92/4 53/89/4
f 13/23/4 12/21/4 51/87/4 48/84/4
f 130/170/4 131/171/4 52/88/4 49/85/4
f 150/192/4 151/193/4 53/89/4 50/86/4
f 14/25/4 13/23/4 48/84/4 45/81/4
f 129/169/4 130/170/4 49/85/4 46/82/4
f 149/191/4 150/192/4 50/86/4 47/83/4
f 6/7/4 14/25/4 45/81/4 33/64/4
f 125/164/4 129/169/4 46/82/4 34/66/4
f 145/186/4 149/191/4 47/83/4 35/67/4
f 81/117/5 1/1/5 36/69/5 113/151/5
f 144/184/5 126/165/5 37/70/5 115/153/5
f 164/206/5 146/187/5 38/71/5 117/155/5
f 9/15/4 2/2/4 44/80/4 60/96/4
f 134/174/4 128/168/4 43/79/4 61/97/4
f 154/196/4 148/190/4 42/78/4 62/98/4
f 84/121/3 7/11/3 39/73/3 119/157/3
f 162/204/3 147/189/3 40/74/3 121/159/3
f 142/182/3 127/167/3 41/76/3 123/161/3
f 27/52/1 5/6/1 41/77/1 78/114/1
f 140/180/1 127/166/1 40/75/1 79/115/1
f 160/202/1 147/188/1 39/72/1 80/116/1
f 125/163/3 141/181/3 124/162/3 33/63/3
f 141/181/3 142/182/3 123/161/3 124/162/3
f 145/185/3 161/203/3 122/160/3 34/65/3
f 161/203/3 162/204/3 121/159/3 122/160/3
f 8/13/3 83/119/3 120/158/3 35/68/3
f 83/119/3 84/121/3 119/157/3 120/158/3
f 148/190/5 163/205/5 118/156/5 42/78/5
f 163/205/5 164/206/5 117/155/5 118/156/5
f 128/168/5 143/183/5 116/154/5 43/79/5
f 143/183/5 144/184/5 115/153/5 116/154/5
f 2/2/5 82/118/5 114/152/5 44/80/5
f 82/118/5 81/117/5 113/151/5 114/152/5
f 22/42/2 110/148/2 112/150/2 21/40/2
f 110/148/2 109/147/2 111/149/2 112/150/2
f 23/44/2 108/146/2 110/148/2 22/42/2
f 108/146/2 107/145/2 109/147/2 110/148/2
f 24/46/2 106/144/2 108/146/2 23/44/2
f 106/144/2 105/143/2 107/145/2 108/146/2
f 25/48/2 104/142/2 106/144/2 24/46/2
f 104/142/2 103/141/2 105/143/2 106/144/2
f 26/50/2 102/140/2 104/142/2 25/48/2
f 102/140/2 101/139/2 103/141/2 104/142/2
f 4/4/2 86/124/2 102/140/2 26/50/2
f 86/124/2 85/123/2 101/139/2 102/140/2
f 10/18/6 98/136/6 100/138/6 9/16/6
f 98/136/6 97/135/6 99/137/6 100/138/6
f 11/20/6 96/134/6 98/136/6 10/18/6
f 96/134/6 95/133/6 97/135/6 98/136/6
f 12/22/6 94/132/6 96/134/6 11/20/6
f 94/132/6 93/131/6 95/133/6 96/134/6
f 13/24/6 92/130/6 94/132/6 12/22/6
f 92/130/6 91/129/6 93/131/6 94/132/6
f 14/26/6 90/128/6 92/130/6 13/24/6
f 90/128/6 89/127/6 91/129/6 92/130/6
f 6/8/6 88/126/6 90/128/6 14/26/6
f 88/126/6 87/125/6 89/127/6 90/128/6
f 9/16/6 100/138/6 82/118/6 2/2/6
f 100/138/6 99/137/6 81/117/6 82/118/6
f 42/78/5 118/156/5 86/124/5 4/4/5
f 118/156/5 117/155/5 85/123/5 86/124/5
f 33/63/3 124/162/3 88/126/3 6/8/3
f 124/162/3 123/161/3 87/125/3 88/126/3
f 21/40/2 112/150/2 83/120/2 8/14/2
f 112/150/2 111/149/2 84/122/2 83/120/2
f 114/152/5 113/151/5 144/184/5 143/183/5
f 44/80/5 114/152/5 143/183/5 128/168/5
f 122/160/3 121/159/3 142/182/3 141/181/3
f 34/65/3 122/160/3 141/181/3 125/163/3
f 78/114/1 41/77/1 127/166/1 140/180/1
f 121/159/3 40/74/3 127/167/3 142/182/3
f 60/96/4 44/80/4 128/168/4 134/174/4
f 113/151/5 36/69/5 126/165/5 144/184/5
f 33/64/4 45/81/4 129/169/4 125/164/4
f 45/81/4 48/84/4 130/170/4 129/169/4
f 48/84/4 51/87/4 131/171/4 130/170/4
f 51/87/4 54/90/4 132/172/4 131/171/4
f 54/90/4 57/93/4 133/173/4 132/172/4
f 57/93/4 60/96/4 134/174/4 133/173/4
f 36/69/1 63/99/1 135/175/1 126/165/1
f 63/99/1 66/102/1 136/176/1 135/175/1
f 66/102/1 69/105/1 137/177/1 136/176/1
f 69/105/1 72/108/1 138/178/1 137/177/1
f 72/108/1 75/111/1 139/179/1 138/178/1
f 75/111/1 78/114/1 140/180/1 139/179/1
f 116/154/5 115/153/5 164/206/5 163/205/5
f 43/79/5 116/154/5 163/205/5 148/190/5
f 120/158/3 119/157/3 162/204/3 161/203/3
f 35/68/3 120/158/3 161/203/3 145/185/3
f 79/115/1 40/75/1 147/188/1 160/202/1
f 119/157/3 39/73/3 147/189/3 162/204/3
f 61/97/4 43/79/4 148/190/4 154/196/4
f 115/153/5 37/70/5 146/187/5 164/206/5
f 34/66/4 46/82/4 149/191/4 145/186/4
f 46/82/4 49/85/4 150/192/4 149/191/4
f 49/85/4 52/88/4 151/193/4 150/192/4
f 52/88/4 55/91/4 152/194/4 151/193/4
f 55/91/4 58/94/4 153/195/4 152/194/4
f 58/94/4 61/97/4 154/196/4 153/195/4
f 37/70/1 64/100/1 155/197/1 146/187/1
f 64/100/1 67/103/1 156/198/1 155/197/1
f 67/103/1 70/106/1 157/199/1 156/198/1
f 70/106/1 73/109/1 158/200/1 157/199/1
f 73/109/1 76/112/1 159/201/1 158/200/1
f 76/112/1 79/115/1 160/202/1 159/201/1
