# Blender 5.0.1
# www.blender.org
mtllib metalBar.mtl
o Cube
v 0.169577 0.091528 -1.000000
v 0.169577 -0.091528 -1.000000
v 0.169577 0.091528 1.000000
v 0.169577 -0.091528 1.000000
v -0.169577 0.091528 -1.000000
v -0.169577 -0.091528 -1.000000
v -0.169577 0.091528 1.000000
v -0.169577 -0.091528 1.000000
v -0.169577 -0.091528 -0.938626
v -0.169577 -0.091528 -0.876126
v -0.169577 -0.091528 -0.813626
v -0.169577 -0.091528 -0.751126
v -0.169577 -0.091528 -0.688626
v -0.169577 -0.091528 -0.626126
v -0.169577 -0.091528 -0.563626
v -0.169577 -0.091528 -0.501126
v -0.169577 -0.091528 -0.438626
v -0.169577 -0.091528 -0.376126
v -0.169577 -0.091528 -0.313626
v -0.169577 -0.091528 -0.251126
v -0.169577 -0.091528 -0.188626
v -0.169577 -0.091528 -0.126126
v -0.169577 -0.091528 -0.063626
v -0.169577 -0.091528 -0.001126
v -0.169577 -0.091528 0.061374
v -0.169577 -0.091528 0.123874
v -0.169577 -0.091528 0.186374
v -0.169577 -0.091528 0.248874
v -0.169577 -0.091528 0.311374
v -0.169577 -0.091528 0.373874
v -0.169577 -0.091528 0.436374
v -0.169577 -0.091528 0.498874
v -0.169577 -0.091528 0.561374
v -0.169577 -0.091528 0.623874
v -0.169577 -0.091528 0.686374
v -0.169577 -0.091528 0.748874
v -0.169577 -0.091528 0.811374
v -0.169577 -0.091528 0.873874
v -0.169577 -0.091528 0.936374
v 0.169577 0.091528 -0.938626
v 0.169577 0.091528 -0.876126
v 0.169577 0.091528 -0.813626
v 0.169577 0.091528 -0.751126
v 0.169577 0.091528 -0.688626
v 0.169577 0.091528 -0.626126
v 0.169577 0.091528 -0.563626
v 0.169577 0.091528 -0.501126
v 0.169577 0.091528 -0.438626
v 0.169577 0.091528 -0.376126
v 0.169577 0.091528 -0.313626
v 0.169577 0.091528 -0.251126
v 0.169577 0.091528 -0.188626
v 0.169577 0.091528 -0.126126
v 0.169577 0.091528 -0.063626
v 0.169577 0.091528 -0.001126
v 0.169577 0.091528 0.061374
v 0.169577 0.091528 0.123874
v 0.169577 0.091528 0.186374
v 0.169577 0.091528 0.248874
v 0.169577 0.091528 0.311374
v 0.169577 0.091528 0.373874
v 0.169577 0.091528 0.436374
v 0.169577 0.091528 0.498874
v 0.169577 0.091528 0.561374
v 0.169577 0.091528 0.623874
v 0.169577 0.091528 0.686374
v 0.169577 0.091528 0.748874
v 0.169577 0.091528 0.811374
v 0.169577 0.091528 0.873874
v 0.169577 0.091528 0.936374
v -0.169577 0.091528 0.936374
v -0.169577 0.091528 0.873874
v -0.169577 0.091528 0.811374
v -0.169577 0.091528 0.748874
v -0.169577 0.091528 0.686374
v -0.169577 0.091528 0.623874
v -0.169577 0.091528 0.561374
v -0.169577 0.091528 0.498874
v -0.169577 0.091528 0.436374
v -0.169577 0.091528 0.373874
v -0.169577 0.091528 0.311374
v -0.169577 0.091528 0.248874
v -0.169577 0.091528 0.186374
v -0.169577 0.091528 0.123874
v -0.169577 0.091528 0.061374
v -0.169577 0.091528 -0.001126
v -0.169577 0.091528 -0.063626
v -0.169577 0.091528 -0.126126
v -0.169577 0.091528 -0.188626
v -0.169577 0.091528 -0.251126
v -0.169577 0.091528 -0.313626
v -0.169577 0.091528 -0.376126
v -0.169577 0.091528 -0.438626
v -0.169577 0.091528 -0.501126
v -0.169577 0.091528 -0.563626
v -0.169577 0.091528 -0.626126
v -0.169577 0.091528 -0.688626
v -0.169577 0.091528 -0.751126
v -0.169577 0.091528 -0.813626
v -0.169577 0.091528 -0.876126
v -0.169577 0.091528 -0.938626
v 0.169577 -0.091528 0.936374
v 0.169577 -0.091528 0.873874
v 0.169577 -0.091528 0.811374
v 0.169577 -0.091528 0.748874
v 0.169577 -0.091528 0.686374
v 0.169577 -0.091528 0.623874
v 0.169577 -0.091528 0.561374
v 0.169577 -0.091528 0.498874
v 0.169577 -0.091528 0.436374
v 0.169577 -0.091528 0.373874
v 0.169577 -0.091528 0.311374
v 0.169577 -0.091528 0.248874
v 0.169577 -0.091528 0.186374
v 0.169577 -0.091528 0.123874
v 0.169577 -0.091528 0.061374
v 0.169577 -0.091528 -0.001126
v 0.169577 -0.091528 -0.063626
v 0.169577 -0.091528 -0.126126
v 0.169577 -0.091528 -0.188626
v 0.169577 -0.091528 -0.251126
v 0.169577 -0.091528 -0.313626
v 0.169577 -0.091528 -0.376126
v 0.169577 -0.091528 -0.438626
v 0.169577 -0.091528 -0.501126
v 0.169577 -0.091528 -0.563626
v 0.169577 -0.091528 -0.626126
v 0.169577 -0.091528 -0.688626
v 0.169577 -0.091528 -0.751126
v 0.169577 -0.091528 -0.813626
v 0.169577 -0.091528 -0.876126
v 0.169577 -0.091528 -0.938626
v 0.127183 -0.091528 -1.000000
v 0.084789 -0.091528 -1.000000
v 0.042394 -0.091528 -1.000000
v -0.000000 -0.091528 -1.000000
v -0.042394 -0.091528 -1.000000
v -0.084789 -0.091528 -1.000000
v -0.127183 -0.091528 -1.000000
v 0.127183 0.091528 1.000000
v 0.084789 0.091528 1.000000
v 0.042394 0.091528 1.000000
v -0.000000 0.091528 1.000000
v -0.042394 0.091528 1.000000
v -0.084789 0.091528 1.000000
v -0.127183 0.091528 1.000000
v -0.127183 -0.091528 1.000000
v -0.084789 -0.091528 1.000000
v -0.042394 -0.091528 1.000000
v 0.000000 -0.091528 1.000000
v 0.042394 -0.091528 1.000000
v 0.084789 -0.091528 1.000000
v 0.127183 -0.091528 1.000000
v -0.127183 0.091528 -1.000000
v -0.084789 0.091528 -1.000000
v -0.042394 0.091528 -1.000000
v 0.000000 0.091528 -1.000000
v 0.042394 0.091528 -1.000000
v 0.084789 0.091528 -1.000000
v 0.127183 0.091528 -1.000000
v 0.127183 -0.091528 -0.938626
v 0.084789 -0.091528 -0.938626
v 0.042394 -0.091528 -0.938626
v -0.000000 -0.091528 -0.938626
v -0.042394 -0.091528 -0.938626
v -0.084789 -0.091528 -0.938626
v -0.127183 -0.091528 -0.938626
v 0.127183 -0.091528 -0.876126
v 0.084789 -0.091528 -0.876126
v 0.042394 -0.091528 -0.876126
v -0.000000 -0.091528 -0.876126
v -0.042394 -0.091528 -0.876126
v -0.084789 -0.091528 -0.876126
v -0.127183 -0.091528 -0.876126
v 0.127183 -0.091528 -0.813626
v 0.084789 -0.091528 -0.813626
v 0.042394 -0.091528 -0.813626
v -0.000000 -0.091528 -0.813626
v -0.042394 -0.091528 -0.813626
v -0.084789 -0.091528 -0.813626
v -0.127183 -0.091528 -0.813626
v 0.127183 -0.091528 -0.751126
v 0.084789 -0.091528 -0.751126
v 0.042394 -0.091528 -0.751126
v -0.000000 -0.091528 -0.751126
v -0.042394 -0.091528 -0.751126
v -0.084789 -0.091528 -0.751126
v -0.127183 -0.091528 -0.751126
v 0.127183 -0.091528 -0.688626
v 0.084789 -0.091528 -0.688626
v 0.042394 -0.091528 -0.688626
v -0.000000 -0.091528 -0.688626
v -0.042394 -0.091528 -0.688626
v -0.084789 -0.091528 -0.688626
v -0.127183 -0.091528 -0.688626
v 0.127183 -0.091528 -0.626126
v 0.084789 -0.091528 -0.626126
v 0.042394 -0.091528 -0.626126
v -0.000000 -0.091528 -0.626126
v -0.042394 -0.091528 -0.626126
v -0.084789 -0.091528 -0.626126
v -0.127183 -0.091528 -0.626126
v 0.127183 -0.091528 -0.563626
v 0.084789 -0.091528 -0.563626
v 0.042394 -0.091528 -0.563626
v -0.000000 -0.091528 -0.563626
v -0.042394 -0.091528 -0.563626
v -0.084789 -0.091528 -0.563626
v -0.127183 -0.091528 -0.563626
v 0.127183 -0.091528 -0.501126
v 0.084789 -0.091528 -0.501126
v 0.042394 -0.091528 -0.501126
v -0.000000 -0.091528 -0.501126
v -0.042394 -0.091528 -0.501126
v -0.084789 -0.091528 -0.501126
v -0.127183 -0.091528 -0.501126
v 0.127183 -0.091528 -0.438626
v 0.084789 -0.091528 -0.438626
v 0.042394 -0.091528 -0.438626
v -0.000000 -0.091528 -0.438626
v -0.042394 -0.091528 -0.438626
v -0.084789 -0.091528 -0.438626
v -0.127183 -0.091528 -0.438626
v 0.127183 -0.091528 -0.376126
v 0.084789 -0.091528 -0.376126
v 0.042394 -0.091528 -0.376126
v -0.000000 -0.091528 -0.376126
v -0.042394 -0.091528 -0.376126
v -0.084789 -0.091528 -0.376126
v -0.127183 -0.091528 -0.376126
v 0.127183 -0.091528 -0.313626
v 0.084789 -0.091528 -0.313626
v 0.042394 -0.091528 -0.313626
v -0.000000 -0.091528 -0.313626
v -0.042394 -0.091528 -0.313626
v -0.084789 -0.091528 -0.313626
v -0.127183 -0.091528 -0.313626
v 0.127183 -0.091528 -0.251126
v 0.084789 -0.091528 -0.251126
v 0.042394 -0.091528 -0.251126
v -0.000000 -0.091528 -0.251126
v -0.042394 -0.091528 -0.251126
v -0.084789 -0.091528 -0.251126
v -0.127183 -0.091528 -0.251126
v 0.127183 -0.091528 -0.188626
v 0.084789 -0.091528 -0.188626
v 0.042394 -0.091528 -0.188626
v -0.000000 -0.091528 -0.188626
v -0.042394 -0.091528 -0.188626
v -0.084789 -0.091528 -0.188626
v -0.127183 -0.091528 -0.188626
v 0.127183 -0.091528 -0.126126
v 0.084789 -0.091528 -0.126126
v 0.042394 -0.091528 -0.126126
v -0.000000 -0.091528 -0.126126
v -0.042394 -0.091528 -0.126126
v -0.084789 -0.091528 -0.126126
v -0.127183 -0.091528 -0.126126
v 0.127183 -0.091528 -0.063626
v 0.084789 -0.091528 -0.063626
v 0.042394 -0.091528 -0.063626
v -0.000000 -0.091528 -0.063626
v -0.042394 -0.091528 -0.063626
v -0.084789 -0.091528 -0.063626
v -0.127183 -0.091528 -0.063626
v 0.127183 -0.091528 -0.001126
v 0.084789 -0.091528 -0.001126
v 0.042394 -0.091528 -0.001126
v -0.000000 -0.091528 -0.001126
v -0.042394 -0.091528 -0.001126
v -0.084789 -0.091528 -0.001126
v -0.127183 -0.091528 -0.001126
v 0.127183 -0.091528 0.061374
v 0.084789 -0.091528 0.061374
v 0.042394 -0.091528 0.061374
v -0.000000 -0.091528 0.061374
v -0.042394 -0.091528 0.061374
v -0.084789 -0.091528 0.061374
v -0.127183 -0.091528 0.061374
v 0.127183 -0.091528 0.123874
v 0.084789 -0.091528 0.123874
v 0.042394 -0.091528 0.123874
v -0.000000 -0.091528 0.123874
v -0.042394 -0.091528 0.123874
v -0.084789 -0.091528 0.123874
v -0.127183 -0.091528 0.123874
v 0.127183 -0.091528 0.186374
v 0.084789 -0.091528 0.186374
v 0.042394 -0.091528 0.186374
v -0.000000 -0.091528 0.186374
v -0.042394 -0.091528 0.186374
v -0.084789 -0.091528 0.186374
v -0.127183 -0.091528 0.186374
v 0.127183 -0.091528 0.248874
v 0.084789 -0.091528 0.248874
v 0.042394 -0.091528 0.248874
v -0.000000 -0.091528 0.248874
v -0.042394 -0.091528 0.248874
v -0.084789 -0.091528 0.248874
v -0.127183 -0.091528 0.248874
v 0.127183 -0.091528 0.311374
v 0.084789 -0.091528 0.311374
v 0.042394 -0.091528 0.311374
v -0.000000 -0.091528 0.311374
v -0.042394 -0.091528 0.311374
v -0.084789 -0.091528 0.311374
v -0.127183 -0.091528 0.311374
v 0.127183 -0.091528 0.373874
v 0.084789 -0.091528 0.373874
v 0.042394 -0.091528 0.373874
v -0.000000 -0.091528 0.373874
v -0.042394 -0.091528 0.373874
v -0.084789 -0.091528 0.373874
v -0.127183 -0.091528 0.373874
v 0.127183 -0.091528 0.436374
v 0.084789 -0.091528 0.436374
v 0.042394 -0.091528 0.436374
v -0.000000 -0.091528 0.436374
v -0.042394 -0.091528 0.436374
v -0.084789 -0.091528 0.436374
v -0.127183 -0.091528 0.436374
v 0.127183 -0.091528 0.498874
v 0.084789 -0.091528 0.498874
v 0.042394 -0.091528 0.498874
v -0.000000 -0.091528 0.498874
v -0.042394 -0.091528 0.498874
v -0.084789 -0.091528 0.498874
v -0.127183 -0.091528 0.498874
v 0.127183 -0.091528 0.561374
v 0.084789 -0.091528 0.561374
v 0.042394 -0.091528 0.561374
v -0.000000 -0.091528 0.561374
v -0.042394 -0.091528 0.561374
v -0.084789 -0.091528 0.561374
v -0.127183 -0.091528 0.561374
v 0.127183 -0.091528 0.623874
v 0.084789 -0.091528 0.623874
v 0.042394 -0.091528 0.623874
v -0.000000 -0.091528 0.623874
v -0.042394 -0.091528 0.623874
v -0.084789 -0.091528 0.623874
v -0.127183 -0.091528 0.623874
v 0.127183 -0.091528 0.686374
v 0.084789 -0.091528 0.686374
v 0.042394 -0.091528 0.686374
v -0.000000 -0.091528 0.686374
v -0.042394 -0.091528 0.686374
v -0.084789 -0.091528 0.686374
v -0.127183 -0.091528 0.686374
v 0.127183 -0.091528 0.748874
v 0.084789 -0.091528 0.748874
v 0.042394 -0.091528 0.748874
v -0.000000 -0.091528 0.748874
v -0.042394 -0.091528 0.748874
v -0.084789 -0.091528 0.748874
v -0.127183 -0.091528 0.748874
v 0.127183 -0.091528 0.811374
v 0.084789 -0.091528 0.811374
v 0.042394 -0.091528 0.811374
v -0.000000 -0.091528 0.811374
v -0.042394 -0.091528 0.811374
v -0.084789 -0.091528 0.811374
v -0.127183 -0.091528 0.811374
v 0.127183 -0.091528 0.873874
v 0.084789 -0.091528 0.873874
v 0.042394 -0.091528 0.873874
v -0.000000 -0.091528 0.873874
v -0.042394 -0.091528 0.873874
v -0.084789 -0.091528 0.873874
v -0.127183 -0.091528 0.873874
v 0.127183 -0.091528 0.936374
v 0.084789 -0.091528 0.936374
v 0.042394 -0.091528 0.936374
v -0.000000 -0.091528 0.936374
v -0.042394 -0.091528 0.936374
v -0.084789 -0.091528 0.936374
v -0.127183 -0.091528 0.936374
v -0.127183 0.091528 -0.938626
v -0.084789 0.091528 -0.938626
v -0.042394 0.091528 -0.938626
v 0.000000 0.091528 -0.938626
v 0.042394 0.091528 -0.938626
v 0.084789 0.091528 -0.938626
v 0.127183 0.091528 -0.938626
v -0.127183 0.091528 -0.876126
v -0.084789 0.091528 -0.876126
v -0.042394 0.091528 -0.876126
v 0.000000 0.091528 -0.876126
v 0.042394 0.091528 -0.876126
v 0.084789 0.091528 -0.876126
v 0.127183 0.091528 -0.876126
v -0.127183 0.091528 -0.813626
v -0.084789 0.091528 -0.813626
v -0.042394 0.091528 -0.813626
v 0.000000 0.091528 -0.813626
v 0.042394 0.091528 -0.813626
v 0.084789 0.091528 -0.813626
v 0.127183 0.091528 -0.813626
v -0.127183 0.091528 -0.751126
v -0.084789 0.091528 -0.751126
v -0.042394 0.091528 -0.751126
v 0.000000 0.091528 -0.751126
v 0.042394 0.091528 -0.751126
v 0.084789 0.091528 -0.751126
v 0.127183 0.091528 -0.751126
v -0.127183 0.091528 -0.688626
v -0.084789 0.091528 -0.688626
v -0.042394 0.091528 -0.688626
v 0.000000 0.091528 -0.688626
v 0.042394 0.091528 -0.688626
v 0.084789 0.091528 -0.688626
v 0.127183 0.091528 -0.688626
v -0.127183 0.091528 -0.626126
v -0.084789 0.091528 -0.626126
v -0.042394 0.091528 -0.626126
v 0.000000 0.091528 -0.626126
v 0.042394 0.091528 -0.626126
v 0.084789 0.091528 -0.626126
v 0.127183 0.091528 -0.626126
v -0.127183 0.091528 -0.563626
v -0.084789 0.091528 -0.563626
v -0.042394 0.091528 -0.563626
v 0.000000 0.091528 -0.563626
v 0.042394 0.091528 -0.563626
v 0.084789 0.091528 -0.563626
v 0.127183 0.091528 -0.563626
v -0.127183 0.091528 -0.501126
v -0.084789 0.091528 -0.501126
v -0.042394 0.091528 -0.501126
v 0.000000 0.091528 -0.501126
v 0.042394 0.091528 -0.501126
v 0.084789 0.091528 -0.501126
v 0.127183 0.091528 -0.501126
v -0.127183 0.091528 -0.438626
v -0.084789 0.091528 -0.438626
v -0.042394 0.091528 -0.438626
v 0.000000 0.091528 -0.438626
v 0.042394 0.091528 -0.438626
v 0.084789 0.091528 -0.438626
v 0.127183 0.091528 -0.438626
v -0.127183 0.091528 -0.376126
v -0.084789 0.091528 -0.376126
v -0.042394 0.091528 -0.376126
v 0.000000 0.091528 -0.376126
v 0.042394 0.091528 -0.376126
v 0.084789 0.091528 -0.376126
v 0.127183 0.091528 -0.376126
v -0.127183 0.091528 -0.313626
v -0.084789 0.091528 -0.313626
v -0.042394 0.091528 -0.313626
v 0.000000 0.091528 -0.313626
v 0.042394 0.091528 -0.313626
v 0.084789 0.091528 -0.313626
v 0.127183 0.091528 -0.313626
v -0.127183 0.091528 -0.251126
v -0.084789 0.091528 -0.251126
v -0.042394 0.091528 -0.251126
v 0.000000 0.091528 -0.251126
v 0.042394 0.091528 -0.251126
v 0.084789 0.091528 -0.251126
v 0.127183 0.091528 -0.251126
v -0.127183 0.091528 -0.188626
v -0.084789 0.091528 -0.188626
v -0.042394 0.091528 -0.188626
v 0.000000 0.091528 -0.188626
v 0.042394 0.091528 -0.188626
v 0.084789 0.091528 -0.188626
v 0.127183 0.091528 -0.188626
v -0.127183 0.091528 -0.126126
v -0.084789 0.091528 -0.126126
v -0.042394 0.091528 -0.126126
v 0.000000 0.091528 -0.126126
v 0.042394 0.091528 -0.126126
v 0.084789 0.091528 -0.126126
v 0.127183 0.091528 -0.126126
v -0.127183 0.091528 -0.063626
v -0.084789 0.091528 -0.063626
v -0.042394 0.091528 -0.063626
v 0.000000 0.091528 -0.063626
v 0.042394 0.091528 -0.063626
v 0.084789 0.091528 -0.063626
v 0.127183 0.091528 -0.063626
v -0.127183 0.091528 -0.001126
v -0.084789 0.091528 -0.001126
v -0.042394 0.091528 -0.001126
v 0.000000 0.091528 -0.001126
v 0.042394 0.091528 -0.001126
v 0.084789 0.091528 -0.001126
v 0.127183 0.091528 -0.001126
v -0.127183 0.091528 0.061374
v -0.084789 0.091528 0.061374
v -0.042394 0.091528 0.061374
v 0.000000 0.091528 0.061374
v 0.042394 0.091528 0.061374
v 0.084789 0.091528 0.061374
v 0.127183 0.091528 0.061374
v -0.127183 0.091528 0.123874
v -0.084789 0.091528 0.123874
v -0.042394 0.091528 0.123874
v 0.000000 0.091528 0.123874
v 0.042394 0.091528 0.123874
v 0.084789 0.091528 0.123874
v 0.127183 0.091528 0.123874
v -0.127183 0.091528 0.186374
v -0.084789 0.091528 0.186374
v -0.042394 0.091528 0.186374
v 0.000000 0.091528 0.186374
v 0.042394 0.091528 0.186374
v 0.084789 0.091528 0.186374
v 0.127183 0.091528 0.186374
v -0.127183 0.091528 0.248874
v -0.084789 0.091528 0.248874
v -0.042394 0.091528 0.248874
v 0.000000 0.091528 0.248874
v 0.042394 0.091528 0.248874
v 0.084789 0.091528 0.248874
v 0.127183 0.091528 0.248874
v -0.127183 0.091528 0.311374
v -0.084789 0.091528 0.311374
v -0.042394 0.091528 0.311374
v 0.000000 0.091528 0.311374
v 0.042394 0.091528 0.311374
v 0.084789 0.091528 0.311374
v 0.127183 0.091528 0.311374
v -0.127183 0.091528 0.373874
v -0.084789 0.091528 0.373874
v -0.042394 0.091528 0.373874
v 0.000000 0.091528 0.373874
v 0.042394 0.091528 0.373874
v 0.084789 0.091528 0.373874
v 0.127183 0.091528 0.373874
v -0.127183 0.091528 0.436374
v -0.084789 0.091528 0.436374
v -0.042394 0.091528 0.436374
v 0.000000 0.091528 0.436374
v 0.042394 0.091528 0.436374
v 0.084789 0.091528 0.436374
v 0.127183 0.091528 0.436374
v -0.127183 0.091528 0.498874
v -0.084789 0.091528 0.498874
v -0.042394 0.091528 0.498874
v 0.000000 0.091528 0.498874
v 0.042394 0.091528 0.498874
v 0.084789 0.091528 0.498874
v 0.127183 0.091528 0.498874
v -0.127183 0.091528 0.561374
v -0.084789 0.091528 0.561374
v -0.042394 0.091528 0.561374
v 0.000000 0.091528 0.561374
v 0.042394 0.091528 0.561374
v 0.084789 0.091528 0.561374
v 0.127183 0.091528 0.561374
v -0.127183 0.091528 0.623874
v -0.084789 0.091528 0.623874
v -0.042394 0.091528 0.623874
v 0.000000 0.091528 0.623874
v 0.042394 0.091528 0.623874
v 0.084789 0.091528 0.623874
v 0.127183 0.091528 0.623874
v -0.127183 0.091528 0.686374
v -0.084789 0.091528 0.686374
v -0.042394 0.091528 0.686374
v 0.000000 0.091528 0.686374
v 0.042394 0.091528 0.686374
v 0.084789 0.091528 0.686374
v 0.127183 0.091528 0.686374
v -0.127183 0.091528 0.748874
v -0.084789 0.091528 0.748874
v -0.042394 0.091528 0.748874
v 0.000000 0.091528 0.748874
v 0.042394 0.091528 0.748874
v 0.084789 0.091528 0.748874
v 0.127183 0.091528 0.748874
v -0.127183 0.091528 0.811374
v -0.084789 0.091528 0.811374
v -0.042394 0.091528 0.811374
v 0.000000 0.091528 0.811374
v 0.042394 0.091528 0.811374
v 0.084789 0.091528 0.811374
v 0.127183 0.091528 0.811374
v -0.127183 0.091528 0.873874
v -0.084789 0.091528 0.873874
v -0.042394 0.091528 0.873874
v 0.000000 0.091528 0.873874
v 0.042394 0.091528 0.873874
v 0.084789 0.091528 0.873874
v 0.127183 0.091528 0.873874
v -0.127183 0.091528 0.936374
v -0.084789 0.091528 0.936374
v -0.042394 0.091528 0.936374
v 0.000000 0.091528 0.936374
v 0.042394 0.091528 0.936374
v 0.084789 0.091528 0.936374
v 0.127183 0.091528 0.936374
v 0.169577 0.054917 -1.000000
v 0.169577 0.018306 -1.000000
v 0.169577 -0.018306 -1.000000
v 0.169577 -0.054917 -1.000000
v -0.169577 -0.054917 1.000000
v -0.169577 -0.018306 1.000000
v -0.169577 0.018306 1.000000
v -0.169577 0.054917 1.000000
v 0.169577 0.054917 1.000000
v 0.169577 0.018306 1.000000
v 0.169577 -0.018306 1.000000
v 0.169577 -0.054917 1.000000
v -0.169577 0.054917 -1.000000
v -0.169577 0.018306 -1.000000
v -0.169577 -0.018306 -1.000000
v -0.169577 -0.054917 -1.000000
v 0.169577 0.054917 -0.938626
v 0.169577 0.018306 -0.938626
v 0.169577 -0.018306 -0.938626
v 0.169577 -0.054917 -0.938626
v 0.169577 0.054917 -0.876126
v 0.169577 0.018306 -0.876126
v 0.169577 -0.018306 -0.876126
v 0.169577 -0.054917 -0.876126
v 0.169577 0.054917 -0.813626
v 0.169577 0.018306 -0.813626
v 0.169577 -0.018306 -0.813626
v 0.169577 -0.054917 -0.813626
v 0.169577 0.054917 -0.751126
v 0.169577 0.018306 -0.751126
v 0.169577 -0.018306 -0.751126
v 0.169577 -0.054917 -0.751126
v 0.169577 0.054917 -0.688626
v 0.169577 0.018306 -0.688626
v 0.169577 -0.018306 -0.688626
v 0.169577 -0.054917 -0.688626
v 0.169577 0.054917 -0.626126
v 0.169577 0.018306 -0.626126
v 0.169577 -0.018306 -0.626126
v 0.169577 -0.054917 -0.626126
v 0.169577 0.054917 -0.563626
v 0.169577 0.018306 -0.563626
v 0.169577 -0.018306 -0.563626
v 0.169577 -0.054917 -0.563626
v 0.169577 0.054917 -0.501126
v 0.169577 0.018306 -0.501126
v 0.169577 -0.018306 -0.501126
v 0.169577 -0.054917 -0.501126
v 0.169577 0.054917 -0.438626
v 0.169577 0.018306 -0.438626
v 0.169577 -0.018306 -0.438626
v 0.169577 -0.054917 -0.438626
v 0.169577 0.054917 -0.376126
v 0.169577 0.018306 -0.376126
v 0.169577 -0.018306 -0.376126
v 0.169577 -0.054917 -0.376126
v 0.169577 0.054917 -0.313626
v 0.169577 0.018306 -0.313626
v 0.169577 -0.018306 -0.313626
v 0.169577 -0.054917 -0.313626
v 0.169577 0.054917 -0.251126
v 0.169577 0.018306 -0.251126
v 0.169577 -0.018306 -0.251126
v 0.169577 -0.054917 -0.251126
v 0.169577 0.054917 -0.188626
v 0.169577 0.018306 -0.188626
v 0.169577 -0.018306 -0.188626
v 0.169577 -0.054917 -0.188626
v 0.169577 0.054917 -0.126126
v 0.169577 0.018306 -0.126126
v 0.169577 -0.018306 -0.126126
v 0.169577 -0.054917 -0.126126
v 0.169577 0.054917 -0.063626
v 0.169577 0.018306 -0.063626
v 0.169577 -0.018306 -0.063626
v 0.169577 -0.054917 -0.063626
v 0.169577 0.054917 -0.001126
v 0.169577 0.018306 -0.001126
v 0.169577 -0.018306 -0.001126
v 0.169577 -0.054917 -0.001126
v 0.169577 0.054917 0.061374
v 0.169577 0.018306 0.061374
v 0.169577 -0.018306 0.061374
v 0.169577 -0.054917 0.061374
v 0.169577 0.054917 0.123874
v 0.169577 0.018306 0.123874
v 0.169577 -0.018306 0.123874
v 0.169577 -0.054917 0.123874
v 0.169577 0.054917 0.186374
v 0.169577 0.018306 0.186374
v 0.169577 -0.018306 0.186374
v 0.169577 -0.054917 0.186374
v 0.169577 0.054917 0.248874
v 0.169577 0.018306 0.248874
v 0.169577 -0.018306 0.248874
v 0.169577 -0.054917 0.248874
v 0.169577 0.054917 0.311374
v 0.169577 0.018306 0.311374
v 0.169577 -0.018306 0.311374
v 0.169577 -0.054917 0.311374
v 0.169577 0.054917 0.373874
v 0.169577 0.018306 0.373874
v 0.169577 -0.018306 0.373874
v 0.169577 -0.054917 0.373874
v 0.169577 0.054917 0.436374
v 0.169577 0.018306 0.436374
v 0.169577 -0.018306 0.436374
v 0.169577 -0.054917 0.436374
v 0.169577 0.054917 0.498874
v 0.169577 0.018306 0.498874
v 0.169577 -0.018306 0.498874
v 0.169577 -0.054917 0.498874
v 0.169577 0.054917 0.561374
v 0.169577 0.018306 0.561374
v 0.169577 -0.018306 0.561374
v 0.169577 -0.054917 0.561374
v 0.169577 0.054917 0.623874
v 0.169577 0.018306 0.623874
v 0.169577 -0.018306 0.623874
v 0.169577 -0.054917 0.623874
v 0.169577 0.054917 0.686374
v 0.169577 0.018306 0.686374
v 0.169577 -0.018306 0.686374
v 0.169577 -0.054917 0.686374
v 0.169577 0.054917 0.748874
v 0.169577 0.018306 0.748874
v 0.169577 -0.018306 0.748874
v 0.169577 -0.054917 0.748874
v 0.169577 0.054917 0.811374
v 0.169577 0.018306 0.811374
v 0.169577 -0.018306 0.811374
v 0.169577 -0.054917 0.811374
v 0.169577 0.054917 0.873874
v 0.169577 0.018306 0.873874
v 0.169577 -0.018306 0.873874
v 0.169577 -0.054917 0.873874
v 0.169577 0.054917 0.936374
v 0.169577 0.018306 0.936374
v 0.169577 -0.018306 0.936374
v 0.169577 -0.054917 0.936374
v -0.169577 0.054917 0.936374
v -0.169577 0.018306 0.936374
v -0.169577 -0.018306 0.936374
v -0.169577 -0.054917 0.936374
v -0.169577 0.054917 0.873874
v -0.169577 0.018306 0.873874
v -0.169577 -0.018306 0.873874
v -0.169577 -0.054917 0.873874
v -0.169577 0.054917 0.811374
v -0.169577 0.018306 0.811374
v -0.169577 -0.018306 0.811374
v -0.169577 -0.054917 0.811374
v -0.169577 0.054917 0.748874
v -0.169577 0.018306 0.748874
v -0.169577 -0.018306 0.748874
v -0.169577 -0.054917 0.748874
v -0.169577 0.054917 0.686374
v -0.169577 0.018306 0.686374
v -0.169577 -0.018306 0.686374
v -0.169577 -0.054917 0.686374
v -0.169577 0.054917 0.623874
v -0.169577 0.018306 0.623874
v -0.169577 -0.018306 0.623874
v -0.169577 -0.054917 0.623874
v -0.169577 0.054917 0.561374
v -0.169577 0.018306 0.561374
v -0.169577 -0.018306 0.561374
v -0.169577 -0.054917 0.561374
v -0.169577 0.054917 0.498874
v -0.169577 0.018306 0.498874
v -0.169577 -0.018306 0.498874
v -0.169577 -0.054917 0.498874
v -0.169577 0.054917 0.436374
v -0.169577 0.018306 0.436374
v -0.169577 -0.018306 0.436374
v -0.169577 -0.054917 0.436374
v -0.169577 0.054917 0.373874
v -0.169577 0.018306 0.373874
v -0.169577 -0.018306 0.373874
v -0.169577 -0.054917 0.373874
v -0.169577 0.054917 0.311374
v -0.169577 0.018306 0.311374
v -0.169577 -0.018306 0.311374
v -0.169577 -0.054917 0.311374
v -0.169577 0.054917 0.248874
v -0.169577 0.018306 0.248874
v -0.169577 -0.018306 0.248874
v -0.169577 -0.054917 0.248874
v -0.169577 0.054917 0.186374
v -0.169577 0.018306 0.186374
v -0.169577 -0.018306 0.186374
v -0.169577 -0.054917 0.186374
v -0.169577 0.054917 0.123874
v -0.169577 0.018306 0.123874
v -0.169577 -0.018306 0.123874
v -0.169577 -0.054917 0.123874
v -0.169577 0.054917 0.061374
v -0.169577 0.018306 0.061374
v -0.169577 -0.018306 0.061374
v -0.169577 -0.054917 0.061374
v -0.169577 0.054917 -0.001126
v -0.169577 0.018306 -0.001126
v -0.169577 -0.018306 -0.001126
v -0.169577 -0.054917 -0.001126
v -0.169577 0.054917 -0.063626
v -0.169577 0.018306 -0.063626
v -0.169577 -0.018306 -0.063626
v -0.169577 -0.054917 -0.063626
v -0.169577 0.054917 -0.126126
v -0.169577 0.018306 -0.126126
v -0.169577 -0.018306 -0.126126
v -0.169577 -0.054917 -0.126126
v -0.169577 0.054917 -0.188626
v -0.169577 0.018306 -0.188626
v -0.169577 -0.018306 -0.188626
v -0.169577 -0.054917 -0.188626
v -0.169577 0.054917 -0.251126
v -0.169577 0.018306 -0.251126
v -0.169577 -0.018306 -0.251126
v -0.169577 -0.054917 -0.251126
v -0.169577 0.054917 -0.313626
v -0.169577 0.018306 -0.313626
v -0.169577 -0.018306 -0.313626
v -0.169577 -0.054917 -0.313626
v -0.169577 0.054917 -0.376126
v -0.169577 0.018306 -0.376126
v -0.169577 -0.018306 -0.376126
v -0.169577 -0.054917 -0.376126
v -0.169577 0.054917 -0.438626
v -0.169577 0.018306 -0.438626
v -0.169577 -0.018306 -0.438626
v -0.169577 -0.054917 -0.438626
v -0.169577 0.054917 -0.501126
v -0.169577 0.018306 -0.501126
v -0.169577 -0.018306 -0.501126
v -0.169577 -0.054917 -0.501126
v -0.169577 0.054917 -0.563626
v -0.169577 0.018306 -0.563626
v -0.169577 -0.018306 -0.563626
v -0.169577 -0.054917 -0.563626
v -0.169577 0.054917 -0.626126
v -0.169577 0.018306 -0.626126
v -0.169577 -0.018306 -0.626126
v -0.169577 -0.054917 -0.626126
v -0.169577 0.054917 -0.688626
v -0.169577 0.018306 -0.688626
v -0.169577 -0.018306 -0.688626
v -0.169577 -0.054917 -0.688626
v -0.169577 0.054917 -0.751126
v -0.169577 0.018306 -0.751126
v -0.169577 -0.018306 -0.751126
v -0.169577 -0.054917 -0.751126
v -0.169577 0.054917 -0.813626
v -0.169577 0.018306 -0.813626
v -0.169577 -0.018306 -0.813626
v -0.169577 -0.054917 -0.813626
v -0.169577 0.054917 -0.876126
v -0.169577 0.018306 -0.876126
v -0.169577 -0.018306 -0.876126
v -0.169577 -0.054917 -0.876126
v -0.169577 0.054917 -0.938626
v -0.169577 0.018306 -0.938626
v -0.169577 -0.018306 -0.938626
v -0.169577 -0.054917 -0.938626
v -0.127183 0.054917 -1.000000
v -0.127183 0.018306 -1.000000
v -0.127183 -0.018306 -1.000000
v -0.127183 -0.054917 -1.000000
v -0.084789 0.054917 -1.000000
v -0.084789 0.018306 -1.000000
v -0.084789 -0.018306 -1.000000
v -0.084789 -0.054917 -1.000000
v -0.042394 0.054917 -1.000000
v -0.042394 0.018306 -1.000000
v -0.042394 -0.018306 -1.000000
v -0.042394 -0.054917 -1.000000
v 0.000000 0.054917 -1.000000
v 0.000000 0.018306 -1.000000
v -0.000000 -0.018306 -1.000000
v -0.000000 -0.054917 -1.000000
v 0.042394 0.054917 -1.000000
v 0.042394 0.018306 -1.000000
v 0.042394 -0.018306 -1.000000
v 0.042394 -0.054917 -1.000000
v 0.084789 0.054917 -1.000000
v 0.084789 0.018306 -1.000000
v 0.084789 -0.018306 -1.000000
v 0.084789 -0.054917 -1.000000
v 0.127183 0.054917 -1.000000
v 0.127183 0.018306 -1.000000
v 0.127183 -0.018306 -1.000000
v 0.127183 -0.054917 -1.000000
v 0.127183 0.054917 1.000000
v 0.127183 0.018306 1.000000
v 0.127183 -0.018306 1.000000
v 0.127183 -0.054917 1.000000
v 0.084789 0.054917 1.000000
v 0.084789 0.018306 1.000000
v 0.084789 -0.018306 1.000000
v 0.084789 -0.054917 1.000000
v 0.042394 0.054917 1.000000
v 0.042394 0.018306 1.000000
v 0.042394 -0.018306 1.000000
v 0.042394 -0.054917 1.000000
v -0.000000 0.054917 1.000000
v -0.000000 0.018306 1.000000
v 0.000000 -0.018306 1.000000
v 0.000000 -0.054917 1.000000
v -0.042394 0.054917 1.000000
v -0.042394 0.018306 1.000000
v -0.042394 -0.018306 1.000000
v -0.042394 -0.054917 1.000000
v -0.084789 0.054917 1.000000
v -0.084789 0.018306 1.000000
v -0.084789 -0.018306 1.000000
v -0.084789 -0.054917 1.000000
v -0.127183 0.054917 1.000000
v -0.127183 0.018306 1.000000
v -0.127183 -0.018306 1.000000
v -0.127183 -0.054917 1.000000
vn -0.0000 1.0000 -0.0000
vn -0.0000 -0.0000 1.0000
vn -1.0000 -0.0000 -0.0000
vn -0.0000 -1.0000 -0.0000
vn 1.0000 -0.0000 -0.0000
vn -0.0000 -0.0000 -1.0000
vt 0.843750 0.742047
vt 0.875000 0.742047
vt 0.875000 0.750000
vt 0.843750 0.750000
vt 0.575000 0.968750
vt 0.625000 0.968750
vt 0.625000 1.000000
vt 0.575000 1.000000
vt 0.575000 0.242328
vt 0.625000 0.242328
vt 0.625000 0.250000
vt 0.575000 0.250000
vt 0.343750 0.742047
vt 0.375000 0.742047
vt 0.375000 0.750000
vt 0.343750 0.750000
vt 0.575000 0.742047
vt 0.625000 0.742047
vt 0.625000 0.750000
vt 0.575000 0.750000
vt 0.575000 0.468750
vt 0.625000 0.468750
vt 0.625000 0.500000
vt 0.575000 0.500000
vt 0.625000 0.507672
vt 0.575000 0.507672
vt 0.625000 0.515484
vt 0.575000 0.515484
vt 0.625000 0.523297
vt 0.575000 0.523297
vt 0.625000 0.531109
vt 0.575000 0.531109
vt 0.625000 0.538922
vt 0.575000 0.538922
vt 0.625000 0.546734
vt 0.575000 0.546734
vt 0.625000 0.554547
vt 0.575000 0.554547
vt 0.625000 0.562359
vt 0.575000 0.562359
vt 0.625000 0.570172
vt 0.575000 0.570172
vt 0.625000 0.577984
vt 0.575000 0.577984
vt 0.625000 0.585797
vt 0.575000 0.585797
vt 0.625000 0.593609
vt 0.575000 0.593609
vt 0.625000 0.601422
vt 0.575000 0.601422
vt 0.625000 0.609234
vt 0.575000 0.609234
vt 0.625000 0.617047
vt 0.575000 0.617047
vt 0.625000 0.624859
vt 0.575000 0.624859
vt 0.625000 0.632672
vt 0.575000 0.632672
vt 0.625000 0.640484
vt 0.575000 0.640484
vt 0.625000 0.648297
vt 0.575000 0.648297
vt 0.625000 0.656109
vt 0.575000 0.656109
vt 0.625000 0.663922
vt 0.575000 0.663922
vt 0.625000 0.671734
vt 0.575000 0.671734
vt 0.625000 0.679547
vt 0.575000 0.679547
vt 0.625000 0.687359
vt 0.575000 0.687359
vt 0.625000 0.695172
vt 0.575000 0.695172
vt 0.625000 0.702984
vt 0.575000 0.702984
vt 0.625000 0.710797
vt 0.575000 0.710797
vt 0.625000 0.718609
vt 0.575000 0.718609
vt 0.625000 0.726422
vt 0.575000 0.726422
vt 0.625000 0.734234
vt 0.575000 0.734234
vt 0.343750 0.500000
vt 0.375000 0.500000
vt 0.375000 0.507672
vt 0.343750 0.507672
vt 0.375000 0.515484
vt 0.343750 0.515484
vt 0.375000 0.523297
vt 0.343750 0.523297
vt 0.375000 0.531109
vt 0.343750 0.531109
vt 0.375000 0.538922
vt 0.343750 0.538922
vt 0.375000 0.546734
vt 0.343750 0.546734
vt 0.375000 0.554547
vt 0.343750 0.554547
vt 0.375000 0.562359
vt 0.343750 0.562359
vt 0.375000 0.570172
vt 0.343750 0.570172
vt 0.375000 0.577984
vt 0.343750 0.577984
vt 0.375000 0.585797
vt 0.343750 0.585797
vt 0.375000 0.593609
vt 0.343750 0.593609
vt 0.375000 0.601422
vt 0.343750 0.601422
vt 0.375000 0.609234
vt 0.343750 0.609234
vt 0.375000 0.617047
vt 0.343750 0.617047
vt 0.375000 0.624859
vt 0.343750 0.624859
vt 0.375000 0.632672
vt 0.343750 0.632672
vt 0.375000 0.640484
vt 0.343750 0.640484
vt 0.375000 0.648297
vt 0.343750 0.648297
vt 0.375000 0.656109
vt 0.343750 0.656109
vt 0.375000 0.663922
vt 0.343750 0.663922
vt 0.375000 0.671734
vt 0.343750 0.671734
vt 0.375000 0.679547
vt 0.343750 0.679547
vt 0.375000 0.687359
vt 0.343750 0.687359
vt 0.375000 0.695172
vt 0.343750 0.695172
vt 0.375000 0.702984
vt 0.343750 0.702984
vt 0.375000 0.710797
vt 0.343750 0.710797
vt 0.375000 0.718609
vt 0.343750 0.718609
vt 0.375000 0.726422
vt 0.343750 0.726422
vt 0.375000 0.734234
vt 0.343750 0.734234
vt 0.575000 0.000000
vt 0.625000 0.000000
vt 0.625000 0.007953
vt 0.575000 0.007953
vt 0.625000 0.015766
vt 0.575000 0.015766
vt 0.625000 0.023578
vt 0.575000 0.023578
vt 0.625000 0.031391
vt 0.575000 0.031391
vt 0.625000 0.039203
vt 0.575000 0.039203
vt 0.625000 0.047016
vt 0.575000 0.047016
vt 0.625000 0.054828
vt 0.575000 0.054828
vt 0.625000 0.062641
vt 0.575000 0.062641
vt 0.625000 0.070453
vt 0.575000 0.070453
vt 0.625000 0.078266
vt 0.575000 0.078266
vt 0.625000 0.086078
vt 0.575000 0.086078
vt 0.625000 0.093891
vt 0.575000 0.093891
vt 0.625000 0.101703
vt 0.575000 0.101703
vt 0.625000 0.109516
vt 0.575000 0.109516
vt 0.625000 0.117328
vt 0.575000 0.117328
vt 0.625000 0.125141
vt 0.575000 0.125141
vt 0.625000 0.132953
vt 0.575000 0.132953
vt 0.625000 0.140766
vt 0.575000 0.140766
vt 0.625000 0.148578
vt 0.575000 0.148578
vt 0.625000 0.156391
vt 0.575000 0.156391
vt 0.625000 0.164203
vt 0.575000 0.164203
vt 0.625000 0.172016
vt 0.575000 0.172016
vt 0.625000 0.179828
vt 0.575000 0.179828
vt 0.625000 0.187641
vt 0.575000 0.187641
vt 0.625000 0.195453
vt 0.575000 0.195453
vt 0.625000 0.203266
vt 0.575000 0.203266
vt 0.625000 0.211078
vt 0.575000 0.211078
vt 0.625000 0.218891
vt 0.575000 0.218891
vt 0.625000 0.226703
vt 0.575000 0.226703
vt 0.625000 0.234516
vt 0.575000 0.234516
vt 0.843750 0.500000
vt 0.875000 0.500000
vt 0.875000 0.507672
vt 0.843750 0.507672
vt 0.875000 0.515484
vt 0.843750 0.515484
vt 0.875000 0.523297
vt 0.843750 0.523297
vt 0.875000 0.531109
vt 0.843750 0.531109
vt 0.875000 0.538922
vt 0.843750 0.538922
vt 0.875000 0.546734
vt 0.843750 0.546734
vt 0.875000 0.554547
vt 0.843750 0.554547
vt 0.875000 0.562359
vt 0.843750 0.562359
vt 0.875000 0.570172
vt 0.843750 0.570172
vt 0.875000 0.577984
vt 0.843750 0.577984
vt 0.875000 0.585797
vt 0.843750 0.585797
vt 0.875000 0.593609
vt 0.843750 0.593609
vt 0.875000 0.601422
vt 0.843750 0.601422
vt 0.875000 0.609234
vt 0.843750 0.609234
vt 0.875000 0.617047
vt 0.843750 0.617047
vt 0.875000 0.624859
vt 0.843750 0.624859
vt 0.875000 0.632672
vt 0.843750 0.632672
vt 0.875000 0.640484
vt 0.843750 0.640484
vt 0.875000 0.648297
vt 0.843750 0.648297
vt 0.875000 0.656109
vt 0.843750 0.656109
vt 0.875000 0.663922
vt 0.843750 0.663922
vt 0.875000 0.671734
vt 0.843750 0.671734
vt 0.875000 0.679547
vt 0.843750 0.679547
vt 0.875000 0.687359
vt 0.843750 0.687359
vt 0.875000 0.695172
vt 0.843750 0.695172
vt 0.875000 0.702984
vt 0.843750 0.702984
vt 0.875000 0.710797
vt 0.843750 0.710797
vt 0.875000 0.718609
vt 0.843750 0.718609
vt 0.875000 0.726422
vt 0.843750 0.726422
vt 0.875000 0.734234
vt 0.843750 0.734234
vt 0.656250 0.734234
vt 0.656250 0.742047
vt 0.687500 0.734234
vt 0.687500 0.742047
vt 0.718750 0.734234
vt 0.718750 0.742047
vt 0.750000 0.734234
vt 0.750000 0.742047
vt 0.781250 0.734234
vt 0.781250 0.742047
vt 0.812500 0.734234
vt 0.812500 0.742047
vt 0.656250 0.726422
vt 0.687500 0.726422
vt 0.718750 0.726422
vt 0.750000 0.726422
vt 0.781250 0.726422
vt 0.812500 0.726422
vt 0.656250 0.718609
vt 0.687500 0.718609
vt 0.718750 0.718609
vt 0.750000 0.718609
vt 0.781250 0.718609
vt 0.812500 0.718609
vt 0.656250 0.710797
vt 0.687500 0.710797
vt 0.718750 0.710797
vt 0.750000 0.710797
vt 0.781250 0.710797
vt 0.812500 0.710797
vt 0.656250 0.702984
vt 0.687500 0.702984
vt 0.718750 0.702984
vt 0.750000 0.702984
vt 0.781250 0.702984
vt 0.812500 0.702984
vt 0.656250 0.695172
vt 0.687500 0.695172
vt 0.718750 0.695172
vt 0.750000 0.695172
vt 0.781250 0.695172
vt 0.812500 0.695172
vt 0.656250 0.687359
vt 0.687500 0.687359
vt 0.718750 0.687359
vt 0.750000 0.687359
vt 0.781250 0.687359
vt 0.812500 0.687359
vt 0.656250 0.679547
vt 0.687500 0.679547
vt 0.718750 0.679547
vt 0.750000 0.679547
vt 0.781250 0.679547
vt 0.812500 0.679547
vt 0.656250 0.671734
vt 0.687500 0.671734
vt 0.718750 0.671734
vt 0.750000 0.671734
vt 0.781250 0.671734
vt 0.812500 0.671734
vt 0.656250 0.663922
vt 0.687500 0.663922
vt 0.718750 0.663922
vt 0.750000 0.663922
vt 0.781250 0.663922
vt 0.812500 0.663922
vt 0.656250 0.656109
vt 0.687500 0.656109
vt 0.718750 0.656109
vt 0.750000 0.656109
vt 0.781250 0.656109
vt 0.812500 0.656109
vt 0.656250 0.648297
vt 0.687500 0.648297
vt 0.718750 0.648297
vt 0.750000 0.648297
vt 0.781250 0.648297
vt 0.812500 0.648297
vt 0.656250 0.640484
vt 0.687500 0.640484
vt 0.718750 0.640484
vt 0.750000 0.640484
vt 0.781250 0.640484
vt 0.812500 0.640484
vt 0.656250 0.632672
vt 0.687500 0.632672
vt 0.718750 0.632672
vt 0.750000 0.632672
vt 0.781250 0.632672
vt 0.812500 0.632672
vt 0.656250 0.624859
vt 0.687500 0.624859
vt 0.718750 0.624859
vt 0.750000 0.624859
vt 0.781250 0.624859
vt 0.812500 0.624859
vt 0.656250 0.617047
vt 0.687500 0.617047
vt 0.718750 0.617047
vt 0.750000 0.617047
vt 0.781250 0.617047
vt 0.812500 0.617047
vt 0.656250 0.609234
vt 0.687500 0.609234
vt 0.718750 0.609234
vt 0.750000 0.609234
vt 0.781250 0.609234
vt 0.812500 0.609234
vt 0.656250 0.601422
vt 0.687500 0.601422
vt 0.718750 0.601422
vt 0.750000 0.601422
vt 0.781250 0.601422
vt 0.812500 0.601422
vt 0.656250 0.593609
vt 0.687500 0.593609
vt 0.718750 0.593609
vt 0.750000 0.593609
vt 0.781250 0.593609
vt 0.812500 0.593609
vt 0.656250 0.585797
vt 0.687500 0.585797
vt 0.718750 0.585797
vt 0.750000 0.585797
vt 0.781250 0.585797
vt 0.812500 0.585797
vt 0.656250 0.577984
vt 0.687500 0.577984
vt 0.718750 0.577984
vt 0.750000 0.577984
vt 0.781250 0.577984
vt 0.812500 0.577984
vt 0.656250 0.570172
vt 0.687500 0.570172
vt 0.718750 0.570172
vt 0.750000 0.570172
vt 0.781250 0.570172
vt 0.812500 0.570172
vt 0.656250 0.562359
vt 0.687500 0.562359
vt 0.718750 0.562359
vt 0.750000 0.562359
vt 0.781250 0.562359
vt 0.812500 0.562359
vt 0.656250 0.554547
vt 0.687500 0.554547
vt 0.718750 0.554547
vt 0.750000 0.554547
vt 0.781250 0.554547
vt 0.812500 0.554547
vt 0.656250 0.546734
vt 0.687500 0.546734
vt 0.718750 0.546734
vt 0.750000 0.546734
vt 0.781250 0.546734
vt 0.812500 0.546734
vt 0.656250 0.538922
vt 0.687500 0.538922
vt 0.718750 0.538922
vt 0.750000 0.538922
vt 0.781250 0.538922
vt 0.812500 0.538922
vt 0.656250 0.531109
vt 0.687500 0.531109
vt 0.718750 0.531109
vt 0.750000 0.531109
vt 0.781250 0.531109
vt 0.812500 0.531109
vt 0.656250 0.523297
vt 0.687500 0.523297
vt 0.718750 0.523297
vt 0.750000 0.523297
vt 0.781250 0.523297
vt 0.812500 0.523297
vt 0.656250 0.515484
vt 0.687500 0.515484
vt 0.718750 0.515484
vt 0.750000 0.515484
vt 0.781250 0.515484
vt 0.812500 0.515484
vt 0.656250 0.507672
vt 0.687500 0.507672
vt 0.718750 0.507672
vt 0.750000 0.507672
vt 0.781250 0.507672
vt 0.812500 0.507672
vt 0.656250 0.500000
vt 0.687500 0.500000
vt 0.718750 0.500000
vt 0.750000 0.500000
vt 0.781250 0.500000
vt 0.812500 0.500000
vt 0.125000 0.734234
vt 0.156250 0.734234
vt 0.156250 0.742047
vt 0.125000 0.742047
vt 0.187500 0.734234
vt 0.187500 0.742047
vt 0.218750 0.734234
vt 0.218750 0.742047
vt 0.250000 0.734234
vt 0.250000 0.742047
vt 0.281250 0.734234
vt 0.281250 0.742047
vt 0.312500 0.734234
vt 0.312500 0.742047
vt 0.125000 0.726422
vt 0.156250 0.726422
vt 0.187500 0.726422
vt 0.218750 0.726422
vt 0.250000 0.726422
vt 0.281250 0.726422
vt 0.312500 0.726422
vt 0.125000 0.718609
vt 0.156250 0.718609
vt 0.187500 0.718609
vt 0.218750 0.718609
vt 0.250000 0.718609
vt 0.281250 0.718609
vt 0.312500 0.718609
vt 0.125000 0.710797
vt 0.156250 0.710797
vt 0.187500 0.710797
vt 0.218750 0.710797
vt 0.250000 0.710797
vt 0.281250 0.710797
vt 0.312500 0.710797
vt 0.125000 0.702984
vt 0.156250 0.702984
vt 0.187500 0.702984
vt 0.218750 0.702984
vt 0.250000 0.702984
vt 0.281250 0.702984
vt 0.312500 0.702984
vt 0.125000 0.695172
vt 0.156250 0.695172
vt 0.187500 0.695172
vt 0.218750 0.695172
vt 0.250000 0.695172
vt 0.281250 0.695172
vt 0.312500 0.695172
vt 0.125000 0.687359
vt 0.156250 0.687359
vt 0.187500 0.687359
vt 0.218750 0.687359
vt 0.250000 0.687359
vt 0.281250 0.687359
vt 0.312500 0.687359
vt 0.125000 0.679547
vt 0.156250 0.679547
vt 0.187500 0.679547
vt 0.218750 0.679547
vt 0.250000 0.679547
vt 0.281250 0.679547
vt 0.312500 0.679547
vt 0.125000 0.671734
vt 0.156250 0.671734
vt 0.187500 0.671734
vt 0.218750 0.671734
vt 0.250000 0.671734
vt 0.281250 0.671734
vt 0.312500 0.671734
vt 0.125000 0.663922
vt 0.156250 0.663922
vt 0.187500 0.663922
vt 0.218750 0.663922
vt 0.250000 0.663922
vt 0.281250 0.663922
vt 0.312500 0.663922
vt 0.125000 0.656109
vt 0.156250 0.656109
vt 0.187500 0.656109
vt 0.218750 0.656109
vt 0.250000 0.656109
vt 0.281250 0.656109
vt 0.312500 0.656109
vt 0.125000 0.648297
vt 0.156250 0.648297
vt 0.187500 0.648297
vt 0.218750 0.648297
vt 0.250000 0.648297
vt 0.281250 0.648297
vt 0.312500 0.648297
vt 0.125000 0.640484
vt 0.156250 0.640484
vt 0.187500 0.640484
vt 0.218750 0.640484
vt 0.250000 0.640484
vt 0.281250 0.640484
vt 0.312500 0.640484
vt 0.125000 0.632672
vt 0.156250 0.632672
vt 0.187500 0.632672
vt 0.218750 0.632672
vt 0.250000 0.632672
vt 0.281250 0.632672
vt 0.312500 0.632672
vt 0.125000 0.624859
vt 0.156250 0.624859
vt 0.187500 0.624859
vt 0.218750 0.624859
vt 0.250000 0.624859
vt 0.281250 0.624859
vt 0.312500 0.624859
vt 0.125000 0.617047
vt 0.156250 0.617047
vt 0.187500 0.617047
vt 0.218750 0.617047
vt 0.250000 0.617047
vt 0.281250 0.617047
vt 0.312500 0.617047
vt 0.125000 0.609234
vt 0.156250 0.609234
vt 0.187500 0.609234
vt 0.218750 0.609234
vt 0.250000 0.609234
vt 0.281250 0.609234
vt 0.312500 0.609234
vt 0.125000 0.601422
vt 0.156250 0.601422
vt 0.187500 0.601422
vt 0.218750 0.601422
vt 0.250000 0.601422
vt 0.281250 0.601422
vt 0.312500 0.601422
vt 0.125000 0.593609
vt 0.156250 0.593609
vt 0.187500 0.593609
vt 0.218750 0.593609
vt 0.250000 0.593609
vt 0.281250 0.593609
vt 0.312500 0.593609
vt 0.125000 0.585797
vt 0.156250 0.585797
vt 0.187500 0.585797
vt 0.218750 0.585797
vt 0.250000 0.585797
vt 0.281250 0.585797
vt 0.312500 0.585797
vt 0.125000 0.577984
vt 0.156250 0.577984
vt 0.187500 0.577984
vt 0.218750 0.577984
vt 0.250000 0.577984
vt 0.281250 0.577984
vt 0.312500 0.577984
vt 0.125000 0.570172
vt 0.156250 0.570172
vt 0.187500 0.570172
vt 0.218750 0.570172
vt 0.250000 0.570172
vt 0.281250 0.570172
vt 0.312500 0.570172
vt 0.125000 0.562359
vt 0.156250 0.562359
vt 0.187500 0.562359
vt 0.218750 0.562359
vt 0.250000 0.562359
vt 0.281250 0.562359
vt 0.312500 0.562359
vt 0.125000 0.554547
vt 0.156250 0.554547
vt 0.187500 0.554547
vt 0.218750 0.554547
vt 0.250000 0.554547
vt 0.281250 0.554547
vt 0.312500 0.554547
vt 0.125000 0.546734
vt 0.156250 0.546734
vt 0.187500 0.546734
vt 0.218750 0.546734
vt 0.250000 0.546734
vt 0.281250 0.546734
vt 0.312500 0.546734
vt 0.125000 0.538922
vt 0.156250 0.538922
vt 0.187500 0.538922
vt 0.218750 0.538922
vt 0.250000 0.538922
vt 0.281250 0.538922
vt 0.312500 0.538922
vt 0.125000 0.531109
vt 0.156250 0.531109
vt 0.187500 0.531109
vt 0.218750 0.531109
vt 0.250000 0.531109
vt 0.281250 0.531109
vt 0.312500 0.531109
vt 0.125000 0.523297
vt 0.156250 0.523297
vt 0.187500 0.523297
vt 0.218750 0.523297
vt 0.250000 0.523297
vt 0.281250 0.523297
vt 0.312500 0.523297
vt 0.125000 0.515484
vt 0.156250 0.515484
vt 0.187500 0.515484
vt 0.218750 0.515484
vt 0.250000 0.515484
vt 0.281250 0.515484
vt 0.312500 0.515484
vt 0.125000 0.507672
vt 0.156250 0.507672
vt 0.187500 0.507672
vt 0.218750 0.507672
vt 0.250000 0.507672
vt 0.281250 0.507672
vt 0.312500 0.507672
vt 0.125000 0.500000
vt 0.156250 0.500000
vt 0.187500 0.500000
vt 0.218750 0.500000
vt 0.250000 0.500000
vt 0.281250 0.500000
vt 0.312500 0.500000
vt 0.625000 0.281250
vt 0.575000 0.281250
vt 0.625000 0.312500
vt 0.575000 0.312500
vt 0.625000 0.343750
vt 0.575000 0.343750
vt 0.625000 0.375000
vt 0.575000 0.375000
vt 0.625000 0.406250
vt 0.575000 0.406250
vt 0.625000 0.437500
vt 0.575000 0.437500
vt 0.156250 0.750000
vt 0.125000 0.750000
vt 0.187500 0.750000
vt 0.218750 0.750000
vt 0.250000 0.750000
vt 0.281250 0.750000
vt 0.312500 0.750000
vt 0.625000 0.781250
vt 0.575000 0.781250
vt 0.625000 0.812500
vt 0.575000 0.812500
vt 0.625000 0.843750
vt 0.575000 0.843750
vt 0.625000 0.875000
vt 0.575000 0.875000
vt 0.625000 0.906250
vt 0.575000 0.906250
vt 0.625000 0.937500
vt 0.575000 0.937500
vt 0.656250 0.750000
vt 0.687500 0.750000
vt 0.718750 0.750000
vt 0.750000 0.750000
vt 0.781250 0.750000
vt 0.812500 0.750000
vt 0.375000 0.937500
vt 0.425000 0.937500
vt 0.425000 0.968750
vt 0.375000 0.968750
vt 0.475000 0.937500
vt 0.475000 0.968750
vt 0.525000 0.937500
vt 0.525000 0.968750
vt 0.375000 0.906250
vt 0.425000 0.906250
vt 0.475000 0.906250
vt 0.525000 0.906250
vt 0.375000 0.875000
vt 0.425000 0.875000
vt 0.475000 0.875000
vt 0.525000 0.875000
vt 0.375000 0.843750
vt 0.425000 0.843750
vt 0.475000 0.843750
vt 0.525000 0.843750
vt 0.375000 0.812500
vt 0.425000 0.812500
vt 0.475000 0.812500
vt 0.525000 0.812500
vt 0.375000 0.781250
vt 0.425000 0.781250
vt 0.475000 0.781250
vt 0.525000 0.781250
vt 0.425000 0.750000
vt 0.475000 0.750000
vt 0.525000 0.750000
vt 0.375000 0.437500
vt 0.425000 0.437500
vt 0.425000 0.468750
vt 0.375000 0.468750
vt 0.475000 0.437500
vt 0.475000 0.468750
vt 0.525000 0.437500
vt 0.525000 0.468750
vt 0.375000 0.406250
vt 0.425000 0.406250
vt 0.475000 0.406250
vt 0.525000 0.406250
vt 0.375000 0.375000
vt 0.425000 0.375000
vt 0.475000 0.375000
vt 0.525000 0.375000
vt 0.375000 0.343750
vt 0.425000 0.343750
vt 0.475000 0.343750
vt 0.525000 0.343750
vt 0.375000 0.312500
vt 0.425000 0.312500
vt 0.475000 0.312500
vt 0.525000 0.312500
vt 0.375000 0.281250
vt 0.425000 0.281250
vt 0.475000 0.281250
vt 0.525000 0.281250
vt 0.375000 0.250000
vt 0.425000 0.250000
vt 0.475000 0.250000
vt 0.525000 0.250000
vt 0.375000 0.234516
vt 0.425000 0.234516
vt 0.425000 0.242328
vt 0.375000 0.242328
vt 0.475000 0.234516
vt 0.475000 0.242328
vt 0.525000 0.234516
vt 0.525000 0.242328
vt 0.375000 0.226703
vt 0.425000 0.226703
vt 0.475000 0.226703
vt 0.525000 0.226703
vt 0.375000 0.218891
vt 0.425000 0.218891
vt 0.475000 0.218891
vt 0.525000 0.218891
vt 0.375000 0.211078
vt 0.425000 0.211078
vt 0.475000 0.211078
vt 0.525000 0.211078
vt 0.375000 0.203266
vt 0.425000 0.203266
vt 0.475000 0.203266
vt 0.525000 0.203266
vt 0.375000 0.195453
vt 0.425000 0.195453
vt 0.475000 0.195453
vt 0.525000 0.195453
vt 0.375000 0.187641
vt 0.425000 0.187641
vt 0.475000 0.187641
vt 0.525000 0.187641
vt 0.375000 0.179828
vt 0.425000 0.179828
vt 0.475000 0.179828
vt 0.525000 0.179828
vt 0.375000 0.172016
vt 0.425000 0.172016
vt 0.475000 0.172016
vt 0.525000 0.172016
vt 0.375000 0.164203
vt 0.425000 0.164203
vt 0.475000 0.164203
vt 0.525000 0.164203
vt 0.375000 0.156391
vt 0.425000 0.156391
vt 0.475000 0.156391
vt 0.525000 0.156391
vt 0.375000 0.148578
vt 0.425000 0.148578
vt 0.475000 0.148578
vt 0.525000 0.148578
vt 0.375000 0.140766
vt 0.425000 0.140766
vt 0.475000 0.140766
vt 0.525000 0.140766
vt 0.375000 0.132953
vt 0.425000 0.132953
vt 0.475000 0.132953
vt 0.525000 0.132953
vt 0.375000 0.125141
vt 0.425000 0.125141
vt 0.475000 0.125141
vt 0.525000 0.125141
vt 0.375000 0.117328
vt 0.425000 0.117328
vt 0.475000 0.117328
vt 0.525000 0.117328
vt 0.375000 0.109516
vt 0.425000 0.109516
vt 0.475000 0.109516
vt 0.525000 0.109516
vt 0.375000 0.101703
vt 0.425000 0.101703
vt 0.475000 0.101703
vt 0.525000 0.101703
vt 0.375000 0.093891
vt 0.425000 0.093891
vt 0.475000 0.093891
vt 0.525000 0.093891
vt 0.375000 0.086078
vt 0.425000 0.086078
vt 0.475000 0.086078
vt 0.525000 0.086078
vt 0.375000 0.078266
vt 0.425000 0.078266
vt 0.475000 0.078266
vt 0.525000 0.078266
vt 0.375000 0.070453
vt 0.425000 0.070453
vt 0.475000 0.070453
vt 0.525000 0.070453
vt 0.375000 0.062641
vt 0.425000 0.062641
vt 0.475000 0.062641
vt 0.525000 0.062641
vt 0.375000 0.054828
vt 0.425000 0.054828
vt 0.475000 0.054828
vt 0.525000 0.054828
vt 0.375000 0.047016
vt 0.425000 0.047016
vt 0.475000 0.047016
vt 0.525000 0.047016
vt 0.375000 0.039203
vt 0.425000 0.039203
vt 0.475000 0.039203
vt 0.525000 0.039203
vt 0.375000 0.031391
vt 0.425000 0.031391
vt 0.475000 0.031391
vt 0.525000 0.031391
vt 0.375000 0.023578
vt 0.425000 0.023578
vt 0.475000 0.023578
vt 0.525000 0.023578
vt 0.375000 0.015766
vt 0.425000 0.015766
vt 0.475000 0.015766
vt 0.525000 0.015766
vt 0.375000 0.007953
vt 0.425000 0.007953
vt 0.475000 0.007953
vt 0.525000 0.007953
vt 0.375000 0.000000
vt 0.425000 0.000000
vt 0.475000 0.000000
vt 0.525000 0.000000
vt 0.425000 0.734234
vt 0.425000 0.742047
vt 0.475000 0.734234
vt 0.475000 0.742047
vt 0.525000 0.734234
vt 0.525000 0.742047
vt 0.425000 0.726422
vt 0.475000 0.726422
vt 0.525000 0.726422
vt 0.425000 0.718609
vt 0.475000 0.718609
vt 0.525000 0.718609
vt 0.425000 0.710797
vt 0.475000 0.710797
vt 0.525000 0.710797
vt 0.425000 0.702984
vt 0.475000 0.702984
vt 0.525000 0.702984
vt 0.425000 0.695172
vt 0.475000 0.695172
vt 0.525000 0.695172
vt 0.425000 0.687359
vt 0.475000 0.687359
vt 0.525000 0.687359
vt 0.425000 0.679547
vt 0.475000 0.679547
vt 0.525000 0.679547
vt 0.425000 0.671734
vt 0.475000 0.671734
vt 0.525000 0.671734
vt 0.425000 0.663922
vt 0.475000 0.663922
vt 0.525000 0.663922
vt 0.425000 0.656109
vt 0.475000 0.656109
vt 0.525000 0.656109
vt 0.425000 0.648297
vt 0.475000 0.648297
vt 0.525000 0.648297
vt 0.425000 0.640484
vt 0.475000 0.640484
vt 0.525000 0.640484
vt 0.425000 0.632672
vt 0.475000 0.632672
vt 0.525000 0.632672
vt 0.425000 0.624859
vt 0.475000 0.624859
vt 0.525000 0.624859
vt 0.425000 0.617047
vt 0.475000 0.617047
vt 0.525000 0.617047
vt 0.425000 0.609234
vt 0.475000 0.609234
vt 0.525000 0.609234
vt 0.425000 0.601422
vt 0.475000 0.601422
vt 0.525000 0.601422
vt 0.425000 0.593609
vt 0.475000 0.593609
vt 0.525000 0.593609
vt 0.425000 0.585797
vt 0.475000 0.585797
vt 0.525000 0.585797
vt 0.425000 0.577984
vt 0.475000 0.577984
vt 0.525000 0.577984
vt 0.425000 0.570172
vt 0.475000 0.570172
vt 0.525000 0.570172
vt 0.425000 0.562359
vt 0.475000 0.562359
vt 0.525000 0.562359
vt 0.425000 0.554547
vt 0.475000 0.554547
vt 0.525000 0.554547
vt 0.425000 0.546734
vt 0.475000 0.546734
vt 0.525000 0.546734
vt 0.425000 0.538922
vt 0.475000 0.538922
vt 0.525000 0.538922
vt 0.425000 0.531109
vt 0.475000 0.531109
vt 0.525000 0.531109
vt 0.425000 0.523297
vt 0.475000 0.523297
vt 0.525000 0.523297
vt 0.425000 0.515484
vt 0.475000 0.515484
vt 0.525000 0.515484
vt 0.425000 0.507672
vt 0.475000 0.507672
vt 0.525000 0.507672
vt 0.425000 0.500000
vt 0.475000 0.500000
vt 0.525000 0.500000
vt 0.425000 1.000000
vt 0.375000 1.000000
vt 0.475000 1.000000
vt 0.525000 1.000000
s 0
usemtl Material
f 588/1/1 71/2/1 7/3/1 146/4/1
f 911/5/2 146/6/2 7/7/2 602/8/2
f 855/9/3 101/10/3 5/11/3 607/12/3
f 371/13/4 102/14/4 4/15/4 153/16/4
f 731/17/5 70/18/5 3/19/5 603/20/5
f 883/21/6 160/22/6 1/23/6 595/24/6
f 595/24/5 1/23/5 40/25/5 611/26/5
f 611/26/5 40/25/5 41/27/5 615/28/5
f 615/28/5 41/27/5 42/29/5 619/30/5
f 619/30/5 42/29/5 43/31/5 623/32/5
f 623/32/5 43/31/5 44/33/5 627/34/5
f 627/34/5 44/33/5 45/35/5 631/36/5
f 631/36/5 45/35/5 46/37/5 635/38/5
f 635/38/5 46/37/5 47/39/5 639/40/5
f 639/40/5 47/39/5 48/41/5 643/42/5
f 643/42/5 48/41/5 49/43/5 647/44/5
f 647/44/5 49/43/5 50/45/5 651/46/5
f 651/46/5 50/45/5 51/47/5 655/48/5
f 655/48/5 51/47/5 52/49/5 659/50/5
f 659/50/5 52/49/5 53/51/5 663/52/5
f 663/52/5 53/51/5 54/53/5 667/54/5
f 667/54/5 54/53/5 55/55/5 671/56/5
f 671/56/5 55/55/5 56/57/5 675/58/5
f 675/58/5 56/57/5 57/59/5 679/60/5
f 679/60/5 57/59/5 58/61/5 683/62/5
f 683/62/5 58/61/5 59/63/5 687/64/5
f 687/64/5 59/63/5 60/65/5 691/66/5
f 691/66/5 60/65/5 61/67/5 695/68/5
f 695/68/5 61/67/5 62/69/5 699/70/5
f 699/70/5 62/69/5 63/71/5 703/72/5
f 703/72/5 63/71/5 64/73/5 707/74/5
f 707/74/5 64/73/5 65/75/5 711/76/5
f 711/76/5 65/75/5 66/77/5 715/78/5
f 715/78/5 66/77/5 67/79/5 719/80/5
f 719/80/5 67/79/5 68/81/5 723/82/5
f 723/82/5 68/81/5 69/83/5 727/84/5
f 727/84/5 69/83/5 70/18/5 731/17/5
f 133/85/4 2/86/4 132/87/4 161/88/4
f 161/88/4 132/87/4 131/89/4 168/90/4
f 168/90/4 131/89/4 130/91/4 175/92/4
f 175/92/4 130/91/4 129/93/4 182/94/4
f 182/94/4 129/93/4 128/95/4 189/96/4
f 189/96/4 128/95/4 127/97/4 196/98/4
f 196/98/4 127/97/4 126/99/4 203/100/4
f 203/100/4 126/99/4 125/101/4 210/102/4
f 210/102/4 125/101/4 124/103/4 217/104/4
f 217/104/4 124/103/4 123/105/4 224/106/4
f 224/106/4 123/105/4 122/107/4 231/108/4
f 231/108/4 122/107/4 121/109/4 238/110/4
f 238/110/4 121/109/4 120/111/4 245/112/4
f 245/112/4 120/111/4 119/113/4 252/114/4
f 252/114/4 119/113/4 118/115/4 259/116/4
f 259/116/4 118/115/4 117/117/4 266/118/4
f 266/118/4 117/117/4 116/119/4 273/120/4
f 273/120/4 116/119/4 115/121/4 280/122/4
f 280/122/4 115/121/4 114/123/4 287/124/4
f 287/124/4 114/123/4 113/125/4 294/126/4
f 294/126/4 113/125/4 112/127/4 301/128/4
f 301/128/4 112/127/4 111/129/4 308/130/4
f 308/130/4 111/129/4 110/131/4 315/132/4
f 315/132/4 110/131/4 109/133/4 322/134/4
f 322/134/4 109/133/4 108/135/4 329/136/4
f 329/136/4 108/135/4 107/137/4 336/138/4
f 336/138/4 107/137/4 106/139/4 343/140/4
f 343/140/4 106/139/4 105/141/4 350/142/4
f 350/142/4 105/141/4 104/143/4 357/144/4
f 357/144/4 104/143/4 103/145/4 364/146/4
f 364/146/4 103/145/4 102/14/4 371/13/4
f 602/147/3 7/148/3 71/149/3 735/150/3
f 735/150/3 71/149/3 72/151/3 739/152/3
f 739/152/3 72/151/3 73/153/3 743/154/3
f 743/154/3 73/153/3 74/155/3 747/156/3
f 747/156/3 74/155/3 75/157/3 751/158/3
f 751/158/3 75/157/3 76/159/3 755/160/3
f 755/160/3 76/159/3 77/161/3 759/162/3
f 759/162/3 77/161/3 78/163/3 763/164/3
f 763/164/3 78/163/3 79/165/3 767/166/3
f 767/166/3 79/165/3 80/167/3 771/168/3
f 771/168/3 80/167/3 81/169/3 775/170/3
f 775/170/3 81/169/3 82/171/3 779/172/3
f 779/172/3 82/171/3 83/173/3 783/174/3
f 783/174/3 83/173/3 84/175/3 787/176/3
f 787/176/3 84/175/3 85/177/3 791/178/3
f 791/178/3 85/177/3 86/179/3 795/180/3
f 795/180/3 86/179/3 87/181/3 799/182/3
f 799/182/3 87/181/3 88/183/3 803/184/3
f 803/184/3 88/183/3 89/185/3 807/186/3
f 807/186/3 89/185/3 90/187/3 811/188/3
f 811/188/3 90/187/3 91/189/3 815/190/3
f 815/190/3 91/189/3 92/191/3 819/192/3
f 819/192/3 92/191/3 93/193/3 823/194/3
f 823/194/3 93/193/3 94/195/3 827/196/3
f 827/196/3 94/195/3 95/197/3 831/198/3
f 831/198/3 95/197/3 96/199/3 835/200/3
f 835/200/3 96/199/3 97/201/3 839/202/3
f 839/202/3 97/201/3 98/203/3 843/204/3
f 843/204/3 98/203/3 99/205/3 847/206/3
f 847/206/3 99/205/3 100/207/3 851/208/3
f 851/208/3 100/207/3 101/10/3 855/9/3
f 154/209/1 5/210/1 101/211/1 378/212/1
f 378/212/1 101/211/1 100/213/1 385/214/1
f 385/214/1 100/213/1 99/215/1 392/216/1
f 392/216/1 99/215/1 98/217/1 399/218/1
f 399/218/1 98/217/1 97/219/1 406/220/1
f 406/220/1 97/219/1 96/221/1 413/222/1
f 413/222/1 96/221/1 95/223/1 420/224/1
f 420/224/1 95/223/1 94/225/1 427/226/1
f 427/226/1 94/225/1 93/227/1 434/228/1
f 434/228/1 93/227/1 92/229/1 441/230/1
f 441/230/1 92/229/1 91/231/1 448/232/1
f 448/232/1 91/231/1 90/233/1 455/234/1
f 455/234/1 90/233/1 89/235/1 462/236/1
f 462/236/1 89/235/1 88/237/1 469/238/1
f 469/238/1 88/237/1 87/239/1 476/240/1
f 476/240/1 87/239/1 86/241/1 483/242/1
f 483/242/1 86/241/1 85/243/1 490/244/1
f 490/244/1 85/243/1 84/245/1 497/246/1
f 497/246/1 84/245/1 83/247/1 504/248/1
f 504/248/1 83/247/1 82/249/1 511/250/1
f 511/250/1 82/249/1 81/251/1 518/252/1
f 518/252/1 81/251/1 80/253/1 525/254/1
f 525/254/1 80/253/1 79/255/1 532/256/1
f 532/256/1 79/255/1 78/257/1 539/258/1
f 539/258/1 78/257/1 77/259/1 546/260/1
f 546/260/1 77/259/1 76/261/1 553/262/1
f 553/262/1 76/261/1 75/263/1 560/264/1
f 560/264/1 75/263/1 74/265/1 567/266/1
f 567/266/1 74/265/1 73/267/1 574/268/1
f 574/268/1 73/267/1 72/269/1 581/270/1
f 581/270/1 72/269/1 71/2/1 588/1/1
f 69/83/1 587/271/1 594/272/1 70/18/1
f 587/271/1 586/273/1 593/274/1 594/272/1
f 586/273/1 585/275/1 592/276/1 593/274/1
f 585/275/1 584/277/1 591/278/1 592/276/1
f 584/277/1 583/279/1 590/280/1 591/278/1
f 583/279/1 582/281/1 589/282/1 590/280/1
f 582/281/1 581/270/1 588/1/1 589/282/1
f 68/81/1 580/283/1 587/271/1 69/83/1
f 580/283/1 579/284/1 586/273/1 587/271/1
f 579/284/1 578/285/1 585/275/1 586/273/1
f 578/285/1 577/286/1 584/277/1 585/275/1
f 577/286/1 576/287/1 583/279/1 584/277/1
f 576/287/1 575/288/1 582/281/1 583/279/1
f 575/288/1 574/268/1 581/270/1 582/281/1
f 67/79/1 573/289/1 580/283/1 68/81/1
f 573/289/1 572/290/1 579/284/1 580/283/1
f 572/290/1 571/291/1 578/285/1 579/284/1
f 571/291/1 570/292/1 577/286/1 578/285/1
f 570/292/1 569/293/1 576/287/1 577/286/1
f 569/293/1 568/294/1 575/288/1 576/287/1
f 568/294/1 567/266/1 574/268/1 575/288/1
f 66/77/1 566/295/1 573/289/1 67/79/1
f 566/295/1 565/296/1 572/290/1 573/289/1
f 565/296/1 564/297/1 571/291/1 572/290/1
f 564/297/1 563/298/1 570/292/1 571/291/1
f 563/298/1 562/299/1 569/293/1 570/292/1
f 562/299/1 561/300/1 568/294/1 569/293/1
f 561/300/1 560/264/1 567/266/1 568/294/1
f 65/75/1 559/301/1 566/295/1 66/77/1
f 559/301/1 558/302/1 565/296/1 566/295/1
f 558/302/1 557/303/1 564/297/1 565/296/1
f 557/303/1 556/304/1 563/298/1 564/297/1
f 556/304/1 555/305/1 562/299/1 563/298/1
f 555/305/1 554/306/1 561/300/1 562/299/1
f 554/306/1 553/262/1 560/264/1 561/300/1
f 64/73/1 552/307/1 559/301/1 65/75/1
f 552/307/1 551/308/1 558/302/1 559/301/1
f 551/308/1 550/309/1 557/303/1 558/302/1
f 550/309/1 549/310/1 556/304/1 557/303/1
f 549/310/1 548/311/1 555/305/1 556/304/1
f 548/311/1 547/312/1 554/306/1 555/305/1
f 547/312/1 546/260/1 553/262/1 554/306/1
f 63/71/1 545/313/1 552/307/1 64/73/1
f 545/313/1 544/314/1 551/308/1 552/307/1
f 544/314/1 543/315/1 550/309/1 551/308/1
f 543/315/1 542/316/1 549/310/1 550/309/1
f 542/316/1 541/317/1 548/311/1 549/310/1
f 541/317/1 540/318/1 547/312/1 548/311/1
f 540/318/1 539/258/1 546/260/1 547/312/1
f 62/69/1 538/319/1 545/313/1 63/71/1
f 538/319/1 537/320/1 544/314/1 545/313/1
f 537/320/1 536/321/1 543/315/1 544/314/1
f 536/321/1 535/322/1 542/316/1 543/315/1
f 535/322/1 534/323/1 541/317/1 542/316/1
f 534/323/1 533/324/1 540/318/1 541/317/1
f 533/324/1 532/256/1 539/258/1 540/318/1
f 61/67/1 531/325/1 538/319/1 62/69/1
f 531/325/1 530/326/1 537/320/1 538/319/1
f 530/326/1 529/327/1 536/321/1 537/320/1
f 529/327/1 528/328/1 535/322/1 536/321/1
f 528/328/1 527/329/1 534/323/1 535/322/1
f 527/329/1 526/330/1 533/324/1 534/323/1
f 526/330/1 525/254/1 532/256/1 533/324/1
f 60/65/1 524/331/1 531/325/1 61/67/1
f 524/331/1 523/332/1 530/326/1 531/325/1
f 523/332/1 522/333/1 529/327/1 530/326/1
f 522/333/1 521/334/1 528/328/1 529/327/1
f 521/334/1 520/335/1 527/329/1 528/328/1
f 520/335/1 519/336/1 526/330/1 527/329/1
f 519/336/1 518/252/1 525/254/1 526/330/1
f 59/63/1 517/337/1 524/331/1 60/65/1
f 517/337/1 516/338/1 523/332/1 524/331/1
f 516/338/1 515/339/1 522/333/1 523/332/1
f 515/339/1 514/340/1 521/334/1 522/333/1
f 514/340/1 513/341/1 520/335/1 521/334/1
f 513/341/1 512/342/1 519/336/1 520/335/1
f 512/342/1 511/250/1 518/252/1 519/336/1
f 58/61/1 510/343/1 517/337/1 59/63/1
f 510/343/1 509/344/1 516/338/1 517/337/1
f 509/344/1 508/345/1 515/339/1 516/338/1
f 508/345/1 507/346/1 514/340/1 515/339/1
f 507/346/1 506/347/1 513/341/1 514/340/1
f 506/347/1 505/348/1 512/342/1 513/341/1
f 505/348/1 504/248/1 511/250/1 512/342/1
f 57/59/1 503/349/1 510/343/1 58/61/1
f 503/349/1 502/350/1 509/344/1 510/343/1
f 502/350/1 501/351/1 508/345/1 509/344/1
f 501/351/1 500/352/1 507/346/1 508/345/1
f 500/352/1 499/353/1 506/347/1 507/346/1
f 499/353/1 498/354/1 505/348/1 506/347/1
f 498/354/1 497/246/1 504/248/1 505/348/1
f 56/57/1 496/355/1 503/349/1 57/59/1
f 496/355/1 495/356/1 502/350/1 503/349/1
f 495/356/1 494/357/1 501/351/1 502/350/1
f 494/357/1 493/358/1 500/352/1 501/351/1
f 493/358/1 492/359/1 499/353/1 500/352/1
f 492/359/1 491/360/1 498/354/1 499/353/1
f 491/360/1 490/244/1 497/246/1 498/354/1
f 55/55/1 489/361/1 496/355/1 56/57/1
f 489/361/1 488/362/1 495/356/1 496/355/1
f 488/362/1 487/363/1 494/357/1 495/356/1
f 487/363/1 486/364/1 493/358/1 494/357/1
f 486/364/1 485/365/1 492/359/1 493/358/1
f 485/365/1 484/366/1 491/360/1 492/359/1
f 484/366/1 483/242/1 490/244/1 491/360/1
f 54/53/1 482/367/1 489/361/1 55/55/1
f 482/367/1 481/368/1 488/362/1 489/361/1
f 481/368/1 480/369/1 487/363/1 488/362/1
f 480/369/1 479/370/1 486/364/1 487/363/1
f 479/370/1 478/371/1 485/365/1 486/364/1
f 478/371/1 477/372/1 484/366/1 485/365/1
f 477/372/1 476/240/1 483/242/1 484/366/1
f 53/51/1 475/373/1 482/367/1 54/53/1
f 475/373/1 474/374/1 481/368/1 482/367/1
f 474/374/1 473/375/1 480/369/1 481/368/1
f 473/375/1 472/376/1 479/370/1 480/369/1
f 472/376/1 471/377/1 478/371/1 479/370/1
f 471/377/1 470/378/1 477/372/1 478/371/1
f 470/378/1 469/238/1 476/240/1 477/372/1
f 52/49/1 468/379/1 475/373/1 53/51/1
f 468/379/1 467/380/1 474/374/1 475/373/1
f 467/380/1 466/381/1 473/375/1 474/374/1
f 466/381/1 465/382/1 472/376/1 473/375/1
f 465/382/1 464/383/1 471/377/1 472/376/1
f 464/383/1 463/384/1 470/378/1 471/377/1
f 463/384/1 462/236/1 469/238/1 470/378/1
f 51/47/1 461/385/1 468/379/1 52/49/1
f 461/385/1 460/386/1 467/380/1 468/379/1
f 460/386/1 459/387/1 466/381/1 467/380/1
f 459/387/1 458/388/1 465/382/1 466/381/1
f 458/388/1 457/389/1 464/383/1 465/382/1
f 457/389/1 456/390/1 463/384/1 464/383/1
f 456/390/1 455/234/1 462/236/1 463/384/1
f 50/45/1 454/391/1 461/385/1 51/47/1
f 454/391/1 453/392/1 460/386/1 461/385/1
f 453/392/1 452/393/1 459/387/1 460/386/1
f 452/393/1 451/394/1 458/388/1 459/387/1
f 451/394/1 450/395/1 457/389/1 458/388/1
f 450/395/1 449/396/1 456/390/1 457/389/1
f 449/396/1 448/232/1 455/234/1 456/390/1
f 49/43/1 447/397/1 454/391/1 50/45/1
f 447/397/1 446/398/1 453/392/1 454/391/1
f 446/398/1 445/399/1 452/393/1 453/392/1
f 445/399/1 444/400/1 451/394/1 452/393/1
f 444/400/1 443/401/1 450/395/1 451/394/1
f 443/401/1 442/402/1 449/396/1 450/395/1
f 442/402/1 441/230/1 448/232/1 449/396/1
f 48/41/1 440/403/1 447/397/1 49/43/1
f 440/403/1 439/404/1 446/398/1 447/397/1
f 439/404/1 438/405/1 445/399/1 446/398/1
f 438/405/1 437/406/1 444/400/1 445/399/1
f 437/406/1 436/407/1 443/401/1 444/400/1
f 436/407/1 435/408/1 442/402/1 443/401/1
f 435/408/1 434/228/1 441/230/1 442/402/1
f 47/39/1 433/409/1 440/403/1 48/41/1
f 433/409/1 432/410/1 439/404/1 440/403/1
f 432/410/1 431/411/1 438/405/1 439/404/1
f 431/411/1 430/412/1 437/406/1 438/405/1
f 430/412/1 429/413/1 436/407/1 437/406/1
f 429/413/1 428/414/1 435/408/1 436/407/1
f 428/414/1 427/226/1 434/228/1 435/408/1
f 46/37/1 426/415/1 433/409/1 47/39/1
f 426/415/1 425/416/1 432/410/1 433/409/1
f 425/416/1 424/417/1 431/411/1 432/410/1
f 424/417/1 423/418/1 430/412/1 431/411/1
f 423/418/1 422/419/1 429/413/1 430/412/1
f 422/419/1 421/420/1 428/414/1 429/413/1
f 421/420/1 420/224/1 427/226/1 428/414/1
f 45/35/1 419/421/1 426/415/1 46/37/1
f 419/421/1 418/422/1 425/416/1 426/415/1
f 418/422/1 417/423/1 424/417/1 425/416/1
f 417/423/1 416/424/1 423/418/1 424/417/1
f 416/424/1 415/425/1 422/419/1 423/418/1
f 415/425/1 414/426/1 421/420/1 422/419/1
f 414/426/1 413/222/1 420/224/1 421/420/1
f 44/33/1 412/427/1 419/421/1 45/35/1
f 412/427/1 411/428/1 418/422/1 419/421/1
f 411/428/1 410/429/1 417/423/1 418/422/1
f 410/429/1 409/430/1 416/424/1 417/423/1
f 409/430/1 408/431/1 415/425/1 416/424/1
f 408/431/1 407/432/1 414/426/1 415/425/1
f 407/432/1 406/220/1 413/222/1 414/426/1
f 43/31/1 405/433/1 412/427/1 44/33/1
f 405/433/1 404/434/1 411/428/1 412/427/1
f 404/434/1 403/435/1 410/429/1 411/428/1
f 403/435/1 402/436/1 409/430/1 410/429/1
f 402/436/1 401/437/1 408/431/1 409/430/1
f 401/437/1 400/438/1 407/432/1 408/431/1
f 400/438/1 399/218/1 406/220/1 407/432/1
f 42/29/1 398/439/1 405/433/1 43/31/1
f 398/439/1 397/440/1 404/434/1 405/433/1
f 397/440/1 396/441/1 403/435/1 404/434/1
f 396/441/1 395/442/1 402/436/1 403/435/1
f 395/442/1 394/443/1 401/437/1 402/436/1
f 394/443/1 393/444/1 400/438/1 401/437/1
f 393/444/1 392/216/1 399/218/1 400/438/1
f 41/27/1 391/445/1 398/439/1 42/29/1
f 391/445/1 390/446/1 397/440/1 398/439/1
f 390/446/1 389/447/1 396/441/1 397/440/1
f 389/447/1 388/448/1 395/442/1 396/441/1
f 388/448/1 387/449/1 394/443/1 395/442/1
f 387/449/1 386/450/1 393/444/1 394/443/1
f 386/450/1 385/214/1 392/216/1 393/444/1
f 40/25/1 384/451/1 391/445/1 41/27/1
f 384/451/1 383/452/1 390/446/1 391/445/1
f 383/452/1 382/453/1 389/447/1 390/446/1
f 382/453/1 381/454/1 388/448/1 389/447/1
f 381/454/1 380/455/1 387/449/1 388/448/1
f 380/455/1 379/456/1 386/450/1 387/449/1
f 379/456/1 378/212/1 385/214/1 386/450/1
f 1/23/1 160/457/1 384/451/1 40/25/1
f 160/457/1 159/458/1 383/452/1 384/451/1
f 159/458/1 158/459/1 382/453/1 383/452/1
f 158/459/1 157/460/1 381/454/1 382/453/1
f 157/460/1 156/461/1 380/455/1 381/454/1
f 156/461/1 155/462/1 379/456/1 380/455/1
f 155/462/1 154/209/1 378/212/1 379/456/1
f 38/463/4 370/464/4 377/465/4 39/466/4
f 370/464/4 369/467/4 376/468/4 377/465/4
f 369/467/4 368/469/4 375/470/4 376/468/4
f 368/469/4 367/471/4 374/472/4 375/470/4
f 367/471/4 366/473/4 373/474/4 374/472/4
f 366/473/4 365/475/4 372/476/4 373/474/4
f 365/475/4 364/146/4 371/13/4 372/476/4
f 37/477/4 363/478/4 370/464/4 38/463/4
f 363/478/4 362/479/4 369/467/4 370/464/4
f 362/479/4 361/480/4 368/469/4 369/467/4
f 361/480/4 360/481/4 367/471/4 368/469/4
f 360/481/4 359/482/4 366/473/4 367/471/4
f 359/482/4 358/483/4 365/475/4 366/473/4
f 358/483/4 357/144/4 364/146/4 365/475/4
f 36/484/4 356/485/4 363/478/4 37/477/4
f 356/485/4 355/486/4 362/479/4 363/478/4
f 355/486/4 354/487/4 361/480/4 362/479/4
f 354/487/4 353/488/4 360/481/4 361/480/4
f 353/488/4 352/489/4 359/482/4 360/481/4
f 352/489/4 351/490/4 358/483/4 359/482/4
f 351/490/4 350/142/4 357/144/4 358/483/4
f 35/491/4 349/492/4 356/485/4 36/484/4
f 349/492/4 348/493/4 355/486/4 356/485/4
f 348/493/4 347/494/4 354/487/4 355/486/4
f 347/494/4 346/495/4 353/488/4 354/487/4
f 346/495/4 345/496/4 352/489/4 353/488/4
f 345/496/4 344/497/4 351/490/4 352/489/4
f 344/497/4 343/140/4 350/142/4 351/490/4
f 34/498/4 342/499/4 349/492/4 35/491/4
f 342/499/4 341/500/4 348/493/4 349/492/4
f 341/500/4 340/501/4 347/494/4 348/493/4
f 340/501/4 339/502/4 346/495/4 347/494/4
f 339/502/4 338/503/4 345/496/4 346/495/4
f 338/503/4 337/504/4 344/497/4 345/496/4
f 337/504/4 336/138/4 343/140/4 344/497/4
f 33/505/4 335/506/4 342/499/4 34/498/4
f 335/506/4 334/507/4 341/500/4 342/499/4
f 334/507/4 333/508/4 340/501/4 341/500/4
f 333/508/4 332/509/4 339/502/4 340/501/4
f 332/509/4 331/510/4 338/503/4 339/502/4
f 331/510/4 330/511/4 337/504/4 338/503/4
f 330/511/4 329/136/4 336/138/4 337/504/4
f 32/512/4 328/513/4 335/506/4 33/505/4
f 328/513/4 327/514/4 334/507/4 335/506/4
f 327/514/4 326/515/4 333/508/4 334/507/4
f 326/515/4 325/516/4 332/509/4 333/508/4
f 325/516/4 324/517/4 331/510/4 332/509/4
f 324/517/4 323/518/4 330/511/4 331/510/4
f 323/518/4 322/134/4 329/136/4 330/511/4
f 31/519/4 321/520/4 328/513/4 32/512/4
f 321/520/4 320/521/4 327/514/4 328/513/4
f 320/521/4 319/522/4 326/515/4 327/514/4
f 319/522/4 318/523/4 325/516/4 326/515/4
f 318/523/4 317/524/4 324/517/4 325/516/4
f 317/524/4 316/525/4 323/518/4 324/517/4
f 316/525/4 315/132/4 322/134/4 323/518/4
f 30/526/4 314/527/4 321/520/4 31/519/4
f 314/527/4 313/528/4 320/521/4 321/520/4
f 313/528/4 312/529/4 319/522/4 320/521/4
f 312/529/4 311/530/4 318/523/4 319/522/4
f 311/530/4 310/531/4 317/524/4 318/523/4
f 310/531/4 309/532/4 316/525/4 317/524/4
f 309/532/4 308/130/4 315/132/4 316/525/4
f 29/533/4 307/534/4 314/527/4 30/526/4
f 307/534/4 306/535/4 313/528/4 314/527/4
f 306/535/4 305/536/4 312/529/4 313/528/4
f 305/536/4 304/537/4 311/530/4 312/529/4
f 304/537/4 303/538/4 310/531/4 311/530/4
f 303/538/4 302/539/4 309/532/4 310/531/4
f 302/539/4 301/128/4 308/130/4 309/532/4
f 28/540/4 300/541/4 307/534/4 29/533/4
f 300/541/4 299/542/4 306/535/4 307/534/4
f 299/542/4 298/543/4 305/536/4 306/535/4
f 298/543/4 297/544/4 304/537/4 305/536/4
f 297/544/4 296/545/4 303/538/4 304/537/4
f 296/545/4 295/546/4 302/539/4 303/538/4
f 295/546/4 294/126/4 301/128/4 302/539/4
f 27/547/4 293/548/4 300/541/4 28/540/4
f 293/548/4 292/549/4 299/542/4 300/541/4
f 292/549/4 291/550/4 298/543/4 299/542/4
f 291/550/4 290/551/4 297/544/4 298/543/4
f 290/551/4 289/552/4 296/545/4 297/544/4
f 289/552/4 288/553/4 295/546/4 296/545/4
f 288/553/4 287/124/4 294/126/4 295/546/4
f 26/554/4 286/555/4 293/548/4 27/547/4
f 286/555/4 285/556/4 292/549/4 293/548/4
f 285/556/4 284/557/4 291/550/4 292/549/4
f 284/557/4 283/558/4 290/551/4 291/550/4
f 283/558/4 282/559/4 289/552/4 290/551/4
f 282/559/4 281/560/4 288/553/4 289/552/4
f 281/560/4 280/122/4 287/124/4 288/553/4
f 25/561/4 279/562/4 286/555/4 26/554/4
f 279/562/4 278/563/4 285/556/4 286/555/4
f 278/563/4 277/564/4 284/557/4 285/556/4
f 277/564/4 276/565/4 283/558/4 284/557/4
f 276/565/4 275/566/4 282/559/4 283/558/4
f 275/566/4 274/567/4 281/560/4 282/559/4
f 274/567/4 273/120/4 280/122/4 281/560/4
f 24/568/4 272/569/4 279/562/4 25/561/4
f 272/569/4 271/570/4 278/563/4 279/562/4
f 271/570/4 270/571/4 277/564/4 278/563/4
f 270/571/4 269/572/4 276/565/4 277/564/4
f 269/572/4 268/573/4 275/566/4 276/565/4
f 268/573/4 267/574/4 274/567/4 275/566/4
f 267/574/4 266/118/4 273/120/4 274/567/4
f 23/575/4 265/576/4 272/569/4 24/568/4
f 265/576/4 264/577/4 271/570/4 272/569/4
f 264/577/4 263/578/4 270/571/4 271/570/4
f 263/578/4 262/579/4 269/572/4 270/571/4
f 262/579/4 261/580/4 268/573/4 269/572/4
f 261/580/4 260/581/4 267/574/4 268/573/4
f 260/581/4 259/116/4 266/118/4 267/574/4
f 22/582/4 258/583/4 265/576/4 23/575/4
f 258/583/4 257/584/4 264/577/4 265/576/4
f 257/584/4 256/585/4 263/578/4 264/577/4
f 256/585/4 255/586/4 262/579/4 263/578/4
f 255/586/4 254/587/4 261/580/4 262/579/4
f 254/587/4 253/588/4 260/581/4 261/580/4
f 253/588/4 252/114/4 259/116/4 260/581/4
f 21/589/4 251/590/4 258/583/4 22/582/4
f 251/590/4 250/591/4 257/584/4 258/583/4
f 250/591/4 249/592/4 256/585/4 257/584/4
f 249/592/4 248/593/4 255/586/4 256/585/4
f 248/593/4 247/594/4 254/587/4 255/586/4
f 247/594/4 246/595/4 253/588/4 254/587/4
f 246/595/4 245/112/4 252/114/4 253/588/4
f 20/596/4 244/597/4 251/590/4 21/589/4
f 244/597/4 243/598/4 250/591/4 251/590/4
f 243/598/4 242/599/4 249/592/4 250/591/4
f 242/599/4 241/600/4 248/593/4 249/592/4
f 241/600/4 240/601/4 247/594/4 248/593/4
f 240/601/4 239/602/4 246/595/4 247/594/4
f 239/602/4 238/110/4 245/112/4 246/595/4
f 19/603/4 237/604/4 244/597/4 20/596/4
f 237/604/4 236/605/4 243/598/4 244/597/4
f 236/605/4 235/606/4 242/599/4 243/598/4
f 235/606/4 234/607/4 241/600/4 242/599/4
f 234/607/4 233/608/4 240/601/4 241/600/4
f 233/608/4 232/609/4 239/602/4 240/601/4
f 232/609/4 231/108/4 238/110/4 239/602/4
f 18/610/4 230/611/4 237/604/4 19/603/4
f 230/611/4 229/612/4 236/605/4 237/604/4
f 229/612/4 228/613/4 235/606/4 236/605/4
f 228/613/4 227/614/4 234/607/4 235/606/4
f 227/614/4 226/615/4 233/608/4 234/607/4
f 226/615/4 225/616/4 232/609/4 233/608/4
f 225/616/4 224/106/4 231/108/4 232/609/4
f 17/617/4 223/618/4 230/611/4 18/610/4
f 223/618/4 222/619/4 229/612/4 230/611/4
f 222/619/4 221/620/4 228/613/4 229/612/4
f 221/620/4 220/621/4 227/614/4 228/613/4
f 220/621/4 219/622/4 226/615/4 227/614/4
f 219/622/4 218/623/4 225/616/4 226/615/4
f 218/623/4 217/104/4 224/106/4 225/616/4
f 16/624/4 216/625/4 223/618/4 17/617/4
f 216/625/4 215/626/4 222/619/4 223/618/4
f 215/626/4 214/627/4 221/620/4 222/619/4
f 214/627/4 213/628/4 220/621/4 221/620/4
f 213/628/4 212/629/4 219/622/4 220/621/4
f 212/629/4 211/630/4 218/623/4 219/622/4
f 211/630/4 210/102/4 217/104/4 218/623/4
f 15/631/4 209/632/4 216/625/4 16/624/4
f 209/632/4 208/633/4 215/626/4 216/625/4
f 208/633/4 207/634/4 214/627/4 215/626/4
f 207/634/4 206/635/4 213/628/4 214/627/4
f 206/635/4 205/636/4 212/629/4 213/628/4
f 205/636/4 204/637/4 211/630/4 212/629/4
f 204/637/4 203/100/4 210/102/4 211/630/4
f 14/638/4 202/639/4 209/632/4 15/631/4
f 202/639/4 201/640/4 208/633/4 209/632/4
f 201/640/4 200/641/4 207/634/4 208/633/4
f 200/641/4 199/642/4 206/635/4 207/634/4
f 199/642/4 198/643/4 205/636/4 206/635/4
f 198/643/4 197/644/4 204/637/4 205/636/4
f 197/644/4 196/98/4 203/100/4 204/637/4
f 13/645/4 195/646/4 202/639/4 14/638/4
f 195/646/4 194/647/4 201/640/4 202/639/4
f 194/647/4 193/648/4 200/641/4 201/640/4
f 193/648/4 192/649/4 199/642/4 200/641/4
f 192/649/4 191/650/4 198/643/4 199/642/4
f 191/650/4 190/651/4 197/644/4 198/643/4
f 190/651/4 189/96/4 196/98/4 197/644/4
f 12/652/4 188/653/4 195/646/4 13/645/4
f 188/653/4 187/654/4 194/647/4 195/646/4
f 187/654/4 186/655/4 193/648/4 194/647/4
f 186/655/4 185/656/4 192/649/4 193/648/4
f 185/656/4 184/657/4 191/650/4 192/649/4
f 184/657/4 183/658/4 190/651/4 191/650/4
f 183/658/4 182/94/4 189/96/4 190/651/4
f 11/659/4 181/660/4 188/653/4 12/652/4
f 181/660/4 180/661/4 187/654/4 188/653/4
f 180/661/4 179/662/4 186/655/4 187/654/4
f 179/662/4 178/663/4 185/656/4 186/655/4
f 178/663/4 177/664/4 184/657/4 185/656/4
f 177/664/4 176/665/4 183/658/4 184/657/4
f 176/665/4 175/92/4 182/94/4 183/658/4
f 10/666/4 174/667/4 181/660/4 11/659/4
f 174/667/4 173/668/4 180/661/4 181/660/4
f 173/668/4 172/669/4 179/662/4 180/661/4
f 172/669/4 171/670/4 178/663/4 179/662/4
f 171/670/4 170/671/4 177/664/4 178/663/4
f 170/671/4 169/672/4 176/665/4 177/664/4
f 169/672/4 168/90/4 175/92/4 176/665/4
f 9/673/4 167/674/4 174/667/4 10/666/4
f 167/674/4 166/675/4 173/668/4 174/667/4
f 166/675/4 165/676/4 172/669/4 173/668/4
f 165/676/4 164/677/4 171/670/4 172/669/4
f 164/677/4 163/678/4 170/671/4 171/670/4
f 163/678/4 162/679/4 169/672/4 170/671/4
f 162/679/4 161/88/4 168/90/4 169/672/4
f 6/680/4 139/681/4 167/674/4 9/673/4
f 139/681/4 138/682/4 166/675/4 167/674/4
f 138/682/4 137/683/4 165/676/4 166/675/4
f 137/683/4 136/684/4 164/677/4 165/676/4
f 136/684/4 135/685/4 163/678/4 164/677/4
f 135/685/4 134/686/4 162/679/4 163/678/4
f 134/686/4 133/85/4 161/88/4 162/679/4
f 607/12/6 5/11/6 154/687/6 859/688/6
f 859/688/6 154/687/6 155/689/6 863/690/6
f 863/690/6 155/689/6 156/691/6 867/692/6
f 867/692/6 156/691/6 157/693/6 871/694/6
f 871/694/6 157/693/6 158/695/6 875/696/6
f 875/696/6 158/695/6 159/697/6 879/698/6
f 879/698/6 159/697/6 160/22/6 883/21/6
f 39/466/4 377/465/4 147/699/4 8/700/4
f 377/465/4 376/468/4 148/701/4 147/699/4
f 376/468/4 375/470/4 149/702/4 148/701/4
f 375/470/4 374/472/4 150/703/4 149/702/4
f 374/472/4 373/474/4 151/704/4 150/703/4
f 373/474/4 372/476/4 152/705/4 151/704/4
f 372/476/4 371/13/4 153/16/4 152/705/4
f 603/20/2 3/19/2 140/706/2 887/707/2
f 887/707/2 140/706/2 141/708/2 891/709/2
f 891/709/2 141/708/2 142/710/2 895/711/2
f 895/711/2 142/710/2 143/712/2 899/713/2
f 899/713/2 143/712/2 144/714/2 903/715/2
f 903/715/2 144/714/2 145/716/2 907/717/2
f 907/717/2 145/716/2 146/6/2 911/5/2
f 70/18/1 594/272/1 140/718/1 3/19/1
f 594/272/1 593/274/1 141/719/1 140/718/1
f 593/274/1 592/276/1 142/720/1 141/719/1
f 592/276/1 591/278/1 143/721/1 142/720/1
f 591/278/1 590/280/1 144/722/1 143/721/1
f 590/280/1 589/282/1 145/723/1 144/722/1
f 589/282/1 588/1/1 146/4/1 145/723/1
f 148/724/2 910/725/2 914/726/2 147/727/2
f 910/725/2 909/728/2 913/729/2 914/726/2
f 909/728/2 908/730/2 912/731/2 913/729/2
f 908/730/2 907/717/2 911/5/2 912/731/2
f 149/732/2 906/733/2 910/725/2 148/724/2
f 906/733/2 905/734/2 909/728/2 910/725/2
f 905/734/2 904/735/2 908/730/2 909/728/2
f 904/735/2 903/715/2 907/717/2 908/730/2
f 150/736/2 902/737/2 906/733/2 149/732/2
f 902/737/2 901/738/2 905/734/2 906/733/2
f 901/738/2 900/739/2 904/735/2 905/734/2
f 900/739/2 899/713/2 903/715/2 904/735/2
f 151/740/2 898/741/2 902/737/2 150/736/2
f 898/741/2 897/742/2 901/738/2 902/737/2
f 897/742/2 896/743/2 900/739/2 901/738/2
f 896/743/2 895/711/2 899/713/2 900/739/2
f 152/744/2 894/745/2 898/741/2 151/740/2
f 894/745/2 893/746/2 897/742/2 898/741/2
f 893/746/2 892/747/2 896/743/2 897/742/2
f 892/747/2 891/709/2 895/711/2 896/743/2
f 153/748/2 890/749/2 894/745/2 152/744/2
f 890/749/2 889/750/2 893/746/2 894/745/2
f 889/750/2 888/751/2 892/747/2 893/746/2
f 888/751/2 887/707/2 891/709/2 892/747/2
f 4/15/2 606/752/2 890/749/2 153/748/2
f 606/752/2 605/753/2 889/750/2 890/749/2
f 605/753/2 604/754/2 888/751/2 889/750/2
f 604/754/2 603/20/2 887/707/2 888/751/2
f 134/755/6 882/756/6 886/757/6 133/758/6
f 882/756/6 881/759/6 885/760/6 886/757/6
f 881/759/6 880/761/6 884/762/6 885/760/6
f 880/761/6 879/698/6 883/21/6 884/762/6
f 135/763/6 878/764/6 882/756/6 134/755/6
f 878/764/6 877/765/6 881/759/6 882/756/6
f 877/765/6 876/766/6 880/761/6 881/759/6
f 876/766/6 875/696/6 879/698/6 880/761/6
f 136/767/6 874/768/6 878/764/6 135/763/6
f 874/768/6 873/769/6 877/765/6 878/764/6
f 873/769/6 872/770/6 876/766/6 877/765/6
f 872/770/6 871/694/6 875/696/6 876/766/6
f 137/771/6 870/772/6 874/768/6 136/767/6
f 870/772/6 869/773/6 873/769/6 874/768/6
f 869/773/6 868/774/6 872/770/6 873/769/6
f 868/774/6 867/692/6 871/694/6 872/770/6
f 138/775/6 866/776/6 870/772/6 137/771/6
f 866/776/6 865/777/6 869/773/6 870/772/6
f 865/777/6 864/778/6 868/774/6 869/773/6
f 864/778/6 863/690/6 867/692/6 868/774/6
f 139/779/6 862/780/6 866/776/6 138/775/6
f 862/780/6 861/781/6 865/777/6 866/776/6
f 861/781/6 860/782/6 864/778/6 865/777/6
f 860/782/6 859/688/6 863/690/6 864/778/6
f 6/783/6 610/784/6 862/780/6 139/779/6
f 610/784/6 609/785/6 861/781/6 862/780/6
f 609/785/6 608/786/6 860/782/6 861/781/6
f 608/786/6 607/12/6 859/688/6 860/782/6
f 10/787/3 854/788/3 858/789/3 9/790/3
f 854/788/3 853/791/3 857/792/3 858/789/3
f 853/791/3 852/793/3 856/794/3 857/792/3
f 852/793/3 851/208/3 855/9/3 856/794/3
f 11/795/3 850/796/3 854/788/3 10/787/3
f 850/796/3 849/797/3 853/791/3 854/788/3
f 849/797/3 848/798/3 852/793/3 853/791/3
f 848/798/3 847/206/3 851/208/3 852/793/3
f 12/799/3 846/800/3 850/796/3 11/795/3
f 846/800/3 845/801/3 849/797/3 850/796/3
f 845/801/3 844/802/3 848/798/3 849/797/3
f 844/802/3 843/204/3 847/206/3 848/798/3
f 13/803/3 842/804/3 846/800/3 12/799/3
f 842/804/3 841/805/3 845/801/3 846/800/3
f 841/805/3 840/806/3 844/802/3 845/801/3
f 840/806/3 839/202/3 843/204/3 844/802/3
f 14/807/3 838/808/3 842/804/3 13/803/3
f 838/808/3 837/809/3 841/805/3 842/804/3
f 837/809/3 836/810/3 840/806/3 841/805/3
f 836/810/3 835/200/3 839/202/3 840/806/3
f 15/811/3 834/812/3 838/808/3 14/807/3
f 834/812/3 833/813/3 837/809/3 838/808/3
f 833/813/3 832/814/3 836/810/3 837/809/3
f 832/814/3 831/198/3 835/200/3 836/810/3
f 16/815/3 830/816/3 834/812/3 15/811/3
f 830/816/3 829/817/3 833/813/3 834/812/3
f 829/817/3 828/818/3 832/814/3 833/813/3
f 828/818/3 827/196/3 831/198/3 832/814/3
f 17/819/3 826/820/3 830/816/3 16/815/3
f 826/820/3 825/821/3 829/817/3 830/816/3
f 825/821/3 824/822/3 828/818/3 829/817/3
f 824/822/3 823/194/3 827/196/3 828/818/3
f 18/823/3 822/824/3 826/820/3 17/819/3
f 822/824/3 821/825/3 825/821/3 826/820/3
f 821/825/3 820/826/3 824/822/3 825/821/3
f 820/826/3 819/192/3 823/194/3 824/822/3
f 19/827/3 818/828/3 822/824/3 18/823/3
f 818/828/3 817/829/3 821/825/3 822/824/3
f 817/829/3 816/830/3 820/826/3 821/825/3
f 816/830/3 815/190/3 819/192/3 820/826/3
f 20/831/3 814/832/3 818/828/3 19/827/3
f 814/832/3 813/833/3 817/829/3 818/828/3
f 813/833/3 812/834/3 816/830/3 817/829/3
f 812/834/3 811/188/3 815/190/3 816/830/3
f 21/835/3 810/836/3 814/832/3 20/831/3
f 810/836/3 809/837/3 813/833/3 814/832/3
f 809/837/3 808/838/3 812/834/3 813/833/3
f 808/838/3 807/186/3 811/188/3 812/834/3
f 22/839/3 806/840/3 810/836/3 21/835/3
f 806/840/3 805/841/3 809/837/3 810/836/3
f 805/841/3 804/842/3 808/838/3 809/837/3
f 804/842/3 803/184/3 807/186/3 808/838/3
f 23/843/3 802/844/3 806/840/3 22/839/3
f 802/844/3 801/845/3 805/841/3 806/840/3
f 801/845/3 800/846/3 804/842/3 805/841/3
f 800/846/3 799/182/3 803/184/3 804/842/3
f 24/847/3 798/848/3 802/844/3 23/843/3
f 798/848/3 797/849/3 801/845/3 802/844/3
f 797/849/3 796/850/3 800/846/3 801/845/3
f 796/850/3 795/180/3 799/182/3 800/846/3
f 25/851/3 794/852/3 798/848/3 24/847/3
f 794/852/3 793/853/3 797/849/3 798/848/3
f 793/853/3 792/854/3 796/850/3 797/849/3
f 792/854/3 791/178/3 795/180/3 796/850/3
f 26/855/3 790/856/3 794/852/3 25/851/3
f 790/856/3 789/857/3 793/853/3 794/852/3
f 789/857/3 788/858/3 792/854/3 793/853/3
f 788/858/3 787/176/3 791/178/3 792/854/3
f 27/859/3 786/860/3 790/856/3 26/855/3
f 786/860/3 785/861/3 789/857/3 790/856/3
f 785/861/3 784/862/3 788/858/3 789/857/3
f 784/862/3 783/174/3 787/176/3 788/858/3
f 28/863/3 782/864/3 786/860/3 27/859/3
f 782/864/3 781/865/3 785/861/3 786/860/3
f 781/865/3 780/866/3 784/862/3 785/861/3
f 780/866/3 779/172/3 783/174/3 784/862/3
f 29/867/3 778/868/3 782/864/3 28/863/3
f 778/868/3 777/869/3 781/865/3 782/864/3
f 777/869/3 776/870/3 780/866/3 781/865/3
f 776/870/3 775/170/3 779/172/3 780/866/3
f 30/871/3 774/872/3 778/868/3 29/867/3
f 774/872/3 773/873/3 777/869/3 778/868/3
f 773/873/3 772/874/3 776/870/3 777/869/3
f 772/874/3 771/168/3 775/170/3 776/870/3
f 31/875/3 770/876/3 774/872/3 30/871/3
f 770/876/3 769/877/3 773/873/3 774/872/3
f 769/877/3 768/878/3 772/874/3 773/873/3
f 768/878/3 767/166/3 771/168/3 772/874/3
f 32/879/3 766/880/3 770/876/3 31/875/3
f 766/880/3 765/881/3 769/877/3 770/876/3
f 765/881/3 764/882/3 768/878/3 769/877/3
f 764/882/3 763/164/3 767/166/3 768/878/3
f 33/883/3 762/884/3 766/880/3 32/879/3
f 762/884/3 761/885/3 765/881/3 766/880/3
f 761/885/3 760/886/3 764/882/3 765/881/3
f 760/886/3 759/162/3 763/164/3 764/882/3
f 34/887/3 758/888/3 762/884/3 33/883/3
f 758/888/3 757/889/3 761/885/3 762/884/3
f 757/889/3 756/890/3 760/886/3 761/885/3
f 756/890/3 755/160/3 759/162/3 760/886/3
f 35/891/3 754/892/3 758/888/3 34/887/3
f 754/892/3 753/893/3 757/889/3 758/888/3
f 753/893/3 752/894/3 756/890/3 757/889/3
f 752/894/3 751/158/3 755/160/3 756/890/3
f 36/895/3 750/896/3 754/892/3 35/891/3
f 750/896/3 749/897/3 753/893/3 754/892/3
f 749/897/3 748/898/3 752/894/3 753/893/3
f 748/898/3 747/156/3 751/158/3 752/894/3
f 37/899/3 746/900/3 750/896/3 36/895/3
f 746/900/3 745/901/3 749/897/3 750/896/3
f 745/901/3 744/902/3 748/898/3 749/897/3
f 744/902/3 743/154/3 747/156/3 748/898/3
f 38/903/3 742/904/3 746/900/3 37/899/3
f 742/904/3 741/905/3 745/901/3 746/900/3
f 741/905/3 740/906/3 744/902/3 745/901/3
f 740/906/3 739/152/3 743/154/3 744/902/3
f 39/907/3 738/908/3 742/904/3 38/903/3
f 738/908/3 737/909/3 741/905/3 742/904/3
f 737/909/3 736/910/3 740/906/3 741/905/3
f 736/910/3 735/150/3 739/152/3 740/906/3
f 8/911/3 599/912/3 738/908/3 39/907/3
f 599/912/3 600/913/3 737/909/3 738/908/3
f 600/913/3 601/914/3 736/910/3 737/909/3
f 601/914/3 602/147/3 735/150/3 736/910/3
f 103/145/5 730/915/5 734/916/5 102/14/5
f 730/915/5 729/917/5 733/918/5 734/916/5
f 729/917/5 728/919/5 732/920/5 733/918/5
f 728/919/5 727/84/5 731/17/5 732/920/5
f 104/143/5 726/921/5 730/915/5 103/145/5
f 726/921/5 725/922/5 729/917/5 730/915/5
f 725/922/5 724/923/5 728/919/5 729/917/5
f 724/923/5 723/82/5 727/84/5 728/919/5
f 105/141/5 722/924/5 726/921/5 104/143/5
f 722/924/5 721/925/5 725/922/5 726/921/5
f 721/925/5 720/926/5 724/923/5 725/922/5
f 720/926/5 719/80/5 723/82/5 724/923/5
f 106/139/5 718/927/5 722/924/5 105/141/5
f 718/927/5 717/928/5 721/925/5 722/924/5
f 717/928/5 716/929/5 720/926/5 721/925/5
f 716/929/5 715/78/5 719/80/5 720/926/5
f 107/137/5 714/930/5 718/927/5 106/139/5
f 714/930/5 713/931/5 717/928/5 718/927/5
f 713/931/5 712/932/5 716/929/5 717/928/5
f 712/932/5 711/76/5 715/78/5 716/929/5
f 108/135/5 710/933/5 714/930/5 107/137/5
f 710/933/5 709/934/5 713/931/5 714/930/5
f 709/934/5 708/935/5 712/932/5 713/931/5
f 708/935/5 707/74/5 711/76/5 712/932/5
f 109/133/5 706/936/5 710/933/5 108/135/5
f 706/936/5 705/937/5 709/934/5 710/933/5
f 705/937/5 704/938/5 708/935/5 709/934/5
f 704/938/5 703/72/5 707/74/5 708/935/5
f 110/131/5 702/939/5 706/936/5 109/133/5
f 702/939/5 701/940/5 705/937/5 706/936/5
f 701/940/5 700/941/5 704/938/5 705/937/5
f 700/941/5 699/70/5 703/72/5 704/938/5
f 111/129/5 698/942/5 702/939/5 110/131/5
f 698/942/5 697/943/5 701/940/5 702/939/5
f 697/943/5 696/944/5 700/941/5 701/940/5
f 696/944/5 695/68/5 699/70/5 700/941/5
f 112/127/5 694/945/5 698/942/5 111/129/5
f 694/945/5 693/946/5 697/943/5 698/942/5
f 693/946/5 692/947/5 696/944/5 697/943/5
f 692/947/5 691/66/5 695/68/5 696/944/5
f 113/125/5 690/948/5 694/945/5 112/127/5
f 690/948/5 689/949/5 693/946/5 694/945/5
f 689/949/5 688/950/5 692/947/5 693/946/5
f 688/950/5 687/64/5 691/66/5 692/947/5
f 114/123/5 686/951/5 690/948/5 113/125/5
f 686/951/5 685/952/5 689/949/5 690/948/5
f 685/952/5 684/953/5 688/950/5 689/949/5
f 684/953/5 683/62/5 687/64/5 688/950/5
f 115/121/5 682/954/5 686/951/5 114/123/5
f 682/954/5 681/955/5 685/952/5 686/951/5
f 681/955/5 680/956/5 684/953/5 685/952/5
f 680/956/5 679/60/5 683/62/5 684/953/5
f 116/119/5 678/957/5 682/954/5 115/121/5
f 678/957/5 677/958/5 681/955/5 682/954/5
f 677/958/5 676/959/5 680/956/5 681/955/5
f 676/959/5 675/58/5 679/60/5 680/956/5
f 117/117/5 674/960/5 678/957/5 116/119/5
f 674/960/5 673/961/5 677/958/5 678/957/5
f 673/961/5 672/962/5 676/959/5 677/958/5
f 672/962/5 671/56/5 675/58/5 676/959/5
f 118/115/5 670/963/5 674/960/5 117/117/5
f 670/963/5 669/964/5 673/961/5 674/960/5
f 669/964/5 668/965/5 672/962/5 673/961/5
f 668/965/5 667/54/5 671/56/5 672/962/5
f 119/113/5 666/966/5 670/963/5 118/115/5
f 666/966/5 665/967/5 669/964/5 670/963/5
f 665/967/5 664/968/5 668/965/5 669/964/5
f 664/968/5 663/52/5 667/54/5 668/965/5
f 120/111/5 662/969/5 666/966/5 119/113/5
f 662/969/5 661/970/5 665/967/5 666/966/5
f 661/970/5 660/971/5 664/968/5 665/967/5
f 660/971/5 659/50/5 663/52/5 664/968/5
f 121/109/5 658/972/5 662/969/5 120/111/5
f 658/972/5 657/973/5 661/970/5 662/969/5
f 657/973/5 656/974/5 660/971/5 661/970/5
f 656/974/5 655/48/5 659/50/5 660/971/5
f 122/107/5 654/975/5 658/972/5 121/109/5
f 654/975/5 653/976/5 657/973/5 658/972/5
f 653/976/5 652/977/5 656/974/5 657/973/5
f 652/977/5 651/46/5 655/48/5 656/974/5
f 123/105/5 650/978/5 654/975/5 122/107/5
f 650/978/5 649/979/5 653/976/5 654/975/5
f 649/979/5 648/980/5 652/977/5 653/976/5
f 648/980/5 647/44/5 651/46/5 652/977/5
f 124/103/5 646/981/5 650/978/5 123/105/5
f 646/981/5 645/982/5 649/979/5 650/978/5
f 645/982/5 644/983/5 648/980/5 649/979/5
f 644/983/5 643/42/5 647/44/5 648/980/5
f 125/101/5 642/984/5 646/981/5 124/103/5
f 642/984/5 641/985/5 645/982/5 646/981/5
f 641/985/5 640/986/5 644/983/5 645/982/5
f 640/986/5 639/40/5 643/42/5 644/983/5
f 126/99/5 638/987/5 642/984/5 125/101/5
f 638/987/5 637/988/5 641/985/5 642/984/5
f 637/988/5 636/989/5 640/986/5 641/985/5
f 636/989/5 635/38/5 639/40/5 640/986/5
f 127/97/5 634/990/5 638/987/5 126/99/5
f 634/990/5 633/991/5 637/988/5 638/987/5
f 633/991/5 632/992/5 636/989/5 637/988/5
f 632/992/5 631/36/5 635/38/5 636/989/5
f 128/95/5 630/993/5 634/990/5 127/97/5
f 630/993/5 629/994/5 633/991/5 634/990/5
f 629/994/5 628/995/5 632/992/5 633/991/5
f 628/995/5 627/34/5 631/36/5 632/992/5
f 129/93/5 626/996/5 630/993/5 128/95/5
f 626/996/5 625/997/5 629/994/5 630/993/5
f 625/997/5 624/998/5 628/995/5 629/994/5
f 624/998/5 623/32/5 627/34/5 628/995/5
f 130/91/5 622/999/5 626/996/5 129/93/5
f 622/999/5 621/1000/5 625/997/5 626/996/5
f 621/1000/5 620/1001/5 624/998/5 625/997/5
f 620/1001/5 619/30/5 623/32/5 624/998/5
f 131/89/5 618/1002/5 622/999/5 130/91/5
f 618/1002/5 617/1003/5 621/1000/5 622/999/5
f 617/1003/5 616/1004/5 620/1001/5 621/1000/5
f 616/1004/5 615/28/5 619/30/5 620/1001/5
f 132/87/5 614/1005/5 618/1002/5 131/89/5
f 614/1005/5 613/1006/5 617/1003/5 618/1002/5
f 613/1006/5 612/1007/5 616/1004/5 617/1003/5
f 612/1007/5 611/26/5 615/28/5 616/1004/5
f 2/86/5 598/1008/5 614/1005/5 132/87/5
f 598/1008/5 597/1009/5 613/1006/5 614/1005/5
f 597/1009/5 596/1010/5 612/1007/5 613/1006/5
f 596/1010/5 595/24/5 611/26/5 612/1007/5
f 133/758/6 886/757/6 598/1008/6 2/86/6
f 886/757/6 885/760/6 597/1009/6 598/1008/6
f 885/760/6 884/762/6 596/1010/6 597/1009/6
f 884/762/6 883/21/6 595/24/6 596/1010/6
f 102/14/5 734/916/5 606/752/5 4/15/5
f 734/916/5 733/918/5 605/753/5 606/752/5
f 733/918/5 732/920/5 604/754/5 605/753/5
f 732/920/5 731/17/5 603/20/5 604/754/5
f 9/790/3 858/789/3 610/784/3 6/783/3
f 858/789/3 857/792/3 609/785/3 610/784/3
f 857/792/3 856/794/3 608/786/3 609/785/3
f 856/794/3 855/9/3 607/12/3 608/786/3
f 147/727/2 914/726/2 599/1011/2 8/1012/2
f 914/726/2 913/729/2 600/1013/2 599/1011/2
f 913/729/2 912/731/2 601/1014/2 600/1013/2
f 912/731/2 911/5/2 602/8/2 601/1014/2
