# Blender 3.3.1
# www.blender.org
mtllib TableMat.mtl
o Cube
v 0.438832 -0.022435 -0.793974
v 0.438832 0.022435 -0.793974
v 0.438832 -0.022435 0.793974
v 0.438832 0.022435 0.793974
v -0.438832 -0.022435 -0.793974
v -0.438832 0.022435 -0.793974
v -0.438832 -0.022435 0.793974
v -0.438832 0.022435 0.793974
v -0.484007 0.024745 -0.625506
v -0.484007 0.024745 -0.375304
v -0.484007 0.024745 -0.125101
v -0.484007 0.024745 0.125101
v -0.484007 0.024745 0.375304
v -0.484007 0.024745 0.625506
v 0.484007 -0.024745 -0.625506
v 0.484007 -0.024745 -0.375304
v 0.484007 -0.024745 -0.125101
v 0.484007 -0.024745 0.125101
v 0.484007 -0.024745 0.375304
v 0.484007 -0.024745 0.625506
v -0.484007 -0.024745 0.625506
v -0.484007 -0.024745 0.375304
v -0.484007 -0.024745 0.125101
v -0.484007 -0.024745 -0.125101
v -0.484007 -0.024745 -0.375304
v -0.484007 -0.024745 -0.625506
v 0.484007 0.024745 0.625506
v 0.484007 0.024745 0.375304
v 0.484007 0.024745 0.125101
v 0.484007 0.024745 -0.125101
v 0.484007 0.024745 -0.375304
v 0.484007 0.024745 -0.625506
v 0.322671 0.024745 -0.875708
v 0.161336 0.024745 -0.875708
v -0.000000 0.024745 -0.875708
v -0.161336 0.024745 -0.875708
v -0.322671 0.024745 -0.875708
v 0.322671 -0.024745 0.875708
v 0.161336 -0.024745 0.875708
v -0.000000 -0.024745 0.875708
v -0.161336 -0.024745 0.875708
v -0.322671 -0.024745 0.875708
v -0.322671 0.024745 0.875708
v -0.161336 0.024745 0.875708
v 0.000000 0.024745 0.875708
v 0.161336 0.024745 0.875708
v 0.322671 0.024745 0.875708
v -0.322671 -0.024745 -0.875708
v -0.161336 -0.024745 -0.875708
v 0.000000 -0.024745 -0.875708
v 0.161336 -0.024745 -0.875708
v 0.322671 -0.024745 -0.875708
v 0.322671 0.024745 -0.625506
v 0.161336 0.024745 -0.625506
v -0.000000 0.024745 -0.625506
v -0.161336 0.024745 -0.625506
v -0.322671 0.024745 -0.625506
v 0.322671 0.024745 -0.375304
v 0.161336 0.024745 -0.375304
v -0.000000 0.024745 -0.375304
v -0.161336 0.024745 -0.375304
v -0.322671 0.024745 -0.375304
v 0.322671 0.024745 -0.125101
v 0.161336 0.024745 -0.125101
v -0.000000 0.024745 -0.125101
v -0.161336 0.024745 -0.125101
v -0.322671 0.024745 -0.125101
v 0.322671 0.024745 0.125101
v 0.161336 0.024745 0.125101
v -0.000000 0.024745 0.125101
v -0.161336 0.024745 0.125101
v -0.322671 0.024745 0.125101
v 0.322671 0.024745 0.375304
v 0.161336 0.024745 0.375304
v -0.000000 0.024745 0.375304
v -0.161336 0.024745 0.375304
v -0.322671 0.024745 0.375304
v 0.322671 0.024745 0.625506
v 0.161336 0.024745 0.625506
v -0.000000 0.024745 0.625506
v -0.161336 0.024745 0.625506
v -0.322671 0.024745 0.625506
v -0.322671 -0.024745 -0.625506
v -0.161336 -0.024745 -0.625506
v 0.000000 -0.024745 -0.625506
v 0.161336 -0.024745 -0.625506
v 0.322671 -0.024745 -0.625506
v -0.322671 -0.024745 -0.375304
v -0.161336 -0.024745 -0.375304
v 0.000000 -0.024745 -0.375304
v 0.161336 -0.024745 -0.375304
v 0.322671 -0.024745 -0.375304
v -0.322671 -0.024745 -0.125101
v -0.161336 -0.024745 -0.125101
v 0.000000 -0.024745 -0.125101
v 0.161336 -0.024745 -0.125101
v 0.322671 -0.024745 -0.125101
v -0.322671 -0.024745 0.125101
v -0.161336 -0.024745 0.125101
v 0.000000 -0.024745 0.125101
v 0.161336 -0.024745 0.125101
v 0.322671 -0.024745 0.125101
v -0.322671 -0.024745 0.375304
v -0.161336 -0.024745 0.375304
v 0.000000 -0.024745 0.375304
v 0.161336 -0.024745 0.375304
v 0.322671 -0.024745 0.375304
v -0.322671 -0.024745 0.625506
v -0.161336 -0.024745 0.625506
v 0.000000 -0.024745 0.625506
v 0.161336 -0.024745 0.625506
v 0.322671 -0.024745 0.625506
vn -0.0103 -0.9999 0.0066
vn -0.5755 -0.0000 0.8178
vn -0.9659 -0.0000 -0.2590
vn 0.0103 0.9999 0.0066
vn 0.9659 -0.0000 0.2590
vn 0.5755 -0.0000 -0.8178
vn 0.9659 -0.0000 -0.2590
vn 1.0000 -0.0000 -0.0000
vn 0.0103 0.9999 -0.0066
vn -0.0000 1.0000 -0.0000
vn -0.9659 -0.0000 0.2590
vn -1.0000 -0.0000 -0.0000
vn -0.0103 -0.9999 -0.0066
vn -0.0000 -1.0000 -0.0000
vn 0.0103 -0.9999 -0.0066
vn -0.0103 0.9999 -0.0066
vn -0.5755 -0.0000 -0.8178
vn -0.0000 -0.0000 -1.0000
vn -0.0103 0.9999 0.0066
vn 0.5755 -0.0000 0.8178
vn -0.0000 -0.0000 1.0000
vn 0.0103 -0.9999 0.0066
vt 0.686802 0.682979
vt 0.990278 0.328819
vt 0.025342 0.682979
vt 0.686802 0.379503
vt 0.990279 0.025342
vt 0.025342 0.025342
vt 0.686802 0.328819
vt 0.667359 0.682979
vt 0.328819 0.682979
vt 0.328819 0.025342
vt 0.686802 0.025342
vt 0.667359 0.379503
vt 0.363882 0.328819
vt 0.025342 0.379503
vt 0.990278 0.682979
vt 0.363882 0.025342
vt 0.025342 0.328819
vt 0.990279 0.379503
vt 0.328819 0.379503
vt 0.363882 0.682979
vt 0.667359 0.328819
vt 0.363882 0.379503
vt 0.667359 0.025342
vt 0.328819 0.328819
vt 0.396079 0.009722
vt 0.057538 0.344439
vt 0.443895 0.009722
vt 0.105355 0.344439
vt 0.491712 0.009722
vt 0.153172 0.344439
vt 0.539529 0.009722
vt 0.200989 0.344439
vt 0.587346 0.009722
vt 0.248806 0.344439
vt 0.635163 0.009722
vt 0.296622 0.344439
vt 0.958082 0.344439
vt 0.057538 0.698600
vt 0.910265 0.344439
vt 0.105355 0.698600
vt 0.862449 0.344439
vt 0.153172 0.698600
vt 0.814632 0.344439
vt 0.200989 0.698600
vt 0.766815 0.344439
vt 0.248806 0.698600
vt 0.718998 0.344439
vt 0.296622 0.698600
vt 0.635163 0.344439
vt 0.296622 0.363882
vt 0.587346 0.344439
vt 0.248806 0.363882
vt 0.539529 0.344439
vt 0.200989 0.363882
vt 0.491712 0.344439
vt 0.153172 0.363882
vt 0.443895 0.344439
vt 0.105355 0.363882
vt 0.396079 0.344439
vt 0.057538 0.363882
vt 0.718998 0.009722
vt 0.296622 0.009722
vt 0.766815 0.009722
vt 0.248806 0.009722
vt 0.814632 0.009722
vt 0.200989 0.009722
vt 0.862449 0.009722
vt 0.153172 0.009722
vt 0.910265 0.009722
vt 0.105355 0.009722
vt 0.958082 0.009722
vt 0.057538 0.009722
vt 0.009722 0.065508
vt 0.726968 0.363882
vt 0.009722 0.121294
vt 0.782754 0.363882
vt 0.009722 0.177080
vt 0.838540 0.363882
vt 0.009722 0.232867
vt 0.894326 0.363882
vt 0.009722 0.288653
vt 0.950113 0.363882
vt 0.627193 0.698600
vt 0.344439 0.642814
vt 0.571407 0.698600
vt 0.344439 0.587027
vt 0.515621 0.698600
vt 0.344439 0.531241
vt 0.459834 0.698600
vt 0.344439 0.475455
vt 0.404048 0.698600
vt 0.344439 0.419668
vt 0.344439 0.288653
vt 0.404048 0.363882
vt 0.344439 0.232867
vt 0.459834 0.363882
vt 0.344439 0.177080
vt 0.515621 0.363882
vt 0.344439 0.121294
vt 0.571407 0.363882
vt 0.344439 0.065508
vt 0.627193 0.363882
vt 0.009722 0.419668
vt 0.950113 0.698600
vt 0.009722 0.475455
vt 0.894326 0.698600
vt 0.009722 0.531241
vt 0.838540 0.698600
vt 0.009722 0.587027
vt 0.782754 0.698600
vt 0.009722 0.642814
vt 0.726968 0.698600
vt 0.057538 0.065508
vt 0.057538 0.121294
vt 0.057538 0.177080
vt 0.057538 0.232867
vt 0.057538 0.288653
vt 0.105355 0.065508
vt 0.105355 0.121294
vt 0.105355 0.177080
vt 0.105355 0.232867
vt 0.105355 0.288653
vt 0.153172 0.065508
vt 0.153172 0.121294
vt 0.153172 0.177080
vt 0.153172 0.232867
vt 0.153172 0.288653
vt 0.200989 0.065508
vt 0.200989 0.121294
vt 0.200989 0.177080
vt 0.200989 0.232867
vt 0.200989 0.288653
vt 0.248806 0.065508
vt 0.248806 0.121294
vt 0.248806 0.177080
vt 0.248806 0.232867
vt 0.248806 0.288653
vt 0.296622 0.065508
vt 0.296622 0.121294
vt 0.296622 0.177080
vt 0.296622 0.232867
vt 0.296622 0.288653
vt 0.057538 0.419668
vt 0.057538 0.475455
vt 0.057538 0.531241
vt 0.057538 0.587027
vt 0.057538 0.642814
vt 0.105355 0.419668
vt 0.105355 0.475455
vt 0.105355 0.531241
vt 0.105355 0.587027
vt 0.105355 0.642814
vt 0.153172 0.419668
vt 0.153172 0.475455
vt 0.153172 0.531241
vt 0.153172 0.587027
vt 0.153172 0.642814
vt 0.200989 0.419668
vt 0.200989 0.475455
vt 0.200989 0.531241
vt 0.200989 0.587027
vt 0.200989 0.642814
vt 0.248806 0.419668
vt 0.248806 0.475455
vt 0.248806 0.531241
vt 0.248806 0.587027
vt 0.248806 0.642814
vt 0.296622 0.419668
vt 0.296622 0.475455
vt 0.296622 0.531241
vt 0.296622 0.587027
vt 0.296622 0.642814
s 0
usemtl Material
f 108/168/1 42/92/1 7/19/1 21/50/1
f 43/94/2 8/22/2 7/20/2 42/91/2
f 9/25/3 6/16/3 5/13/3 26/59/3
f 78/138/4 47/101/4 4/10/4 27/62/4
f 27/61/5 4/11/5 3/7/5 20/47/5
f 33/74/6 2/4/6 1/1/6 52/112/6
f 2/5/7 32/71/7 15/37/7 1/2/7
f 32/71/8 31/69/8 16/39/8 15/37/8
f 31/69/8 30/67/8 17/41/8 16/39/8
f 30/67/8 29/65/8 18/43/8 17/41/8
f 29/65/8 28/63/8 19/45/8 18/43/8
f 28/63/8 27/61/8 20/47/8 19/45/8
f 33/73/9 53/113/9 32/72/9 2/6/9
f 53/113/10 58/118/10 31/70/10 32/72/10
f 58/118/10 63/123/10 30/68/10 31/70/10
f 63/123/10 68/128/10 29/66/10 30/68/10
f 68/128/10 73/133/10 28/64/10 29/66/10
f 73/133/10 78/138/10 27/62/10 28/64/10
f 8/23/11 14/35/11 21/49/11 7/21/11
f 14/35/12 13/33/12 22/51/12 21/49/12
f 13/33/12 12/31/12 23/53/12 22/51/12
f 12/31/12 11/29/12 24/55/12 23/53/12
f 11/29/12 10/27/12 25/57/12 24/55/12
f 10/27/12 9/25/12 26/59/12 25/57/12
f 48/103/13 83/143/13 26/60/13 5/14/13
f 83/143/14 88/148/14 25/58/14 26/60/14
f 88/148/14 93/153/14 24/56/14 25/58/14
f 93/153/14 98/158/14 23/54/14 24/56/14
f 98/158/14 103/163/14 22/52/14 23/54/14
f 103/163/14 108/168/14 21/50/14 22/52/14
f 19/46/14 20/48/14 112/172/14 107/167/14
f 107/167/14 112/172/14 111/171/14 106/166/14
f 106/166/14 111/171/14 110/170/14 105/165/14
f 105/165/14 110/170/14 109/169/14 104/164/14
f 104/164/14 109/169/14 108/168/14 103/163/14
f 18/44/14 19/46/14 107/167/14 102/162/14
f 102/162/14 107/167/14 106/166/14 101/161/14
f 101/161/14 106/166/14 105/165/14 100/160/14
f 100/160/14 105/165/14 104/164/14 99/159/14
f 99/159/14 104/164/14 103/163/14 98/158/14
f 17/42/14 18/44/14 102/162/14 97/157/14
f 97/157/14 102/162/14 101/161/14 96/156/14
f 96/156/14 101/161/14 100/160/14 95/155/14
f 95/155/14 100/160/14 99/159/14 94/154/14
f 94/154/14 99/159/14 98/158/14 93/153/14
f 16/40/14 17/42/14 97/157/14 92/152/14
f 92/152/14 97/157/14 96/156/14 91/151/14
f 91/151/14 96/156/14 95/155/14 90/150/14
f 90/150/14 95/155/14 94/154/14 89/149/14
f 89/149/14 94/154/14 93/153/14 88/148/14
f 15/38/14 16/40/14 92/152/14 87/147/14
f 87/147/14 92/152/14 91/151/14 86/146/14
f 86/146/14 91/151/14 90/150/14 85/145/14
f 85/145/14 90/150/14 89/149/14 84/144/14
f 84/144/14 89/149/14 88/148/14 83/143/14
f 1/3/15 15/38/15 87/147/15 52/111/15
f 52/111/14 87/147/14 86/146/14 51/109/14
f 51/109/14 86/146/14 85/145/14 50/107/14
f 50/107/14 85/145/14 84/144/14 49/105/14
f 49/105/14 84/144/14 83/143/14 48/103/14
f 13/34/10 14/36/10 82/142/10 77/137/10
f 77/137/10 82/142/10 81/141/10 76/136/10
f 76/136/10 81/141/10 80/140/10 75/135/10
f 75/135/10 80/140/10 79/139/10 74/134/10
f 74/134/10 79/139/10 78/138/10 73/133/10
f 12/32/10 13/34/10 77/137/10 72/132/10
f 72/132/10 77/137/10 76/136/10 71/131/10
f 71/131/10 76/136/10 75/135/10 70/130/10
f 70/130/10 75/135/10 74/134/10 69/129/10
f 69/129/10 74/134/10 73/133/10 68/128/10
f 11/30/10 12/32/10 72/132/10 67/127/10
f 67/127/10 72/132/10 71/131/10 66/126/10
f 66/126/10 71/131/10 70/130/10 65/125/10
f 65/125/10 70/130/10 69/129/10 64/124/10
f 64/124/10 69/129/10 68/128/10 63/123/10
f 10/28/10 11/30/10 67/127/10 62/122/10
f 62/122/10 67/127/10 66/126/10 61/121/10
f 61/121/10 66/126/10 65/125/10 60/120/10
f 60/120/10 65/125/10 64/124/10 59/119/10
f 59/119/10 64/124/10 63/123/10 58/118/10
f 9/26/10 10/28/10 62/122/10 57/117/10
f 57/117/10 62/122/10 61/121/10 56/116/10
f 56/116/10 61/121/10 60/120/10 55/115/10
f 55/115/10 60/120/10 59/119/10 54/114/10
f 54/114/10 59/119/10 58/118/10 53/113/10
f 6/17/16 9/26/16 57/117/16 37/81/16
f 37/81/10 57/117/10 56/116/10 36/79/10
f 36/79/10 56/116/10 55/115/10 35/77/10
f 35/77/10 55/115/10 54/114/10 34/75/10
f 34/75/10 54/114/10 53/113/10 33/73/10
f 6/18/17 37/82/17 48/104/17 5/15/17
f 37/82/18 36/80/18 49/106/18 48/104/18
f 36/80/18 35/78/18 50/108/18 49/106/18
f 35/78/18 34/76/18 51/110/18 50/108/18
f 34/76/18 33/74/18 52/112/18 51/110/18
f 14/36/19 8/24/19 43/93/19 82/142/19
f 82/142/10 43/93/10 44/95/10 81/141/10
f 81/141/10 44/95/10 45/97/10 80/140/10
f 80/140/10 45/97/10 46/99/10 79/139/10
f 79/139/10 46/99/10 47/101/10 78/138/10
f 4/12/20 47/102/20 38/83/20 3/8/20
f 47/102/21 46/100/21 39/85/21 38/83/21
f 46/100/21 45/98/21 40/87/21 39/85/21
f 45/98/21 44/96/21 41/89/21 40/87/21
f 44/96/21 43/94/21 42/91/21 41/89/21
f 20/48/22 3/9/22 38/84/22 112/172/22
f 112/172/14 38/84/14 39/86/14 111/171/14
f 111/171/14 39/86/14 40/88/14 110/170/14
f 110/170/14 40/88/14 41/90/14 109/169/14
f 109/169/14 41/90/14 42/92/14 108/168/14
