# Blender 3.3.1
# www.blender.org
mtllib Terminal.mtl
o Cube
v 0.000000 -1.929639 0.897137
v 0.000000 2.014467 0.897137
v 0.000000 -1.929639 -1.102863
v 0.000000 2.014467 -1.102863
v 0.895585 -1.929639 0.897137
v 0.895585 2.014467 0.897137
v 0.895585 -1.929639 -1.102863
v 0.895585 2.014467 -1.102863
v 0.000000 2.589751 1.579064
v 0.000000 4.613101 -1.229541
v 0.000000 4.699553 -1.349544
v 0.000000 2.503299 1.699066
v 4.651671 2.014467 -1.102863
v 4.651671 2.014467 0.897137
v 4.680764 4.844147 -1.511622
v 4.680764 2.365958 1.928341
v 5.731436 2.014467 -1.102863
v 5.731436 2.014467 0.897137
v 7.789403 4.613101 -1.229541
v 7.789403 2.589751 1.579064
v 4.651671 -1.974558 -1.102863
v 4.651671 -1.974558 0.897137
v 5.731436 -1.974558 -1.102863
v 5.731436 -1.974558 0.897137
v 0.000000 -2.115643 -1.303112
v 0.000000 -2.115643 1.097386
v 0.985256 -2.115643 -1.303112
v 0.985256 -2.115643 1.097386
v 4.505264 -2.118562 -1.374045
v 4.505264 -2.118562 1.168320
v 5.877843 -2.118562 -1.374045
v 5.877843 -2.118562 1.168320
v 2.075511 2.014467 -1.102863
v 2.075511 2.014467 0.897137
v 1.859874 2.589751 1.579064
v 0.000000 4.315351 -0.816236
v 0.000000 2.887500 1.165758
v 1.521932 2.943705 1.087740
v 1.521932 4.259147 -0.738218
v 0.000000 3.466551 -0.808285
v 0.000000 2.559465 0.450837
v 1.137488 2.559465 0.450837
v 1.137488 3.466551 -0.808285
v 4.719826 4.338542 -0.820284
v 4.719826 2.869593 1.218759
v 3.047740 4.201590 -0.653080
v 6.562477 4.201590 -0.653080
v 6.562477 3.002246 1.011724
v 3.047740 3.002246 1.011724
v 4.728970 3.818648 -0.952719
v 4.728970 2.581172 0.765016
v 3.320367 3.703276 -0.811863
v 6.281260 3.703276 -0.811863
v 6.281260 2.692922 0.590605
v 3.320367 2.692922 0.590605
v 3.045432 5.120836 -0.404514
v 4.717518 5.257789 -0.571718
v 0.000000 5.618799 -1.100978
v 0.893277 2.933713 -0.854296
v 1.857566 3.508997 1.827630
v 3.045432 3.921492 1.260291
v 4.678456 5.763393 -1.263056
v 4.649363 2.933713 -0.854296
v 2.073203 2.933713 -0.854296
v 1.857566 5.532348 -0.980975
v 0.000000 3.422545 1.947633
v 7.787095 5.532348 -0.980975
v 7.787095 3.508997 1.827630
v 4.678456 3.285204 2.176908
v 6.560168 5.120836 -0.404514
v 6.560168 3.921492 1.260291
v 1.519624 3.862952 1.336307
v 0.000000 3.806747 1.414324
v 0.000000 5.234598 -0.567670
v 1.519624 5.178393 -0.489652
v 4.717518 3.788839 1.467325
v 6.640709 4.184714 0.133131
v 6.640709 3.870935 0.504798
v 6.640105 4.425212 0.188623
v 6.640105 4.111434 0.560291
v 2.850179 4.176742 0.126400
v 2.850179 3.862963 0.498067
v 2.849575 4.417240 0.181893
v 2.849575 4.103462 0.553560
v 1.503507 3.879770 0.432269
v 1.503507 4.175831 0.021307
v 1.502987 4.382722 0.077251
v 1.502987 4.086661 0.488212
v 0.000000 3.876553 0.429952
v 0.000000 4.172615 0.018990
v 0.000000 4.379507 0.074934
v 0.000000 4.083445 0.485895
v -0.895585 -1.929639 0.897137
v -0.895585 2.014467 0.897137
v -0.895585 -1.929639 -1.102863
v -0.895585 2.014467 -1.102863
v -4.651671 2.014467 -1.102863
v -4.651671 2.014467 0.897137
v -4.680764 4.844147 -1.511622
v -4.680764 2.365958 1.928341
v -5.731436 2.014467 -1.102863
v -5.731436 2.014467 0.897137
v -7.789403 4.613101 -1.229541
v -7.789403 2.589751 1.579064
v -4.651671 -1.974558 -1.102863
v -4.651671 -1.974558 0.897137
v -5.731436 -1.974558 -1.102863
v -5.731436 -1.974558 0.897137
v -0.985256 -2.115643 -1.303112
v -0.985256 -2.115643 1.097386
v -4.505264 -2.118562 -1.374045
v -4.505264 -2.118562 1.168320
v -5.877843 -2.118562 -1.374045
v -5.877843 -2.118562 1.168320
v -2.075511 2.014467 -1.102863
v -2.075511 2.014467 0.897137
v -1.859874 2.589751 1.579064
v -1.521932 2.943705 1.087740
v -1.521932 4.259147 -0.738218
v -1.137488 2.559465 0.450837
v -1.137488 3.466551 -0.808285
v -4.719826 4.338542 -0.820284
v -4.719826 2.869593 1.218759
v -3.047740 4.201590 -0.653080
v -6.562477 4.201590 -0.653080
v -6.562477 3.002246 1.011724
v -3.047740 3.002246 1.011724
v -4.728970 3.818648 -0.952719
v -4.728970 2.581172 0.765016
v -3.320367 3.703276 -0.811863
v -6.281260 3.703276 -0.811863
v -6.281260 2.692922 0.590605
v -3.320367 2.692922 0.590605
v -3.045432 5.120836 -0.404514
v -4.717518 5.257789 -0.571718
v -0.893277 2.933713 -0.854296
v -1.857566 3.508997 1.827630
v -3.045432 3.921492 1.260291
v -4.678456 5.763393 -1.263056
v -4.649363 2.933713 -0.854296
v -2.073203 2.933713 -0.854296
v -1.857566 5.532348 -0.980975
v -7.787095 5.532348 -0.980975
v -7.787095 3.508997 1.827630
v -4.678456 3.285204 2.176908
v -6.560168 5.120836 -0.404514
v -6.560168 3.921492 1.260291
v -1.519624 3.862952 1.336307
v -1.519624 5.178393 -0.489652
v -4.717518 3.788839 1.467325
v -6.640709 4.184714 0.133131
v -6.640709 3.870935 0.504798
v -6.640105 4.425212 0.188623
v -6.640105 4.111434 0.560291
v -2.850179 4.176742 0.126400
v -2.850179 3.862963 0.498067
v -2.849575 4.417240 0.181893
v -2.849575 4.103462 0.553560
v -1.503507 3.879770 0.432269
v -1.503507 4.175831 0.021307
v -1.502987 4.382722 0.077251
v -1.502987 4.086661 0.488212
vn -0.9467 -0.2587 -0.1922
vn -0.0000 -0.0000 -1.0000
vn 1.0000 -0.0000 -0.0000
vn -0.0000 -0.0000 1.0000
vn 0.9008 0.4343 -0.0000
vn -0.1504 -0.8441 0.5146
vn -0.1203 0.8367 -0.5343
vn -0.1236 -0.0908 -0.9882
vn -0.0000 -1.0000 -0.0000
vn 0.0818 -0.9149 0.3952
vn -0.0669 -0.8806 0.4691
vn 0.1171 -0.2590 0.9588
vn 0.6066 -0.7328 -0.3083
vn -1.0000 -0.0000 -0.0000
vn 0.0601 -0.1208 -0.9909
vn -0.0000 0.2610 -0.9653
vn -0.7012 0.7129 -0.0000
vn -0.0000 0.7327 0.6806
vn -0.0000 0.7327 -0.6806
vn -0.0000 0.8832 -0.4690
vn 0.7012 0.7129 -0.0000
vn -0.0000 0.8832 0.4690
vn 1.0000 0.0021 0.0015
vn 0.0465 -0.7949 0.6049
vn 0.1064 0.2598 -0.9598
vn -0.0300 -0.0308 0.9991
vn 0.7253 0.1806 -0.6644
vn 0.0743 -0.2602 0.9627
vn 0.1321 0.8377 -0.5298
vn -0.0000 0.8114 0.5845
vn -0.8718 0.3975 0.2864
vn -0.0322 0.8880 -0.4587
vn 0.1389 0.2588 -0.9559
vn 0.1262 -0.2586 0.9577
vn -0.9998 -0.0073 0.0177
vn -0.0080 0.8114 0.5845
vn 0.0073 0.8114 0.5845
vn 0.1162 -0.2433 0.9630
vn 0.8768 0.3901 0.2811
vn -0.1058 -0.2472 0.9632
vn -0.8704 0.3995 0.2878
vn -0.0477 -0.0997 -0.9939
vn -0.0070 0.8070 0.5906
vn -0.0026 0.8114 0.5845
vn 0.0376 -0.0626 -0.9973
vn 0.0065 0.8073 0.5901
vn 0.0064 0.8153 0.5790
vn -0.0069 0.8156 0.5785
vn 0.0025 0.8114 0.5845
vn -0.9995 0.0058 -0.0308
vn -0.0591 0.2605 -0.9637
vn -0.1262 0.2586 -0.9577
vn -0.0591 -0.2606 0.9636
vn -0.1064 -0.2598 0.9598
vn -0.1389 -0.2588 0.9559
vn -0.0028 0.7641 0.6451
vn -0.9939 0.0257 -0.1077
vn -0.9835 0.1453 0.1079
vn -0.9946 -0.0285 0.0993
vn -1.0000 -0.0021 -0.0018
vn -0.0013 -0.2248 0.9744
vn 0.0028 -0.7641 -0.6451
vn 0.0013 0.2248 -0.9744
vn -0.9986 0.0429 0.0309
vn -0.9988 -0.0397 -0.0286
vn -0.9997 0.0039 -0.0238
vn 0.0009 0.2610 -0.9653
vn -0.0009 -0.2610 0.9653
vn 0.0026 -0.8114 -0.5845
vn 0.9467 -0.2587 -0.1922
vn -0.9008 0.4343 -0.0000
vn 0.1504 -0.8441 0.5146
vn 0.1203 0.8367 -0.5343
vn 0.1236 -0.0908 -0.9882
vn -0.0818 -0.9149 0.3952
vn 0.0669 -0.8806 0.4691
vn -0.1171 -0.2590 0.9588
vn -0.6066 -0.7328 -0.3083
vn -0.0601 -0.1208 -0.9909
vn -1.0000 0.0021 0.0015
vn -0.0465 -0.7949 0.6049
vn -0.1064 0.2598 -0.9598
vn 0.0300 -0.0308 0.9991
vn -0.7253 0.1806 -0.6644
vn -0.0743 -0.2602 0.9627
vn -0.1321 0.8377 -0.5298
vn 0.8718 0.3975 0.2864
vn 0.0322 0.8880 -0.4587
vn -0.1389 0.2588 -0.9559
vn -0.1262 -0.2586 0.9577
vn 0.9998 -0.0073 0.0177
vn 0.0080 0.8114 0.5845
vn -0.0073 0.8114 0.5845
vn -0.1162 -0.2433 0.9630
vn -0.8768 0.3901 0.2811
vn 0.1058 -0.2472 0.9632
vn 0.8704 0.3995 0.2878
vn 0.0477 -0.0997 -0.9939
vn 0.0070 0.8070 0.5906
vn 0.0026 0.8114 0.5845
vn -0.0376 -0.0626 -0.9973
vn -0.0065 0.8073 0.5901
vn -0.0064 0.8153 0.5790
vn 0.0069 0.8156 0.5785
vn -0.0025 0.8114 0.5845
vn 0.9995 0.0058 -0.0308
vn 0.0591 0.2605 -0.9637
vn 0.1262 0.2586 -0.9577
vn 0.0591 -0.2606 0.9636
vn 0.1064 -0.2598 0.9598
vn 0.1389 -0.2588 0.9559
vn 0.0028 0.7641 0.6451
vn 0.9939 0.0257 -0.1077
vn 0.9835 0.1453 0.1079
vn 0.9946 -0.0285 0.0993
vn 1.0000 -0.0021 -0.0018
vn 0.0013 -0.2248 0.9744
vn -0.0028 -0.7641 -0.6451
vn -0.0013 0.2248 -0.9744
vn 0.9986 0.0429 0.0309
vn 0.9988 -0.0397 -0.0286
vn 0.9997 0.0039 -0.0238
vn -0.0009 0.2610 -0.9653
vn 0.0009 -0.2610 0.9653
vn -0.0026 -0.8114 -0.5845
vt 0.668250 0.958845
vt 0.948097 0.834416
vt 0.668250 0.863998
vt 0.295877 0.017556
vt 0.431194 0.017260
vt 0.948097 0.735296
vt 0.530529 0.017768
vt 0.119164 0.823143
vt 0.598404 0.958859
vt 0.878250 0.834387
vt 0.017260 0.823143
vt 0.598404 0.864012
vt 0.294583 0.087358
vt 0.430850 0.087106
vt 0.119164 0.925047
vt 0.878250 0.735267
vt 0.017260 0.925047
vt 0.396330 0.089081
vt 0.530184 0.087614
vt 0.261964 0.017433
vt 0.594537 0.018100
vt 0.595350 0.018109
vt 0.255742 0.017260
vt 0.831384 0.017260
vt 0.390902 0.381832
vt 0.700305 0.726456
vt 0.531311 0.417636
vt 0.961258 0.499333
vt 0.528740 0.380547
vt 0.289156 0.380110
vt 0.598404 0.726485
vt 0.430850 0.946420
vt 0.597954 0.419216
vt 0.961258 0.575385
vt 0.237129 0.381773
vt 0.830415 0.382319
vt 0.389342 0.465990
vt 0.532219 0.501842
vt 0.836729 0.829520
vt 0.287596 0.464268
vt 0.515060 0.946403
vt 0.734825 0.829520
vt 0.396330 0.628598
vt 0.920882 0.017260
vt 0.597954 0.661660
vt 0.250709 0.624544
vt 0.920882 0.169614
vt 0.831541 0.624752
vt 0.700305 0.829449
vt 0.430850 0.418700
vt 0.332765 0.675734
vt 0.598404 0.829478
vt 0.430850 0.850493
vt 0.332765 0.774854
vt 0.431757 0.502906
vt 0.836729 0.726456
vt 0.248553 0.675699
vt 0.515060 0.850476
vt 0.734825 0.726456
vt 0.248553 0.774819
vt 0.237129 0.823682
vt 0.948088 0.726487
vt 0.237129 0.945821
vt 0.948088 0.845456
vt 0.313933 0.823806
vt 0.871248 0.726456
vt 0.313933 0.945945
vt 0.871248 0.845425
vt 0.017260 0.659094
vt 0.344176 0.663163
vt 0.017260 0.788451
vt 0.344176 0.789162
vt 0.124258 0.659266
vt 0.237128 0.663118
vt 0.124258 0.788623
vt 0.237128 0.789118
vt 0.394625 0.181045
vt 0.529730 0.179635
vt 0.292878 0.179322
vt 0.259276 0.162393
vt 0.831541 0.162308
vt 0.368793 0.942380
vt 0.430850 0.815956
vt 0.760803 0.982740
vt 0.433771 0.697223
vt 0.760803 0.864040
vt 0.947511 0.306928
vt 0.532150 0.696180
vt 0.368793 0.823682
vt 0.947511 0.207880
vt 0.348530 0.942393
vt 0.532150 0.814847
vt 0.464311 0.815566
vt 0.463353 0.726858
vt 0.348453 0.853680
vt 0.531192 0.726139
vt 0.685185 0.548216
vt 0.655847 0.160969
vt 0.734825 0.548219
vt 0.871249 0.879976
vt 0.685363 0.417814
vt 0.756631 0.291374
vt 0.756576 0.017260
vt 0.685363 0.691929
vt 0.932423 0.974036
vt 0.666875 0.017260
vt 0.735812 0.691936
vt 0.932423 0.883729
vt 0.871249 0.970284
vt 0.735812 0.417822
vt 0.666930 0.291374
vt 0.769158 0.160230
vt 0.700155 0.548928
vt 0.676605 0.160230
vt 0.700305 0.439075
vt 0.761507 0.270085
vt 0.700305 0.669995
vt 0.761461 0.039166
vt 0.685894 0.039166
vt 0.685941 0.270085
vt 0.658626 0.417636
vt 0.897903 0.883723
vt 0.156231 0.387062
vt 0.165313 0.256657
vt 0.658448 0.548037
vt 0.621327 0.018232
vt 0.193782 0.624575
vt 0.556162 0.087556
vt 0.035957 0.479703
vt 0.804804 0.162130
vt 0.897903 0.974030
vt 0.761790 0.417636
vt 0.066530 0.387062
vt 0.623928 0.418750
vt 0.621327 0.383116
vt 0.202609 0.259704
vt 0.979929 0.594739
vt 0.979929 0.518686
vt 0.554718 0.380490
vt 0.555708 0.179577
vt 0.619799 0.163093
vt 0.187287 0.479703
vt 0.804647 0.017262
vt 0.029520 0.624575
vt 0.947537 0.021006
vt 0.623928 0.661195
vt 0.187194 0.017260
vt 0.947537 0.173360
vt 0.804804 0.624574
vt 0.035864 0.017260
vt 0.017260 0.259704
vt 0.803678 0.382140
vt 0.156176 0.112948
vt 0.658626 0.691750
vt 0.959052 0.970283
vt 0.066474 0.112948
vt 0.761790 0.691750
vt 0.959052 0.879976
vt 0.062435 0.506059
vt 0.734825 0.864110
vt 0.920882 0.310681
vt 0.058255 0.624575
vt 0.734826 0.982630
vt 0.165047 0.624575
vt 0.395530 0.942355
vt 0.160820 0.506059
vt 0.395530 0.823838
vt 0.920882 0.211633
vt 0.055447 0.256657
vt 0.760802 0.548033
vt 0.945980 0.936291
vt 0.885401 0.643116
vt 0.158778 0.954759
vt 0.944863 0.915722
vt 0.919921 0.347427
vt 0.866061 0.642922
vt 0.866061 0.312882
vt 0.952780 0.935766
vt 0.165466 0.954717
vt 0.886362 0.312908
vt 0.951664 0.915197
vt 0.926738 0.347467
vt 0.703181 0.325894
vt 0.885401 0.347622
vt 0.158778 0.659136
vt 0.703181 0.346493
vt 0.919921 0.643051
vt 0.866061 0.347428
vt 0.866061 0.017260
vt 0.696362 0.326050
vt 0.165466 0.659094
vt 0.886362 0.017286
vt 0.696362 0.346649
vt 0.926738 0.643091
vt 0.936316 0.267271
vt 0.378696 0.663119
vt 0.982573 0.347605
vt 0.936316 0.244978
vt 0.549580 0.967734
vt 0.961258 0.347428
vt 0.795323 0.981258
vt 0.930323 0.245823
vt 0.555427 0.967698
vt 0.817466 0.981280
vt 0.930323 0.268116
vt 0.384714 0.663152
vt 0.661842 0.348186
vt 0.378696 0.780377
vt 0.982573 0.464813
vt 0.661842 0.325894
vt 0.549581 0.850476
vt 0.961258 0.464635
vt 0.655848 0.326738
vt 0.795323 0.864040
vt 0.555427 0.850480
vt 0.655848 0.349031
vt 0.817466 0.864063
vt 0.384714 0.780370
vt 0.119164 0.823143
vt 0.598404 0.958859
vt 0.878250 0.834387
vt 0.017260 0.823143
vt 0.598404 0.864012
vt 0.294583 0.087358
vt 0.430850 0.087106
vt 0.119164 0.925047
vt 0.878250 0.735267
vt 0.017260 0.925047
vt 0.396330 0.089081
vt 0.530184 0.087614
vt 0.390902 0.381832
vt 0.700305 0.726456
vt 0.531311 0.417636
vt 0.961258 0.499333
vt 0.528740 0.380547
vt 0.289156 0.380110
vt 0.598404 0.726485
vt 0.430850 0.946420
vt 0.597954 0.419216
vt 0.961258 0.575385
vt 0.237129 0.381773
vt 0.830415 0.382319
vt 0.389342 0.465990
vt 0.532219 0.501842
vt 0.836729 0.829520
vt 0.287596 0.464268
vt 0.515060 0.946403
vt 0.734825 0.829520
vt 0.396330 0.628598
vt 0.920882 0.017260
vt 0.597954 0.661660
vt 0.250709 0.624544
vt 0.920882 0.169614
vt 0.831541 0.624752
vt 0.700305 0.829449
vt 0.430850 0.418700
vt 0.332765 0.675734
vt 0.598404 0.829478
vt 0.430850 0.850493
vt 0.332765 0.774854
vt 0.431757 0.502906
vt 0.836729 0.726456
vt 0.248553 0.675699
vt 0.515060 0.850476
vt 0.734825 0.726456
vt 0.248553 0.774819
vt 0.313933 0.823806
vt 0.871248 0.726456
vt 0.313933 0.945945
vt 0.871248 0.845425
vt 0.017260 0.659094
vt 0.344176 0.663163
vt 0.017260 0.788451
vt 0.344176 0.789162
vt 0.124258 0.659266
vt 0.237128 0.663118
vt 0.124258 0.788623
vt 0.237128 0.789118
vt 0.394625 0.181045
vt 0.529730 0.179635
vt 0.292878 0.179322
vt 0.259276 0.162393
vt 0.831541 0.162308
vt 0.433771 0.697223
vt 0.760803 0.864040
vt 0.947511 0.306928
vt 0.532150 0.696180
vt 0.368793 0.823682
vt 0.947511 0.207880
vt 0.463353 0.726858
vt 0.348453 0.853680
vt 0.531192 0.726139
vt 0.685185 0.548216
vt 0.655847 0.160969
vt 0.734825 0.548219
vt 0.871249 0.879976
vt 0.685363 0.417814
vt 0.756631 0.291374
vt 0.756576 0.017260
vt 0.685363 0.691929
vt 0.932423 0.974036
vt 0.666875 0.017260
vt 0.735812 0.691936
vt 0.932423 0.883729
vt 0.871249 0.970284
vt 0.735812 0.417822
vt 0.666930 0.291374
vt 0.769158 0.160230
vt 0.700155 0.548928
vt 0.676605 0.160230
vt 0.700305 0.439075
vt 0.761507 0.270085
vt 0.700305 0.669995
vt 0.761461 0.039166
vt 0.685894 0.039166
vt 0.685941 0.270085
vt 0.658626 0.417636
vt 0.897903 0.883723
vt 0.156231 0.387062
vt 0.165313 0.256657
vt 0.658448 0.548037
vt 0.556162 0.087556
vt 0.035957 0.479703
vt 0.804804 0.162130
vt 0.897903 0.974030
vt 0.761790 0.417636
vt 0.066530 0.387062
vt 0.623928 0.418750
vt 0.621327 0.383116
vt 0.202609 0.259704
vt 0.979929 0.594739
vt 0.979929 0.518686
vt 0.554718 0.380490
vt 0.555708 0.179577
vt 0.619799 0.163093
vt 0.187287 0.479703
vt 0.947537 0.021006
vt 0.623928 0.661195
vt 0.187194 0.017260
vt 0.947537 0.173360
vt 0.804804 0.624574
vt 0.035864 0.017260
vt 0.017260 0.259704
vt 0.803678 0.382140
vt 0.156176 0.112948
vt 0.658626 0.691750
vt 0.959052 0.970283
vt 0.066474 0.112948
vt 0.761790 0.691750
vt 0.959052 0.879976
vt 0.062435 0.506059
vt 0.734825 0.864110
vt 0.920882 0.310681
vt 0.160820 0.506059
vt 0.395530 0.823838
vt 0.920882 0.211633
vt 0.055447 0.256657
vt 0.760802 0.548033
vt 0.945980 0.936291
vt 0.885401 0.643116
vt 0.158778 0.954759
vt 0.944863 0.915722
vt 0.919921 0.347427
vt 0.866061 0.642922
vt 0.866061 0.312882
vt 0.952780 0.935766
vt 0.165466 0.954717
vt 0.886362 0.312908
vt 0.951664 0.915197
vt 0.926738 0.347467
vt 0.703181 0.325894
vt 0.885401 0.347622
vt 0.158778 0.659136
vt 0.703181 0.346493
vt 0.919921 0.643051
vt 0.866061 0.347428
vt 0.866061 0.017260
vt 0.696362 0.326050
vt 0.165466 0.659094
vt 0.886362 0.017286
vt 0.696362 0.346649
vt 0.926738 0.643091
vt 0.936316 0.267271
vt 0.378696 0.663119
vt 0.982573 0.347605
vt 0.936316 0.244978
vt 0.549580 0.967734
vt 0.961258 0.347428
vt 0.795323 0.981258
vt 0.930323 0.245823
vt 0.555427 0.967698
vt 0.817466 0.981280
vt 0.930323 0.268116
vt 0.384714 0.663152
s 0
usemtl Material.001
f 71/158/1 70/155/1 79/178/1 80/181/1
f 3/5/2 4/7/2 8/19/2 7/14/2
f 7/15/3 8/17/3 6/11/3 5/8/3
f 5/9/4 6/12/4 2/3/4 1/1/4
f 7/16/5 5/10/5 28/68/5 27/66/5
f 2/4/6 6/13/6 12/23/6 9/20/6
f 45/98/7 48/106/7 54/119/7 51/114/7
f 8/19/8 4/7/8 10/21/8 11/22/8
f 34/79/9 33/77/9 13/25/9 14/30/9
f 16/35/10 14/30/10 18/40/10 20/46/10
f 35/80/11 34/79/11 14/30/11 16/35/11
f 46/101/12 44/97/12 57/125/12 56/121/12
f 18/40/13 17/37/13 19/43/13 20/46/13
f 14/31/14 13/26/14 21/49/14 22/52/14
f 13/27/15 15/33/15 19/45/15 17/38/15
f 33/78/16 8/19/16 59/128/16 64/140/16
f 22/54/17 21/51/17 29/70/17 30/72/17
f 13/27/2 17/38/2 23/55/2 21/50/2
f 18/41/4 14/32/4 22/53/4 24/58/4
f 17/39/3 18/42/3 24/59/3 23/56/3
f 25/61/9 27/65/9 28/67/9 26/63/9
f 5/10/18 1/2/18 26/64/18 28/68/18
f 3/6/19 7/16/19 27/66/19 25/62/19
f 30/71/9 29/69/9 31/73/9 32/75/9
f 21/51/20 23/57/20 31/74/20 29/70/20
f 23/57/21 24/60/21 32/76/21 31/74/21
f 24/60/22 22/54/22 30/72/22 32/76/22
f 20/47/23 19/44/23 67/145/23 68/148/23
f 12/23/24 6/13/24 34/79/24 35/80/24
f 6/13/9 8/18/9 33/77/9 34/79/9
f 19/45/25 15/33/25 62/134/25 67/146/25
f 39/89/26 36/82/26 40/91/26 43/95/26
f 8/19/27 11/22/27 58/126/27 59/128/27
f 12/24/28 35/81/28 60/130/28 66/143/28
f 49/111/29 45/98/29 51/114/29 55/120/29
f 40/92/30 41/93/30 42/94/30 43/96/30
f 38/85/31 39/88/31 43/96/31 42/94/31
f 37/83/32 38/85/32 42/94/32 41/93/32
f 49/109/23 46/100/23 56/122/23 61/131/23
f 45/99/33 49/110/33 61/132/33 76/170/33
f 16/36/34 20/48/34 68/149/34 69/152/34
f 38/87/35 72/161/35 88/205/35 85/195/35
f 52/116/36 55/120/36 51/114/36 50/112/36
f 50/112/37 51/114/37 54/119/37 53/118/37
f 44/97/38 46/101/38 52/115/38 50/113/38
f 46/102/39 49/111/39 55/120/39 52/116/39
f 47/104/40 44/97/40 50/113/40 53/117/40
f 48/106/41 47/103/41 53/118/41 54/119/41
f 64/140/42 65/141/42 62/135/42 63/139/42
f 62/136/43 65/142/43 56/123/43 57/124/43
f 65/142/44 60/129/44 61/133/44 56/123/44
f 66/144/30 60/129/30 72/159/30 73/162/30
f 59/128/45 58/126/45 65/141/45 64/140/45
f 60/129/30 65/142/30 75/166/30 72/159/30
f 65/142/30 58/127/30 74/164/30 75/166/30
f 67/147/46 62/136/46 57/124/46 70/153/46
f 69/151/47 68/150/47 71/156/47 76/169/47
f 60/129/48 69/151/48 76/169/48 61/133/48
f 68/150/49 67/147/49 70/153/49 71/156/49
f 15/34/50 13/28/50 63/138/50 62/137/50
f 38/86/51 37/84/51 73/163/51 72/160/51
f 48/107/52 45/99/52 76/170/52 71/157/52
f 13/29/16 33/78/16 64/140/16 63/139/16
f 36/82/53 39/89/53 75/167/53 74/165/53
f 44/97/54 47/104/54 70/154/54 57/125/54
f 35/81/55 16/36/55 69/152/55 60/130/55
f 80/180/56 79/177/56 83/189/56 84/192/56
f 48/108/57 71/158/57 80/181/57 78/174/57
f 47/105/58 48/108/58 78/174/58 77/171/58
f 70/155/59 47/105/59 77/171/59 79/178/59
f 81/183/60 82/186/60 84/193/60 83/190/60
f 78/175/61 80/182/61 84/194/61 82/187/61
f 77/172/62 78/176/62 82/188/62 81/184/62
f 79/179/63 77/173/63 81/185/63 83/191/63
f 88/204/44 87/201/44 91/214/44 92/217/44
f 72/161/64 75/168/64 87/202/64 88/205/64
f 39/90/65 38/87/65 85/195/65 86/198/65
f 75/168/66 39/90/66 86/198/66 87/202/66
f 90/210/14 89/207/14 92/216/14 91/213/14
f 87/203/67 86/199/67 90/211/67 91/215/67
f 85/196/68 88/206/68 92/218/68 89/208/68
f 86/200/69 85/197/69 89/209/69 90/212/69
f 147/350/70 154/369/70 153/366/70 146/347/70
f 3/5/2 95/225/2 96/230/2 4/7/2
f 95/226/14 93/219/14 94/222/14 96/228/14
f 93/220/4 1/1/4 2/3/4 94/223/4
f 95/227/71 109/268/71 110/270/71 93/221/71
f 2/4/72 9/20/72 12/23/72 94/224/72
f 123/294/73 129/310/73 132/315/73 126/302/73
f 96/230/74 11/22/74 10/21/74 4/7/74
f 116/281/9 98/236/9 97/231/9 115/279/9
f 100/241/75 104/252/75 102/246/75 98/236/75
f 117/282/76 100/241/76 98/236/76 116/281/76
f 124/297/77 134/317/77 135/321/77 122/293/77
f 102/246/78 104/252/78 103/249/78 101/243/78
f 98/237/3 106/258/3 105/255/3 97/232/3
f 97/233/79 101/244/79 103/251/79 99/239/79
f 115/280/16 141/334/16 136/322/16 96/230/16
f 106/260/21 112/274/21 111/272/21 105/257/21
f 97/233/2 105/256/2 107/261/2 101/244/2
f 102/247/4 108/264/4 106/259/4 98/238/4
f 101/245/14 107/262/14 108/265/14 102/248/14
f 25/61/9 26/63/9 110/269/9 109/267/9
f 93/221/18 110/270/18 26/64/18 1/2/18
f 3/6/19 25/62/19 109/268/19 95/227/19
f 112/273/9 114/277/9 113/275/9 111/271/9
f 105/257/20 111/272/20 113/276/20 107/263/20
f 107/263/17 113/276/17 114/278/17 108/266/17
f 108/266/22 114/278/22 112/274/22 106/260/22
f 104/253/80 144/340/80 143/337/80 103/250/80
f 12/23/81 117/282/81 116/281/81 94/224/81
f 94/224/9 116/281/9 115/279/9 96/229/9
f 103/251/82 143/338/82 139/328/82 99/239/82
f 119/288/83 121/291/83 40/91/83 36/82/83
f 96/230/84 136/322/84 58/126/84 11/22/84
f 12/24/85 66/143/85 137/324/85 117/283/85
f 127/307/86 133/316/86 129/310/86 123/294/86
f 40/92/30 121/292/30 120/290/30 41/93/30
f 118/284/87 120/290/87 121/292/87 119/287/87
f 37/83/88 41/93/88 120/290/88 118/284/88
f 127/305/80 138/325/80 134/318/80 124/296/80
f 123/295/89 150/358/89 138/326/89 127/306/89
f 100/242/90 145/344/90 144/341/90 104/254/90
f 118/286/91 159/383/91 162/393/91 148/353/91
f 130/312/92 128/308/92 129/310/92 133/316/92
f 128/308/93 131/314/93 132/315/93 129/310/93
f 122/293/94 128/309/94 130/311/94 124/297/94
f 124/298/95 130/312/95 133/316/95 127/307/95
f 125/300/96 131/313/96 128/309/96 122/293/96
f 126/302/97 132/315/97 131/314/97 125/299/97
f 141/334/98 140/333/98 139/329/98 142/335/98
f 139/330/99 135/320/99 134/319/99 142/336/99
f 142/336/100 134/319/100 138/327/100 137/323/100
f 66/144/30 73/162/30 148/351/30 137/323/30
f 136/322/101 141/334/101 142/335/101 58/126/101
f 137/323/30 148/351/30 149/354/30 142/336/30
f 142/336/30 149/354/30 74/164/30 58/127/30
f 143/339/102 146/345/102 135/320/102 139/330/102
f 145/343/103 150/357/103 147/348/103 144/342/103
f 137/323/104 138/327/104 150/357/104 145/343/104
f 144/342/105 147/348/105 146/345/105 143/339/105
f 99/240/106 139/331/106 140/332/106 97/234/106
f 118/285/107 148/352/107 73/163/107 37/84/107
f 126/303/108 147/349/108 150/358/108 123/295/108
f 97/235/16 140/333/16 141/334/16 115/280/16
f 36/82/109 74/165/109 149/355/109 119/288/109
f 122/293/110 135/321/110 146/346/110 125/300/110
f 117/283/111 137/324/111 145/344/111 100/242/111
f 154/368/112 158/380/112 157/377/112 153/365/112
f 126/304/113 152/362/113 154/369/113 147/350/113
f 125/301/114 151/359/114 152/362/114 126/304/114
f 146/347/115 153/366/115 151/359/115 125/301/115
f 155/371/116 157/378/116 158/381/116 156/374/116
f 152/363/117 156/375/117 158/382/117 154/370/117
f 151/360/118 155/372/118 156/376/118 152/364/118
f 153/367/119 157/379/119 155/373/119 151/361/119
f 162/392/100 92/217/100 91/214/100 161/389/100
f 148/353/120 162/393/120 161/390/120 149/356/120
f 119/289/121 160/386/121 159/383/121 118/286/121
f 149/356/122 161/390/122 160/386/122 119/289/122
f 161/391/123 91/215/123 90/211/123 160/387/123
f 159/384/124 89/208/124 92/218/124 162/394/124
f 160/388/125 90/212/125 89/209/125 159/385/125
