# Blender 3.3.1
# www.blender.org
mtllib TinMine.mtl
o Icosphere
v 0.461506 0.567562 1.446917
v -1.134900 0.530683 0.824544
v -1.275970 0.586789 -0.920694
v 0.480307 0.592236 -1.519451
v 1.707201 0.625212 0.027499
v 0.000001 1.957423 0.000000
v 1.491632 -0.865589 0.484653
v 1.491632 -0.865589 -0.484653
v 0.000001 -0.865589 1.568392
v 0.921879 -0.865589 1.268856
v -1.782821 -0.861430 0.575547
v -0.978163 -0.864625 1.334127
v -0.921942 -0.869650 -1.274393
v -1.557880 -0.863316 -0.484789
v 0.921857 -0.866962 -1.270728
v -0.003288 -0.864771 -1.852082
v 1.263435 0.817715 0.923107
v -0.412281 0.722066 1.268848
v -1.378360 0.741244 0.000000
v -0.465090 0.787701 -1.415832
v 1.244615 0.810698 -0.904262
v 0.298214 1.727646 0.963552
v 0.848911 1.540624 0.000000
v -0.667072 1.514029 0.484651
v -0.722510 1.592383 -0.524929
v 0.270677 1.578074 -0.831667
v 1.446495 0.847045 0.201317
v 1.269290 0.923916 0.558953
v 1.103762 1.212589 0.190336
v 1.402288 0.938614 0.259573
v 1.300976 0.982562 0.464041
v 1.206340 1.147602 0.253295
v 0.161712 1.187413 1.160286
v 0.202802 0.895491 1.281919
v -0.017076 0.934370 1.237110
v 0.144519 1.144328 1.206835
v 0.173438 0.938878 1.292439
v 0.018691 0.966240 1.260903
v 0.892891 0.051525 1.227945
v 0.769469 0.353650 1.275682
v 0.984459 0.420714 1.135252
v 0.916437 0.152377 1.266621
v 0.846237 0.324220 1.293773
v 0.968519 0.362364 1.213900
v 0.533092 1.641147 -0.184043
v 0.247759 1.781240 -0.184043
v 0.338738 1.653734 -0.463580
v 0.501076 1.699418 -0.226921
v 0.309308 1.793572 -0.226921
v 0.370454 1.707878 -0.414793
v 0.741525 0.389794 -1.332307
v 0.896124 -0.013903 -1.245222
v 1.009130 0.466284 -1.116912
v 0.830689 0.345070 -1.323632
v 0.917711 0.117835 -1.274612
v 0.981321 0.388125 -1.202388
v -1.025274 0.382488 -1.103370
v -0.899814 -0.025133 -1.228713
v -0.737914 0.453687 -1.278837
v -0.994055 0.341922 -1.180299
v -0.918576 0.096690 -1.255708
v -0.821174 0.384757 -1.285863
v -0.859925 1.379652 -0.173730
v -0.842551 1.355097 0.142671
v -1.065467 1.112907 -0.009218
v -0.926841 1.363093 -0.091281
v -0.917928 1.350496 0.071035
v -1.032285 1.226252 -0.006885
v -0.883751 -0.176520 1.201476
v -0.931986 0.252873 1.044656
v -0.709606 0.311770 1.181386
v -0.906099 -0.070128 1.234347
v -0.939851 0.230337 1.124613
v -0.784242 0.271550 1.220289
v -1.446818 -0.128084 -0.473023
v -1.368468 0.274937 -0.594172
v -1.396924 0.317864 -0.338288
v -1.498471 0.011266 -0.480696
v -1.455687 0.231339 -0.546851
v -1.471226 0.254780 -0.407123
v -0.413035 1.393609 0.747646
v -0.050708 1.473792 0.927405
v -0.317397 1.096340 1.042000
v -0.368928 1.386778 0.845189
v -0.159905 1.433034 0.948891
v -0.313756 1.215285 1.015000
v 0.528201 1.196606 -0.997112
v 0.600995 0.854270 -1.235947
v 0.866404 0.930132 -1.022321
v 0.617437 1.135186 -1.081365
v 0.655710 0.955198 -1.206936
v 0.795252 0.995084 -1.094619
vn 0.4108 0.3993 0.8196
vn -0.5466 0.4938 0.6763
vn -0.8298 0.5279 -0.1808
vn 0.0296 0.5762 -0.8168
vn 0.7145 0.6632 -0.2227
vn 0.4259 0.8675 -0.2571
vn 0.5616 0.7465 -0.3568
vn 0.4040 0.5796 -0.7077
vn -0.1247 0.8868 -0.4451
vn -0.2024 0.6969 -0.6880
vn -0.5308 0.5469 -0.6474
vn -0.5027 0.8593 0.0943
vn -0.7607 0.6427 0.0916
vn -0.7880 0.4994 0.3602
vn -0.3529 0.8796 0.3190
vn -0.4667 0.5419 0.6989
vn -0.1230 0.3669 0.9221
vn 0.4394 0.8949 0.0774
vn 0.6701 0.6999 0.2472
vn 0.7105 0.6724 0.2075
vn 0.8972 0.0218 -0.4411
vn 0.8094 -0.0276 -0.5866
vn 0.6401 0.0466 -0.7669
vn -0.0566 0.2400 -0.9691
vn -0.5311 0.0744 -0.8440
vn -0.4962 0.0661 -0.8657
vn -0.9795 0.1501 -0.1341
vn -0.9640 0.1697 -0.2048
vn -0.8729 0.3444 0.3457
vn -0.5532 0.2302 0.8006
vn -0.2311 0.1221 0.9652
vn -0.1741 0.1387 0.9749
vn 0.5590 0.0587 0.8271
vn 0.8083 -0.0434 0.5872
vn 0.8965 0.0062 0.4429
vn 0.5320 0.0167 -0.8466
vn -0.7784 -0.0370 -0.6266
vn -0.6737 0.1856 0.7154
vn 0.3090 -0.0189 0.9509
vn 0.9897 -0.1431 -0.0000
vn -0.0006 -1.0000 0.0006
vn 0.1713 0.8115 0.5586
vn 0.6584 0.6038 -0.4494
vn 0.8967 0.1740 0.4069
vn -0.7372 0.6094 0.2918
vn -0.2491 -0.3841 0.8890
vn 0.7271 0.3487 0.5913
vn 0.9716 -0.2354 0.0223
vn 0.5271 0.0817 0.8459
vn 0.5066 0.0585 0.8602
vn 0.1549 0.7781 0.6087
vn -0.3188 -0.2736 0.9075
vn 0.8213 0.0321 -0.5696
vn -0.4857 0.7248 -0.4887
vn 0.3291 0.6703 0.6652
vn 0.9714 -0.1908 -0.1416
vn 0.6142 0.0656 -0.7864
vn 0.5961 0.0463 -0.8016
vn 0.3775 0.6190 -0.6888
vn -0.0132 -0.2157 -0.9764
vn 0.2275 -0.1771 -0.9575
vn -0.5356 0.0932 -0.8393
vn -0.5663 0.0655 -0.8216
vn -0.5027 0.6637 -0.5540
vn -0.9398 -0.2053 -0.2732
vn -0.6829 0.1854 0.7066
vn -0.7768 0.2394 -0.5824
vn -0.1403 0.9865 0.0843
vn 0.5196 -0.1507 0.8410
vn -0.3727 0.9021 0.2176
vn -0.9767 -0.1614 -0.1416
vn -0.5859 -0.1736 0.7916
vn -0.5219 0.8299 -0.1973
vn -0.3909 -0.1944 -0.8997
vn 0.1099 0.2168 0.9700
vn -0.9011 0.1220 0.4160
vn -0.3069 0.9297 0.2039
vn 0.6205 0.7791 0.0893
vn 0.6442 -0.1327 -0.7532
vn -0.4252 0.4553 -0.7822
vt 0.700466 0.518455
vt 0.967872 0.612831
vt 0.379856 0.114830
vt 0.797745 0.013531
vt 0.523083 0.351305
vt 0.771593 0.559919
vt 0.530095 0.154955
vt 0.131274 0.658782
vt 0.127205 0.426213
vt 0.161723 0.103719
vt 0.331570 0.228719
vt 0.906840 0.196956
vt 0.217549 0.283714
vt 0.019298 0.278246
vt 0.305660 0.485812
vt 0.113477 0.279690
vt 0.092099 0.368639
vt 0.967872 0.434118
vt 0.733445 0.689827
vt 0.077004 0.065151
vt 0.652505 0.689827
vt 0.013531 0.162324
vt 0.331894 0.286201
vt 0.695296 0.351305
vt 0.729974 0.378368
vt 0.317829 0.023837
vt 0.185817 0.013531
vt 0.855579 0.405391
vt 0.376490 0.261011
vt 0.704156 0.110249
vt 0.376490 0.139613
vt 0.701804 0.221967
vt 0.204272 0.399150
vt 0.305861 0.599162
vt 0.701757 0.013531
vt 0.305861 0.728348
vt 0.334210 0.383879
vt 0.572042 0.488384
vt 0.451813 0.208804
vt 0.281965 0.083804
vt 0.865169 0.605233
vt 0.731219 0.090525
vt 0.505596 0.263398
vt 0.736645 0.288320
vt 0.108342 0.735754
vt 0.504407 0.070253
vt 0.104938 0.541440
vt 0.986469 0.108145
vt 0.630304 0.378368
vt 0.891224 0.740000
vt 0.017989 0.505806
vt 0.497126 0.397490
vt 0.376897 0.117909
vt 0.986396 0.265829
vt 0.855972 0.099014
vt 0.771785 0.685100
vt 0.403553 0.176970
vt 0.792234 0.202192
vt 0.870390 0.288320
vt 0.013531 0.623522
vt 0.364721 0.202544
vt 0.369124 0.720363
vt 0.408614 0.630025
vt 0.472328 0.717844
vt 0.412737 0.194592
vt 0.456630 0.622073
vt 0.472328 0.764040
vt 0.382821 0.158296
vt 0.369124 0.666398
vt 0.376047 0.711888
vt 0.417495 0.619250
vt 0.479914 0.728443
vt 0.444946 0.614704
vt 0.479914 0.754854
vt 0.427843 0.593953
vt 0.376047 0.681036
vt 0.598928 0.598695
vt 0.897833 0.705316
vt 0.332924 0.743936
vt 0.946575 0.624625
vt 0.517598 0.635979
vt 0.332924 0.780802
vt 0.598928 0.630900
vt 0.881659 0.620309
vt 0.491754 0.634067
vt 0.594638 0.604023
vt 0.500490 0.662793
vt 0.337041 0.750624
vt 0.514064 0.640271
vt 0.337041 0.776570
vt 0.594638 0.626688
vt 0.495876 0.638925
vt 0.538012 0.707739
vt 0.331905 0.176251
vt 0.686899 0.754515
vt 0.344506 0.140131
vt 0.375096 0.779136
vt 0.686898 0.717844
vt 0.524369 0.663301
vt 0.318262 0.131813
vt 0.375096 0.747426
vt 0.541234 0.695864
vt 0.679090 0.744410
vt 0.548401 0.675319
vt 0.369124 0.774138
vt 0.679090 0.723552
vt 0.533474 0.670588
vt 0.369124 0.756102
vt 0.645295 0.757439
vt 0.950455 0.248549
vt 0.632842 0.621835
vt 0.908503 0.216190
vt 0.579133 0.660350
vt 0.632842 0.598695
vt 0.645295 0.717844
vt 0.888580 0.272175
vt 0.566881 0.691059
vt 0.652028 0.750903
vt 0.598579 0.676713
vt 0.625991 0.618334
vt 0.582979 0.668483
vt 0.625991 0.602783
vt 0.652028 0.724292
vt 0.574745 0.689122
vt 0.138785 0.641664
vt 0.576248 0.584199
vt 0.376047 0.639335
vt 0.271141 0.601873
vt 0.624539 0.563341
vt 0.376047 0.581805
vt 0.122748 0.558168
vt 0.567027 0.543114
vt 0.581564 0.575479
vt 0.369650 0.624316
vt 0.608746 0.563738
vt 0.369650 0.591932
vt 0.576374 0.552353
vt 0.543666 0.139165
vt 0.583487 0.717844
vt 0.470193 0.627714
vt 0.376060 0.554742
vt 0.630569 0.110349
vt 0.518927 0.611303
vt 0.376060 0.496359
vt 0.535517 0.081476
vt 0.583487 0.758769
vt 0.576699 0.723972
vt 0.475391 0.618052
vt 0.369650 0.541090
vt 0.504711 0.608178
vt 0.369650 0.505965
vt 0.469915 0.599993
vt 0.576699 0.748593
vt 0.794766 0.173059
vt 0.541825 0.759753
vt 0.487514 0.712181
vt 0.514762 0.760985
vt 0.830962 0.107326
vt 0.507489 0.679845
vt 0.514762 0.717844
vt 0.753697 0.104666
vt 0.541825 0.717844
vt 0.549636 0.750761
vt 0.485390 0.699559
vt 0.506976 0.751759
vt 0.495637 0.682970
vt 0.506976 0.729628
vt 0.475580 0.681606
vt 0.549636 0.729262
vt 0.340001 0.577537
vt 0.838412 0.487163
vt 0.341127 0.716873
vt 0.812566 0.534718
vt 0.459169 0.575420
vt 0.341127 0.663703
vt 0.340001 0.636640
vt 0.841363 0.548663
vt 0.459169 0.543436
vt 0.332924 0.589145
vt 0.352584 0.426213
vt 0.332924 0.706292
vt 0.332924 0.458584
vt 0.449954 0.572008
vt 0.332924 0.669086
vt 0.332924 0.630502
vt 0.352584 0.469296
vt 0.449954 0.549628
vt 0.342587 0.496359
vt 0.635196 0.215810
vt 0.583669 0.644245
vt 0.554077 0.176193
vt 0.411563 0.543436
vt 0.535947 0.625620
vt 0.342587 0.550475
vt 0.549176 0.237821
vt 0.411563 0.573834
vt 0.332924 0.510948
vt 0.567436 0.644334
vt 0.422891 0.549682
vt 0.541377 0.634164
vt 0.332924 0.540498
vt 0.537659 0.650621
vt 0.422891 0.566281
vt 0.801070 0.682306
vt 0.410564 0.673222
vt 0.412043 0.766947
vt 0.455396 0.693829
vt 0.878963 0.718542
vt 0.412043 0.717844
vt 0.855358 0.630687
vt 0.445616 0.643243
vt 0.420911 0.674293
vt 0.403553 0.757543
vt 0.446775 0.686181
vt 0.403553 0.729216
vt 0.441133 0.656998
vt 0.610550 0.756558
vt 0.040105 0.617121
vt 0.439106 0.717844
vt 0.113557 0.643755
vt 0.520726 0.589319
vt 0.439106 0.768462
vt 0.610550 0.717844
vt 0.099111 0.562111
vt 0.511581 0.548572
vt 0.618232 0.742899
vt 0.487128 0.575681
vt 0.445265 0.730792
vt 0.508625 0.582119
vt 0.445266 0.757406
vt 0.618232 0.722545
vt 0.503816 0.560695
s 0
usemtl Material.001
f 1/1/1 17/38/1 22/49/1
f 2/6/2 18/41/2 24/56/2
f 3/7/3 19/43/3 25/57/3
f 4/8/4 20/45/4 26/60/4
f 5/9/5 21/47/5 23/51/5
f 23/54/6 26/59/6 47/116/6 45/110/6
f 23/51/7 21/47/7 26/60/7
f 26/60/8 21/47/8 89/224/8 87/218/8
f 26/59/9 25/58/9 6/12/9
f 26/59/10 20/44/10 25/58/10
f 20/46/11 3/7/11 25/57/11
f 25/58/12 24/55/12 6/12/12
f 19/42/13 24/55/13 64/158/13 65/161/13
f 19/42/14 2/4/14 24/55/14
f 24/55/15 22/48/15 6/12/15
f 18/41/16 22/50/16 82/208/16 83/210/16
f 22/50/17 18/41/17 35/84/17 33/78/17
f 22/48/18 23/54/18 6/12/18
f 22/49/19 17/38/19 23/52/19
f 23/53/20 17/39/20 28/65/20 29/68/20
f 8/15/21 21/47/21 5/9/21
f 8/15/22 15/34/22 21/47/22
f 21/47/23 15/34/23 52/128/23 53/131/23
f 16/36/24 20/45/24 4/8/24
f 16/35/25 13/30/25 20/46/25
f 20/46/26 13/30/26 58/142/26 59/145/26
f 14/32/27 19/43/27 77/195/27 75/189/27
f 14/32/28 11/24/28 19/43/28
f 11/24/29 2/5/29 19/43/29
f 12/28/30 18/41/30 71/177/30 69/171/30
f 12/28/31 9/18/31 18/41/31
f 9/18/32 1/2/32 18/41/32
f 10/23/33 17/40/33 41/100/33 39/94/33
f 10/23/34 7/13/34 17/40/34
f 7/13/35 5/10/35 17/40/35
f 15/34/36 16/36/36 4/8/36
f 13/30/37 14/32/37 3/7/37
f 11/25/38 12/28/38 2/6/38
f 9/19/39 10/21/39 1/1/39
f 7/13/40 8/16/40 5/10/40
f 8/17/41 7/14/41 10/22/41 9/20/41 12/27/41 11/26/41 14/31/41 13/29/41 16/37/41 15/33/41
f 29/67/42 28/64/42 31/72/42 32/74/42
f 5/11/20 23/53/20 29/68/20 27/61/20
f 17/39/20 5/11/20 27/61/20 28/65/20
f 31/73/20 30/71/20 32/75/20
f 27/62/43 29/69/43 32/76/43 30/70/43
f 28/66/44 27/63/44 30/71/44 31/73/44
f 33/77/45 35/83/45 38/91/45 36/86/45
f 18/41/17 1/2/17 34/80/17 35/84/17
f 1/2/17 22/50/17 33/78/17 34/80/17
f 38/92/17 37/89/17 36/87/17
f 35/85/46 34/81/46 37/89/46 38/92/46
f 34/82/47 33/79/47 36/88/47 37/90/47
f 39/93/48 41/99/48 44/107/48 42/102/48
f 17/40/49 1/3/49 40/96/49 41/100/49
f 1/3/50 10/23/50 39/94/50 40/96/50
f 42/102/49 44/107/49 43/104/49
f 41/101/51 40/97/51 43/105/51 44/108/51
f 40/98/52 39/95/52 42/103/52 43/106/52
f 45/109/53 47/115/53 50/123/53 48/118/53
f 26/59/6 6/12/6 46/112/6 47/116/6
f 6/12/6 23/54/6 45/110/6 46/112/6
f 48/119/6 50/124/6 49/121/6
f 47/117/54 46/113/54 49/121/54 50/124/54
f 46/114/55 45/111/55 48/120/55 49/122/55
f 53/130/56 52/127/56 55/134/56 56/136/56
f 4/8/57 21/47/57 53/131/57 51/125/57
f 15/34/58 4/8/58 51/125/58 52/128/58
f 55/135/57 54/133/57 56/137/57
f 51/126/59 53/132/59 56/137/59 54/133/59
f 52/129/60 51/126/60 54/133/60 55/135/60
f 59/144/61 58/141/61 61/149/61 62/151/61
f 3/7/62 20/46/62 59/145/62 57/138/62
f 13/30/63 3/7/63 57/138/63 58/142/63
f 61/150/62 60/148/62 62/152/62
f 57/139/64 59/146/64 62/153/64 60/147/64
f 58/143/65 57/140/65 60/148/65 61/150/65
f 65/160/66 64/157/66 67/165/66 68/167/66
f 25/58/13 19/42/13 65/161/13 63/154/13
f 24/55/13 25/58/13 63/154/13 64/158/13
f 66/164/13 68/168/13 67/166/13
f 63/155/67 65/162/67 68/169/67 66/163/67
f 64/159/68 63/156/68 66/164/68 67/166/68
f 69/170/69 71/176/69 74/185/69 72/179/69
f 18/41/30 2/6/30 70/173/30 71/177/30
f 2/6/30 12/28/30 69/171/30 70/173/30
f 72/180/30 74/186/30 73/182/30
f 71/178/70 70/174/70 73/183/70 74/187/70
f 70/175/71 69/172/71 72/181/71 73/184/71
f 75/188/72 77/194/72 80/201/72 78/197/72
f 19/43/27 3/7/27 76/191/27 77/195/27
f 3/7/27 14/32/27 75/189/27 76/191/27
f 78/198/27 80/202/27 79/200/27
f 77/196/73 76/192/73 79/199/73 80/203/73
f 76/193/74 75/190/74 78/198/74 79/200/74
f 83/211/75 82/207/75 85/214/75 86/216/75
f 24/56/16 18/41/16 83/210/16 81/204/16
f 22/50/16 24/56/16 81/204/16 82/208/16
f 84/212/16 86/216/16 85/214/16
f 81/205/76 83/211/76 86/216/76 84/212/76
f 82/209/77 81/206/77 84/213/77 85/215/77
f 87/217/78 89/223/78 92/231/78 90/226/78
f 21/47/8 4/8/8 88/220/8 89/224/8
f 4/8/8 26/60/8 87/218/8 88/220/8
f 92/232/8 91/229/8 90/227/8
f 89/225/79 88/221/79 91/229/79 92/232/79
f 88/222/80 87/219/80 90/228/80 91/230/80
