# Blender 3.3.1
# www.blender.org
mtllib Workbench.mtl
o Cube
v -0.370944 0.714601 0.255516
v -0.310516 1.248327 0.195088
v -0.370944 0.714601 -0.159379
v -0.310516 1.248327 -0.098951
v 0.043951 0.714601 0.255516
v -0.016477 1.248327 0.195088
v 0.043951 0.714601 -0.159379
v -0.016477 1.248327 -0.098951
v -0.347550 0.477225 -0.135985
v -0.347550 0.477225 0.232122
v 0.020557 0.477225 -0.135985
v 0.020557 0.477225 0.232122
v -0.395499 0.426584 -0.183934
v -0.395499 0.426584 0.280071
v 0.068506 0.426584 -0.183934
v 0.068506 0.426584 0.280071
v -0.475429 1.351236 0.208144
v -0.475429 1.524913 0.208144
v -0.463093 1.351050 -0.890114
v -0.463093 1.525099 -0.890114
v 2.150308 1.347553 0.214600
v 2.150308 1.528596 0.214600
v 2.164519 1.347229 -0.864727
v 2.164519 1.528920 -0.864727
v -0.195901 1.360562 0.262785
v -0.195901 1.509808 0.262785
v 1.883986 1.509808 0.262785
v 1.883986 1.360562 0.262785
v 2.307945 1.524626 -0.750692
v 2.307945 1.374276 -0.750692
v 2.307945 1.374276 0.109366
v 2.307945 1.524626 0.109366
v -0.205037 1.514195 -0.933234
v -0.205037 1.361954 -0.933234
v 1.916594 1.361954 -0.933234
v 1.916594 1.514195 -0.933234
v -0.591053 1.360467 -0.780824
v -0.591053 1.360467 0.107061
v -0.591053 1.515682 0.107061
v -0.591053 1.515682 -0.780824
v -0.370944 0.714601 -0.499227
v -0.310516 1.248327 -0.559655
v -0.370944 0.714601 -0.914122
v -0.310516 1.248327 -0.853694
v 0.043951 0.714601 -0.499227
v -0.016477 1.248327 -0.559655
v 0.043951 0.714601 -0.914122
v -0.016477 1.248327 -0.853694
v -0.347550 0.477225 -0.890728
v -0.347550 0.477225 -0.522621
v 0.020557 0.477225 -0.890728
v 0.020557 0.477225 -0.522621
v -0.395499 0.426584 -0.938677
v -0.395499 0.426584 -0.474672
v 0.068506 0.426584 -0.938677
v 0.068506 0.426584 -0.474672
v 1.663581 0.714601 -0.499227
v 1.724009 1.248327 -0.559655
v 1.663581 0.714601 -0.914122
v 1.724009 1.248327 -0.853694
v 2.078476 0.714601 -0.499227
v 2.018048 1.248327 -0.559655
v 2.078476 0.714601 -0.914122
v 2.018048 1.248327 -0.853694
v 1.686975 0.477225 -0.890728
v 1.686975 0.477225 -0.522621
v 2.055082 0.477225 -0.890728
v 2.055082 0.477225 -0.522621
v 1.639025 0.426584 -0.938677
v 1.639025 0.426584 -0.474672
v 2.103031 0.426584 -0.938677
v 2.103031 0.426584 -0.474672
v 1.663581 0.714601 0.255516
v 1.724009 1.248327 0.195088
v 1.663581 0.714601 -0.159379
v 1.724009 1.248327 -0.098951
v 2.078476 0.714601 0.255516
v 2.018048 1.248327 0.195088
v 2.078476 0.714601 -0.159379
v 2.018048 1.248327 -0.098951
v 1.686975 0.477225 -0.135985
v 1.686975 0.477225 0.232122
v 2.055082 0.477225 -0.135985
v 2.055082 0.477225 0.232122
v 1.639025 0.426584 -0.183934
v 1.639025 0.426584 0.280071
v 2.103031 0.426584 -0.183934
v 2.103031 0.426584 0.280071
v -0.398668 1.186460 -0.180448
v -0.398668 1.381486 -0.180448
v -0.398668 1.186460 -0.477203
v -0.398668 1.381486 -0.477203
v 2.085925 1.186460 -0.180448
v 2.085925 1.381486 -0.180448
v 2.085925 1.186460 -0.477203
v 2.085925 1.381486 -0.477203
v -0.587457 1.226759 -0.450989
v -0.587457 1.226759 -0.234845
v -0.587457 1.368808 -0.234845
v -0.587457 1.368808 -0.450989
v 2.409211 1.362040 -0.437940
v 2.409211 1.230341 -0.437940
v 2.409211 1.230341 -0.237544
v 2.409211 1.362040 -0.237544
v 1.647807 1.186460 -0.477203
v 1.647807 1.381486 -0.477203
v 1.647807 1.186460 -0.180448
v 1.647807 1.381486 -0.180448
v 0.061214 1.186460 -0.477203
v 0.061214 1.381486 -0.180448
v 0.061214 1.381486 -0.477203
v 0.061214 1.186460 -0.180448
v -0.306060 1.255274 0.222420
v -0.306060 1.379525 0.222420
v -0.013069 1.379525 0.222420
v -0.013069 1.255274 0.222420
v 2.023139 1.372339 0.224248
v 2.023139 1.239909 0.224248
v 1.725639 1.239909 0.224248
v 1.725639 1.372339 0.224248
v -0.318143 1.366234 -0.878061
v -0.318143 1.234453 -0.878061
v -0.007396 1.234453 -0.878061
v -0.007396 1.366234 -0.878061
v 1.693253 1.382531 -0.881355
v 2.031916 1.382531 -0.881355
v 2.031916 1.231777 -0.881355
v 1.693253 1.231777 -0.881355
vn -0.9937 0.1125 -0.0000
vn -0.0000 0.1125 -0.9937
vn 0.9937 0.1125 -0.0000
vn -0.0000 0.1125 0.9937
vn -0.0000 -0.0981 0.9952
vn -0.0000 1.0000 -0.0000
vn 0.7261 0.6875 -0.0000
vn -0.0000 -0.0981 -0.9952
vn -0.9952 -0.0981 -0.0000
vn 0.9952 -0.0981 -0.0000
vn -0.0000 -1.0000 -0.0000
vn -0.7261 0.6875 -0.0000
vn -0.0000 0.6875 0.7261
vn -0.0000 0.6875 -0.7261
vn -0.0763 0.9971 -0.0004
vn 0.2663 -0.0000 -0.9639
vn 0.0274 0.9996 0.0004
vn -0.0011 -0.9772 0.2124
vn -0.0014 -1.0000 0.0002
vn -0.0014 1.0000 0.0002
vn -0.0000 -0.0000 1.0000
vn -0.0012 0.9497 0.3132
vn 0.1780 -0.0000 0.9840
vn -0.1918 -0.0000 0.9814
vn 1.0000 -0.0000 -0.0000
vn 0.6223 -0.0000 -0.7827
vn 0.5552 -0.0000 0.8317
vn 0.1758 -0.9844 0.0015
vn -0.0000 -0.0000 -1.0000
vn 0.0004 -0.9746 -0.2237
vn 0.0004 0.9746 -0.2237
vn -0.1648 -0.0000 -0.9863
vn -1.0000 -0.0000 -0.0000
vn -0.0763 -0.9971 -0.0004
vn -0.6495 -0.0000 -0.7604
vn -0.6582 -0.0000 0.7529
vn -0.0670 0.9978 -0.0000
vn 0.9912 -0.0000 -0.1325
vn 0.1206 -0.0000 -0.9927
vn -0.0000 -0.9857 0.1684
vn -0.2088 -0.9780 -0.0000
vn -0.1375 -0.0000 -0.9905
vn -0.2769 -0.0000 0.9609
vn 0.1739 -0.0000 0.9848
vn 0.1345 -0.9909 -0.0000
vn 0.0600 0.9982 -0.0000
vn 0.9882 -0.0000 0.1533
vn -0.0000 -0.9929 -0.1189
vn -0.0000 1.0000 0.0049
vn -0.9746 -0.0000 0.2240
vn 0.9834 -0.0000 0.1813
vn -0.0000 0.9997 0.0226
vn -0.9820 -0.0000 0.1889
vn -0.0000 -0.9914 0.1309
vn 0.9857 -0.0000 -0.1687
vn -0.0000 0.9993 -0.0380
vn -0.9804 -0.0000 -0.1969
vn -0.0000 -0.9938 -0.1114
vn -0.9937 -0.0000 -0.1117
vn -0.0000 1.0000 0.0026
vt 0.800174 0.799309
vt 0.257113 0.722395
vt 0.293819 0.731397
vt 0.836871 0.790307
vt 0.732759 0.885749
vt 0.148823 0.812229
vt 0.257113 0.784654
vt 0.293819 0.775519
vt 0.185516 0.821665
vt 0.732759 0.841625
vt 0.800174 0.737051
vt 0.385722 0.672710
vt 0.422428 0.663663
vt 0.836871 0.746184
vt 0.688634 0.885749
vt 0.148823 0.874432
vt 0.385722 0.610450
vt 0.185516 0.865749
vt 0.422428 0.619539
vt 0.688634 0.841625
vt 0.132557 0.815892
vt 0.240853 0.781116
vt 0.639128 0.575592
vt 0.783910 0.795826
vt 0.240853 0.725878
vt 0.583889 0.575592
vt 0.132557 0.871080
vt 0.369462 0.613969
vt 0.639128 0.520353
vt 0.783910 0.740589
vt 0.369462 0.669208
vt 0.583889 0.520353
vt 0.758264 0.513160
vt 0.646319 0.582790
vt 0.688634 0.513160
vt 0.576689 0.582790
vt 0.758264 0.582790
vt 0.646319 0.513160
vt 0.688634 0.582790
vt 0.576689 0.513160
vt 0.251151 0.038508
vt 0.881433 0.915857
vt 0.192434 0.038509
vt 0.893352 0.915857
vt 0.415959 0.040360
vt 0.881551 0.039641
vt 0.027627 0.040360
vt 0.893496 0.039641
vt 0.881195 0.521836
vt 0.250183 0.432532
vt 0.193403 0.432534
vt 0.893619 0.521836
vt 0.881195 0.433748
vt 0.412149 0.434665
vt 0.893664 0.433748
vt 0.031437 0.434666
vt 0.242951 0.080455
vt 0.882013 0.873851
vt 0.200635 0.080455
vt 0.892256 0.873851
vt 0.200635 0.392567
vt 0.892273 0.561747
vt 0.242951 0.392568
vt 0.882031 0.561747
vt 0.048550 0.456188
vt 0.946253 0.498299
vt 0.893485 0.455983
vt 0.935935 0.498299
vt 0.883167 0.455983
vt 0.395034 0.456189
vt 0.935935 0.627361
vt 0.883150 0.498300
vt 0.265972 0.456189
vt 0.177612 0.456189
vt 0.946253 0.627360
vt 0.893468 0.498300
vt 0.021158 0.079084
vt 0.892689 0.078053
vt 0.422428 0.079085
vt 0.882241 0.078053
vt 0.882143 0.396138
vt 0.422428 0.397461
vt 0.892591 0.396138
vt 0.021158 0.397461
vt 0.800580 0.646395
vt 0.399557 0.021158
vt 0.882321 0.021158
vt 0.800580 0.513160
vt 0.266319 0.021158
vt 0.882180 0.933320
vt 0.177267 0.021158
vt 0.811232 0.513161
vt 0.892832 0.933320
vt 0.044029 0.021158
vt 0.811232 0.646395
vt 0.892973 0.021158
vt 0.725331 0.737051
vt 0.406168 0.777284
vt 0.369462 0.768282
vt 0.688634 0.746054
vt 0.819198 0.841625
vt 0.257118 0.826969
vt 0.406168 0.715025
vt 0.369462 0.724160
vt 0.293811 0.836406
vt 0.775074 0.841625
vt 0.725331 0.799309
vt 0.148817 0.665340
vt 0.185523 0.656293
vt 0.688634 0.790177
vt 0.819198 0.885749
vt 0.257118 0.889172
vt 0.148817 0.603080
vt 0.293811 0.880489
vt 0.185523 0.612169
vt 0.775074 0.885749
vt 0.240853 0.830632
vt 0.422428 0.718564
vt 0.527182 0.687537
vt 0.741595 0.740535
vt 0.422428 0.773801
vt 0.471943 0.687537
vt 0.240853 0.885820
vt 0.132557 0.606599
vt 0.527182 0.632298
vt 0.741595 0.795772
vt 0.132557 0.661838
vt 0.471943 0.632298
vt 0.758264 0.625106
vt 0.534373 0.694736
vt 0.688634 0.625106
vt 0.464744 0.694736
vt 0.758264 0.694736
vt 0.534373 0.625106
vt 0.688634 0.694736
vt 0.464744 0.625106
vt 0.037422 0.841160
vt 0.169263 0.769913
vt 0.132557 0.760912
vt 0.074118 0.832158
vt 0.464743 0.885749
vt 0.609618 0.834255
vt 0.169263 0.707655
vt 0.132557 0.716789
vt 0.646311 0.843691
vt 0.508868 0.885749
vt 0.037422 0.778902
vt 0.169263 0.498504
vt 0.132557 0.507551
vt 0.074118 0.788034
vt 0.464743 0.841625
vt 0.609618 0.896458
vt 0.169263 0.560764
vt 0.646311 0.887775
vt 0.132557 0.551675
vt 0.508868 0.841625
vt 0.593353 0.837918
vt 0.185523 0.711193
vt 0.359989 0.505703
vt 0.021158 0.837677
vt 0.185523 0.766430
vt 0.415228 0.505703
vt 0.593353 0.893106
vt 0.185523 0.557245
vt 0.359989 0.560942
vt 0.021158 0.782439
vt 0.185523 0.502006
vt 0.415228 0.560942
vt 0.240853 0.568134
vt 0.352798 0.498505
vt 0.310483 0.568134
vt 0.422428 0.498505
vt 0.240853 0.498505
vt 0.352798 0.568134
vt 0.310483 0.498505
vt 0.422428 0.568134
vt 0.481007 0.799310
vt 0.609613 0.729681
vt 0.646319 0.738683
vt 0.517704 0.790308
vt 0.065282 0.883476
vt 0.385727 0.819600
vt 0.609613 0.791939
vt 0.646319 0.782805
vt 0.422421 0.829035
vt 0.021158 0.883476
vt 0.481007 0.737052
vt 0.609613 0.687366
vt 0.646319 0.678319
vt 0.517704 0.746184
vt 0.065282 0.927600
vt 0.385727 0.881802
vt 0.609613 0.625106
vt 0.422421 0.873119
vt 0.646319 0.634195
vt 0.021158 0.927600
vt 0.369462 0.823262
vt 0.593353 0.788401
vt 0.471935 0.520358
vt 0.464744 0.795827
vt 0.593353 0.733164
vt 0.527174 0.520358
vt 0.369462 0.878450
vt 0.593353 0.628625
vt 0.471935 0.575598
vt 0.464744 0.740589
vt 0.593353 0.683864
vt 0.527174 0.575598
vt 0.310483 0.610450
vt 0.464744 0.513161
vt 0.240853 0.610450
vt 0.534373 0.513161
vt 0.310483 0.680080
vt 0.464744 0.582790
vt 0.240853 0.680080
vt 0.534373 0.582790
vt 0.804265 0.956455
vt 0.569919 0.442516
vt 0.935979 0.184657
vt 0.790881 0.956455
vt 0.733700 0.442513
vt 0.949363 0.184657
vt 0.240853 0.959624
vt 0.525387 0.442516
vt 0.145941 0.976808
vt 0.254237 0.959624
vt 0.778232 0.442513
vt 0.132557 0.976808
vt 0.464744 0.976513
vt 0.949319 0.833561
vt 0.569919 0.069673
vt 0.478128 0.976513
vt 0.935935 0.833561
vt 0.733700 0.069670
vt 0.935935 0.936537
vt 0.382846 0.972838
vt 0.525387 0.069673
vt 0.949319 0.936505
vt 0.369462 0.972838
vt 0.778231 0.069670
vt 0.306301 0.931489
vt 0.529325 0.470844
vt 0.243656 0.931488
vt 0.306301 0.963923
vt 0.561760 0.470844
vt 0.801440 0.928065
vt 0.741862 0.470844
vt 0.296553 0.963922
vt 0.791691 0.928065
vt 0.774297 0.470844
vt 0.296553 0.931488
vt 0.253404 0.931488
vt 0.370769 0.924118
vt 0.593353 0.968846
vt 0.772338 0.021158
vt 0.379807 0.924118
vt 0.602391 0.968846
vt 0.531283 0.021158
vt 0.602391 0.938774
vt 0.467822 0.928065
vt 0.561355 0.021158
vt 0.593353 0.938774
vt 0.476861 0.928065
vt 0.742266 0.021158
vt 0.076858 0.736378
vt 0.525387 0.135418
vt 0.935979 0.021158
vt 0.090242 0.736374
vt 0.949363 0.021188
vt 0.778231 0.135415
vt 0.021158 0.498505
vt 0.935935 0.730493
vt 0.569919 0.135418
vt 0.034542 0.498505
vt 0.733700 0.135415
vt 0.949319 0.730493
vt 0.076858 0.498508
vt 0.525387 0.373506
vt 0.935979 0.389899
vt 0.034542 0.736586
vt 0.733700 0.373503
vt 0.935980 0.287455
vt 0.090242 0.498504
vt 0.949363 0.389899
vt 0.778232 0.373503
vt 0.569919 0.373506
vt 0.021158 0.736587
vt 0.949363 0.287455
vt 0.630381 0.428617
vt 0.740038 0.972031
vt 0.940818 0.124098
vt 0.748565 0.972031
vt 0.673244 0.428617
vt 0.949345 0.124098
vt 0.748565 0.928065
vt 0.673244 0.384649
vt 0.936019 0.226972
vt 0.630381 0.384649
vt 0.740038 0.928066
vt 0.944546 0.226972
vt 0.936483 0.772809
vt 0.697723 0.928065
vt 0.672969 0.079092
vt 0.945571 0.772809
vt 0.688634 0.928065
vt 0.630654 0.079092
vt 0.688634 0.972708
vt 0.939700 0.669677
vt 0.630654 0.123736
vt 0.697723 0.972707
vt 0.672969 0.123735
vt 0.948788 0.669677
vt 0.188257 0.963339
vt 0.838384 0.430430
vt 0.133496 0.916748
vt 0.465238 0.430430
vt 0.197301 0.963337
vt 0.142539 0.916748
vt 0.465238 0.383800
vt 0.197301 0.916748
vt 0.939363 0.329770
vt 0.188257 0.916751
vt 0.948407 0.329770
vt 0.838384 0.383800
vt 0.530789 0.928065
vt 0.949363 0.081782
vt 0.838879 0.128595
vt 0.949319 0.875877
vt 0.530789 0.978839
vt 0.838879 0.077774
vt 0.938973 0.875901
vt 0.520443 0.978842
vt 0.464744 0.077775
vt 0.520443 0.928068
vt 0.464744 0.128596
vt 0.939018 0.081759
s 0
usemtl Material.004
f 1/2/1 2/3/1 4/8/1 3/7/1
f 3/6/2 4/9/2 8/18/2 7/16/2
f 7/17/3 8/19/3 6/13/3 5/12/3
f 5/11/4 6/14/4 2/4/4 1/1/4
f 5/11/5 1/1/5 10/24/5 12/30/5
f 8/20/6 4/10/6 2/5/6 6/15/6
f 11/29/7 12/32/7 16/40/7 15/38/7
f 3/6/8 7/16/8 11/27/8 9/21/8
f 1/2/9 3/7/9 9/22/9 10/25/9
f 7/17/10 5/12/10 12/31/10 11/28/10
f 13/33/11 15/37/11 16/39/11 14/35/11
f 10/26/12 9/23/12 13/34/12 14/36/12
f 12/32/13 10/26/13 14/36/13 16/40/13
f 9/23/14 11/29/14 15/38/14 13/34/14
f 18/43/15 20/47/15 40/94/15 39/91/15
f 24/55/16 23/53/16 35/81/16 36/83/16
f 24/56/17 22/51/17 32/74/17 29/65/17
f 17/41/18 21/50/18 28/63/18 25/57/18
f 19/45/19 23/54/19 21/50/19 17/41/19
f 24/56/20 20/47/20 18/43/20 22/51/20
f 28/64/21 27/62/21 26/60/21 25/58/21
f 22/51/22 18/43/22 26/59/22 27/61/22
f 21/49/23 22/52/23 27/62/23 28/64/23
f 18/44/24 17/42/24 25/58/24 26/60/24
f 30/68/25 29/66/25 32/75/25 31/71/25
f 23/53/26 24/55/26 29/67/26 30/69/26
f 22/52/27 21/49/27 31/72/27 32/76/27
f 21/50/28 23/54/28 30/70/28 31/73/28
f 34/80/29 33/78/29 36/83/29 35/81/29
f 23/54/30 19/45/30 34/79/30 35/82/30
f 20/47/31 24/56/31 36/84/31 33/77/31
f 19/46/32 20/48/32 33/78/32 34/80/32
f 38/88/33 39/92/33 40/95/33 37/85/33
f 19/45/34 17/41/34 38/89/34 37/86/34
f 20/48/35 19/46/35 37/87/35 40/96/35
f 17/42/36 18/44/36 39/93/36 38/90/36
f 41/98/1 42/99/1 44/104/1 43/103/1
f 43/102/2 44/105/2 48/114/2 47/112/2
f 47/113/3 48/115/3 46/109/3 45/108/3
f 45/107/4 46/110/4 42/100/4 41/97/4
f 45/107/5 41/97/5 50/120/5 52/126/5
f 48/116/6 44/106/6 42/101/6 46/111/6
f 51/125/7 52/128/7 56/136/7 55/134/7
f 43/102/8 47/112/8 51/123/8 49/117/8
f 41/98/9 43/103/9 49/118/9 50/121/9
f 47/113/10 45/108/10 52/127/10 51/124/10
f 53/129/11 55/133/11 56/135/11 54/131/11
f 50/122/12 49/119/12 53/130/12 54/132/12
f 52/128/13 50/122/13 54/132/13 56/136/13
f 49/119/14 51/125/14 55/134/14 53/130/14
f 57/138/1 58/139/1 60/144/1 59/143/1
f 59/142/2 60/145/2 64/154/2 63/152/2
f 63/153/3 64/155/3 62/149/3 61/148/3
f 61/147/4 62/150/4 58/140/4 57/137/4
f 61/147/5 57/137/5 66/160/5 68/166/5
f 64/156/6 60/146/6 58/141/6 62/151/6
f 67/165/7 68/168/7 72/176/7 71/174/7
f 59/142/8 63/152/8 67/163/8 65/157/8
f 57/138/9 59/143/9 65/158/9 66/161/9
f 63/153/10 61/148/10 68/167/10 67/164/10
f 69/169/11 71/173/11 72/175/11 70/171/11
f 66/162/12 65/159/12 69/170/12 70/172/12
f 68/168/13 66/162/13 70/172/13 72/176/13
f 65/159/14 67/165/14 71/174/14 69/170/14
f 73/178/1 74/179/1 76/184/1 75/183/1
f 75/182/2 76/185/2 80/194/2 79/192/2
f 79/193/3 80/195/3 78/189/3 77/188/3
f 77/187/4 78/190/4 74/180/4 73/177/4
f 77/187/5 73/177/5 82/200/5 84/206/5
f 80/196/6 76/186/6 74/181/6 78/191/6
f 83/205/7 84/208/7 88/216/7 87/214/7
f 75/182/8 79/192/8 83/203/8 81/197/8
f 73/178/9 75/183/9 81/198/9 82/201/9
f 79/193/10 77/188/10 84/207/10 83/204/10
f 85/209/11 87/213/11 88/215/11 86/211/11
f 82/202/12 81/199/12 85/210/12 86/212/12
f 84/208/13 82/202/13 86/212/13 88/216/13
f 81/199/14 83/205/14 87/214/14 85/210/14
f 90/221/37 92/227/37 100/250/37 99/247/37
f 96/238/38 95/235/38 127/331/38 126/328/38
f 95/236/39 96/239/39 101/253/39 102/256/39
f 89/218/40 112/286/40 116/298/40 113/289/40
f 105/266/11 95/237/11 93/231/11 107/273/11
f 111/285/6 92/227/6 90/221/6 110/281/6
f 98/244/33 99/248/33 100/251/33 97/241/33
f 91/224/41 89/218/41 98/245/41 97/242/41
f 92/226/42 91/223/42 97/243/42 100/252/42
f 89/217/43 90/220/43 99/249/43 98/246/43
f 102/257/25 101/254/25 104/262/25 103/259/25
f 94/232/44 93/229/44 103/260/44 104/263/44
f 93/231/45 95/237/45 102/258/45 103/261/45
f 96/240/46 94/234/46 104/264/46 101/255/46
f 96/240/6 106/270/6 108/275/6 94/234/6
f 109/278/11 105/266/11 107/273/11 112/286/11
f 93/230/47 94/233/47 117/301/47 118/304/47
f 109/277/29 111/283/29 106/268/29 105/265/29
f 109/278/48 91/224/48 122/316/48 123/319/48
f 91/224/11 109/278/11 112/286/11 89/218/11
f 106/270/6 111/285/6 110/281/6 108/275/6
f 107/271/21 108/274/21 110/280/21 112/287/21
f 116/299/21 115/295/21 114/292/21 113/290/21
f 110/281/49 90/221/49 114/293/49 115/296/49
f 90/222/50 89/219/50 113/291/50 114/294/50
f 112/288/51 110/282/51 115/297/51 116/300/51
f 118/305/21 117/302/21 120/310/21 119/307/21
f 94/234/52 108/275/52 120/311/52 117/303/52
f 108/276/53 107/272/53 119/308/53 120/312/53
f 107/273/54 93/231/54 118/306/54 119/309/54
f 122/317/29 121/313/29 124/322/29 123/320/29
f 111/284/55 109/279/55 123/321/55 124/323/55
f 92/227/56 111/285/56 124/324/56 121/314/56
f 91/225/57 92/228/57 121/315/57 122/318/57
f 128/334/29 125/325/29 126/329/29 127/332/29
f 95/237/58 105/266/58 128/335/58 127/333/58
f 105/267/59 106/269/59 125/326/59 128/336/59
f 106/270/60 96/240/60 126/330/60 125/327/60
